<svg width="865" height="732" viewBox="0 0 865 732" fill="none" xmlns="http://www.w3.org/2000/svg">
<path d="M825.948 214.753C821.038 214.753 816.356 215.696 812.031 217.355L766.638 157.949C769.174 153.622 770.67 148.58 770.67 143.179C770.67 127.01 757.566 113.899 741.405 113.899C733.732 113.899 726.806 116.86 721.57 121.675L558.989 54.2656C559.184 52.4763 559.314 50.6544 559.314 48.8C559.314 21.8624 537.463 0 510.539 0C483.713 0 461.927 21.6997 461.765 48.5072L200.658 121.349C194.123 112.858 183.88 107.36 172.337 107.36C152.567 107.36 136.569 123.366 136.569 143.147C136.569 151.117 139.202 158.47 143.625 164.423L53.9771 292.898C53.3268 292.833 52.6765 292.8 52.0262 292.8C39.4423 292.8 29.2647 302.983 29.2647 315.573C29.2647 321.917 31.866 327.643 36.0281 331.775L16.4858 454.068C6.86095 457.874 0 467.276 0 478.273C0 492.652 11.6409 504.299 26.0131 504.299C29.7525 504.299 33.3293 503.486 36.5484 502.054L91.4685 549.13C91.2084 550.399 91.0783 551.733 91.0783 553.067C91.0783 563.835 99.8252 572.587 110.588 572.587C112.442 572.587 114.197 572.326 115.888 571.838L191.944 653.367C191.944 653.562 191.879 653.725 191.879 653.92C191.879 662.899 199.163 670.187 208.137 670.187C216.396 670.187 223.16 663.973 224.2 656.002L302.597 615.596C303.8 616.279 305.068 616.832 306.402 617.255L322.042 693.253C317.977 697.352 315.474 703.013 315.474 709.227C315.474 721.817 325.651 732 338.235 732C350.819 732 360.997 721.817 360.997 709.227C360.997 704.705 359.663 700.508 357.387 696.962L438.711 574.929C440.889 575.515 443.165 575.873 445.539 575.873C455.944 575.873 464.919 569.756 469.048 560.907L555.217 554.889C559.704 565.299 570.044 572.619 582.108 572.619C598.268 572.619 611.372 559.508 611.372 543.339C611.372 541.127 611.112 538.98 610.625 536.898L683.884 492.913C683.949 492.88 683.981 492.815 684.047 492.782C684.144 492.717 684.242 492.685 684.339 492.62L740.235 455.337C746.088 459.501 753.209 462.006 760.948 462.006C780.718 462.006 796.716 445.999 796.716 426.219C796.716 414.247 790.83 403.706 781.823 397.199L821.298 292.54C822.826 292.735 824.387 292.833 825.98 292.833C847.539 292.833 865 275.362 865 253.793C865 232.223 847.506 214.753 825.948 214.753ZM671.918 473.555L604.999 513.734L638.556 452.148C639.239 452.213 639.922 452.246 640.605 452.246C651.368 452.246 660.114 443.494 660.114 432.726C660.114 429.57 659.367 426.61 658.033 424.007L745.275 339.681L748.917 392.547C735.065 397.492 725.147 410.668 725.147 426.219C725.147 429.961 725.732 433.539 726.773 436.923L671.918 473.555ZM209.763 637.849C209.34 637.816 208.918 637.718 208.462 637.718L131.594 555.311L201.536 517.801C205.568 519.59 209.991 520.566 214.673 520.566C221.371 520.566 227.582 518.549 232.752 515.068L298.045 585.242C295.541 587.877 293.785 591.196 293.07 594.905L209.763 637.849ZM39.2798 455.89L58.2043 337.533C60.5454 336.883 62.7566 335.874 64.7401 334.54L122.489 396.614C121.123 399.151 120.343 402.014 120.343 405.105C120.343 410.506 122.749 415.353 126.554 418.639L110.263 533.644C109.645 533.644 109.06 533.677 108.442 533.742L51.2458 484.682C51.766 482.632 52.0587 480.517 52.0587 478.305C52.0587 468.74 46.9211 460.444 39.2798 455.89ZM481.275 181.894C482.965 183.618 484.884 185.05 487.03 186.156L464.301 346.285C457.082 349.148 452.01 356.175 452.01 364.406C452.01 364.569 452.042 364.764 452.042 364.926L375.759 405.853C371.597 400.453 365.094 396.939 357.712 396.939C356.509 396.939 355.339 397.069 354.201 397.232L264.26 260.657C265.724 257.697 266.602 254.378 266.634 250.832L481.275 181.894ZM791.611 272.337L759.127 303.731L750.185 173.891L794.082 231.345C789.595 237.689 786.928 245.431 786.928 253.825C786.928 260.527 788.619 266.806 791.611 272.337ZM726.773 168.523C728.919 169.759 731.228 170.735 733.667 171.418L743.812 318.501L645.189 413.792C643.726 413.434 642.165 413.206 640.572 413.206C639.954 413.206 639.304 413.238 638.719 413.303L594.366 329.693C600.772 323.739 604.837 315.281 604.837 305.846C604.837 300.12 603.341 294.719 600.74 290.035L726.773 168.523ZM539.804 305.846C539.804 309.685 540.519 313.361 541.722 316.81L482.738 348.465C482.055 347.977 481.34 347.554 480.624 347.163L502.703 191.589L550.534 281.771C543.966 287.725 539.804 296.281 539.804 305.846ZM439.003 524.698C438.743 524.763 438.483 524.828 438.223 524.893L376.962 431.848C378.816 428.919 380.019 425.503 380.344 421.86L459.163 379.566C459.294 379.664 459.391 379.729 459.521 379.827L439.003 524.698ZM244.848 476.093C240.068 464.055 228.362 455.532 214.64 455.532C210.121 455.532 205.829 456.443 201.927 458.134L155.786 408.521C156.013 407.415 156.111 406.276 156.111 405.105C156.111 398.436 152.469 392.645 147.071 389.554L159.525 301.617C168.76 298.786 175.491 290.262 175.588 280.112L225.566 264.041C229.696 269.669 236.361 273.313 243.873 273.313C246.767 273.313 249.53 272.759 252.099 271.751L340.056 405.333C336.869 409.269 334.951 414.247 334.951 419.713C334.951 422.283 335.406 424.755 336.187 427.065L244.848 476.093ZM125.773 539.988L142.422 422.478C143.495 422.218 144.568 421.86 145.543 421.404L188.985 468.09C184.693 473.588 182.124 480.517 182.124 488.033C182.124 494.93 184.303 501.339 187.977 506.609L125.773 539.988ZM74.5925 312.58L134.52 293.321C136.764 296.379 139.788 298.851 143.267 300.478L131.626 382.592L74.1698 320.844C74.56 319.152 74.7876 317.428 74.7876 315.606C74.8201 314.597 74.7226 313.556 74.5925 312.58ZM221.241 248.359L169.93 264.854C168.565 263.292 167.004 261.926 165.281 260.82L176.921 178.673C181.019 178.153 184.92 176.916 188.465 175.127L227.647 234.598C224.103 238.242 221.762 243.024 221.241 248.359ZM149.38 257.339C139.17 258.9 131.203 267.229 130.195 277.607L81.551 293.255L160.273 180.43L149.38 257.339ZM328.09 609.935C330.366 606.747 331.699 602.875 331.699 598.646C331.699 588.723 324.286 580.557 314.726 579.321L243.58 502.868C245.043 500.005 246.084 496.882 246.669 493.596L346.949 439.786C350.169 441.51 353.843 442.486 357.745 442.486C359.923 442.486 362.005 442.161 363.988 441.607L424.891 534.1C421.542 538.492 419.559 543.925 419.559 549.846C419.559 553.359 420.274 556.678 421.509 559.736L342.3 678.645L328.09 609.935ZM455.294 525.739L475.454 383.535C484.331 381.714 491.029 373.841 491.029 364.406C491.029 363.755 490.997 363.137 490.932 362.519L550.925 330.311C556.647 335.321 564.094 338.379 572.288 338.379C574.954 338.379 577.555 338.021 580.027 337.403L624.639 421.469C622.396 424.658 621.062 428.529 621.062 432.726C621.062 436.858 622.363 440.664 624.542 443.82L586.075 514.385C584.742 514.189 583.408 514.092 582.043 514.092C569.882 514.092 559.444 521.542 555.022 532.115L468.658 538.134C465.862 532.538 461.114 528.114 455.294 525.739ZM760.557 324.943L798.569 288.213L764.297 379.078L760.557 324.943ZM712.173 142.463C712.173 142.724 712.141 142.951 712.141 143.212C712.141 148.124 713.376 152.744 715.522 156.843L589.521 278.323C584.514 275.199 578.661 273.378 572.32 273.378C569.784 273.378 567.313 273.703 564.939 274.256L515.157 180.43C518.376 176.493 520.294 171.483 520.294 166.018C520.294 157.657 515.807 150.402 509.109 146.433L516.067 97.3723C530.764 95.7131 543.446 87.5472 551.217 75.8027L712.173 142.463ZM467 70.7275C473.471 83.5781 485.404 93.1429 499.776 96.3963L493.078 143.635C482.64 145.717 474.771 154.924 474.771 165.953C474.771 166.245 474.804 166.571 474.804 166.863L261.009 235.574C256.847 230.791 250.734 227.766 243.905 227.766C243.482 227.766 243.092 227.798 242.67 227.831L201.016 164.554C205.471 158.6 208.137 151.215 208.137 143.179C208.137 143.114 208.137 143.017 208.137 142.951L467 70.7275Z" fill="#00013E" fill-opacity="0.2"/>
</svg>
