<svg width="380" height="330" viewBox="0 0 380 330" fill="none" xmlns="http://www.w3.org/2000/svg">
<g clip-path="url(#clip0)">
<path d="M206.167 298.036C284.135 298.036 347.34 234.831 347.34 156.863C347.34 78.8946 284.135 15.689 206.167 15.689C128.199 15.689 64.9932 78.8946 64.9932 156.863C64.9932 234.831 128.199 298.036 206.167 298.036Z" fill="#E3F2FD"/>
<path d="M131.491 238.438C131.465 238.424 131.438 238.411 131.411 238.398C131.305 238.358 131.198 238.371 131.105 238.424C131.065 238.411 131.025 238.424 130.985 238.424L40.381 256.444C40.1946 256.484 40.0747 256.657 40.1014 256.844L47.2 298.876C47.2266 298.996 47.2932 299.089 47.4131 299.142C47.5196 299.182 47.6528 299.169 47.746 299.102L131.078 239.303L153.866 326.298C153.906 326.471 154.092 326.591 154.266 326.551L237.252 310.05C237.385 310.023 237.491 309.917 237.531 309.77C237.558 309.637 237.505 309.491 237.385 309.411L131.651 238.744L131.624 238.624C131.611 238.558 131.571 238.491 131.491 238.438ZM131.944 239.783L236.333 309.544L154.492 325.819L131.944 239.783ZM40.8605 257.07L129.787 239.383L47.8126 298.223L40.8605 257.07Z" fill="#BBDEFB"/>
<path d="M145.369 291.417C145.342 291.404 145.315 291.39 145.275 291.377L84.2777 272.225C84.1312 272.185 83.9847 272.225 83.8915 272.345C83.7983 272.465 83.7983 272.625 83.8782 272.745L118.159 324.606C118.226 324.699 118.319 324.753 118.439 324.766C118.546 324.766 118.652 324.726 118.732 324.633L145.462 291.923C145.528 291.83 145.555 291.71 145.528 291.604C145.488 291.524 145.435 291.457 145.369 291.417ZM85.0102 273.184L144.596 291.883L118.492 323.834L85.0102 273.184Z" fill="#BBDEFB"/>
<path d="M87.7542 218.006C87.7009 217.967 87.6476 217.953 87.581 217.953C87.4612 217.94 87.3546 217.993 87.288 218.086L60.1987 252.594C60.1054 252.714 60.1054 252.874 60.172 252.994C60.2519 253.113 60.3984 253.18 60.5316 253.153L103.07 244.696C103.177 244.67 103.27 244.603 103.323 244.497C103.363 244.39 103.363 244.27 103.31 244.177L87.8474 218.113C87.8341 218.073 87.7941 218.033 87.7542 218.006ZM61.3307 252.288L87.5144 218.912L102.471 244.11L61.3307 252.288Z" fill="#BBDEFB"/>
<path d="M128.774 164.135C128.721 164.095 128.668 164.082 128.601 164.082C128.495 164.068 128.388 164.122 128.321 164.188L95.6251 199.322C95.5052 199.455 95.5052 199.655 95.6251 199.788L130.559 239.05C130.639 239.143 130.772 239.183 130.892 239.157C131.012 239.13 131.118 239.037 131.145 238.917L145.688 188.308C145.715 188.201 145.702 188.094 145.635 188.015L128.854 164.228C128.841 164.188 128.814 164.162 128.774 164.135ZM96.3576 199.562L128.548 164.974L144.996 188.268L130.652 238.118L96.3576 199.562Z" fill="#BBDEFB"/>
<path d="M47.5594 301.606C49.0967 301.606 50.3429 300.359 50.3429 298.822C50.3429 297.285 49.0967 296.039 47.5594 296.039C46.0221 296.039 44.7759 297.285 44.7759 298.822C44.7759 300.359 46.0221 301.606 47.5594 301.606Z" fill="#BBDEFB"/>
<path d="M87.847 221.27C89.3843 221.27 90.6305 220.023 90.6305 218.486C90.6305 216.949 89.3843 215.703 87.847 215.703C86.3097 215.703 85.0635 216.949 85.0635 218.486C85.0635 220.023 86.3097 221.27 87.847 221.27Z" fill="#BBDEFB"/>
<path d="M130.812 241.607C132.349 241.607 133.595 240.36 133.595 238.823C133.595 237.286 132.349 236.04 130.812 236.04C129.275 236.04 128.028 237.286 128.028 238.823C128.028 240.36 129.275 241.607 130.812 241.607Z" fill="#BBDEFB"/>
<path d="M192.662 321.489C194.199 321.489 195.445 320.243 195.445 318.706C195.445 317.169 194.199 315.922 192.662 315.922C191.125 315.922 189.878 317.169 189.878 318.706C189.878 320.243 191.125 321.489 192.662 321.489Z" fill="#BBDEFB"/>
<path d="M175.615 271.12C177.152 271.12 178.398 269.874 178.398 268.337C178.398 266.799 177.152 265.553 175.615 265.553C174.077 265.553 172.831 266.799 172.831 268.337C172.831 269.874 174.077 271.12 175.615 271.12Z" fill="#BBDEFB"/>
<path d="M144.69 191.383C146.227 191.383 147.473 190.137 147.473 188.6C147.473 187.063 146.227 185.816 144.69 185.816C143.152 185.816 141.906 187.063 141.906 188.6C141.906 190.137 143.152 191.383 144.69 191.383Z" fill="#BBDEFB"/>
<path d="M128.588 167.211C130.125 167.211 131.371 165.965 131.371 164.428C131.371 162.89 130.125 161.644 128.588 161.644C127.05 161.644 125.804 162.89 125.804 164.428C125.804 165.965 127.05 167.211 128.588 167.211Z" fill="#BBDEFB"/>
<path d="M118.692 197.058C120.23 197.058 121.476 195.812 121.476 194.274C121.476 192.737 120.23 191.491 118.692 191.491C117.155 191.491 115.909 192.737 115.909 194.274C115.909 195.812 117.155 197.058 118.692 197.058Z" fill="#BBDEFB"/>
<path d="M117.693 227.384C119.23 227.384 120.477 226.138 120.477 224.6C120.477 223.063 119.23 221.817 117.693 221.817C116.156 221.817 114.91 223.063 114.91 224.6C114.91 226.138 116.156 227.384 117.693 227.384Z" fill="#BBDEFB"/>
<path d="M111.42 219.845C112.958 219.845 114.204 218.599 114.204 217.061C114.204 215.524 112.958 214.278 111.42 214.278C109.883 214.278 108.637 215.524 108.637 217.061C108.637 218.599 109.883 219.845 111.42 219.845Z" fill="#BBDEFB"/>
<path d="M95.8914 202.344C97.4287 202.344 98.6749 201.098 98.6749 199.561C98.6749 198.024 97.4287 196.777 95.8914 196.777C94.3541 196.777 93.1079 198.024 93.1079 199.561C93.1079 201.098 94.3541 202.344 95.8914 202.344Z" fill="#BBDEFB"/>
<path d="M236.639 312.74C238.176 312.74 239.423 311.494 239.423 309.957C239.423 308.42 238.176 307.173 236.639 307.173C235.102 307.173 233.855 308.42 233.855 309.957C233.855 311.494 235.102 312.74 236.639 312.74Z" fill="#BBDEFB"/>
<path d="M118.452 327.203C119.99 327.203 121.236 325.957 121.236 324.42C121.236 322.882 119.99 321.636 118.452 321.636C116.915 321.636 115.669 322.882 115.669 324.42C115.669 325.957 116.915 327.203 118.452 327.203Z" fill="#BBDEFB"/>
<path d="M124.006 288.168C125.543 288.168 126.79 286.921 126.79 285.384C126.79 283.847 125.543 282.601 124.006 282.601C122.469 282.601 121.223 283.847 121.223 285.384C121.223 286.921 122.469 288.168 124.006 288.168Z" fill="#BBDEFB"/>
<path d="M144.769 295.346C146.307 295.346 147.553 294.1 147.553 292.563C147.553 291.026 146.307 289.779 144.769 289.779C143.232 289.779 141.986 291.026 141.986 292.563C141.986 294.1 143.232 295.346 144.769 295.346Z" fill="#BBDEFB"/>
<path d="M168.836 291.311C170.373 291.311 171.619 290.065 171.619 288.528C171.619 286.99 170.373 285.744 168.836 285.744C167.298 285.744 166.052 286.99 166.052 288.528C166.052 290.065 167.298 291.311 168.836 291.311Z" fill="#BBDEFB"/>
<path d="M161.884 281.641C163.421 281.641 164.667 280.395 164.667 278.858C164.667 277.32 163.421 276.074 161.884 276.074C160.346 276.074 159.1 277.32 159.1 278.858C159.1 280.395 160.346 281.641 161.884 281.641Z" fill="#BBDEFB"/>
<path d="M40.4608 259.573C41.9981 259.573 43.2443 258.327 43.2443 256.79C43.2443 255.253 41.9981 254.006 40.4608 254.006C38.9235 254.006 37.6772 255.253 37.6772 256.79C37.6772 258.327 38.9235 259.573 40.4608 259.573Z" fill="#BBDEFB"/>
<path d="M61.4237 255.152C62.9609 255.152 64.2072 253.905 64.2072 252.368C64.2072 250.831 62.9609 249.584 61.4237 249.584C59.8864 249.584 58.6401 250.831 58.6401 252.368C58.6401 253.905 59.8864 255.152 61.4237 255.152Z" fill="#BBDEFB"/>
<path d="M102.79 247.174C104.328 247.174 105.574 245.928 105.574 244.39C105.574 242.853 104.328 241.607 102.79 241.607C101.253 241.607 100.007 242.853 100.007 244.39C100.007 245.928 101.253 247.174 102.79 247.174Z" fill="#BBDEFB"/>
<path d="M84.2113 274.982C85.7485 274.982 86.9948 273.736 86.9948 272.199C86.9948 270.661 85.7485 269.415 84.2113 269.415C82.674 269.415 81.4277 270.661 81.4277 272.199C81.4277 273.736 82.674 274.982 84.2113 274.982Z" fill="#BBDEFB"/>
<path d="M154.399 328.589C155.936 328.589 157.182 327.342 157.182 325.805C157.182 324.268 155.936 323.021 154.399 323.021C152.861 323.021 151.615 324.268 151.615 325.805C151.615 327.342 152.861 328.589 154.399 328.589Z" fill="#BBDEFB"/>
<path d="M103.549 243.897L60.6646 252.168L84.2778 272.731L103.549 243.897ZM62.1962 252.581L102.031 244.896L84.1313 271.679L62.1962 252.581Z" fill="#BBDEFB"/>
<path d="M176.373 267.311L144.556 292.282L144.982 292.828L174.869 269.375L154.065 325.684L154.718 325.924L176.373 267.311Z" fill="#BBDEFB"/>
<path d="M130.586 237.958L118.106 324.366L118.799 324.46L131.052 239.689L192.582 318.746L193.142 318.32L130.586 237.958Z" fill="#BBDEFB"/>
<path d="M144.89 188.308C144.81 188.254 144.716 188.241 144.623 188.254L96.451 198.536C96.2645 198.576 96.1447 198.762 96.1846 198.949C96.2246 199.135 96.411 199.255 96.5975 199.215L143.864 189.12L103.017 243.512L96.2379 199.495C96.2113 199.335 96.0914 199.215 95.9316 199.202C95.7717 199.189 95.6252 199.269 95.572 199.415L87.5677 218.26L40.2479 256.51C40.1014 256.63 40.0748 256.857 40.1946 257.003C40.3145 257.15 40.5409 257.176 40.6874 257.056L88.0738 218.753C88.1137 218.713 88.1537 218.673 88.1803 218.62L95.7451 200.813L102.471 244.444C102.497 244.577 102.591 244.697 102.737 244.724C102.87 244.764 103.017 244.71 103.097 244.591L144.996 188.787C145.089 188.667 145.089 188.507 145.009 188.387C144.956 188.374 144.929 188.334 144.89 188.308Z" fill="#BBDEFB"/>
<path d="M128.774 164.134C128.748 164.121 128.721 164.108 128.681 164.094C128.494 164.041 128.308 164.134 128.241 164.321L102.457 244.297C102.404 244.483 102.497 244.683 102.684 244.737C102.87 244.79 103.057 244.697 103.123 244.51L128.907 164.534C128.961 164.374 128.907 164.214 128.774 164.134Z" fill="#BBDEFB"/>
<path d="M283.399 93.1613C283.426 93.1746 283.439 93.2012 283.466 93.2145C283.559 93.2678 283.679 93.2678 283.772 93.2279C283.812 93.2412 283.852 93.2412 283.892 93.2412L376.667 90.0048C376.854 90.0048 377 89.845 377 89.6586L376.747 46.8137C376.747 46.6938 376.68 46.5873 376.574 46.5207C376.467 46.4541 376.347 46.4541 376.241 46.5074L283.919 92.3755L275.355 2.39728C275.342 2.21082 275.182 2.07764 274.995 2.07764L190.012 5.04761C189.865 5.04761 189.745 5.14084 189.692 5.27402C189.639 5.4072 189.679 5.5537 189.785 5.64693L283.253 92.815L283.266 92.9482C283.293 93.0281 283.333 93.108 283.399 93.1613ZM283.173 91.7628L190.904 5.70021L274.716 2.7835L283.173 91.7628ZM376.307 89.3256L285.237 92.4953L376.054 47.3731L376.307 89.3256Z" fill="#BBDEFB"/>
<path d="M278.192 38.3698C278.218 38.3964 278.245 38.4098 278.271 38.4231L335.7 67.2705C335.833 67.337 335.993 67.3104 336.099 67.2039C336.206 67.0973 336.233 66.9375 336.179 66.8043L310.542 9.84209C310.502 9.73554 310.408 9.66895 310.302 9.64231C310.195 9.61568 310.075 9.64231 309.996 9.72222L278.205 37.8504C278.112 37.9303 278.072 38.0369 278.085 38.1567C278.085 38.2499 278.125 38.3165 278.192 38.3698ZM335.127 66.2183L279.044 38.0369L310.102 10.5613L335.127 66.2183Z" fill="#BBDEFB"/>
<path d="M323.487 120.504C323.527 120.544 323.581 120.57 323.647 120.584C323.754 120.61 323.874 120.584 323.967 120.504L356.41 90.6309C356.517 90.5376 356.557 90.3778 356.503 90.2446C356.45 90.1115 356.317 90.0182 356.17 90.0315L312.606 91.5498C312.486 91.5498 312.393 91.6164 312.327 91.7096C312.26 91.8029 312.247 91.9227 312.287 92.0293L323.421 120.371C323.421 120.424 323.447 120.464 323.487 120.504ZM355.238 90.764L323.874 119.638L313.112 92.2291L355.238 90.764Z" fill="#BBDEFB"/>
<path d="M274.09 167.304C274.13 167.344 274.183 167.371 274.25 167.384C274.356 167.411 274.463 167.384 274.543 167.317L312.646 137.751C312.793 137.644 312.82 137.445 312.726 137.285L284.412 92.6952C284.345 92.5886 284.225 92.5221 284.092 92.5354C283.959 92.5487 283.852 92.6153 283.799 92.7351L261.198 140.588C261.158 140.681 261.158 140.801 261.198 140.894L274.01 167.198C274.037 167.251 274.063 167.277 274.09 167.304ZM311.967 137.405L274.45 166.518L261.904 140.747L284.172 93.6142L311.967 137.405Z" fill="#BBDEFB"/>
<path d="M376.401 49.6098C377.945 49.6098 379.198 48.3576 379.198 46.813C379.198 45.2683 377.945 44.0161 376.401 44.0161C374.856 44.0161 373.604 45.2683 373.604 46.813C373.604 48.3576 374.856 49.6098 376.401 49.6098Z" fill="#BBDEFB"/>
<path d="M323.474 122.808C325.019 122.808 326.271 121.556 326.271 120.011C326.271 118.467 325.019 117.214 323.474 117.214C321.929 117.214 320.677 118.467 320.677 120.011C320.677 121.556 321.929 122.808 323.474 122.808Z" fill="#BBDEFB"/>
<path d="M284.132 95.6923C285.676 95.6923 286.929 94.4401 286.929 92.8955C286.929 91.3508 285.676 90.0986 284.132 90.0986C282.587 90.0986 281.335 91.3508 281.335 92.8955C281.335 94.4401 282.587 95.6923 284.132 95.6923Z" fill="#BBDEFB"/>
<path d="M235.68 6.47209C237.225 6.47209 238.477 5.2199 238.477 3.67525C238.477 2.1306 237.225 0.878418 235.68 0.878418C234.135 0.878418 232.883 2.1306 232.883 3.67525C232.883 5.2199 234.135 6.47209 235.68 6.47209Z" fill="#BBDEFB"/>
<path d="M244.457 59.1728C246.001 59.1728 247.253 57.9206 247.253 56.3759C247.253 54.8313 246.001 53.5791 244.457 53.5791C242.912 53.5791 241.66 54.8313 241.66 56.3759C241.66 57.9206 242.912 59.1728 244.457 59.1728Z" fill="#BBDEFB"/>
<path d="M262.25 143.264C263.795 143.264 265.047 142.012 265.047 140.467C265.047 138.923 263.795 137.67 262.25 137.67C260.705 137.67 259.453 138.923 259.453 140.467C259.453 142.012 260.705 143.264 262.25 143.264Z" fill="#BBDEFB"/>
<path d="M274.33 169.848C275.874 169.848 277.126 168.596 277.126 167.051C277.126 165.507 275.874 164.254 274.33 164.254C272.785 164.254 271.533 165.507 271.533 167.051C271.533 168.596 272.785 169.848 274.33 169.848Z" fill="#BBDEFB"/>
<path d="M288.953 141.839C290.498 141.839 291.75 140.587 291.75 139.042C291.75 137.498 290.498 136.246 288.953 136.246C287.408 136.246 286.156 137.498 286.156 139.042C286.156 140.587 287.408 141.839 288.953 141.839Z" fill="#BBDEFB"/>
<path d="M294.853 111.913C296.398 111.913 297.65 110.661 297.65 109.117C297.65 107.572 296.398 106.32 294.853 106.32C293.308 106.32 292.056 107.572 292.056 109.117C292.056 110.661 293.308 111.913 294.853 111.913Z" fill="#BBDEFB"/>
<path d="M299.861 120.41C301.405 120.41 302.658 119.158 302.658 117.613C302.658 116.069 301.405 114.816 299.861 114.816C298.316 114.816 297.064 116.069 297.064 117.613C297.064 119.158 298.316 120.41 299.861 120.41Z" fill="#BBDEFB"/>
<path d="M312.433 140.282C313.978 140.282 315.23 139.029 315.23 137.485C315.23 135.94 313.978 134.688 312.433 134.688C310.888 134.688 309.636 135.94 309.636 137.485C309.636 139.029 310.888 140.282 312.433 140.282Z" fill="#BBDEFB"/>
<path d="M190.651 8.03117C192.195 8.03117 193.448 6.77899 193.448 5.23434C193.448 3.68969 192.195 2.4375 190.651 2.4375C189.106 2.4375 187.854 3.68969 187.854 5.23434C187.854 6.77899 189.106 8.03117 190.651 8.03117Z" fill="#BBDEFB"/>
<path d="M310.222 12.7851C311.767 12.7851 313.019 11.5329 313.019 9.98824C313.019 8.44359 311.767 7.19141 310.222 7.19141C308.677 7.19141 307.425 8.44359 307.425 9.98824C307.425 11.5329 308.677 12.7851 310.222 12.7851Z" fill="#BBDEFB"/>
<path d="M298.409 50.5956C299.954 50.5956 301.206 49.3434 301.206 47.7988C301.206 46.2541 299.954 45.002 298.409 45.002C296.864 45.002 295.612 46.2541 295.612 47.7988C295.612 49.3434 296.864 50.5956 298.409 50.5956Z" fill="#BBDEFB"/>
<path d="M278.978 40.1278C280.522 40.1278 281.774 38.8757 281.774 37.331C281.774 35.7864 280.522 34.5342 278.978 34.5342C277.433 34.5342 276.181 35.7864 276.181 37.331C276.181 38.8757 277.433 40.1278 278.978 40.1278Z" fill="#BBDEFB"/>
<path d="M254.445 40.2475C255.99 40.2475 257.242 38.9953 257.242 37.4506C257.242 35.906 255.99 34.6538 254.445 34.6538C252.901 34.6538 251.648 35.906 251.648 37.4506C251.648 38.9953 252.901 40.2475 254.445 40.2475Z" fill="#BBDEFB"/>
<path d="M259.786 50.9555C261.331 50.9555 262.583 49.7033 262.583 48.1587C262.583 46.614 261.331 45.3618 259.786 45.3618C258.241 45.3618 256.989 46.614 256.989 48.1587C256.989 49.7033 258.241 50.9555 259.786 50.9555Z" fill="#BBDEFB"/>
<path d="M376.667 92.456C378.212 92.456 379.464 91.2038 379.464 89.6591C379.464 88.1145 378.212 86.8623 376.667 86.8623C375.122 86.8623 373.87 88.1145 373.87 89.6591C373.87 91.2038 375.122 92.456 376.667 92.456Z" fill="#BBDEFB"/>
<path d="M355.145 93.4545C356.69 93.4545 357.942 92.2023 357.942 90.6577C357.942 89.113 356.69 87.8608 355.145 87.8608C353.6 87.8608 352.348 89.113 352.348 90.6577C352.348 92.2023 353.6 93.4545 355.145 93.4545Z" fill="#BBDEFB"/>
<path d="M312.832 94.6928C314.377 94.6928 315.629 93.4406 315.629 91.896C315.629 90.3513 314.377 89.0991 312.832 89.0991C311.288 89.0991 310.036 90.3513 310.036 91.896C310.036 93.4406 311.288 94.6928 312.832 94.6928Z" fill="#BBDEFB"/>
<path d="M335.753 70.1073C337.298 70.1073 338.55 68.8552 338.55 67.3105C338.55 65.7659 337.298 64.5137 335.753 64.5137C334.209 64.5137 332.957 65.7659 332.957 67.3105C332.957 68.8552 334.209 70.1073 335.753 70.1073Z" fill="#BBDEFB"/>
<path d="M274.796 5.59367C276.341 5.59367 277.593 4.34149 277.593 2.79684C277.593 1.25219 276.341 0 274.796 0C273.251 0 271.999 1.25219 271.999 2.79684C271.999 4.34149 273.251 5.59367 274.796 5.59367Z" fill="#BBDEFB"/>
<path d="M312.007 92.268L355.877 90.9895L335.767 66.7769L312.007 92.268ZM354.412 90.3369L313.658 91.5222L335.74 67.8423L354.412 90.3369Z" fill="#BBDEFB"/>
<path d="M243.551 57.2822L279.137 37.6377L278.804 37.0251L245.375 55.4709L275.102 2.9703L274.489 2.62402L243.551 57.2822Z" fill="#BBDEFB"/>
<path d="M284.212 93.7871L310.555 10.0951L309.889 9.88201L284.039 92.0024L235.773 3.63574L235.161 3.9687L284.212 93.7871Z" fill="#BBDEFB"/>
<path d="M262.023 140.735C262.09 140.801 262.183 140.828 262.276 140.828L311.727 138.404C311.913 138.391 312.073 138.231 312.06 138.031C312.047 137.831 311.887 137.685 311.687 137.698L263.169 140.069L312.473 92.7089L312.087 137.472C312.087 137.631 312.193 137.765 312.34 137.805C312.486 137.844 312.646 137.791 312.739 137.658L323.727 120.251L376.84 89.952C377.013 89.8587 377.066 89.6457 376.973 89.4725C376.88 89.2994 376.667 89.2461 376.494 89.3393L323.301 119.678C323.247 119.705 323.207 119.745 323.181 119.798L312.806 136.233L313.179 91.8964C313.179 91.7499 313.099 91.6301 312.966 91.5768C312.832 91.5235 312.686 91.5502 312.579 91.6434L262.01 140.228C261.903 140.335 261.877 140.481 261.93 140.615C261.957 140.655 261.983 140.695 262.023 140.735Z" fill="#BBDEFB"/>
<path d="M274.09 167.304C274.116 167.331 274.143 167.344 274.17 167.357C274.343 167.451 274.556 167.384 274.636 167.211L313.139 92.0425C313.232 91.8694 313.152 91.6563 312.992 91.5764C312.819 91.4832 312.606 91.5498 312.526 91.7229L274.023 166.891C273.943 167.038 273.983 167.211 274.09 167.304Z" fill="#BBDEFB"/>
<path d="M82.6665 112.407C82.6399 112.42 82.6132 112.42 82.5866 112.42C82.4801 112.42 82.3735 112.367 82.3069 112.287C82.267 112.273 82.227 112.26 82.1871 112.247L2.62375 64.4075C2.46393 64.3143 2.41065 64.1012 2.50388 63.9414L23.5068 26.597C23.5601 26.4904 23.6799 26.4238 23.7998 26.4238C23.9197 26.4238 24.0395 26.4771 24.1061 26.5703L82.5999 111.448L133.729 36.9053C133.835 36.7588 134.035 36.7055 134.195 36.7988L207.086 80.6025C207.206 80.6691 207.272 80.8156 207.246 80.9488C207.219 81.0953 207.126 81.2019 206.979 81.2418L82.9595 112.14L82.8796 112.247C82.8263 112.34 82.7464 112.393 82.6665 112.407ZM83.5455 111.288L205.98 80.789L134.102 37.5845L83.5455 111.288ZM3.27634 63.9813L81.3746 110.928L23.8397 27.4227L3.27634 63.9813Z" fill="#90CAF9"/>
<path d="M113.791 67.0171C113.765 67.0304 113.725 67.0304 113.698 67.0304L49.4909 64.4067C49.3444 64.4067 49.2112 64.3002 49.1712 64.167C49.1313 64.0205 49.1712 63.874 49.2911 63.7808L99.3411 26.3831C99.4344 26.3165 99.5409 26.2899 99.6475 26.3298C99.754 26.3564 99.8339 26.4497 99.8739 26.5429L114.031 66.5643C114.071 66.6708 114.058 66.7907 113.978 66.8839C113.951 66.9505 113.871 67.0038 113.791 67.0171ZM50.5031 63.7541L113.205 66.3112L99.3811 27.2221L50.5031 63.7541Z" fill="#90CAF9"/>
<path d="M34.3476 116.867C34.2943 116.881 34.2277 116.881 34.1612 116.867C34.0546 116.841 33.9614 116.748 33.9214 116.641L20.0438 74.7817C20.0038 74.6486 20.0438 74.4887 20.1637 74.3955C20.2835 74.3023 20.4433 74.289 20.5632 74.3689L57.9209 96.8235C58.0142 96.8767 58.0808 96.9833 58.0941 97.1032C58.1074 97.223 58.0541 97.3296 57.9742 97.3962L34.4808 116.801C34.4408 116.828 34.4009 116.854 34.3476 116.867ZM21.016 75.461L34.4408 115.935L57.1352 97.1831L21.016 75.461Z" fill="#90CAF9"/>
<path d="M54.8444 181.755C54.7911 181.768 54.7245 181.768 54.658 181.755C54.5514 181.728 54.4715 181.648 54.4315 181.555L35.4397 137.219C35.3731 137.059 35.4397 136.859 35.5995 136.779L81.987 111.514C82.0936 111.448 82.2401 111.461 82.3466 111.528C82.4532 111.594 82.5198 111.714 82.5064 111.847L79.0703 164.668C79.057 164.774 79.0037 164.867 78.9238 164.934L54.9643 181.728C54.9243 181.728 54.8844 181.755 54.8444 181.755ZM36.2255 137.232L54.911 180.889L78.3778 164.441L81.7606 112.433L36.2255 137.232Z" fill="#90CAF9"/>
<path d="M23.7998 29.5663C25.3444 29.5663 26.5966 28.3141 26.5966 26.7695C26.5966 25.2248 25.3444 23.9727 23.7998 23.9727C22.2551 23.9727 21.0029 25.2248 21.0029 26.7695C21.0029 28.3141 22.2551 29.5663 23.7998 29.5663Z" fill="#90CAF9"/>
<path d="M34.601 119.239C36.1457 119.239 37.3979 117.987 37.3979 116.442C37.3979 114.897 36.1457 113.645 34.601 113.645C33.0564 113.645 31.8042 114.897 31.8042 116.442C31.8042 117.987 33.0564 119.239 34.601 119.239Z" fill="#90CAF9"/>
<path d="M82.1606 114.604C83.7053 114.604 84.9574 113.352 84.9574 111.807C84.9574 110.262 83.7053 109.01 82.1606 109.01C80.616 109.01 79.3638 110.262 79.3638 111.807C79.3638 113.352 80.616 114.604 82.1606 114.604Z" fill="#90CAF9"/>
<path d="M167.797 60.0795C169.341 60.0795 170.594 58.8273 170.594 57.2827C170.594 55.738 169.341 54.4858 167.797 54.4858C166.252 54.4858 165 55.738 165 57.2827C165 58.8273 166.252 60.0795 167.797 60.0795Z" fill="#90CAF9"/>
<path d="M134.555 101.911C136.099 101.911 137.351 100.659 137.351 99.1142C137.351 97.5696 136.099 96.3174 134.555 96.3174C133.01 96.3174 131.758 97.5696 131.758 99.1142C131.758 100.659 133.01 101.911 134.555 101.911Z" fill="#90CAF9"/>
<path d="M78.205 166.825C79.7497 166.825 81.0019 165.572 81.0019 164.028C81.0019 162.483 79.7497 161.231 78.205 161.231C76.6604 161.231 75.4082 162.483 75.4082 164.028C75.4082 165.572 76.6604 166.825 78.205 166.825Z" fill="#90CAF9"/>
<path d="M54.7646 184.218C56.3093 184.218 57.5614 182.966 57.5614 181.421C57.5614 179.877 56.3093 178.625 54.7646 178.625C53.22 178.625 51.9678 179.877 51.9678 181.421C51.9678 182.966 53.22 184.218 54.7646 184.218Z" fill="#90CAF9"/>
<path d="M55.5503 152.627C57.0949 152.627 58.3471 151.375 58.3471 149.83C58.3471 148.285 57.0949 147.033 55.5503 147.033C54.0056 147.033 52.7534 148.285 52.7534 149.83C52.7534 151.375 54.0056 152.627 55.5503 152.627Z" fill="#90CAF9"/>
<path d="M64.913 123.594C66.4577 123.594 67.7099 122.341 67.7099 120.797C67.7099 119.252 66.4577 118 64.913 118C63.3684 118 62.1162 119.252 62.1162 120.797C62.1162 122.341 63.3684 123.594 64.913 123.594Z" fill="#90CAF9"/>
<path d="M56.416 128.601C57.9606 128.601 59.2128 127.349 59.2128 125.804C59.2128 124.26 57.9606 123.007 56.416 123.007C54.8713 123.007 53.6191 124.26 53.6191 125.804C53.6191 127.349 54.8713 128.601 56.416 128.601Z" fill="#90CAF9"/>
<path d="M35.7729 139.882C37.3176 139.882 38.5697 138.63 38.5697 137.085C38.5697 135.54 37.3176 134.288 35.7729 134.288C34.2283 134.288 32.9761 135.54 32.9761 137.085C32.9761 138.63 34.2283 139.882 35.7729 139.882Z" fill="#90CAF9"/>
<path d="M206.406 83.2924C207.951 83.2924 209.203 82.0402 209.203 80.4956C209.203 78.9509 207.951 77.6987 206.406 77.6987C204.862 77.6987 203.609 78.9509 203.609 80.4956C203.609 82.0402 204.862 83.2924 206.406 83.2924Z" fill="#90CAF9"/>
<path d="M99.5542 29.4599C101.099 29.4599 102.351 28.2077 102.351 26.663C102.351 25.1184 101.099 23.8662 99.5542 23.8662C98.0095 23.8662 96.7573 25.1184 96.7573 26.663C96.7573 28.2077 98.0095 29.4599 99.5542 29.4599Z" fill="#90CAF9"/>
<path d="M91.5366 68.2553C93.0812 68.2553 94.3334 67.0031 94.3334 65.4585C94.3334 63.9138 93.0812 62.6616 91.5366 62.6616C89.9919 62.6616 88.7397 63.9138 88.7397 65.4585C88.7397 67.0031 89.9919 68.2553 91.5366 68.2553Z" fill="#90CAF9"/>
<path d="M113.618 68.5224C115.163 68.5224 116.415 67.2702 116.415 65.7255C116.415 64.1809 115.163 62.9287 113.618 62.9287C112.073 62.9287 110.821 64.1809 110.821 65.7255C110.821 67.2702 112.073 68.5224 113.618 68.5224Z" fill="#90CAF9"/>
<path d="M135.007 80.5224C136.552 80.5224 137.804 79.2702 137.804 77.7255C137.804 76.1809 136.552 74.9287 135.007 74.9287C133.463 74.9287 132.21 76.1809 132.21 77.7255C132.21 79.2702 133.463 80.5224 135.007 80.5224Z" fill="#90CAF9"/>
<path d="M125.152 87.3012C126.696 87.3012 127.949 86.049 127.949 84.5044C127.949 82.9597 126.696 81.7075 125.152 81.7075C123.607 81.7075 122.355 82.9597 122.355 84.5044C122.355 86.049 123.607 87.3012 125.152 87.3012Z" fill="#90CAF9"/>
<path d="M2.79684 66.9106C4.34149 66.9106 5.59367 65.6584 5.59367 64.1137C5.59367 62.5691 4.34149 61.3169 2.79684 61.3169C1.25219 61.3169 0 62.5691 0 64.1137C0 65.6584 1.25219 66.9106 2.79684 66.9106Z" fill="#90CAF9"/>
<path d="M21.1362 78.2182C22.6808 78.2182 23.933 76.966 23.933 75.4214C23.933 73.8767 22.6808 72.6245 21.1362 72.6245C19.5915 72.6245 18.3394 73.8767 18.3394 75.4214C18.3394 76.966 19.5915 78.2182 21.1362 78.2182Z" fill="#90CAF9"/>
<path d="M57.5483 99.8202C59.0929 99.8202 60.3451 98.568 60.3451 97.0234C60.3451 95.4787 59.0929 94.2266 57.5483 94.2266C56.0036 94.2266 54.7515 95.4787 54.7515 97.0234C54.7515 98.568 56.0036 99.8202 57.5483 99.8202Z" fill="#90CAF9"/>
<path d="M49.4243 67.2035C50.9689 67.2035 52.2211 65.9514 52.2211 64.4067C52.2211 62.8621 50.9689 61.6099 49.4243 61.6099C47.8796 61.6099 46.6274 62.8621 46.6274 64.4067C46.6274 65.9514 47.8796 67.2035 49.4243 67.2035Z" fill="#90CAF9"/>
<path d="M134.008 40.3549C135.553 40.3549 136.805 39.1027 136.805 37.5581C136.805 36.0134 135.553 34.7612 134.008 34.7612C132.464 34.7612 131.211 36.0134 131.211 37.5581C131.211 39.1027 132.464 40.3549 134.008 40.3549Z" fill="#90CAF9"/>
<path d="M58.0809 97.7423L20.3369 75.3543L49.6637 63.9272L58.0809 97.7423ZM21.9351 75.4875L57.0021 96.2906L49.171 64.8728L21.9351 75.4875Z" fill="#90CAF9"/>
<path d="M134.928 100.353L113.312 65.9123L113.911 65.5394L134.195 97.8895L133.662 37.5578L134.368 37.5444L134.928 100.353Z" fill="#90CAF9"/>
<path d="M81.6543 112.553L99.2078 26.5835L99.887 26.73L82.6665 111.075L167.744 57.2155L168.116 57.8015L81.6543 112.553Z" fill="#90CAF9"/>
<path d="M78.2983 164.374C78.2051 164.401 78.1119 164.388 78.032 164.334L35.9596 138.231C35.7997 138.124 35.7465 137.911 35.853 137.751C35.9596 137.591 36.1726 137.538 36.3325 137.645L77.6058 163.256L57.4552 97.9162L36.0794 137.245C35.9995 137.378 35.853 137.458 35.6932 137.418C35.5467 137.378 35.4268 137.258 35.4268 137.099L34.2548 116.548L2.50407 64.3009C2.39753 64.1411 2.4508 63.9147 2.62394 63.8215C2.78376 63.7149 3.01017 63.7682 3.10339 63.9413L34.9074 116.269C34.934 116.322 34.9607 116.375 34.9607 116.429L36.0661 135.833L57.2421 96.8508C57.3087 96.7309 57.4419 96.651 57.5884 96.6643C57.7349 96.6776 57.8415 96.7709 57.8814 96.904L78.5514 163.922C78.5913 164.055 78.5514 164.215 78.4315 164.308C78.3915 164.334 78.3383 164.361 78.2983 164.374Z" fill="#90CAF9"/>
<path d="M54.8445 181.754C54.8179 181.768 54.7779 181.768 54.7513 181.768C54.5515 181.768 54.405 181.594 54.4183 181.408L57.2018 97.0101C57.2018 96.8103 57.375 96.6638 57.5614 96.6771C57.7612 96.6771 57.9077 96.8503 57.8944 97.0367L55.1109 181.435C55.1109 181.594 54.991 181.728 54.8445 181.754Z" fill="#90CAF9"/>
<path d="M285.503 233.281C285.49 233.308 285.477 233.335 285.464 233.361C285.424 233.468 285.424 233.574 285.477 233.667C285.464 233.707 285.464 233.747 285.477 233.801L298.755 327.215C298.782 327.401 298.955 327.535 299.141 327.521L342.412 322.633C342.532 322.62 342.639 322.54 342.692 322.434C342.745 322.327 342.732 322.194 342.666 322.087L286.356 233.734L376.374 215.381C376.56 215.342 376.68 215.168 376.654 214.982L364.494 129.412C364.467 129.266 364.374 129.159 364.228 129.119C364.095 129.079 363.935 129.132 363.855 129.252L285.85 233.121L285.717 233.148C285.637 233.161 285.557 233.201 285.503 233.281ZM286.902 232.895L363.908 130.358L375.908 214.742L286.902 232.895ZM299.408 326.762L286.369 235.066L341.773 321.981L299.408 326.762Z" fill="#90CAF9"/>
<path d="M340.322 222.094C340.295 222.121 340.282 222.148 340.269 222.188L317.308 283.332C317.255 283.478 317.295 283.638 317.414 283.731C317.534 283.824 317.694 283.838 317.827 283.771L372.645 251.714C372.738 251.661 372.805 251.554 372.818 251.448C372.832 251.341 372.792 251.221 372.698 251.141L340.841 222.041C340.748 221.961 340.628 221.935 340.522 221.961C340.442 221.988 340.362 222.028 340.322 222.094ZM318.32 282.639L340.748 222.92L371.859 251.341L318.32 282.639Z" fill="#90CAF9"/>
<path d="M262.21 276.739C262.17 276.793 262.144 276.846 262.144 276.913C262.13 277.032 262.17 277.139 262.263 277.219L295.945 306.785C296.052 306.879 296.225 306.905 296.345 306.825C296.478 306.759 296.545 306.612 296.531 306.466L290.298 262.595C290.285 262.476 290.205 262.382 290.112 262.329C290.019 262.276 289.886 262.276 289.779 262.329L262.33 276.633C262.277 276.673 262.237 276.699 262.21 276.739ZM295.692 305.613L263.116 277.032L289.659 263.195L295.692 305.613Z" fill="#90CAF9"/>
<path d="M209.576 231.87C209.537 231.924 209.51 231.977 209.51 232.043C209.497 232.15 209.537 232.257 209.603 232.336L243.605 267.656C243.738 267.79 243.938 267.803 244.084 267.683L286.09 234.268C286.196 234.188 286.236 234.054 286.223 233.935C286.196 233.801 286.117 233.695 285.983 233.655L235.187 215.968C235.081 215.928 234.974 215.942 234.881 216.008L209.683 231.79C209.63 231.804 209.603 231.844 209.576 231.87ZM243.884 266.924L210.416 232.15L235.108 216.687L285.144 234.108L243.884 266.924Z" fill="#90CAF9"/>
<path d="M342.386 325.125C343.96 325.125 345.236 323.848 345.236 322.274C345.236 320.7 343.96 319.424 342.386 319.424C340.812 319.424 339.536 320.7 339.536 322.274C339.536 323.848 340.812 325.125 342.386 325.125Z" fill="#90CAF9"/>
<path d="M262.703 279.524C264.277 279.524 265.553 278.248 265.553 276.674C265.553 275.1 264.277 273.824 262.703 273.824C261.129 273.824 259.853 275.1 259.853 276.674C259.853 278.248 261.129 279.524 262.703 279.524Z" fill="#90CAF9"/>
<path d="M285.863 236.837C287.437 236.837 288.713 235.561 288.713 233.987C288.713 232.413 287.437 231.137 285.863 231.137C284.289 231.137 283.013 232.413 283.013 233.987C283.013 235.561 284.289 236.837 285.863 236.837Z" fill="#90CAF9"/>
<path d="M370.807 178.251C372.381 178.251 373.657 176.974 373.657 175.4C373.657 173.826 372.381 172.55 370.807 172.55C369.233 172.55 367.957 173.826 367.957 175.4C367.957 176.974 369.233 178.251 370.807 178.251Z" fill="#90CAF9"/>
<path d="M318.48 192.808C320.054 192.808 321.33 191.532 321.33 189.958C321.33 188.383 320.054 187.107 318.48 187.107C316.905 187.107 315.629 188.383 315.629 189.958C315.629 191.532 316.905 192.808 318.48 192.808Z" fill="#90CAF9"/>
<path d="M235.414 219.871C236.988 219.871 238.264 218.595 238.264 217.021C238.264 215.446 236.988 214.17 235.414 214.17C233.84 214.17 232.563 215.446 232.563 217.021C232.563 218.595 233.84 219.871 235.414 219.871Z" fill="#90CAF9"/>
<path d="M209.856 234.934C211.43 234.934 212.706 233.658 212.706 232.084C212.706 230.51 211.43 229.234 209.856 229.234C208.282 229.234 207.006 230.51 207.006 232.084C207.006 233.658 208.282 234.934 209.856 234.934Z" fill="#90CAF9"/>
<path d="M239.742 246.693C241.316 246.693 242.592 245.417 242.592 243.843C242.592 242.269 241.316 240.993 239.742 240.993C238.168 240.993 236.892 242.269 236.892 243.843C236.892 245.417 238.168 246.693 239.742 246.693Z" fill="#90CAF9"/>
<path d="M270.627 249.424C272.202 249.424 273.478 248.148 273.478 246.574C273.478 245 272.202 243.724 270.627 243.724C269.053 243.724 267.777 245 267.777 246.574C267.777 248.148 269.053 249.424 270.627 249.424Z" fill="#90CAF9"/>
<path d="M262.583 255.404C264.157 255.404 265.433 254.128 265.433 252.554C265.433 250.98 264.157 249.704 262.583 249.704C261.009 249.704 259.733 250.98 259.733 252.554C259.733 254.128 261.009 255.404 262.583 255.404Z" fill="#90CAF9"/>
<path d="M243.844 270.253C245.418 270.253 246.694 268.977 246.694 267.403C246.694 265.829 245.418 264.553 243.844 264.553C242.27 264.553 240.994 265.829 240.994 267.403C240.994 268.977 242.27 270.253 243.844 270.253Z" fill="#90CAF9"/>
<path d="M364.361 132.916C365.935 132.916 367.211 131.64 367.211 130.065C367.211 128.491 365.935 127.215 364.361 127.215C362.787 127.215 361.511 128.491 361.511 130.065C361.511 131.64 362.787 132.916 364.361 132.916Z" fill="#90CAF9"/>
<path d="M372.459 254.258C374.033 254.258 375.309 252.982 375.309 251.408C375.309 249.834 374.033 248.558 372.459 248.558C370.884 248.558 369.608 249.834 369.608 251.408C369.608 252.982 370.884 254.258 372.459 254.258Z" fill="#90CAF9"/>
<path d="M332.97 246.4C334.544 246.4 335.82 245.124 335.82 243.55C335.82 241.976 334.544 240.7 332.97 240.7C331.396 240.7 330.12 241.976 330.12 243.55C330.12 245.124 331.396 246.4 332.97 246.4Z" fill="#90CAF9"/>
<path d="M341.454 225.624C343.028 225.624 344.304 224.348 344.304 222.774C344.304 221.2 343.028 219.924 341.454 219.924C339.88 219.924 338.604 221.2 338.604 222.774C338.604 224.348 339.88 225.624 341.454 225.624Z" fill="#90CAF9"/>
<path d="M338.697 200.865C340.271 200.865 341.547 199.589 341.547 198.015C341.547 196.441 340.271 195.165 338.697 195.165C337.123 195.165 335.847 196.441 335.847 198.015C335.847 199.589 337.123 200.865 338.697 200.865Z" fill="#90CAF9"/>
<path d="M328.442 207.405C330.016 207.405 331.292 206.129 331.292 204.555C331.292 202.981 330.016 201.705 328.442 201.705C326.868 201.705 325.592 202.981 325.592 204.555C325.592 206.129 326.868 207.405 328.442 207.405Z" fill="#90CAF9"/>
<path d="M299.102 329.999C300.676 329.999 301.952 328.723 301.952 327.149C301.952 325.575 300.676 324.299 299.102 324.299C297.528 324.299 296.251 325.575 296.251 327.149C296.251 328.723 297.528 329.999 299.102 329.999Z" fill="#90CAF9"/>
<path d="M295.772 308.37C297.346 308.37 298.622 307.094 298.622 305.52C298.622 303.946 297.346 302.67 295.772 302.67C294.198 302.67 292.922 303.946 292.922 305.52C292.922 307.094 294.198 308.37 295.772 308.37Z" fill="#90CAF9"/>
<path d="M289.965 265.738C291.539 265.738 292.815 264.462 292.815 262.888C292.815 261.314 291.539 260.038 289.965 260.038C288.391 260.038 287.115 261.314 287.115 262.888C287.115 264.462 288.391 265.738 289.965 265.738Z" fill="#90CAF9"/>
<path d="M317.281 286.249C318.855 286.249 320.131 284.973 320.131 283.398C320.131 281.824 318.855 280.548 317.281 280.548C315.707 280.548 314.431 281.824 314.431 283.398C314.431 284.973 315.707 286.249 317.281 286.249Z" fill="#90CAF9"/>
<path d="M375.908 217.687C377.482 217.687 378.758 216.411 378.758 214.836C378.758 213.262 377.482 211.986 375.908 211.986C374.334 211.986 373.058 213.262 373.058 214.836C373.058 216.411 374.334 217.687 375.908 217.687Z" fill="#90CAF9"/>
<path d="M289.499 262.089L295.519 306.293L317.814 283.359L289.499 262.089ZM296.025 304.748L290.431 263.688L316.748 283.452L296.025 304.748Z" fill="#90CAF9"/>
<path d="M317.467 189.133L341.16 222.988L341.746 222.575L319.492 190.784L375.761 215.157L376.041 214.504L317.467 189.133Z" fill="#90CAF9"/>
<path d="M284.971 234.174L372.392 251.754L372.525 251.062L286.756 233.801L370.847 175.481L370.448 174.895L284.971 234.174Z" fill="#90CAF9"/>
<path d="M235.134 216.808C235.081 216.888 235.054 216.981 235.067 217.074L242.845 266.791C242.872 266.991 243.058 267.124 243.258 267.084C243.458 267.058 243.591 266.871 243.551 266.671L235.92 217.9L289.1 262.609L243.817 267.044C243.658 267.058 243.524 267.177 243.498 267.337C243.471 267.497 243.551 267.644 243.698 267.723L262.476 276.953L298.835 327.363C298.955 327.522 299.168 327.562 299.328 327.443C299.488 327.323 299.528 327.11 299.408 326.95L263.009 276.474C262.969 276.42 262.929 276.394 262.876 276.367L245.149 267.657L290.019 263.248C290.165 263.235 290.285 263.142 290.325 262.995C290.365 262.862 290.325 262.716 290.218 262.623L235.667 216.754C235.547 216.661 235.387 216.648 235.267 216.714C235.201 216.728 235.161 216.768 235.134 216.808Z" fill="#90CAF9"/>
<path d="M209.576 231.871C209.563 231.897 209.536 231.924 209.523 231.95C209.456 232.137 209.55 232.337 209.723 232.417L289.832 263.208C290.019 263.275 290.218 263.182 290.298 263.009C290.365 262.822 290.272 262.622 290.099 262.542L209.989 231.751C209.829 231.697 209.67 231.751 209.576 231.871Z" fill="#90CAF9"/>
<path d="M99.2877 269.828C99.1812 269.828 99.0746 269.801 98.9681 269.761C98.5818 269.588 98.4087 269.122 98.5818 268.736L99.8337 266.006C100.007 265.619 100.473 265.446 100.859 265.619C101.245 265.793 101.419 266.259 101.245 266.645L99.9936 269.375C99.8604 269.668 99.5807 269.828 99.2877 269.828Z" fill="black"/>
<path d="M90.5377 151.029V121.769H322.369V193.487C322.369 197.976 318.733 201.625 314.231 201.625H98.6619C94.1736 201.625 90.5244 197.989 90.5244 193.487V165.732" fill="#0D47A1"/>
<path d="M314.231 202.718H98.6618C93.5742 202.718 89.4323 198.576 89.4323 193.488V165.733C89.4323 165.12 89.925 164.628 90.5377 164.628C91.1503 164.628 91.6431 165.12 91.6431 165.733V193.488C91.6431 197.364 94.7995 200.52 98.6751 200.52H314.245C318.12 200.52 321.277 197.364 321.277 193.488V122.862H91.6298V151.03C91.6298 151.642 91.137 152.135 90.5244 152.135C89.9117 152.135 89.4189 151.642 89.4189 151.03V121.769C89.4189 121.157 89.9117 120.664 90.5244 120.664H322.355C322.968 120.664 323.461 121.157 323.461 121.769V193.488C323.461 198.576 319.319 202.718 314.231 202.718Z" fill="black"/>
<path d="M320.091 104.695H366.146C370.861 104.695 374.683 108.518 374.683 113.232C374.683 117.947 370.861 121.769 366.146 121.769H52.807C48.0924 121.769 44.27 117.947 44.27 113.232C44.27 108.518 48.0924 104.695 52.807 104.695H286.876" fill="#1976D2"/>
<path d="M366.146 122.861H52.807C47.493 122.861 43.1646 118.532 43.1646 113.218C43.1646 107.904 47.493 103.576 52.807 103.576H286.875C287.488 103.576 287.981 104.068 287.981 104.681C287.981 105.294 287.488 105.787 286.875 105.787H52.807C48.705 105.787 45.3754 109.116 45.3754 113.218C45.3754 117.32 48.705 120.65 52.807 120.65H366.132C370.234 120.65 373.564 117.32 373.564 113.218C373.564 109.116 370.234 105.787 366.132 105.787H320.078C319.465 105.787 318.972 105.294 318.972 104.681C318.972 104.068 319.465 103.576 320.078 103.576H366.132C371.446 103.576 375.775 107.904 375.775 113.218C375.775 118.532 371.46 122.861 366.146 122.861Z" fill="black"/>
<path d="M308.571 105.8H301.113C300.5 105.8 300.007 105.307 300.007 104.695C300.007 104.082 300.5 103.589 301.113 103.589H308.571C309.184 103.589 309.676 104.082 309.676 104.695C309.676 105.307 309.184 105.8 308.571 105.8Z" fill="black"/>
<path d="M90.5375 162.243C89.9249 162.243 89.4321 161.751 89.4321 161.138V156.81C89.4321 156.197 89.9249 155.704 90.5375 155.704C91.1502 155.704 91.643 156.197 91.643 156.81V161.138C91.6296 161.751 91.1369 162.243 90.5375 162.243Z" fill="black"/>
<path d="M327.443 281.481L311.914 265.207L296.385 281.481C295.732 282.174 294.574 281.708 294.574 280.749V122.035H329.268V280.762C329.254 281.708 328.096 282.174 327.443 281.481Z" fill="#1976D2"/>
<path d="M328.189 283.093C327.563 283.093 326.964 282.84 326.511 282.374L311.901 267.071L297.291 282.374C296.625 283.066 295.626 283.279 294.747 282.933C293.854 282.573 293.282 281.734 293.282 280.775V122.035C293.282 121.329 293.854 120.756 294.56 120.756H329.254C329.96 120.756 330.533 121.329 330.533 122.035V280.762C330.533 281.721 329.96 282.56 329.068 282.92C328.775 283.039 328.482 283.093 328.189 283.093ZM311.901 263.941C312.247 263.941 312.58 264.088 312.82 264.341L327.962 280.216V123.313H295.826V280.203L310.968 264.327C311.221 264.088 311.554 263.941 311.901 263.941Z" fill="black"/>
<g opacity="0.17">
<path opacity="0.17" d="M328.974 121.769H89.978V139.935H328.974V121.769Z" fill="black"/>
</g>
<path d="M111.86 241.38L135.833 188.906L164.707 202.105L123.74 291.737L116.042 270.401L94.8794 278.538L108.104 249.598" fill="#FFC107"/>
<path d="M123.74 292.389C123.727 292.389 123.727 292.389 123.713 292.389C123.447 292.376 123.207 292.203 123.114 291.95L115.642 271.253L95.1057 279.151C94.8526 279.244 94.5729 279.177 94.3865 278.991C94.2 278.791 94.1601 278.511 94.2666 278.258L107.492 249.318C107.638 248.985 108.038 248.838 108.371 248.985C108.704 249.131 108.85 249.531 108.704 249.864L96.1578 277.339L115.816 269.775C115.975 269.708 116.162 269.721 116.322 269.788C116.481 269.868 116.615 270.001 116.668 270.161L123.82 289.965L163.828 202.411L136.153 189.772L112.446 241.633C112.3 241.966 111.9 242.113 111.567 241.966C111.234 241.82 111.088 241.42 111.234 241.087L135.207 188.627C135.353 188.294 135.753 188.147 136.086 188.294L164.96 201.492C165.12 201.559 165.24 201.692 165.306 201.865C165.373 202.025 165.36 202.211 165.293 202.371L124.339 292.003C124.246 292.243 124.006 292.389 123.74 292.389Z" fill="black"/>
<path d="M176.84 291.737L184.538 270.401L205.701 278.538L164.747 188.906L135.873 202.105L176.84 291.737Z" fill="#FFC107"/>
<path d="M176.84 292.389C176.587 292.389 176.347 292.243 176.241 292.003L135.287 202.371C135.22 202.211 135.207 202.025 135.274 201.865C135.34 201.705 135.46 201.572 135.62 201.492L164.494 188.294C164.827 188.147 165.213 188.294 165.373 188.627L206.327 278.258C206.433 278.498 206.393 278.791 206.207 278.991C206.02 279.191 205.741 279.257 205.488 279.151L184.951 271.253L177.479 291.95C177.386 292.203 177.16 292.376 176.88 292.389C176.853 292.389 176.84 292.389 176.84 292.389ZM136.752 202.424L176.76 289.979L183.912 270.174C183.979 270.001 184.099 269.868 184.258 269.801C184.418 269.721 184.605 269.721 184.764 269.788L204.422 277.353L164.414 189.798L136.752 202.424Z" fill="black"/>
<path d="M197.91 194.926C197.91 199.814 192.622 203.809 191.184 208.218C189.706 212.786 191.584 219.112 188.813 222.921C186.016 226.757 179.397 226.916 175.562 229.713C171.753 232.483 169.582 238.743 165.014 240.235C160.605 241.673 155.185 237.931 150.297 237.931C145.409 237.931 139.989 241.673 135.58 240.235C131.012 238.756 128.841 232.483 125.032 229.713C121.196 226.916 114.564 226.77 111.78 222.921C109.01 219.112 110.888 212.786 109.41 208.218C107.971 203.809 102.684 199.814 102.684 194.926C102.684 190.038 107.971 186.043 109.41 181.634C110.888 177.066 109.01 170.74 111.78 166.931C114.577 163.095 121.196 162.935 125.032 160.139C128.841 157.368 131.012 151.109 135.58 149.617C139.989 148.179 145.409 151.921 150.297 151.921C155.185 151.921 160.605 148.179 165.014 149.617C169.582 151.096 171.753 157.368 175.562 160.139C179.397 162.935 186.03 163.082 188.813 166.931C191.584 170.74 189.706 177.066 191.184 181.634C192.622 186.043 197.91 190.038 197.91 194.926Z" fill="#FB8C00"/>
<path d="M137.764 241.207C136.952 241.207 136.153 241.1 135.367 240.847C132.49 239.915 130.559 237.291 128.681 234.761C127.376 232.99 126.138 231.325 124.633 230.233C123.101 229.127 121.023 228.421 119.012 227.742C116.042 226.743 112.979 225.704 111.221 223.294C109.49 220.923 109.45 217.7 109.41 214.584C109.383 212.439 109.357 210.229 108.757 208.404C108.198 206.686 107.013 205.021 105.747 203.25C103.909 200.666 102.005 197.989 102.005 194.913C102.005 191.823 103.909 189.159 105.747 186.575C106.999 184.817 108.198 183.139 108.757 181.421C109.343 179.597 109.383 177.386 109.41 175.242C109.45 172.125 109.49 168.902 111.221 166.531C112.966 164.121 116.042 163.095 119.012 162.083C121.023 161.404 123.101 160.698 124.633 159.593C126.138 158.5 127.363 156.836 128.681 155.064C130.559 152.534 132.504 149.91 135.367 148.978C138.111 148.086 141.147 149.031 144.104 149.95C146.182 150.589 148.326 151.255 150.297 151.255C152.268 151.255 154.412 150.589 156.49 149.95C159.433 149.031 162.483 148.086 165.227 148.978C168.103 149.91 170.035 152.534 171.912 155.064C173.218 156.836 174.456 158.5 175.961 159.593C177.493 160.698 179.57 161.404 181.582 162.083C184.551 163.082 187.615 164.121 189.373 166.531C191.104 168.902 191.144 172.125 191.184 175.242C191.211 177.386 191.237 179.597 191.837 181.421C192.396 183.139 193.581 184.804 194.847 186.575C196.684 189.159 198.589 191.836 198.589 194.913C198.589 198.002 196.684 200.666 194.847 203.25C193.595 205.008 192.396 206.686 191.837 208.404C191.251 210.229 191.211 212.439 191.184 214.584C191.144 217.7 191.104 220.923 189.373 223.294C187.628 225.704 184.551 226.73 181.582 227.742C179.57 228.421 177.493 229.127 175.961 230.233C174.456 231.325 173.231 232.99 171.912 234.761C170.035 237.291 168.09 239.915 165.227 240.847C162.483 241.74 159.447 240.794 156.49 239.875C154.412 239.236 152.268 238.57 150.297 238.57C148.326 238.57 146.182 239.236 144.104 239.875C141.986 240.541 139.829 241.207 137.764 241.207ZM137.778 149.963C137.085 149.963 136.419 150.057 135.78 150.256C133.316 151.056 131.492 153.506 129.747 155.877C128.442 157.648 127.083 159.473 125.418 160.685C123.727 161.91 121.556 162.656 119.438 163.362C116.535 164.347 113.805 165.266 112.3 167.33C110.822 169.368 110.782 172.245 110.742 175.281C110.715 177.519 110.675 179.836 110.022 181.847C109.397 183.765 108.091 185.59 106.839 187.361C105.121 189.772 103.337 192.276 103.337 194.939C103.337 197.603 105.121 200.093 106.839 202.517C108.105 204.289 109.41 206.113 110.022 208.031C110.675 210.042 110.702 212.36 110.742 214.597C110.782 217.634 110.822 220.51 112.3 222.548C113.805 224.612 116.535 225.531 119.438 226.517C121.543 227.223 123.727 227.969 125.418 229.194C127.083 230.406 128.442 232.23 129.747 234.002C131.505 236.372 133.316 238.81 135.78 239.622C138.124 240.381 140.841 239.542 143.718 238.65C145.889 237.984 148.126 237.278 150.297 237.278C152.468 237.278 154.705 237.971 156.876 238.65C159.753 239.542 162.47 240.381 164.814 239.622C167.278 238.823 169.102 236.372 170.847 234.002C172.152 232.23 173.511 230.406 175.175 229.194C176.867 227.969 179.038 227.223 181.155 226.517C184.059 225.531 186.789 224.612 188.294 222.548C189.772 220.51 189.812 217.634 189.852 214.597C189.879 212.36 189.919 210.042 190.571 208.031C191.197 206.113 192.502 204.289 193.754 202.517C195.472 200.107 197.257 197.603 197.257 194.939C197.257 192.276 195.472 189.785 193.754 187.361C192.489 185.59 191.184 183.765 190.571 181.847C189.919 179.836 189.892 177.519 189.852 175.281C189.812 172.245 189.772 169.368 188.294 167.33C186.789 165.266 184.059 164.347 181.155 163.362C179.051 162.656 176.867 161.91 175.175 160.685C173.511 159.473 172.152 157.648 170.847 155.877C169.089 153.506 167.278 151.069 164.814 150.256C162.47 149.497 159.753 150.336 156.876 151.229C154.705 151.895 152.468 152.6 150.297 152.6C148.126 152.6 145.889 151.908 143.718 151.229C141.613 150.576 139.616 149.963 137.778 149.963Z" fill="black"/>
<path d="M150.297 227.662C168.377 227.662 183.033 213.006 183.033 194.926C183.033 176.846 168.377 162.189 150.297 162.189C132.217 162.189 117.561 176.846 117.561 194.926C117.561 213.006 132.217 227.662 150.297 227.662Z" fill="#FFC107"/>
<path d="M150.297 228.315C131.878 228.315 116.895 213.332 116.895 194.913C116.895 176.494 131.878 161.511 150.297 161.511C168.716 161.511 183.699 176.494 183.699 194.913C183.686 213.332 168.703 228.315 150.297 228.315ZM150.297 162.843C132.61 162.843 118.226 177.226 118.226 194.913C118.226 212.6 132.61 226.983 150.297 226.983C167.983 226.983 182.367 212.6 182.367 194.913C182.367 177.24 167.983 162.843 150.297 162.843Z" fill="black"/>
</g>
<defs>
<clipPath id="clip0">
<rect width="379.464" height="330" fill="white"/>
</clipPath>
</defs>
</svg>
