<svg width="377" height="328" viewBox="0 0 377 328" fill="none" xmlns="http://www.w3.org/2000/svg">
<g clip-path="url(#clip0)">
<path d="M216.802 303.916C292.041 303.916 353.034 242.923 353.034 167.684C353.034 92.4454 292.041 31.4524 216.802 31.4524C141.564 31.4524 80.5708 92.4454 80.5708 167.684C80.5708 242.923 141.564 303.916 216.802 303.916Z" fill="#E64A19"/>
<path d="M130.738 236.792C130.712 236.779 130.685 236.766 130.659 236.752C130.553 236.713 130.447 236.726 130.355 236.779C130.315 236.766 130.275 236.779 130.236 236.779L40.2565 254.674C40.0714 254.714 39.9523 254.886 39.9788 255.071L47.0284 296.813C47.0549 296.932 47.121 297.025 47.24 297.078C47.3459 297.117 47.4781 297.104 47.5707 297.038L130.328 237.652L152.958 324.046C152.998 324.218 153.183 324.337 153.355 324.298L235.769 307.91C235.901 307.884 236.007 307.778 236.046 307.632C236.073 307.5 236.02 307.355 235.901 307.275L130.897 237.096L130.87 236.977C130.857 236.911 130.817 236.845 130.738 236.792ZM131.188 238.128L234.856 307.408L153.58 323.57L131.188 238.128ZM40.7327 255.296L129.045 237.731L47.6368 296.165L40.7327 255.296Z" fill="#FF8A65"/>
<path d="M144.52 289.407C144.494 289.393 144.467 289.38 144.428 289.367L83.8507 270.347C83.7053 270.308 83.5598 270.347 83.4672 270.466C83.3746 270.585 83.3746 270.744 83.454 270.863L117.499 322.367C117.565 322.459 117.657 322.512 117.776 322.525C117.882 322.525 117.988 322.486 118.067 322.393L144.613 289.909C144.679 289.817 144.705 289.698 144.679 289.592C144.639 289.512 144.586 289.446 144.52 289.407ZM84.5782 271.3L143.753 289.87L117.829 321.6L84.5782 271.3Z" fill="#FF8A65"/>
<path d="M87.3028 216.503C87.2499 216.463 87.197 216.45 87.1308 216.45C87.0118 216.437 86.906 216.49 86.8399 216.582L59.9374 250.852C59.8448 250.971 59.8448 251.13 59.911 251.249C59.9903 251.368 60.1358 251.434 60.2681 251.407L102.513 243.009C102.619 242.982 102.711 242.916 102.764 242.81C102.804 242.704 102.804 242.585 102.751 242.493L87.3954 216.609C87.3821 216.569 87.3425 216.529 87.3028 216.503ZM61.0617 250.548L87.0647 217.402L101.918 242.427L61.0617 250.548Z" fill="#FF8A65"/>
<path d="M128.04 163.002C127.987 162.962 127.934 162.949 127.868 162.949C127.762 162.936 127.656 162.989 127.59 163.055L95.1196 197.946C95.0005 198.078 95.0005 198.277 95.1196 198.409L129.812 237.4C129.892 237.493 130.024 237.533 130.143 237.506C130.262 237.48 130.368 237.387 130.394 237.268L144.837 187.008C144.864 186.902 144.851 186.796 144.785 186.717L128.119 163.095C128.106 163.055 128.08 163.028 128.04 163.002ZM95.847 198.184L127.815 163.835L144.15 186.968L129.905 236.474L95.847 198.184Z" fill="#FF8A65"/>
<path d="M47.3859 299.525C48.9126 299.525 50.1502 298.287 50.1502 296.76C50.1502 295.234 48.9126 293.996 47.3859 293.996C45.8592 293.996 44.6216 295.234 44.6216 296.76C44.6216 298.287 45.8592 299.525 47.3859 299.525Z" fill="#FF8A65"/>
<path d="M87.3957 219.743C88.9223 219.743 90.16 218.506 90.16 216.979C90.16 215.452 88.9223 214.215 87.3957 214.215C85.869 214.215 84.6313 215.452 84.6313 216.979C84.6313 218.506 85.869 219.743 87.3957 219.743Z" fill="#FF8A65"/>
<path d="M130.064 239.94C131.59 239.94 132.828 238.702 132.828 237.176C132.828 235.649 131.59 234.411 130.064 234.411C128.537 234.411 127.299 235.649 127.299 237.176C127.299 238.702 128.537 239.94 130.064 239.94Z" fill="#FF8A65"/>
<path d="M191.487 319.272C193.014 319.272 194.251 318.034 194.251 316.507C194.251 314.981 193.014 313.743 191.487 313.743C189.96 313.743 188.723 314.981 188.723 316.507C188.723 318.034 189.96 319.272 191.487 319.272Z" fill="#FF8A65"/>
<path d="M174.557 269.25C176.084 269.25 177.322 268.012 177.322 266.485C177.322 264.959 176.084 263.721 174.557 263.721C173.031 263.721 171.793 264.959 171.793 266.485C171.793 268.012 173.031 269.25 174.557 269.25Z" fill="#FF8A65"/>
<path d="M143.846 190.063C145.373 190.063 146.61 188.825 146.61 187.299C146.61 185.772 145.373 184.534 143.846 184.534C142.319 184.534 141.082 185.772 141.082 187.299C141.082 188.825 142.319 190.063 143.846 190.063Z" fill="#FF8A65"/>
<path d="M127.855 166.057C129.382 166.057 130.619 164.82 130.619 163.293C130.619 161.766 129.382 160.529 127.855 160.529C126.328 160.529 125.091 161.766 125.091 163.293C125.091 164.82 126.328 166.057 127.855 166.057Z" fill="#FF8A65"/>
<path d="M118.028 195.698C119.555 195.698 120.792 194.46 120.792 192.933C120.792 191.407 119.555 190.169 118.028 190.169C116.501 190.169 115.264 191.407 115.264 192.933C115.264 194.46 116.501 195.698 118.028 195.698Z" fill="#FF8A65"/>
<path d="M117.036 225.814C118.562 225.814 119.8 224.577 119.8 223.05C119.8 221.523 118.562 220.286 117.036 220.286C115.509 220.286 114.271 221.523 114.271 223.05C114.271 224.577 115.509 225.814 117.036 225.814Z" fill="#FF8A65"/>
<path d="M110.806 218.328C112.333 218.328 113.571 217.091 113.571 215.564C113.571 214.037 112.333 212.8 110.806 212.8C109.28 212.8 108.042 214.037 108.042 215.564C108.042 217.091 109.28 218.328 110.806 218.328Z" fill="#FF8A65"/>
<path d="M95.3844 200.948C96.9111 200.948 98.1487 199.711 98.1487 198.184C98.1487 196.657 96.9111 195.42 95.3844 195.42C93.8577 195.42 92.6201 196.657 92.6201 198.184C92.6201 199.711 93.8577 200.948 95.3844 200.948Z" fill="#FF8A65"/>
<path d="M235.16 310.582C236.687 310.582 237.925 309.344 237.925 307.818C237.925 306.291 236.687 305.053 235.16 305.053C233.634 305.053 232.396 306.291 232.396 307.818C232.396 309.344 233.634 310.582 235.16 310.582Z" fill="#FF8A65"/>
<path d="M117.79 324.946C119.316 324.946 120.554 323.708 120.554 322.181C120.554 320.655 119.316 319.417 117.79 319.417C116.263 319.417 115.025 320.655 115.025 322.181C115.025 323.708 116.263 324.946 117.79 324.946Z" fill="#FF8A65"/>
<path d="M123.305 286.179C124.832 286.179 126.07 284.942 126.07 283.415C126.07 281.888 124.832 280.651 123.305 280.651C121.779 280.651 120.541 281.888 120.541 283.415C120.541 284.942 121.779 286.179 123.305 286.179Z" fill="#FF8A65"/>
<path d="M143.925 293.308C145.452 293.308 146.689 292.071 146.689 290.544C146.689 289.017 145.452 287.78 143.925 287.78C142.398 287.78 141.161 289.017 141.161 290.544C141.161 292.071 142.398 293.308 143.925 293.308Z" fill="#FF8A65"/>
<path d="M167.825 289.301C169.352 289.301 170.589 288.063 170.589 286.536C170.589 285.01 169.352 283.772 167.825 283.772C166.298 283.772 165.061 285.01 165.061 286.536C165.061 288.063 166.298 289.301 167.825 289.301Z" fill="#FF8A65"/>
<path d="M160.921 279.698C162.448 279.698 163.685 278.461 163.685 276.934C163.685 275.407 162.448 274.17 160.921 274.17C159.394 274.17 158.157 275.407 158.157 276.934C158.157 278.461 159.394 279.698 160.921 279.698Z" fill="#FF8A65"/>
<path d="M40.3361 257.782C41.8628 257.782 43.1004 256.545 43.1004 255.018C43.1004 253.491 41.8628 252.254 40.3361 252.254C38.8094 252.254 37.5718 253.491 37.5718 255.018C37.5718 256.545 38.8094 257.782 40.3361 257.782Z" fill="#FF8A65"/>
<path d="M61.1544 253.391C62.6811 253.391 63.9188 252.154 63.9188 250.627C63.9188 249.1 62.6811 247.863 61.1544 247.863C59.6278 247.863 58.3901 249.1 58.3901 250.627C58.3901 252.154 59.6278 253.391 61.1544 253.391Z" fill="#FF8A65"/>
<path d="M102.236 245.469C103.762 245.469 105 244.231 105 242.704C105 241.178 103.762 239.94 102.236 239.94C100.709 239.94 99.4712 241.178 99.4712 242.704C99.4712 244.231 100.709 245.469 102.236 245.469Z" fill="#FF8A65"/>
<path d="M83.7848 273.085C85.3115 273.085 86.5491 271.847 86.5491 270.321C86.5491 268.794 85.3115 267.556 83.7848 267.556C82.2581 267.556 81.0205 268.794 81.0205 270.321C81.0205 271.847 82.2581 273.085 83.7848 273.085Z" fill="#FF8A65"/>
<path d="M153.487 326.321C155.014 326.321 156.252 325.083 156.252 323.557C156.252 322.03 155.014 320.792 153.487 320.792C151.961 320.792 150.723 322.03 150.723 323.557C150.723 325.083 151.961 326.321 153.487 326.321Z" fill="#FF8A65"/>
<path d="M102.989 242.215L60.4004 250.428L83.8507 270.85L102.989 242.215ZM61.9214 250.838L101.481 243.207L83.7053 269.805L61.9214 250.838Z" fill="#FF8A65"/>
<path d="M175.311 265.467L143.713 290.266L144.137 290.809L173.817 267.517L153.157 323.438L153.805 323.676L175.311 265.467Z" fill="#FF8A65"/>
<path d="M129.839 236.316L117.446 322.129L118.134 322.221L130.302 238.035L191.408 316.547L191.963 316.124L129.839 236.316Z" fill="#FF8A65"/>
<path d="M144.044 187.008C143.965 186.955 143.872 186.942 143.78 186.955L95.9397 197.166C95.7546 197.205 95.6355 197.391 95.6752 197.576C95.7149 197.761 95.9001 197.88 96.0852 197.84L143.026 187.815L102.46 241.831L95.7281 198.118C95.7017 197.959 95.5826 197.84 95.4239 197.827C95.2652 197.814 95.1197 197.893 95.0668 198.039L87.1177 216.754L40.1245 254.74C39.979 254.859 39.9525 255.084 40.0715 255.229C40.1906 255.375 40.4154 255.401 40.5609 255.282L87.6203 217.243C87.66 217.204 87.6997 217.164 87.7262 217.111L95.2387 199.427L101.918 242.757C101.945 242.889 102.037 243.008 102.183 243.035C102.315 243.074 102.46 243.022 102.54 242.902L144.15 187.484C144.242 187.365 144.242 187.206 144.163 187.087C144.11 187.074 144.084 187.034 144.044 187.008Z" fill="#FF8A65"/>
<path d="M128.04 163.002C128.014 162.989 127.987 162.976 127.948 162.963C127.762 162.91 127.577 163.002 127.511 163.187L101.905 242.612C101.852 242.797 101.945 242.995 102.13 243.048C102.315 243.101 102.5 243.008 102.566 242.823L128.172 163.399C128.225 163.24 128.172 163.082 128.04 163.002Z" fill="#FF8A65"/>
<path d="M281.598 92.5186C281.625 92.5318 281.638 92.5583 281.664 92.5715C281.757 92.6244 281.876 92.6244 281.969 92.5848C282.008 92.598 282.048 92.598 282.088 92.598L374.223 89.384C374.408 89.384 374.553 89.2253 374.553 89.0401L374.302 46.4909C374.302 46.3718 374.236 46.266 374.13 46.1999C374.024 46.1337 373.905 46.1337 373.799 46.1866L282.114 91.7383L273.61 2.38091C273.596 2.19574 273.438 2.06348 273.252 2.06348L188.855 5.01296C188.709 5.01296 188.59 5.10554 188.537 5.23781C188.485 5.37007 188.524 5.51556 188.63 5.60814L281.453 92.1747L281.466 92.307C281.492 92.3864 281.532 92.4657 281.598 92.5186ZM281.373 91.1299L189.741 5.66105L272.975 2.76447L281.373 91.1299ZM373.865 88.7094L283.423 91.8573L373.614 47.0464L373.865 88.7094Z" fill="#FF8A65"/>
<path d="M276.427 38.1051C276.453 38.1316 276.48 38.1448 276.506 38.158L333.538 66.8063C333.67 66.8725 333.829 66.846 333.935 66.7402C334.041 66.6344 334.067 66.4757 334.014 66.3434L308.553 9.77423C308.514 9.66842 308.421 9.60229 308.315 9.57584C308.21 9.54938 308.091 9.57584 308.011 9.6552L276.44 37.5893C276.347 37.6686 276.308 37.7745 276.321 37.8935C276.321 37.9861 276.361 38.0522 276.427 38.1051ZM332.969 65.7615L277.273 37.7745L308.117 10.4885L332.969 65.7615Z" fill="#FF8A65"/>
<path d="M321.41 119.672C321.45 119.712 321.502 119.738 321.569 119.751C321.674 119.778 321.793 119.751 321.886 119.672L354.105 90.0054C354.211 89.9128 354.251 89.7541 354.198 89.6218C354.145 89.4896 354.013 89.397 353.867 89.4102L310.604 90.918C310.485 90.918 310.392 90.9841 310.326 91.0767C310.26 91.1693 310.247 91.2883 310.286 91.3941L321.344 119.54C321.344 119.593 321.37 119.632 321.41 119.672ZM352.942 90.1376L321.793 118.812L311.107 91.5925L352.942 90.1376Z" fill="#FF8A65"/>
<path d="M272.353 166.15C272.393 166.189 272.445 166.216 272.512 166.229C272.617 166.256 272.723 166.229 272.803 166.163L310.643 136.8C310.789 136.695 310.815 136.496 310.723 136.338L282.603 92.0557C282.537 91.9498 282.418 91.8837 282.286 91.8969C282.154 91.9102 282.048 91.9763 281.995 92.0953L259.55 139.618C259.51 139.71 259.51 139.829 259.55 139.922L272.274 166.044C272.3 166.097 272.326 166.123 272.353 166.15ZM309.969 136.457L272.71 165.369L260.251 139.776L282.365 92.9683L309.969 136.457Z" fill="#FF8A65"/>
<path d="M373.958 49.2682C375.492 49.2682 376.736 48.0247 376.736 46.4907C376.736 44.9567 375.492 43.7131 373.958 43.7131C372.424 43.7131 371.181 44.9567 371.181 46.4907C371.181 48.0247 372.424 49.2682 373.958 49.2682Z" fill="#FF8A65"/>
<path d="M321.397 121.96C322.931 121.96 324.174 120.717 324.174 119.183C324.174 117.649 322.931 116.405 321.397 116.405C319.863 116.405 318.619 117.649 318.619 119.183C318.619 120.717 319.863 121.96 321.397 121.96Z" fill="#FF8A65"/>
<path d="M282.326 95.0314C283.86 95.0314 285.103 93.7878 285.103 92.2539C285.103 90.7199 283.86 89.4763 282.326 89.4763C280.792 89.4763 279.548 90.7199 279.548 92.2539C279.548 93.7878 280.792 95.0314 282.326 95.0314Z" fill="#FF8A65"/>
<path d="M234.208 6.42788C235.742 6.42788 236.986 5.18433 236.986 3.65034C236.986 2.11635 235.742 0.872803 234.208 0.872803C232.674 0.872803 231.431 2.11635 231.431 3.65034C231.431 5.18433 232.674 6.42788 234.208 6.42788Z" fill="#FF8A65"/>
<path d="M242.925 58.7645C244.459 58.7645 245.702 57.521 245.702 55.987C245.702 54.453 244.459 53.2095 242.925 53.2095C241.391 53.2095 240.147 54.453 240.147 55.987C240.147 57.521 241.391 58.7645 242.925 58.7645Z" fill="#FF8A65"/>
<path d="M260.595 142.276C262.129 142.276 263.372 141.033 263.372 139.499C263.372 137.965 262.129 136.721 260.595 136.721C259.061 136.721 257.817 137.965 257.817 139.499C257.817 141.033 259.061 142.276 260.595 142.276Z" fill="#FF8A65"/>
<path d="M272.591 168.676C274.125 168.676 275.369 167.432 275.369 165.898C275.369 164.364 274.125 163.121 272.591 163.121C271.057 163.121 269.814 164.364 269.814 165.898C269.814 167.432 271.057 168.676 272.591 168.676Z" fill="#FF8A65"/>
<path d="M287.114 140.861C288.648 140.861 289.891 139.617 289.891 138.083C289.891 136.549 288.648 135.306 287.114 135.306C285.58 135.306 284.336 136.549 284.336 138.083C284.336 139.617 285.58 140.861 287.114 140.861Z" fill="#FF8A65"/>
<path d="M292.973 111.141C294.507 111.141 295.75 109.898 295.75 108.364C295.75 106.83 294.507 105.586 292.973 105.586C291.439 105.586 290.195 106.83 290.195 108.364C290.195 109.898 291.439 111.141 292.973 111.141Z" fill="#FF8A65"/>
<path d="M297.946 119.58C299.48 119.58 300.724 118.336 300.724 116.802C300.724 115.268 299.48 114.025 297.946 114.025C296.412 114.025 295.168 115.268 295.168 116.802C295.168 118.336 296.412 119.58 297.946 119.58Z" fill="#FF8A65"/>
<path d="M310.432 139.313C311.966 139.313 313.209 138.07 313.209 136.536C313.209 135.002 311.966 133.758 310.432 133.758C308.898 133.758 307.654 135.002 307.654 136.536C307.654 138.07 308.898 139.313 310.432 139.313Z" fill="#FF8A65"/>
<path d="M189.49 7.97573C191.024 7.97573 192.267 6.73218 192.267 5.19819C192.267 3.6642 191.024 2.42065 189.49 2.42065C187.956 2.42065 186.712 3.6642 186.712 5.19819C186.712 6.73218 187.956 7.97573 189.49 7.97573Z" fill="#FF8A65"/>
<path d="M308.237 12.6972C309.771 12.6972 311.014 11.4536 311.014 9.91963C311.014 8.38564 309.771 7.14209 308.237 7.14209C306.703 7.14209 305.459 8.38564 305.459 9.91963C305.459 11.4536 306.703 12.6972 308.237 12.6972Z" fill="#FF8A65"/>
<path d="M296.505 50.247C298.039 50.247 299.282 49.0034 299.282 47.4694C299.282 45.9354 298.039 44.6919 296.505 44.6919C294.971 44.6919 293.727 45.9354 293.727 47.4694C293.727 49.0034 294.971 50.247 296.505 50.247Z" fill="#FF8A65"/>
<path d="M277.207 39.851C278.741 39.851 279.985 38.6074 279.985 37.0734C279.985 35.5394 278.741 34.2959 277.207 34.2959C275.673 34.2959 274.43 35.5394 274.43 37.0734C274.43 38.6074 275.673 39.851 277.207 39.851Z" fill="#FF8A65"/>
<path d="M252.844 39.9701C254.378 39.9701 255.622 38.7266 255.622 37.1926C255.622 35.6586 254.378 34.415 252.844 34.415C251.31 34.415 250.067 35.6586 250.067 37.1926C250.067 38.7266 251.31 39.9701 252.844 39.9701Z" fill="#FF8A65"/>
<path d="M258.148 50.6044C259.682 50.6044 260.926 49.3608 260.926 47.8269C260.926 46.2929 259.682 45.0493 258.148 45.0493C256.614 45.0493 255.371 46.2929 255.371 47.8269C255.371 49.3608 256.614 50.6044 258.148 50.6044Z" fill="#FF8A65"/>
<path d="M374.223 91.8173C375.757 91.8173 377 90.5737 377 89.0397C377 87.5058 375.757 86.2622 374.223 86.2622C372.689 86.2622 371.445 87.5058 371.445 89.0397C371.445 90.5737 372.689 91.8173 374.223 91.8173Z" fill="#FF8A65"/>
<path d="M352.849 92.8095C354.383 92.8095 355.626 91.5659 355.626 90.0319C355.626 88.4979 354.383 87.2544 352.849 87.2544C351.315 87.2544 350.071 88.4979 350.071 90.0319C350.071 91.5659 351.315 92.8095 352.849 92.8095Z" fill="#FF8A65"/>
<path d="M310.829 94.0392C312.363 94.0392 313.606 92.7957 313.606 91.2617C313.606 89.7277 312.363 88.4841 310.829 88.4841C309.295 88.4841 308.051 89.7277 308.051 91.2617C308.051 92.7957 309.295 94.0392 310.829 94.0392Z" fill="#FF8A65"/>
<path d="M333.591 69.6234C335.125 69.6234 336.369 68.3799 336.369 66.8459C336.369 65.3119 335.125 64.0684 333.591 64.0684C332.057 64.0684 330.813 65.3119 330.813 66.8459C330.813 68.3799 332.057 69.6234 333.591 69.6234Z" fill="#FF8A65"/>
<path d="M273.054 5.55508C274.588 5.55508 275.831 4.31153 275.831 2.77754C275.831 1.24355 274.588 0 273.054 0C271.52 0 270.276 1.24355 270.276 2.77754C270.276 4.31153 271.52 5.55508 273.054 5.55508Z" fill="#FF8A65"/>
<path d="M310.009 91.6322L353.576 90.3624L333.605 66.3169L310.009 91.6322ZM352.122 89.7143L311.649 90.8915L333.578 67.375L352.122 89.7143Z" fill="#FF8A65"/>
<path d="M242.025 56.8865L277.366 37.3776L277.035 36.7692L243.837 55.0877L273.358 2.94935L272.75 2.60547L242.025 56.8865Z" fill="#FF8A65"/>
<path d="M282.405 93.1401L308.567 10.0256L307.906 9.81401L282.233 91.3678L234.301 3.61084L233.692 3.9415L282.405 93.1401Z" fill="#FF8A65"/>
<path d="M260.37 139.763C260.436 139.829 260.529 139.856 260.621 139.856L309.731 137.449C309.916 137.435 310.075 137.277 310.061 137.078C310.048 136.88 309.89 136.734 309.691 136.748L261.507 139.102L310.472 92.0688L310.088 136.523C310.088 136.681 310.194 136.814 310.339 136.853C310.485 136.893 310.643 136.84 310.736 136.708L321.648 119.421L374.395 89.331C374.567 89.2384 374.619 89.0268 374.527 88.8548C374.434 88.6829 374.223 88.63 374.051 88.7226L321.225 118.852C321.172 118.879 321.132 118.918 321.106 118.971L310.802 135.293L311.172 91.262C311.172 91.1165 311.093 90.9975 310.961 90.9446C310.829 90.8917 310.683 90.9181 310.577 91.0107L260.357 139.261C260.251 139.366 260.225 139.512 260.277 139.644C260.304 139.684 260.33 139.723 260.37 139.763Z" fill="#FF8A65"/>
<path d="M272.353 166.15C272.38 166.176 272.406 166.189 272.433 166.203C272.604 166.295 272.816 166.229 272.895 166.057L311.133 91.4074C311.225 91.2355 311.146 91.0239 310.987 90.9445C310.815 90.8519 310.604 90.9181 310.524 91.09L272.287 165.74C272.208 165.885 272.247 166.057 272.353 166.15Z" fill="#FF8A65"/>
<path d="M82.2503 111.63C82.2238 111.643 82.1974 111.643 82.1709 111.643C82.0651 111.643 81.9593 111.59 81.8932 111.511C81.8535 111.498 81.8138 111.485 81.7741 111.471L2.75981 63.9623C2.60109 63.8697 2.54819 63.6581 2.64077 63.4994L23.4988 26.4127C23.5517 26.3069 23.6707 26.2407 23.7897 26.2407C23.9088 26.2407 24.0278 26.2936 24.0939 26.3862L82.1842 110.678L132.96 36.6499C133.066 36.5044 133.264 36.4515 133.423 36.5441L205.811 80.0456C205.93 80.1117 205.996 80.2572 205.97 80.3895C205.943 80.535 205.851 80.6408 205.705 80.6805L82.5413 111.366L82.4619 111.471C82.409 111.564 82.3297 111.617 82.2503 111.63ZM83.1232 110.519L204.713 80.2308L133.331 37.3244L83.1232 110.519ZM3.4079 63.5391L80.9673 110.162L23.8294 27.2327L3.4079 63.5391Z" fill="#FF7043"/>
<path d="M113.16 66.5551C113.134 66.5683 113.094 66.5683 113.068 66.5683L49.3035 63.9627C49.158 63.9627 49.0258 63.8569 48.9861 63.7246C48.9464 63.5792 48.9861 63.4337 49.1051 63.3411L98.8098 26.2014C98.9024 26.1353 99.0082 26.1088 99.114 26.1485C99.2198 26.175 99.2992 26.2676 99.3389 26.3601L113.398 66.1054C113.438 66.2112 113.425 66.3302 113.346 66.4228C113.319 66.489 113.24 66.5419 113.16 66.5551ZM50.3087 63.3146L112.578 65.8541L98.8495 27.0347L50.3087 63.3146Z" fill="#FF7043"/>
<path d="M34.2649 116.061C34.212 116.074 34.1459 116.074 34.0798 116.061C33.9739 116.035 33.8814 115.942 33.8417 115.836L20.0598 74.2658C20.0201 74.1336 20.0598 73.9749 20.1788 73.8823C20.2979 73.7897 20.4566 73.7765 20.5756 73.8558L57.6756 96.1555C57.7682 96.2084 57.8343 96.3142 57.8475 96.4332C57.8608 96.5523 57.8079 96.6581 57.7285 96.7242L34.3972 115.995C34.3575 116.021 34.3178 116.048 34.2649 116.061ZM21.0253 74.9404L34.3575 115.135L56.8952 96.5126L21.0253 74.9404Z" fill="#FF7043"/>
<path d="M54.6205 180.5C54.5676 180.513 54.5015 180.513 54.4353 180.5C54.3295 180.474 54.2502 180.394 54.2105 180.302L35.3497 136.271C35.2835 136.112 35.3497 135.914 35.5084 135.835L81.5758 110.744C81.6817 110.678 81.8271 110.691 81.933 110.757C82.0388 110.824 82.1049 110.943 82.0917 111.075L78.6793 163.531C78.666 163.636 78.6131 163.729 78.5338 163.795L54.7395 180.474C54.6999 180.474 54.6602 180.5 54.6205 180.5ZM36.13 136.284L54.6866 179.64L77.9915 163.306L81.351 111.657L36.13 136.284Z" fill="#FF7043"/>
<path d="M23.7897 29.3624C25.3237 29.3624 26.5673 28.1189 26.5673 26.5849C26.5673 25.0509 25.3237 23.8074 23.7897 23.8074C22.2558 23.8074 21.0122 25.0509 21.0122 26.5849C21.0122 28.1189 22.2558 29.3624 23.7897 29.3624Z" fill="#FF7043"/>
<path d="M34.5163 118.415C36.0503 118.415 37.2938 117.172 37.2938 115.638C37.2938 114.104 36.0503 112.86 34.5163 112.86C32.9823 112.86 31.7388 114.104 31.7388 115.638C31.7388 117.172 32.9823 118.415 34.5163 118.415Z" fill="#FF7043"/>
<path d="M81.7478 113.813C83.2817 113.813 84.5253 112.569 84.5253 111.035C84.5253 109.501 83.2817 108.258 81.7478 108.258C80.2138 108.258 78.9702 109.501 78.9702 111.035C78.9702 112.569 80.2138 113.813 81.7478 113.813Z" fill="#FF7043"/>
<path d="M166.793 59.664C168.327 59.664 169.571 58.4204 169.571 56.8864C169.571 55.3524 168.327 54.1089 166.793 54.1089C165.259 54.1089 164.016 55.3524 164.016 56.8864C164.016 58.4204 165.259 59.664 166.793 59.664Z" fill="#FF7043"/>
<path d="M133.78 101.208C135.314 101.208 136.558 99.9644 136.558 98.4304C136.558 96.8964 135.314 95.6528 133.78 95.6528C132.246 95.6528 131.003 96.8964 131.003 98.4304C131.003 99.9644 132.246 101.208 133.78 101.208Z" fill="#FF7043"/>
<path d="M77.8195 165.673C79.3535 165.673 80.5971 164.429 80.5971 162.895C80.5971 161.361 79.3535 160.118 77.8195 160.118C76.2855 160.118 75.042 161.361 75.042 162.895C75.042 164.429 76.2855 165.673 77.8195 165.673Z" fill="#FF7043"/>
<path d="M54.5412 182.947C56.0752 182.947 57.3187 181.703 57.3187 180.169C57.3187 178.635 56.0752 177.392 54.5412 177.392C53.0072 177.392 51.7637 178.635 51.7637 180.169C51.7637 181.703 53.0072 182.947 54.5412 182.947Z" fill="#FF7043"/>
<path d="M55.3215 151.574C56.8555 151.574 58.099 150.33 58.099 148.796C58.099 147.262 56.8555 146.019 55.3215 146.019C53.7875 146.019 52.5439 147.262 52.5439 148.796C52.5439 150.33 53.7875 151.574 55.3215 151.574Z" fill="#FF7043"/>
<path d="M64.6198 122.74C66.1538 122.74 67.3974 121.497 67.3974 119.963C67.3974 118.429 66.1538 117.185 64.6198 117.185C63.0858 117.185 61.8423 118.429 61.8423 119.963C61.8423 121.497 63.0858 122.74 64.6198 122.74Z" fill="#FF7043"/>
<path d="M56.1813 127.713C57.7153 127.713 58.9589 126.47 58.9589 124.936C58.9589 123.402 57.7153 122.158 56.1813 122.158C54.6474 122.158 53.4038 123.402 53.4038 124.936C53.4038 126.47 54.6474 127.713 56.1813 127.713Z" fill="#FF7043"/>
<path d="M35.6804 138.916C37.2144 138.916 38.4579 137.673 38.4579 136.139C38.4579 134.605 37.2144 133.361 35.6804 133.361C34.1464 133.361 32.9028 134.605 32.9028 136.139C32.9028 137.673 34.1464 138.916 35.6804 138.916Z" fill="#FF7043"/>
<path d="M205.136 82.7174C206.67 82.7174 207.914 81.4739 207.914 79.9399C207.914 78.4059 206.67 77.1624 205.136 77.1624C203.602 77.1624 202.359 78.4059 202.359 79.9399C202.359 81.4739 203.602 82.7174 205.136 82.7174Z" fill="#FF7043"/>
<path d="M99.0212 29.2565C100.555 29.2565 101.799 28.0129 101.799 26.479C101.799 24.945 100.555 23.7014 99.0212 23.7014C97.4872 23.7014 96.2437 24.945 96.2437 26.479C96.2437 28.0129 97.4872 29.2565 99.0212 29.2565Z" fill="#FF7043"/>
<path d="M91.0593 67.7848C92.5933 67.7848 93.8368 66.5413 93.8368 65.0073C93.8368 63.4733 92.5933 62.2297 91.0593 62.2297C89.5253 62.2297 88.2817 63.4733 88.2817 65.0073C88.2817 66.5413 89.5253 67.7848 91.0593 67.7848Z" fill="#FF7043"/>
<path d="M112.988 68.0495C114.522 68.0495 115.766 66.8059 115.766 65.2719C115.766 63.7379 114.522 62.4944 112.988 62.4944C111.454 62.4944 110.211 63.7379 110.211 65.2719C110.211 66.8059 111.454 68.0495 112.988 68.0495Z" fill="#FF7043"/>
<path d="M134.23 79.9665C135.764 79.9665 137.008 78.7229 137.008 77.1889C137.008 75.6549 135.764 74.4114 134.23 74.4114C132.696 74.4114 131.453 75.6549 131.453 77.1889C131.453 78.7229 132.696 79.9665 134.23 79.9665Z" fill="#FF7043"/>
<path d="M124.443 86.6984C125.977 86.6984 127.22 85.4548 127.22 83.9209C127.22 82.3869 125.977 81.1433 124.443 81.1433C122.909 81.1433 121.665 82.3869 121.665 83.9209C121.665 85.4548 122.909 86.6984 124.443 86.6984Z" fill="#FF7043"/>
<path d="M2.93183 66.4491C4.46583 66.4491 5.70937 65.2056 5.70937 63.6716C5.70937 62.1376 4.46583 60.894 2.93183 60.894C1.39784 60.894 0.154297 62.1376 0.154297 63.6716C0.154297 65.2056 1.39784 66.4491 2.93183 66.4491Z" fill="#FF7043"/>
<path d="M21.1447 77.6786C22.6787 77.6786 23.9223 76.4351 23.9223 74.9011C23.9223 73.3671 22.6787 72.1235 21.1447 72.1235C19.6107 72.1235 18.3672 73.3671 18.3672 74.9011C18.3672 76.4351 19.6107 77.6786 21.1447 77.6786Z" fill="#FF7043"/>
<path d="M57.3054 99.1317C58.8394 99.1317 60.0829 97.8882 60.0829 96.3542C60.0829 94.8202 58.8394 93.5767 57.3054 93.5767C55.7714 93.5767 54.5278 94.8202 54.5278 96.3542C54.5278 97.8882 55.7714 99.1317 57.3054 99.1317Z" fill="#FF7043"/>
<path d="M49.2375 66.7401C50.7715 66.7401 52.015 65.4966 52.015 63.9626C52.015 62.4286 50.7715 61.1851 49.2375 61.1851C47.7035 61.1851 46.46 62.4286 46.46 63.9626C46.46 65.4966 47.7035 66.7401 49.2375 66.7401Z" fill="#FF7043"/>
<path d="M133.238 40.0756C134.772 40.0756 136.016 38.832 136.016 37.298C136.016 35.7641 134.772 34.5205 133.238 34.5205C131.704 34.5205 130.46 35.7641 130.46 37.298C130.46 38.832 131.704 40.0756 133.238 40.0756Z" fill="#FF7043"/>
<path d="M57.8346 97.0683L20.3511 74.8348L49.4755 63.4866L57.8346 97.0683ZM21.9382 74.9671L56.7633 95.6267L48.9862 64.4256L21.9382 74.9671Z" fill="#FF7043"/>
<path d="M134.15 99.6605L112.684 65.4571L113.279 65.0867L133.423 97.2136L132.894 37.2981L133.595 37.2849L134.15 99.6605Z" fill="#FF7043"/>
<path d="M81.2451 111.776L98.6775 26.3997L99.352 26.5451L82.2503 110.308L166.74 56.8203L167.111 57.4023L81.2451 111.776Z" fill="#FF7043"/>
<path d="M77.9122 163.239C77.8196 163.266 77.727 163.253 77.6476 163.2L35.8655 137.276C35.7068 137.17 35.6539 136.959 35.7597 136.8C35.8655 136.641 36.0772 136.588 36.2359 136.694L77.2244 162.128L57.2129 97.2399L35.9846 136.297C35.9052 136.43 35.7597 136.509 35.601 136.469C35.4555 136.43 35.3365 136.311 35.3365 136.152L34.1726 115.744L2.6409 63.8566C2.53509 63.6978 2.588 63.473 2.75994 63.3804C2.91865 63.2746 3.1435 63.3275 3.23609 63.4994L34.8207 115.466C34.8471 115.519 34.8736 115.572 34.8736 115.625L35.9713 134.895L57.0013 96.1818C57.0674 96.0628 57.1997 95.9834 57.3452 95.9966C57.4907 96.0099 57.5965 96.1024 57.6361 96.2347L78.1635 162.79C78.2031 162.922 78.1635 163.081 78.0444 163.173C78.0047 163.2 77.9518 163.226 77.9122 163.239Z" fill="#FF7043"/>
<path d="M54.6204 180.5C54.5939 180.513 54.5542 180.513 54.5278 180.513C54.3294 180.513 54.1839 180.341 54.1971 180.156L56.9614 96.3405C56.9614 96.1421 57.1334 95.9966 57.3185 96.0099C57.5169 96.0099 57.6624 96.1818 57.6492 96.367L54.8849 180.182C54.8849 180.341 54.7659 180.473 54.6204 180.5Z" fill="#FF7043"/>
<path d="M283.688 231.673C283.675 231.699 283.662 231.726 283.648 231.752C283.609 231.858 283.609 231.964 283.662 232.057C283.648 232.096 283.648 232.136 283.662 232.189L296.848 324.959C296.875 325.144 297.047 325.276 297.232 325.263L340.204 320.409C340.323 320.395 340.429 320.316 340.482 320.21C340.535 320.105 340.522 319.972 340.456 319.866L284.535 232.123L373.932 213.897C374.117 213.857 374.236 213.685 374.209 213.5L362.134 128.521C362.107 128.375 362.015 128.269 361.869 128.23C361.737 128.19 361.578 128.243 361.499 128.362L284.032 231.514L283.9 231.541C283.82 231.554 283.741 231.594 283.688 231.673ZM285.077 231.289L361.552 129.46L373.469 213.262L285.077 231.289ZM297.496 324.509L284.548 233.445L339.569 319.761L297.496 324.509Z" fill="#FF7043"/>
<path d="M338.128 220.563C338.101 220.59 338.088 220.616 338.075 220.656L315.273 281.378C315.22 281.523 315.259 281.682 315.378 281.775C315.497 281.867 315.656 281.881 315.788 281.814L370.228 249.979C370.321 249.926 370.387 249.82 370.4 249.714C370.413 249.608 370.374 249.489 370.281 249.41L338.643 220.51C338.551 220.431 338.432 220.404 338.326 220.431C338.247 220.457 338.167 220.497 338.128 220.563ZM316.278 280.69L338.551 221.383L369.448 249.608L316.278 280.69Z" fill="#FF7043"/>
<path d="M260.555 274.831C260.516 274.883 260.489 274.936 260.489 275.003C260.476 275.122 260.516 275.227 260.608 275.307L294.058 304.669C294.164 304.762 294.336 304.788 294.455 304.709C294.587 304.643 294.653 304.497 294.64 304.352L288.45 260.784C288.437 260.665 288.357 260.573 288.265 260.52C288.172 260.467 288.04 260.467 287.934 260.52L260.674 274.725C260.622 274.764 260.582 274.791 260.555 274.831ZM293.807 303.505L261.455 275.122L287.815 261.379L293.807 303.505Z" fill="#FF7043"/>
<path d="M208.284 230.271C208.245 230.324 208.218 230.377 208.218 230.443C208.205 230.549 208.245 230.655 208.311 230.734L242.078 265.81C242.21 265.943 242.409 265.956 242.554 265.837L284.27 232.652C284.376 232.573 284.415 232.44 284.402 232.321C284.376 232.189 284.296 232.083 284.164 232.043L233.719 214.479C233.613 214.439 233.507 214.452 233.415 214.519L208.39 230.192C208.337 230.205 208.311 230.245 208.284 230.271ZM242.356 265.083L209.118 230.549L233.639 215.193L283.331 232.493L242.356 265.083Z" fill="#FF7043"/>
<path d="M340.178 322.882C341.741 322.882 343.009 321.615 343.009 320.052C343.009 318.489 341.741 317.221 340.178 317.221C338.615 317.221 337.348 318.489 337.348 320.052C337.348 321.615 338.615 322.882 340.178 322.882Z" fill="#FF7043"/>
<path d="M261.045 277.595C262.608 277.595 263.875 276.328 263.875 274.765C263.875 273.202 262.608 271.934 261.045 271.934C259.482 271.934 258.214 273.202 258.214 274.765C258.214 276.328 259.482 277.595 261.045 277.595Z" fill="#FF7043"/>
<path d="M284.045 235.205C285.608 235.205 286.876 233.937 286.876 232.374C286.876 230.811 285.608 229.544 284.045 229.544C282.482 229.544 281.215 230.811 281.215 232.374C281.215 233.937 282.482 235.205 284.045 235.205Z" fill="#FF7043"/>
<path d="M368.403 177.022C369.966 177.022 371.234 175.755 371.234 174.192C371.234 172.628 369.966 171.361 368.403 171.361C366.84 171.361 365.573 172.628 365.573 174.192C365.573 175.755 366.84 177.022 368.403 177.022Z" fill="#FF7043"/>
<path d="M316.436 191.478C318 191.478 319.267 190.211 319.267 188.648C319.267 187.084 318 185.817 316.436 185.817C314.873 185.817 313.606 187.084 313.606 188.648C313.606 190.211 314.873 191.478 316.436 191.478Z" fill="#FF7043"/>
<path d="M233.944 218.354C235.507 218.354 236.774 217.087 236.774 215.524C236.774 213.96 235.507 212.693 233.944 212.693C232.381 212.693 231.113 213.96 231.113 215.524C231.113 217.087 232.381 218.354 233.944 218.354Z" fill="#FF7043"/>
<path d="M208.562 233.313C210.126 233.313 211.393 232.046 211.393 230.483C211.393 228.92 210.126 227.652 208.562 227.652C206.999 227.652 205.732 228.92 205.732 230.483C205.732 232.046 206.999 233.313 208.562 233.313Z" fill="#FF7043"/>
<path d="M238.243 244.992C239.806 244.992 241.073 243.725 241.073 242.162C241.073 240.599 239.806 239.331 238.243 239.331C236.679 239.331 235.412 240.599 235.412 242.162C235.412 243.725 236.679 244.992 238.243 244.992Z" fill="#FF7043"/>
<path d="M268.914 247.703C270.478 247.703 271.745 246.436 271.745 244.873C271.745 243.31 270.478 242.042 268.914 242.042C267.351 242.042 266.084 243.31 266.084 244.873C266.084 246.436 267.351 247.703 268.914 247.703Z" fill="#FF7043"/>
<path d="M260.926 253.642C262.489 253.642 263.756 252.375 263.756 250.812C263.756 249.248 262.489 247.981 260.926 247.981C259.362 247.981 258.095 249.248 258.095 250.812C258.095 252.375 259.362 253.642 260.926 253.642Z" fill="#FF7043"/>
<path d="M242.316 268.39C243.879 268.39 245.147 267.122 245.147 265.559C245.147 263.996 243.879 262.729 242.316 262.729C240.753 262.729 239.486 263.996 239.486 265.559C239.486 267.122 240.753 268.39 242.316 268.39Z" fill="#FF7043"/>
<path d="M362.001 131.999C363.565 131.999 364.832 130.732 364.832 129.169C364.832 127.606 363.565 126.338 362.001 126.338C360.438 126.338 359.171 127.606 359.171 129.169C359.171 130.732 360.438 131.999 362.001 131.999Z" fill="#FF7043"/>
<path d="M370.043 252.505C371.606 252.505 372.873 251.238 372.873 249.674C372.873 248.111 371.606 246.844 370.043 246.844C368.48 246.844 367.212 248.111 367.212 249.674C367.212 251.238 368.48 252.505 370.043 252.505Z" fill="#FF7043"/>
<path d="M330.827 244.701C332.39 244.701 333.657 243.434 333.657 241.871C333.657 240.308 332.39 239.04 330.827 239.04C329.264 239.04 327.997 240.308 327.997 241.871C327.997 243.434 329.264 244.701 330.827 244.701Z" fill="#FF7043"/>
<path d="M339.252 224.068C340.816 224.068 342.083 222.801 342.083 221.238C342.083 219.674 340.816 218.407 339.252 218.407C337.689 218.407 336.422 219.674 336.422 221.238C336.422 222.801 337.689 224.068 339.252 224.068Z" fill="#FF7043"/>
<path d="M336.514 199.48C338.077 199.48 339.344 198.213 339.344 196.65C339.344 195.086 338.077 193.819 336.514 193.819C334.951 193.819 333.684 195.086 333.684 196.65C333.684 198.213 334.951 199.48 336.514 199.48Z" fill="#FF7043"/>
<path d="M326.33 205.974C327.893 205.974 329.16 204.707 329.16 203.144C329.16 201.58 327.893 200.313 326.33 200.313C324.767 200.313 323.5 201.58 323.5 203.144C323.5 204.707 324.767 205.974 326.33 205.974Z" fill="#FF7043"/>
<path d="M297.192 327.723C298.755 327.723 300.023 326.456 300.023 324.893C300.023 323.329 298.755 322.062 297.192 322.062C295.629 322.062 294.362 323.329 294.362 324.893C294.362 326.456 295.629 327.723 297.192 327.723Z" fill="#FF7043"/>
<path d="M293.886 306.243C295.449 306.243 296.716 304.976 296.716 303.413C296.716 301.85 295.449 300.583 293.886 300.583C292.322 300.583 291.055 301.85 291.055 303.413C291.055 304.976 292.322 306.243 293.886 306.243Z" fill="#FF7043"/>
<path d="M288.119 263.906C289.682 263.906 290.949 262.639 290.949 261.075C290.949 259.512 289.682 258.245 288.119 258.245C286.556 258.245 285.289 259.512 285.289 261.075C285.289 262.639 286.556 263.906 288.119 263.906Z" fill="#FF7043"/>
<path d="M315.246 284.274C316.81 284.274 318.077 283.007 318.077 281.444C318.077 279.881 316.81 278.613 315.246 278.613C313.683 278.613 312.416 279.881 312.416 281.444C312.416 283.007 313.683 284.274 315.246 284.274Z" fill="#FF7043"/>
<path d="M373.469 216.185C375.032 216.185 376.299 214.918 376.299 213.354C376.299 211.791 375.032 210.524 373.469 210.524C371.905 210.524 370.638 211.791 370.638 213.354C370.638 214.918 371.905 216.185 373.469 216.185Z" fill="#FF7043"/>
<path d="M287.656 260.282L293.635 304.18L315.776 281.404L287.656 260.282ZM294.137 302.646L288.582 261.869L314.717 281.497L294.137 302.646Z" fill="#FF7043"/>
<path d="M315.432 187.828L338.961 221.449L339.543 221.039L317.442 189.468L373.323 213.672L373.601 213.024L315.432 187.828Z" fill="#FF7043"/>
<path d="M283.159 232.559L369.977 250.018L370.109 249.33L284.932 232.189L368.443 174.271L368.046 173.689L283.159 232.559Z" fill="#FF7043"/>
<path d="M233.666 215.312C233.613 215.391 233.587 215.484 233.6 215.577L241.324 264.951C241.351 265.149 241.536 265.281 241.734 265.242C241.933 265.215 242.065 265.03 242.025 264.832L234.447 216.397L287.259 260.798L242.29 265.202C242.131 265.215 241.999 265.334 241.972 265.493C241.946 265.652 242.025 265.797 242.171 265.877L260.82 275.042L296.928 325.104C297.047 325.263 297.259 325.303 297.417 325.184C297.576 325.065 297.616 324.853 297.497 324.694L261.349 274.566C261.309 274.513 261.27 274.487 261.217 274.46L243.612 265.81L288.172 261.432C288.318 261.419 288.437 261.327 288.476 261.181C288.516 261.049 288.476 260.903 288.37 260.811L234.195 215.259C234.076 215.167 233.917 215.153 233.798 215.22C233.732 215.233 233.693 215.272 233.666 215.312Z" fill="#FF7043"/>
<path d="M208.285 230.271C208.272 230.298 208.245 230.324 208.232 230.351C208.166 230.536 208.258 230.734 208.43 230.813L287.987 261.393C288.172 261.459 288.37 261.366 288.45 261.194C288.516 261.009 288.423 260.811 288.251 260.731L208.695 230.152C208.536 230.099 208.377 230.152 208.285 230.271Z" fill="#FF7043"/>
<path d="M123.662 167.909V149.683H88.4536" stroke="black" stroke-width="2.01808" stroke-miterlimit="10" stroke-linecap="round" stroke-linejoin="round"/>
<path d="M81.2187 156.283C85.039 156.283 88.136 153.186 88.136 149.366C88.136 145.545 85.039 142.448 81.2187 142.448C77.3983 142.448 74.3013 145.545 74.3013 149.366C74.3013 153.186 77.3983 156.283 81.2187 156.283Z" fill="#B2DFDB" stroke="black" stroke-width="2.01808" stroke-miterlimit="10" stroke-linecap="round" stroke-linejoin="round"/>
<path d="M141.253 167.909V125.479H106.058" stroke="black" stroke-width="2.01808" stroke-miterlimit="10" stroke-linecap="round" stroke-linejoin="round"/>
<path d="M98.8231 131.762C102.644 131.762 105.741 128.665 105.741 124.844C105.741 121.024 102.644 117.927 98.8231 117.927C95.0028 117.927 91.9058 121.024 91.9058 124.844C91.9058 128.665 95.0028 131.762 98.8231 131.762Z" fill="#B2DFDB" stroke="black" stroke-width="2.01808" stroke-miterlimit="10" stroke-linecap="round" stroke-linejoin="round"/>
<path d="M194.701 62.9178V44.6919H159.493" stroke="black" stroke-width="2.01808" stroke-miterlimit="10" stroke-linecap="round" stroke-linejoin="round"/>
<path d="M152.258 51.2921C156.078 51.2921 159.175 48.195 159.175 44.3747C159.175 40.5543 156.078 37.4573 152.258 37.4573C148.437 37.4573 145.34 40.5543 145.34 44.3747C145.34 48.195 148.437 51.2921 152.258 51.2921Z" fill="#80CBC4" stroke="black" stroke-width="2.01808" stroke-miterlimit="10" stroke-linecap="round" stroke-linejoin="round"/>
<path d="M212.305 62.9177V20.4875H177.097" stroke="black" stroke-width="2.01808" stroke-miterlimit="10" stroke-linecap="round" stroke-linejoin="round"/>
<path d="M169.862 26.7701C173.683 26.7701 176.78 23.6731 176.78 19.8527C176.78 16.0323 173.683 12.9353 169.862 12.9353C166.042 12.9353 162.945 16.0323 162.945 19.8527C162.945 23.6731 166.042 26.7701 169.862 26.7701Z" fill="#80CBC4" stroke="black" stroke-width="2.01808" stroke-miterlimit="10" stroke-linecap="round" stroke-linejoin="round"/>
<path d="M203.179 275.095V293.334H238.387" stroke="black" stroke-width="2.01808" stroke-miterlimit="10" stroke-linecap="round" stroke-linejoin="round"/>
<path d="M245.622 300.569C249.443 300.569 252.54 297.472 252.54 293.652C252.54 289.832 249.443 286.735 245.622 286.735C241.802 286.735 238.705 289.832 238.705 293.652C238.705 297.472 241.802 300.569 245.622 300.569Z" fill="#B2DFDB" stroke="black" stroke-width="2.01808" stroke-miterlimit="10" stroke-linecap="round" stroke-linejoin="round"/>
<path d="M185.588 275.096V317.539H220.783" stroke="black" stroke-width="2.01808" stroke-miterlimit="10" stroke-linecap="round" stroke-linejoin="round"/>
<path d="M228.018 325.078C231.838 325.078 234.935 321.981 234.935 318.16C234.935 314.34 231.838 311.243 228.018 311.243C224.198 311.243 221.101 314.34 221.101 318.16C221.101 321.981 224.198 325.078 228.018 325.078Z" fill="#B2DFDB" stroke="black" stroke-width="2.01808" stroke-miterlimit="10" stroke-linecap="round" stroke-linejoin="round"/>
<path d="M338.3 86.4214H142.655V98.0209H338.3V86.4214Z" fill="#BCAAA4" stroke="black" stroke-width="2.01808" stroke-miterlimit="10" stroke-linecap="round" stroke-linejoin="round"/>
<path d="M239.895 38.2637L133.331 85.6406C131.889 86.2887 132.339 88.4446 133.926 88.4446H347.042C348.629 88.4446 349.079 86.2887 347.637 85.6406L241.073 38.2637C240.702 38.0918 240.266 38.0918 239.895 38.2637Z" fill="#A1887F" stroke="black" stroke-width="2.01808" stroke-miterlimit="10" stroke-linecap="round" stroke-linejoin="round"/>
<path d="M182.916 98.5364H151.636V109.131H182.916V98.5364Z" fill="#A1887F" stroke="black" stroke-width="2.01808" stroke-miterlimit="10" stroke-linecap="round" stroke-linejoin="round"/>
<path d="M182.916 211.542H151.636V222.137H182.916V211.542Z" fill="#A1887F" stroke="black" stroke-width="2.01808" stroke-miterlimit="10" stroke-linecap="round" stroke-linejoin="round"/>
<path d="M338.313 222.137H143.568V241.302H338.313V222.137Z" fill="#BCAAA4" stroke="black" stroke-width="2.01808" stroke-miterlimit="10" stroke-linecap="round" stroke-linejoin="round"/>
<path d="M345.376 231.726H136.505V250.891H345.376V231.726Z" fill="#A1887F" stroke="black" stroke-width="2.01808" stroke-miterlimit="10" stroke-linecap="round" stroke-linejoin="round"/>
<path d="M163.288 109.131H156.186V211.542H163.288V109.131Z" fill="#BCAAA4" stroke="black" stroke-width="2.01808" stroke-miterlimit="10" stroke-linecap="round" stroke-linejoin="round"/>
<path d="M170.708 109.131H163.605V211.542H170.708V109.131Z" fill="#A1887F" stroke="black" stroke-width="2.01808" stroke-miterlimit="10" stroke-linecap="round" stroke-linejoin="round"/>
<path d="M177.626 109.131H170.523V211.542H177.626V109.131Z" fill="#BCAAA4" stroke="black" stroke-width="2.01808" stroke-miterlimit="10" stroke-linecap="round" stroke-linejoin="round"/>
<path d="M258.095 98.5364H226.814V109.131H258.095V98.5364Z" fill="#A1887F" stroke="black" stroke-width="2.01808" stroke-miterlimit="10" stroke-linecap="round" stroke-linejoin="round"/>
<path d="M258.095 211.542H226.814V222.137H258.095V211.542Z" fill="#A1887F" stroke="black" stroke-width="2.01808" stroke-miterlimit="10" stroke-linecap="round" stroke-linejoin="round"/>
<path d="M238.454 109.131H231.351V211.542H238.454V109.131Z" fill="#BCAAA4" stroke="black" stroke-width="2.01808" stroke-miterlimit="10" stroke-linecap="round" stroke-linejoin="round"/>
<path d="M245.874 109.131H238.771V211.542H245.874V109.131Z" fill="#A1887F" stroke="black" stroke-width="2.01808" stroke-miterlimit="10" stroke-linecap="round" stroke-linejoin="round"/>
<path d="M252.791 109.131H245.688V211.542H252.791V109.131Z" fill="#BCAAA4" stroke="black" stroke-width="2.01808" stroke-miterlimit="10" stroke-linecap="round" stroke-linejoin="round"/>
<path d="M332.255 98.5364H300.975V109.131H332.255V98.5364Z" fill="#A1887F" stroke="black" stroke-width="2.01808" stroke-miterlimit="10" stroke-linecap="round" stroke-linejoin="round"/>
<path d="M332.255 211.542H300.975V222.137H332.255V211.542Z" fill="#A1887F" stroke="black" stroke-width="2.01808" stroke-miterlimit="10" stroke-linecap="round" stroke-linejoin="round"/>
<path d="M312.614 109.131H305.511V211.542H312.614V109.131Z" fill="#BCAAA4" stroke="black" stroke-width="2.01808" stroke-miterlimit="10" stroke-linecap="round" stroke-linejoin="round"/>
<path d="M320.034 109.131H312.932V211.542H320.034V109.131Z" fill="#A1887F" stroke="black" stroke-width="2.01808" stroke-miterlimit="10" stroke-linecap="round" stroke-linejoin="round"/>
<path d="M326.951 109.131H319.849V211.542H326.951V109.131Z" fill="#BCAAA4" stroke="black" stroke-width="2.01808" stroke-miterlimit="10" stroke-linecap="round" stroke-linejoin="round"/>
<path opacity="0.2" d="M249.868 42.0334L268.385 88.3257H282.934L286.876 97.5842H301.451V109.488H305.419V211.331H301.451V221.912H282.934L287.656 231.726H271.731V250.547H345.098V231.171H338.313V221.912H331.872V211.331H326.581V109.488H331.872V98.9068H338.485V88.4448H349.066V85.6805L249.868 42.0334Z" fill="#212121"/>
<path d="M246.35 247.28H102.354C101.534 247.28 100.86 246.606 100.86 245.786V169.562C100.86 168.742 101.534 168.067 102.354 168.067H246.35C247.17 168.067 247.845 168.742 247.845 169.562V245.786C247.845 246.606 247.17 247.28 246.35 247.28Z" fill="#AED581"/>
<path d="M246.35 248.18H102.354C101.032 248.18 99.9473 247.095 99.9473 245.772V169.562C99.9473 168.239 101.032 167.155 102.354 167.155H246.35C247.673 167.155 248.757 168.239 248.757 169.562V245.786C248.757 247.108 247.673 248.18 246.35 248.18ZM102.354 168.98C102.037 168.98 101.773 169.245 101.773 169.562V245.786C101.773 246.103 102.037 246.368 102.354 246.368H246.35C246.667 246.368 246.932 246.103 246.932 245.786V169.562C246.932 169.245 246.667 168.98 246.35 168.98H102.354Z" fill="black"/>
<path d="M257.487 267.212H91.2048C90.2525 267.212 89.4854 266.445 89.4854 265.493V177.471C89.4854 176.519 90.2525 175.752 91.2048 175.752H257.487C258.439 175.752 259.206 176.519 259.206 177.471V265.493C259.219 266.445 258.439 267.212 257.487 267.212Z" fill="#C5E1A5"/>
<path d="M257.487 268.125H91.2048C89.7499 268.125 88.5728 266.948 88.5728 265.493V177.471C88.5728 176.016 89.7499 174.839 91.2048 174.839H257.487C258.942 174.839 260.119 176.016 260.119 177.471V265.493C260.132 266.948 258.942 268.125 257.487 268.125ZM91.2048 176.651C90.7551 176.651 90.3848 177.022 90.3848 177.471V265.493C90.3848 265.943 90.7551 266.313 91.2048 266.313H257.487C257.936 266.313 258.307 265.943 258.307 265.493V177.471C258.307 177.022 257.936 176.651 257.487 176.651H91.2048Z" fill="black"/>
<path d="M269.893 275.809H78.3751C77.3567 275.809 76.5234 274.976 76.5234 273.958V186.187C76.5234 185.169 77.3567 184.336 78.3751 184.336H269.893C270.911 184.336 271.745 185.169 271.745 186.187V273.958C271.745 274.976 270.911 275.809 269.893 275.809Z" fill="#C5E1A5"/>
<path d="M269.893 276.709H78.3752C76.8541 276.709 75.6108 275.466 75.6108 273.945V186.174C75.6108 184.653 76.8541 183.41 78.3752 183.41H269.893C271.414 183.41 272.657 184.653 272.657 186.174V273.945C272.657 275.479 271.414 276.709 269.893 276.709ZM78.3752 185.249C77.8593 185.249 77.4361 185.672 77.4361 186.188V273.958C77.4361 274.474 77.8593 274.897 78.3752 274.897H269.893C270.409 274.897 270.832 274.474 270.832 273.958V186.188C270.832 185.672 270.409 185.249 269.893 185.249H78.3752Z" fill="black"/>
<path d="M86.5357 217.561C86.0331 217.561 85.623 217.151 85.623 216.648V202.998C85.623 202.496 86.0331 202.086 86.5357 202.086C90.8078 202.086 94.2731 198.621 94.2731 194.348C94.2731 193.846 94.6831 193.436 95.1857 193.436H120.673C121.176 193.436 121.586 193.846 121.586 194.348C121.586 194.851 121.176 195.261 120.673 195.261H96.0454C95.609 199.811 91.9849 203.435 87.4483 203.858V216.648C87.4483 217.151 87.0383 217.561 86.5357 217.561Z" fill="black"/>
<path d="M120.66 266.697H95.1857C94.6831 266.697 94.2731 266.287 94.2731 265.784C94.2731 261.512 90.8078 258.047 86.5357 258.047C86.0331 258.047 85.623 257.637 85.623 257.134V243.498C85.623 242.995 86.0331 242.585 86.5357 242.585C87.0383 242.585 87.4483 242.995 87.4483 243.498V256.287C91.9982 256.724 95.6222 260.348 96.0454 264.885H120.66C121.162 264.885 121.572 265.295 121.572 265.797C121.572 266.3 121.162 266.697 120.66 266.697Z" fill="black"/>
<path d="M261.283 217.561C260.78 217.561 260.37 217.151 260.37 216.648V203.858C255.82 203.422 252.196 199.798 251.773 195.261H227.159C226.656 195.261 226.246 194.851 226.246 194.348C226.246 193.846 226.656 193.436 227.159 193.436H252.646C253.149 193.436 253.559 193.846 253.559 194.348C253.559 198.621 257.024 202.086 261.296 202.086C261.799 202.086 262.209 202.496 262.209 202.998V216.648C262.195 217.151 261.785 217.561 261.283 217.561Z" fill="black"/>
<path d="M252.633 266.696H227.146C226.643 266.696 226.233 266.286 226.233 265.784C226.233 265.281 226.643 264.871 227.146 264.871H251.76C252.196 260.321 255.82 256.697 260.357 256.274V243.484C260.357 242.982 260.767 242.572 261.27 242.572C261.772 242.572 262.182 242.982 262.182 243.484V257.134C262.182 257.636 261.772 258.046 261.27 258.046C256.997 258.046 253.532 261.512 253.532 265.784C253.545 266.3 253.135 266.696 252.633 266.696Z" fill="black"/>
<path d="M174.134 248.735C184.441 248.735 192.796 240.38 192.796 230.073C192.796 219.766 184.441 211.41 174.134 211.41C163.827 211.41 155.472 219.766 155.472 230.073C155.472 240.38 163.827 248.735 174.134 248.735Z" fill="#DCEDC8" stroke="black" stroke-width="2.01808" stroke-miterlimit="10" stroke-linecap="round" stroke-linejoin="round"/>
<path d="M174.134 249.635C163.341 249.635 154.572 240.852 154.572 230.073C154.572 219.293 163.355 210.511 174.134 210.511C184.927 210.511 193.696 219.293 193.696 230.073C193.696 240.852 184.927 249.635 174.134 249.635ZM174.134 212.323C164.347 212.323 156.384 220.285 156.384 230.073C156.384 239.86 164.347 247.823 174.134 247.823C183.922 247.823 191.884 239.86 191.884 230.073C191.884 220.285 183.922 212.323 174.134 212.323Z" fill="black"/>
<path d="M140.235 230.747H122.935C122.432 230.747 122.022 230.337 122.022 229.834C122.022 229.332 122.432 228.922 122.935 228.922H140.221C140.724 228.922 141.134 229.332 141.134 229.834C141.134 230.337 140.737 230.747 140.235 230.747Z" fill="black"/>
<path d="M225.783 230.747H208.496C207.994 230.747 207.583 230.337 207.583 229.834C207.583 229.332 207.994 228.922 208.496 228.922H225.783C226.286 228.922 226.696 229.332 226.696 229.834C226.696 230.337 226.286 230.747 225.783 230.747Z" fill="black"/>
<path opacity="0.2" d="M205.957 184.336L226.815 275.81H271.334V184.521L259.219 184.495L205.957 184.336Z" fill="#212121"/>
</g>
<defs>
<clipPath id="clip0">
<rect x="0.154297" width="376.846" height="327.723" fill="white"/>
</clipPath>
</defs>
</svg>
