<svg width="378" height="384" viewBox="0 0 378 384" fill="none" xmlns="http://www.w3.org/2000/svg">
<g clip-path="url(#clip0)">
<path d="M196.771 307.496C266.93 307.496 323.805 250.621 323.805 180.462C323.805 110.302 266.93 53.4272 196.771 53.4272C126.612 53.4272 69.7363 110.302 69.7363 180.462C69.7363 250.621 126.612 307.496 196.771 307.496Z" fill="#B2DFDB"/>
<path d="M290.989 280.511C290.989 280.536 290.977 280.56 290.977 280.597C290.977 280.696 291.026 280.794 291.113 280.856C291.125 280.893 291.137 280.93 291.162 280.967L339.658 355.597C339.757 355.745 339.954 355.795 340.114 355.696L375.186 334.32C375.284 334.259 375.346 334.148 375.346 334.037C375.346 333.926 375.284 333.815 375.186 333.753L291.902 280.573L361.601 229.093C361.749 228.982 361.774 228.785 361.687 228.637L317.271 160.281C317.198 160.17 317.062 160.109 316.926 160.133C316.791 160.158 316.692 160.257 316.655 160.392L291.211 280.252L291.113 280.326C291.051 280.363 291.002 280.437 290.989 280.511ZM292.037 279.636L317.148 161.317L360.96 228.736L292.037 279.636ZM340.04 354.956L292.444 281.707L374.385 334.037L340.04 354.956Z" fill="#80CBC4"/>
<path d="M333.433 249.162C333.42 249.187 333.42 249.224 333.42 249.261L338.093 310.689C338.105 310.824 338.203 310.948 338.339 310.985C338.475 311.022 338.623 310.972 338.697 310.849L372.856 261.65C372.918 261.564 372.93 261.453 372.893 261.354C372.856 261.256 372.782 261.169 372.671 261.145L333.852 248.916C333.741 248.879 333.63 248.904 333.544 248.978C333.482 249.015 333.445 249.088 333.433 249.162ZM338.684 309.69L334.123 249.693L372.03 261.638L338.684 309.69Z" fill="#80CBC4"/>
<path d="M288.339 326.961C288.327 327.023 288.327 327.072 288.351 327.134C288.388 327.245 288.475 327.319 288.573 327.356L329.131 339.252C329.266 339.289 329.414 339.239 329.501 339.128C329.587 339.017 329.587 338.857 329.513 338.746L306.744 303.699C306.682 303.613 306.584 303.551 306.473 303.551C306.362 303.551 306.263 303.601 306.189 303.687L288.401 326.838C288.364 326.862 288.351 326.912 288.339 326.961ZM328.453 338.339L289.227 326.838L306.424 304.451L328.453 338.339Z" fill="#80CBC4"/>
<path d="M225.481 309.493C225.469 309.554 225.469 309.604 225.494 309.665C225.531 309.764 225.592 309.838 225.691 309.875L268.812 326.579C268.972 326.64 269.157 326.566 269.231 326.418L291.877 281.127C291.926 281.016 291.926 280.893 291.852 280.782C291.778 280.671 291.667 280.622 291.544 280.634L241.063 285.701C240.965 285.713 240.866 285.762 240.817 285.849L225.531 309.369C225.506 309.419 225.494 309.456 225.481 309.493ZM268.763 325.839L226.32 309.394L241.297 286.354L291.014 281.362L268.763 325.839Z" fill="#80CBC4"/>
<path d="M375.013 336.712C376.497 336.712 377.7 335.508 377.7 334.024C377.7 332.54 376.497 331.337 375.013 331.337C373.529 331.337 372.326 332.54 372.326 334.024C372.326 335.508 373.529 336.712 375.013 336.712Z" fill="#80CBC4"/>
<path d="M288.733 329.389C290.217 329.389 291.421 328.186 291.421 326.702C291.421 325.217 290.217 324.014 288.733 324.014C287.249 324.014 286.046 325.217 286.046 326.702C286.046 328.186 287.249 329.389 288.733 329.389Z" fill="#80CBC4"/>
<path d="M291.581 283.667C293.065 283.667 294.268 282.464 294.268 280.979C294.268 279.495 293.065 278.292 291.581 278.292C290.097 278.292 288.894 279.495 288.894 280.979C288.894 282.464 290.097 283.667 291.581 283.667Z" fill="#80CBC4"/>
<path d="M340.94 199.791C342.424 199.791 343.627 198.588 343.627 197.103C343.627 195.619 342.424 194.416 340.94 194.416C339.456 194.416 338.252 195.619 338.252 197.103C338.252 198.588 339.456 199.791 340.94 199.791Z" fill="#80CBC4"/>
<path d="M301.985 233.038C303.469 233.038 304.673 231.835 304.673 230.351C304.673 228.867 303.469 227.664 301.985 227.664C300.501 227.664 299.298 228.867 299.298 230.351C299.298 231.835 300.501 233.038 301.985 233.038Z" fill="#80CBC4"/>
<path d="M241.68 289.202C243.164 289.202 244.367 287.999 244.367 286.515C244.367 285.031 243.164 283.828 241.68 283.828C240.195 283.828 238.992 285.031 238.992 286.515C238.992 287.999 240.195 289.202 241.68 289.202Z" fill="#80CBC4"/>
<path d="M225.802 312.255C227.286 312.255 228.489 311.051 228.489 309.567C228.489 308.083 227.286 306.88 225.802 306.88C224.317 306.88 223.114 308.083 223.114 309.567C223.114 311.051 224.317 312.255 225.802 312.255Z" fill="#80CBC4"/>
<path d="M256.041 310.442C257.525 310.442 258.728 309.238 258.728 307.754C258.728 306.27 257.525 305.067 256.041 305.067C254.557 305.067 253.354 306.27 253.354 307.754C253.354 309.238 254.557 310.442 256.041 310.442Z" fill="#80CBC4"/>
<path d="M283.543 300.493C285.028 300.493 286.231 299.29 286.231 297.806C286.231 296.322 285.028 295.119 283.543 295.119C282.059 295.119 280.856 296.322 280.856 297.806C280.856 299.29 282.059 300.493 283.543 300.493Z" fill="#80CBC4"/>
<path d="M279.031 308.802C280.515 308.802 281.719 307.599 281.719 306.115C281.719 304.63 280.515 303.427 279.031 303.427C277.547 303.427 276.344 304.63 276.344 306.115C276.344 307.599 277.547 308.802 279.031 308.802Z" fill="#80CBC4"/>
<path d="M268.923 328.958C270.407 328.958 271.611 327.755 271.611 326.27C271.611 324.786 270.407 323.583 268.923 323.583C267.439 323.583 266.236 324.786 266.236 326.27C266.236 327.755 267.439 328.958 268.923 328.958Z" fill="#80CBC4"/>
<path d="M317.407 163.573C318.891 163.573 320.094 162.37 320.094 160.886C320.094 159.401 318.891 158.198 317.407 158.198C315.923 158.198 314.72 159.401 314.72 160.886C314.72 162.37 315.923 163.573 317.407 163.573Z" fill="#80CBC4"/>
<path d="M372.572 264.14C374.056 264.14 375.26 262.937 375.26 261.453C375.26 259.969 374.056 258.766 372.572 258.766C371.088 258.766 369.885 259.969 369.885 261.453C369.885 262.937 371.088 264.14 372.572 264.14Z" fill="#80CBC4"/>
<path d="M335.676 273.127C337.16 273.127 338.364 271.924 338.364 270.44C338.364 268.956 337.16 267.752 335.676 267.752C334.192 267.752 332.989 268.956 332.989 270.44C332.989 271.924 334.192 273.127 335.676 273.127Z" fill="#80CBC4"/>
<path d="M334.678 251.986C336.162 251.986 337.365 250.782 337.365 249.298C337.365 247.814 336.162 246.611 334.678 246.611C333.193 246.611 331.99 247.814 331.99 249.298C331.99 250.782 333.193 251.986 334.678 251.986Z" fill="#80CBC4"/>
<path d="M322.461 231.891C323.946 231.891 325.149 230.688 325.149 229.204C325.149 227.72 323.946 226.517 322.461 226.517C320.977 226.517 319.774 227.72 319.774 229.204C319.774 230.688 320.977 231.891 322.461 231.891Z" fill="#80CBC4"/>
<path d="M316.298 241.568C317.782 241.568 318.985 240.365 318.985 238.881C318.985 237.397 317.782 236.193 316.298 236.193C314.814 236.193 313.61 237.397 313.61 238.881C313.61 240.365 314.814 241.568 316.298 241.568Z" fill="#80CBC4"/>
<path d="M339.941 358.1C341.426 358.1 342.629 356.897 342.629 355.413C342.629 353.929 341.426 352.726 339.941 352.726C338.457 352.726 337.254 353.929 337.254 355.413C337.254 356.897 338.457 358.1 339.941 358.1Z" fill="#80CBC4"/>
<path d="M328.489 340.916C329.973 340.916 331.176 339.713 331.176 338.228C331.176 336.744 329.973 335.541 328.489 335.541C327.005 335.541 325.802 336.744 325.802 338.228C325.802 339.713 327.005 340.916 328.489 340.916Z" fill="#80CBC4"/>
<path d="M306.583 306.756C308.068 306.756 309.271 305.553 309.271 304.069C309.271 302.585 308.068 301.381 306.583 301.381C305.099 301.381 303.896 302.585 303.896 304.069C303.896 305.553 305.099 306.756 306.583 306.756Z" fill="#80CBC4"/>
<path d="M338.093 313.437C339.577 313.437 340.78 312.234 340.78 310.75C340.78 309.266 339.577 308.062 338.093 308.062C336.608 308.062 335.405 309.266 335.405 310.75C335.405 312.234 336.608 313.437 338.093 313.437Z" fill="#80CBC4"/>
<path d="M360.984 231.485C362.468 231.485 363.672 230.282 363.672 228.798C363.672 227.314 362.468 226.11 360.984 226.11C359.5 226.11 358.297 227.314 358.297 228.798C358.297 230.282 359.5 231.485 360.984 231.485Z" fill="#80CBC4"/>
<path d="M305.856 303.563L328.575 338.98L338.536 310.504L305.856 303.563ZM328.403 337.464L307.298 304.562L337.661 311.009L328.403 337.464Z" fill="#80CBC4"/>
<path d="M300.79 230.042L334.505 249.581L334.838 249.002L303.169 230.646L360.984 229.142L360.972 228.464L300.79 230.042Z" fill="#80CBC4"/>
<path d="M290.891 281.484L372.659 261.785L372.498 261.132L292.259 280.474L341.014 197.152L340.435 196.807L290.891 281.484Z" fill="#80CBC4"/>
<path d="M241.347 286.441C241.334 286.527 241.347 286.626 241.396 286.7L267.814 326.135C267.912 326.283 268.122 326.332 268.282 326.221C268.442 326.123 268.479 325.913 268.368 325.753L242.444 287.07L305.721 304.18L268.751 325.975C268.615 326.049 268.553 326.209 268.59 326.345C268.627 326.493 268.763 326.591 268.911 326.591L288.635 327.023L339.769 355.696C339.929 355.783 340.139 355.733 340.225 355.573C340.311 355.413 340.262 355.203 340.102 355.117L288.894 326.406C288.844 326.382 288.795 326.369 288.733 326.369L270.107 325.963L306.744 304.365C306.855 304.291 306.929 304.168 306.904 304.032C306.892 303.896 306.793 303.786 306.658 303.749L241.754 286.194C241.618 286.157 241.47 286.207 241.396 286.318C241.384 286.355 241.359 286.404 241.347 286.441Z" fill="#80CBC4"/>
<path d="M225.481 309.494C225.469 309.518 225.469 309.555 225.469 309.592C225.481 309.777 225.641 309.913 225.826 309.9L306.596 304.402C306.781 304.39 306.916 304.23 306.904 304.045C306.892 303.86 306.731 303.724 306.546 303.737L225.777 309.235C225.629 309.247 225.506 309.358 225.481 309.494Z" fill="#80CBC4"/>
<path d="M115.299 288.486C115.274 288.486 115.249 288.486 115.212 288.499C115.114 288.523 115.027 288.585 114.978 288.684C114.941 288.696 114.904 288.721 114.88 288.745L49.9878 350.308C49.8522 350.432 49.8522 350.641 49.9632 350.777L77.5027 381.534C77.5767 381.62 77.6999 381.657 77.8109 381.645C77.9218 381.62 78.0204 381.546 78.0698 381.435L115.41 289.411L179.044 348.866C179.179 348.989 179.377 348.989 179.512 348.866L238.943 292.468C239.042 292.369 239.079 292.234 239.029 292.098C238.98 291.975 238.857 291.889 238.721 291.876L115.619 288.647L115.533 288.56C115.459 288.511 115.385 288.486 115.299 288.486ZM116.359 289.349L237.883 292.542L179.266 348.151L116.359 289.349ZM50.7028 350.567L114.399 290.138L77.6629 380.671L50.7028 350.567Z" fill="#E0F2F1"/>
<path d="M154.044 324.692C154.007 324.692 153.982 324.692 153.945 324.704L94.0955 340.545C93.9599 340.582 93.8613 340.705 93.849 340.841C93.8367 340.989 93.9106 341.112 94.0462 341.174L148.916 365.927C149.014 365.976 149.125 365.964 149.224 365.915C149.323 365.866 149.384 365.767 149.396 365.656L154.389 325.062C154.401 324.951 154.364 324.84 154.278 324.766C154.192 324.717 154.118 324.692 154.044 324.692ZM95.1804 340.952L153.637 325.481L148.768 365.126L95.1804 340.952Z" fill="#E0F2F1"/>
<path d="M68.9226 294.354C68.8609 294.354 68.8116 294.367 68.75 294.391C68.6514 294.441 68.5897 294.539 68.5774 294.65L64.2382 336.909C64.2258 337.044 64.2998 337.18 64.4231 337.242C64.5463 337.303 64.7066 337.279 64.8052 337.18L95.2787 308.272C95.3526 308.198 95.4019 308.087 95.3773 307.976C95.365 307.865 95.291 307.779 95.1924 307.73L69.0705 294.379C69.0212 294.367 68.9719 294.354 68.9226 294.354ZM65.0025 336.071L69.2061 295.205L94.465 308.112L65.0025 336.071Z" fill="#E0F2F1"/>
<path d="M74.6798 229.044C74.6181 229.044 74.5688 229.056 74.5072 229.081C74.4209 229.13 74.3593 229.217 74.3346 229.315L65.7054 274.976C65.6684 275.149 65.7793 275.309 65.9396 275.358L114.83 289.461C114.954 289.498 115.077 289.461 115.163 289.374C115.249 289.288 115.286 289.165 115.249 289.042L101.011 240.077C100.987 239.978 100.913 239.904 100.814 239.855L74.7784 229.044C74.7661 229.044 74.7291 229.044 74.6798 229.044ZM66.445 274.803L74.9386 229.845L100.444 240.434L114.46 288.659L66.445 274.803Z" fill="#E0F2F1"/>
<path d="M77.7739 384C79.2649 384 80.4736 382.791 80.4736 381.3C80.4736 379.809 79.2649 378.601 77.7739 378.601C76.2829 378.601 75.0742 379.809 75.0742 381.3C75.0742 382.791 76.2829 384 77.7739 384Z" fill="#E0F2F1"/>
<path d="M69.2432 297.399C70.7342 297.399 71.9429 296.191 71.9429 294.7C71.9429 293.209 70.7342 292 69.2432 292C67.7522 292 66.5435 293.209 66.5435 294.7C66.5435 296.191 67.7522 297.399 69.2432 297.399Z" fill="#E0F2F1"/>
<path d="M114.954 291.852C116.445 291.852 117.653 290.643 117.653 289.152C117.653 287.661 116.445 286.453 114.954 286.453C113.463 286.453 112.254 287.661 112.254 289.152C112.254 290.643 113.463 291.852 114.954 291.852Z" fill="#E0F2F1"/>
<path d="M206.867 325.309C208.358 325.309 209.566 324.1 209.566 322.609C209.566 321.118 208.358 319.909 206.867 319.909C205.376 319.909 204.167 321.118 204.167 322.609C204.167 324.1 205.376 325.309 206.867 325.309Z" fill="#E0F2F1"/>
<path d="M166.889 292.875C168.38 292.875 169.589 291.666 169.589 290.175C169.589 288.684 168.38 287.475 166.889 287.475C165.398 287.475 164.189 288.684 164.189 290.175C164.189 291.666 165.398 292.875 166.889 292.875Z" fill="#E0F2F1"/>
<path d="M100.358 243.553C101.849 243.553 103.058 242.345 103.058 240.854C103.058 239.363 101.849 238.154 100.358 238.154C98.8669 238.154 97.6582 239.363 97.6582 240.854C97.6582 242.345 98.8669 243.553 100.358 243.553Z" fill="#E0F2F1"/>
<path d="M74.6797 232.076C76.1707 232.076 77.3794 230.867 77.3794 229.376C77.3794 227.885 76.1707 226.677 74.6797 226.677C73.1887 226.677 71.98 227.885 71.98 229.376C71.98 230.867 73.1887 232.076 74.6797 232.076Z" fill="#E0F2F1"/>
<path d="M82.0024 261.626C83.4935 261.626 84.7022 260.417 84.7022 258.926C84.7022 257.435 83.4935 256.227 82.0024 256.227C80.5114 256.227 79.3027 257.435 79.3027 258.926C79.3027 260.417 80.5114 261.626 82.0024 261.626Z" fill="#E0F2F1"/>
<path d="M96.8569 286.982C98.3479 286.982 99.5567 285.774 99.5567 284.283C99.5567 282.792 98.3479 281.583 96.8569 281.583C95.3659 281.583 94.1572 282.792 94.1572 284.283C94.1572 285.774 95.3659 286.982 96.8569 286.982Z" fill="#E0F2F1"/>
<path d="M87.8208 284.049C89.3118 284.049 90.5205 282.841 90.5205 281.35C90.5205 279.859 89.3118 278.65 87.8208 278.65C86.3298 278.65 85.1211 279.859 85.1211 281.35C85.1211 282.841 86.3298 284.049 87.8208 284.049Z" fill="#E0F2F1"/>
<path d="M66.0503 277.737C67.5413 277.737 68.75 276.529 68.75 275.038C68.75 273.547 67.5413 272.338 66.0503 272.338C64.5593 272.338 63.3506 273.547 63.3506 275.038C63.3506 276.529 64.5593 277.737 66.0503 277.737Z" fill="#E0F2F1"/>
<path d="M238.351 295.427C239.842 295.427 241.051 294.218 241.051 292.727C241.051 291.236 239.842 290.027 238.351 290.027C236.86 290.027 235.651 291.236 235.651 292.727C235.651 294.218 236.86 295.427 238.351 295.427Z" fill="#E0F2F1"/>
<path d="M149.039 368.331C150.53 368.331 151.739 367.122 151.739 365.631C151.739 364.14 150.53 362.932 149.039 362.932C147.548 362.932 146.339 364.14 146.339 365.631C146.339 367.122 147.548 368.331 149.039 368.331Z" fill="#E0F2F1"/>
<path d="M133.42 333.494C134.911 333.494 136.12 332.285 136.12 330.794C136.12 329.303 134.911 328.094 133.42 328.094C131.929 328.094 130.72 329.303 130.72 330.794C130.72 332.285 131.929 333.494 133.42 333.494Z" fill="#E0F2F1"/>
<path d="M154.13 328.649C155.621 328.649 156.83 327.441 156.83 325.95C156.83 324.459 155.621 323.25 154.13 323.25C152.639 323.25 151.43 324.459 151.43 325.95C151.43 327.441 152.639 328.649 154.13 328.649Z" fill="#E0F2F1"/>
<path d="M171.758 312.908C173.249 312.908 174.458 311.699 174.458 310.208C174.458 308.717 173.249 307.508 171.758 307.508C170.267 307.508 169.059 308.717 169.059 310.208C169.059 311.699 170.267 312.908 171.758 312.908Z" fill="#E0F2F1"/>
<path d="M161.07 308.581C162.561 308.581 163.77 307.372 163.77 305.881C163.77 304.39 162.561 303.181 161.07 303.181C159.579 303.181 158.371 304.39 158.371 305.881C158.371 307.372 159.579 308.581 161.07 308.581Z" fill="#E0F2F1"/>
<path d="M50.2344 353.243C51.7254 353.243 52.9341 352.034 52.9341 350.543C52.9341 349.052 51.7254 347.844 50.2344 347.844C48.7434 347.844 47.5347 349.052 47.5347 350.543C47.5347 352.034 48.7434 353.243 50.2344 353.243Z" fill="#E0F2F1"/>
<path d="M65.126 338.795C66.617 338.795 67.8257 337.586 67.8257 336.095C67.8257 334.604 66.617 333.396 65.126 333.396C63.635 333.396 62.4263 334.604 62.4263 336.095C62.4263 337.586 63.635 338.795 65.126 338.795Z" fill="#E0F2F1"/>
<path d="M94.8721 310.887C96.3631 310.887 97.5718 309.678 97.5718 308.187C97.5718 306.696 96.3631 305.487 94.8721 305.487C93.3811 305.487 92.1724 306.696 92.1724 308.187C92.1724 309.678 93.3811 310.887 94.8721 310.887Z" fill="#E0F2F1"/>
<path d="M94.0215 343.258C95.5125 343.258 96.7212 342.049 96.7212 340.558C96.7212 339.067 95.5125 337.858 94.0215 337.858C92.5305 337.858 91.3218 339.067 91.3218 340.558C91.3218 342.049 92.5305 343.258 94.0215 343.258Z" fill="#E0F2F1"/>
<path d="M179.192 350.901C180.683 350.901 181.892 349.692 181.892 348.201C181.892 346.71 180.683 345.501 179.192 345.501C177.701 345.501 176.492 346.71 176.492 348.201C176.492 349.692 177.701 350.901 179.192 350.901Z" fill="#E0F2F1"/>
<path d="M95.2295 307.397L64.3862 336.318L94.3543 340.953L95.2295 307.397ZM65.8655 335.862L94.5268 308.988L93.7132 340.164L65.8655 335.862Z" fill="#E0F2F1"/>
<path d="M166.963 288.943L153.822 325.827L154.451 326.061L166.803 291.408L178.872 348.263L179.525 348.127L166.963 288.943Z" fill="#E0F2F1"/>
<path d="M114.312 288.561L148.731 365.767L149.347 365.496L115.582 289.732L206.83 322.683L207.052 322.054L114.312 288.561Z" fill="#E0F2F1"/>
<path d="M100.37 240.509C100.284 240.509 100.198 240.546 100.124 240.607L65.9891 273.916C65.8535 274.052 65.8535 274.261 65.9891 274.397C66.1247 274.533 66.3342 274.533 66.4698 274.397L99.9635 241.717L94.6257 307.361L66.3342 274.816C66.2356 274.705 66.0754 274.668 65.9398 274.73C65.8042 274.791 65.7302 274.939 65.7549 275.087L68.9353 294.663L49.9511 350.433C49.8894 350.605 49.988 350.802 50.1606 350.864C50.3332 350.926 50.5305 350.827 50.5921 350.655L69.601 294.799C69.6133 294.75 69.6257 294.688 69.6133 294.639L66.6054 276.16L94.6504 308.421C94.7367 308.519 94.8846 308.556 95.0079 308.519C95.1312 308.482 95.2298 308.359 95.2421 308.223L100.728 240.879C100.74 240.743 100.666 240.607 100.531 240.546C100.457 240.521 100.407 240.509 100.37 240.509Z" fill="#E0F2F1"/>
<path d="M74.6795 229.044C74.6549 229.044 74.6179 229.044 74.5809 229.056C74.396 229.106 74.2974 229.29 74.3344 229.463L94.539 308.272C94.5883 308.457 94.7732 308.556 94.9458 308.519C95.1307 308.47 95.2294 308.285 95.1924 308.112L75 229.29C74.9631 229.143 74.8275 229.044 74.6795 229.044Z" fill="#E0F2F1"/>
<path d="M101.147 136.761C101.134 136.785 101.11 136.81 101.097 136.822C101.023 136.896 100.925 136.933 100.814 136.921C100.777 136.945 100.74 136.958 100.703 136.97L13.9177 158.592C13.7452 158.642 13.5602 158.531 13.5109 158.358L2.37925 118.615C2.34227 118.504 2.37925 118.38 2.45322 118.294C2.52718 118.208 2.65046 118.171 2.76141 118.195L100.432 136.181L84.4801 50.5547C84.4431 50.3821 84.554 50.2095 84.7266 50.1602L164.226 30.35C164.362 30.3131 164.498 30.3624 164.584 30.4733C164.67 30.5843 164.67 30.7322 164.596 30.8431L101.159 136.378L101.184 136.502C101.196 136.613 101.184 136.699 101.147 136.761ZM100.974 135.405L163.598 31.213L85.1951 50.752L100.974 135.405ZM14.0657 157.865L99.2607 136.637L3.16821 118.947L14.0657 157.865Z" fill="#80CBC4"/>
<path d="M91.4325 84.6401C91.4202 84.6648 91.3955 84.6895 91.3709 84.7141L45.8456 126.677C45.7346 126.775 45.5867 126.788 45.4634 126.726C45.3402 126.664 45.2662 126.516 45.2909 126.381L53.9077 66.8023C53.9201 66.6914 53.994 66.6051 54.0803 66.5558C54.1789 66.5065 54.2899 66.5065 54.3885 66.5435L91.3092 84.1594C91.4078 84.2087 91.4818 84.3073 91.4941 84.4183C91.4818 84.4922 91.4695 84.5662 91.4325 84.6401ZM46.0798 125.53L90.5449 84.5538L54.4995 67.3447L46.0798 125.53Z" fill="#80CBC4"/>
<path d="M71.2651 172.719C71.2404 172.769 71.1911 172.806 71.1418 172.843C71.0432 172.892 70.9322 172.904 70.8213 172.855L32.8527 153.797C32.7295 153.735 32.6555 153.599 32.6678 153.464C32.6802 153.328 32.7788 153.205 32.9267 153.168L73.6813 143.01C73.7922 142.986 73.9032 143.01 73.9771 143.084C74.0634 143.158 74.1004 143.257 74.0881 143.368L71.3144 172.584C71.3021 172.633 71.2897 172.682 71.2651 172.719ZM33.9745 153.599L70.6857 172.029L73.3731 143.787L33.9745 153.599Z" fill="#80CBC4"/>
<path d="M129.438 202.971C129.414 203.02 129.364 203.057 129.315 203.094C129.229 203.143 129.118 203.156 129.031 203.119L85.8854 185.848C85.7251 185.786 85.6389 185.601 85.6882 185.441L100.074 136.624C100.111 136.501 100.21 136.415 100.321 136.39C100.432 136.366 100.567 136.403 100.641 136.501L134.283 174.827C134.345 174.901 134.382 175.012 134.357 175.111L129.475 202.872C129.475 202.897 129.463 202.934 129.438 202.971ZM86.4155 185.318L128.884 202.317L133.667 175.123L100.543 137.376L86.4155 185.318Z" fill="#80CBC4"/>
<path d="M2.69971 121.227C4.19072 121.227 5.39942 120.018 5.39942 118.527C5.39942 117.036 4.19072 115.828 2.69971 115.828C1.2087 115.828 0 117.036 0 118.527C0 120.018 1.2087 121.227 2.69971 121.227Z" fill="#80CBC4"/>
<path d="M71.1543 174.963C72.6453 174.963 73.854 173.755 73.854 172.264C73.854 170.773 72.6453 169.564 71.1543 169.564C69.6633 169.564 68.4546 170.773 68.4546 172.264C68.4546 173.755 69.6633 174.963 71.1543 174.963Z" fill="#80CBC4"/>
<path d="M100.395 139.41C101.886 139.41 103.094 138.201 103.094 136.71C103.094 135.219 101.886 134.011 100.395 134.011C98.9035 134.011 97.6948 135.219 97.6948 136.71C97.6948 138.201 98.9035 139.41 100.395 139.41Z" fill="#80CBC4"/>
<path d="M121.585 43.9106C123.076 43.9106 124.285 42.702 124.285 41.2109C124.285 39.7199 123.076 38.5112 121.585 38.5112C120.094 38.5112 118.886 39.7199 118.886 41.2109C118.886 42.702 120.094 43.9106 121.585 43.9106Z" fill="#80CBC4"/>
<path d="M127.441 95.0562C128.932 95.0562 130.141 93.8475 130.141 92.3564C130.141 90.8654 128.932 89.6567 127.441 89.6567C125.95 89.6567 124.741 90.8654 124.741 92.3564C124.741 93.8475 125.95 95.0562 127.441 95.0562Z" fill="#80CBC4"/>
<path d="M133.272 177.676C134.763 177.676 135.972 176.467 135.972 174.976C135.972 173.485 134.763 172.276 133.272 172.276C131.781 172.276 130.572 173.485 130.572 174.976C130.572 176.467 131.781 177.676 133.272 177.676Z" fill="#80CBC4"/>
<path d="M129.142 205.499C130.633 205.499 131.842 204.29 131.842 202.799C131.842 201.308 130.633 200.099 129.142 200.099C127.651 200.099 126.442 201.308 126.442 202.799C126.442 204.29 127.651 205.499 129.142 205.499Z" fill="#80CBC4"/>
<path d="M108.161 183.432C109.652 183.432 110.861 182.223 110.861 180.732C110.861 179.241 109.652 178.032 108.161 178.032C106.67 178.032 105.461 179.241 105.461 180.732C105.461 182.223 106.67 183.432 108.161 183.432Z" fill="#80CBC4"/>
<path d="M94.7612 157.273C96.2522 157.273 97.4609 156.064 97.4609 154.573C97.4609 153.082 96.2522 151.874 94.7612 151.874C93.2702 151.874 92.0615 153.082 92.0615 154.573C92.0615 156.064 93.2702 157.273 94.7612 157.273Z" fill="#80CBC4"/>
<path d="M92.3818 166.47C93.8728 166.47 95.0815 165.261 95.0815 163.77C95.0815 162.279 93.8728 161.07 92.3818 161.07C90.8908 161.07 89.6821 162.279 89.6821 163.77C89.6821 165.261 90.8908 166.47 92.3818 166.47Z" fill="#80CBC4"/>
<path d="M86.0088 188.215C87.4998 188.215 88.7085 187.007 88.7085 185.516C88.7085 184.025 87.4998 182.816 86.0088 182.816C84.5178 182.816 83.3091 184.025 83.3091 185.516C83.3091 187.007 84.5178 188.215 86.0088 188.215Z" fill="#80CBC4"/>
<path d="M163.709 33.4194C165.2 33.4194 166.408 32.2107 166.408 30.7197C166.408 29.2287 165.2 28.02 163.709 28.02C162.217 28.02 161.009 29.2287 161.009 30.7197C161.009 32.2107 162.217 33.4194 163.709 33.4194Z" fill="#80CBC4"/>
<path d="M54.2285 69.5513C55.7195 69.5513 56.9282 68.3426 56.9282 66.8516C56.9282 65.3606 55.7195 64.1519 54.2285 64.1519C52.7375 64.1519 51.5288 65.3606 51.5288 66.8516C51.5288 68.3426 52.7375 69.5513 54.2285 69.5513Z" fill="#80CBC4"/>
<path d="M75.1973 101.442C76.6883 101.442 77.897 100.234 77.897 98.7427C77.897 97.2517 76.6883 96.043 75.1973 96.043C73.7063 96.043 72.4976 97.2517 72.4976 98.7427C72.4976 100.234 73.7063 101.442 75.1973 101.442Z" fill="#80CBC4"/>
<path d="M90.4219 86.5884C91.9129 86.5884 93.1216 85.3797 93.1216 83.8887C93.1216 82.3977 91.9129 81.189 90.4219 81.189C88.9309 81.189 87.7222 82.3977 87.7222 83.8887C87.7222 85.3797 88.9309 86.5884 90.4219 86.5884Z" fill="#80CBC4"/>
<path d="M113.166 80.1782C114.657 80.1782 115.866 78.9695 115.866 77.4785C115.866 75.9875 114.657 74.7788 113.166 74.7788C111.675 74.7788 110.466 75.9875 110.466 77.4785C110.466 78.9695 111.675 80.1782 113.166 80.1782Z" fill="#80CBC4"/>
<path d="M111.07 91.5186C112.561 91.5186 113.77 90.3099 113.77 88.8189C113.77 87.3278 112.561 86.1191 111.07 86.1191C109.579 86.1191 108.371 87.3278 108.371 88.8189C108.371 90.3099 109.579 91.5186 111.07 91.5186Z" fill="#80CBC4"/>
<path d="M13.8315 160.972C15.3226 160.972 16.5313 159.763 16.5313 158.272C16.5313 156.781 15.3226 155.572 13.8315 155.572C12.3405 155.572 11.1318 156.781 11.1318 158.272C11.1318 159.763 12.3405 160.972 13.8315 160.972Z" fill="#80CBC4"/>
<path d="M34.0239 156.188C35.5149 156.188 36.7236 154.98 36.7236 153.489C36.7236 151.998 35.5149 150.789 34.0239 150.789C32.5329 150.789 31.3242 151.998 31.3242 153.489C31.3242 154.98 32.5329 156.188 34.0239 156.188Z" fill="#80CBC4"/>
<path d="M73.5454 146.092C75.0364 146.092 76.2451 144.883 76.2451 143.392C76.2451 141.901 75.0364 140.692 73.5454 140.692C72.0544 140.692 70.8457 141.901 70.8457 143.392C70.8457 144.883 72.0544 146.092 73.5454 146.092Z" fill="#80CBC4"/>
<path d="M45.7842 129.413C47.2752 129.413 48.4839 128.204 48.4839 126.713C48.4839 125.222 47.2752 124.014 45.7842 124.014C44.2932 124.014 43.0845 125.222 43.0845 126.713C43.0845 128.204 44.2932 129.413 45.7842 129.413Z" fill="#80CBC4"/>
<path d="M85.1333 53.4883C86.6243 53.4883 87.833 52.2796 87.833 50.7886C87.833 49.2976 86.6243 48.0889 85.1333 48.0889C83.6423 48.0889 82.4336 49.2976 82.4336 50.7886C82.4336 52.2796 83.6423 53.4883 85.1333 53.4883Z" fill="#80CBC4"/>
<path d="M74.4086 143.528L33.4321 153.994L45.624 126.232L74.4086 143.528ZM34.6156 152.995L72.6827 143.269L45.9445 127.194L34.6156 152.995Z" fill="#80CBC4"/>
<path d="M128.526 92.9484L90.3477 84.2083L90.4956 83.5549L126.356 91.765L84.8989 51.0228L85.3674 50.542L128.526 92.9484Z" fill="#80CBC4"/>
<path d="M100.543 137.549L53.9448 67.0361L54.5119 66.6539L100.234 135.86L121.499 41.1978L122.153 41.3457L100.543 137.549Z" fill="#80CBC4"/>
<path d="M133.568 175.148C133.519 175.222 133.445 175.284 133.358 175.308L86.9208 186.193C86.7359 186.23 86.5633 186.119 86.514 185.947C86.477 185.762 86.588 185.589 86.7605 185.54L132.323 174.864L74.1003 144.083L86.3291 185.441C86.3661 185.589 86.3168 185.737 86.1812 185.824C86.0579 185.91 85.8853 185.885 85.7744 185.787L70.9814 172.584L13.7451 158.617C13.5602 158.568 13.4492 158.395 13.4985 158.21C13.5478 158.025 13.7204 157.914 13.9053 157.964L71.228 171.955C71.2773 171.968 71.3266 171.992 71.3759 172.029L85.3429 184.505L73.225 143.491C73.188 143.356 73.225 143.22 73.336 143.134C73.4469 143.047 73.5825 143.035 73.7058 143.097L133.445 174.667C133.568 174.729 133.642 174.864 133.617 175.012C133.605 175.062 133.593 175.111 133.568 175.148Z" fill="#80CBC4"/>
<path d="M129.438 202.971C129.426 202.996 129.401 203.02 129.377 203.045C129.241 203.168 129.031 203.168 128.896 203.033L73.2868 143.639C73.1635 143.504 73.1635 143.294 73.2991 143.158C73.4347 143.035 73.6443 143.035 73.7799 143.171L129.389 202.564C129.5 202.675 129.512 202.836 129.438 202.971Z" fill="#80CBC4"/>
<path d="M312.23 104.339C312.254 104.327 312.279 104.314 312.303 104.302C312.39 104.253 312.451 104.154 312.464 104.055C312.488 104.031 312.525 103.994 312.538 103.957L354.858 23.4956C354.944 23.3353 354.882 23.1257 354.722 23.0394L318.171 2.44027C318.073 2.37863 317.937 2.37863 317.838 2.44027C317.74 2.50191 317.666 2.60053 317.666 2.7238L311.823 103.488L231.152 67.0608C230.992 66.9868 230.794 67.0484 230.708 67.2087L191.951 140.902C191.889 141.025 191.901 141.173 191.988 141.284C192.074 141.395 192.222 141.432 192.357 141.395L311.884 104.265L311.995 104.314C312.057 104.364 312.143 104.364 312.23 104.339ZM310.923 103.846L192.937 140.495L231.164 67.8127L310.923 103.846ZM354.094 23.4709L312.55 102.441L318.307 3.30319L354.094 23.4709Z" fill="#E0F2F1"/>
<path d="M263.105 82.1492C263.129 82.1368 263.166 82.1245 263.191 82.1122L315.62 47.2995C315.743 47.2132 315.792 47.0776 315.767 46.9296C315.73 46.794 315.607 46.6831 315.472 46.6708L254.574 40.7783C254.463 40.7659 254.364 40.8152 254.29 40.8892C254.217 40.9755 254.192 41.0864 254.204 41.1851L262.673 81.8903C262.698 82.0012 262.772 82.0998 262.883 82.1368C262.957 82.1738 263.031 82.1738 263.105 82.1492ZM314.436 47.2625L263.24 81.2616L254.968 41.5179L314.436 47.2625Z" fill="#E0F2F1"/>
<path d="M354.944 83.5302C355.006 83.5179 355.055 83.4809 355.092 83.4316C355.166 83.3453 355.203 83.2343 355.179 83.1234L345.539 41.0375C345.502 40.9019 345.391 40.791 345.243 40.7786C345.107 40.754 344.959 40.8279 344.898 40.9635L325.026 78.7472C324.976 78.8458 324.976 78.9691 325.026 79.0677C325.075 79.1663 325.174 79.2403 325.285 79.2526L354.797 83.5549C354.846 83.5425 354.895 83.5425 354.944 83.5302ZM345.082 42.0977L354.402 82.7906L325.864 78.6239L345.082 42.0977Z" fill="#E0F2F1"/>
<path d="M370.748 148.262C370.81 148.249 370.859 148.212 370.896 148.163C370.97 148.089 370.995 147.978 370.982 147.879L364.35 101.109C364.325 100.937 364.165 100.801 363.993 100.813L312.328 103.217C312.205 103.229 312.094 103.291 312.032 103.414C311.983 103.525 311.983 103.661 312.057 103.76L341.766 146.228C341.828 146.314 341.927 146.363 342.025 146.376L370.612 148.262C370.662 148.286 370.711 148.274 370.748 148.262ZM363.721 101.528L370.243 147.571L342.235 145.722L312.982 103.895L363.721 101.528Z" fill="#E0F2F1"/>
<path d="M317.999 5.48511C319.51 5.48511 320.736 4.25985 320.736 2.74841C320.736 1.23698 319.51 0.0117188 317.999 0.0117188C316.487 0.0117188 315.262 1.23698 315.262 2.74841C315.262 4.25985 316.487 5.48511 317.999 5.48511Z" fill="#E0F2F1"/>
<path d="M354.513 86.0452C356.024 86.0452 357.249 84.8199 357.249 83.3085C357.249 81.797 356.024 80.5718 354.513 80.5718C353.001 80.5718 351.776 81.797 351.776 83.3085C351.776 84.8199 353.001 86.0452 354.513 86.0452Z" fill="#E0F2F1"/>
<path d="M312.353 106.323C313.864 106.323 315.09 105.098 315.09 103.586C315.09 102.075 313.864 100.85 312.353 100.85C310.841 100.85 309.616 102.075 309.616 103.586C309.616 105.098 310.841 106.323 312.353 106.323Z" fill="#E0F2F1"/>
<path d="M212.957 104.167C214.468 104.167 215.694 102.941 215.694 101.43C215.694 99.9186 214.468 98.6934 212.957 98.6934C211.445 98.6934 210.22 99.9186 210.22 101.43C210.22 102.941 211.445 104.167 212.957 104.167Z" fill="#E0F2F1"/>
<path d="M262.033 122.312C263.544 122.312 264.769 121.087 264.769 119.576C264.769 118.064 263.544 116.839 262.033 116.839C260.521 116.839 259.296 118.064 259.296 119.576C259.296 121.087 260.521 122.312 262.033 122.312Z" fill="#E0F2F1"/>
<path d="M342.185 148.028C343.697 148.028 344.922 146.802 344.922 145.291C344.922 143.779 343.697 142.554 342.185 142.554C340.674 142.554 339.449 143.779 339.449 145.291C339.449 146.802 340.674 148.028 342.185 148.028Z" fill="#E0F2F1"/>
<path d="M370.65 150.678C372.161 150.678 373.386 149.452 373.386 147.941C373.386 146.429 372.161 145.204 370.65 145.204C369.138 145.204 367.913 146.429 367.913 147.941C367.913 149.452 369.138 150.678 370.65 150.678Z" fill="#E0F2F1"/>
<path d="M353.933 124.63C355.445 124.63 356.67 123.404 356.67 121.893C356.67 120.382 355.445 119.156 353.933 119.156C352.422 119.156 351.197 120.382 351.197 121.893C351.197 123.404 352.422 124.63 353.933 124.63Z" fill="#E0F2F1"/>
<path d="M331.35 105.078C332.861 105.078 334.087 103.853 334.087 102.342C334.087 100.83 332.861 99.605 331.35 99.605C329.839 99.605 328.613 100.83 328.613 102.342C328.613 103.853 329.839 105.078 331.35 105.078Z" fill="#E0F2F1"/>
<path d="M341.002 104.955C342.514 104.955 343.739 103.73 343.739 102.218C343.739 100.707 342.514 99.4814 341.002 99.4814C339.491 99.4814 338.266 100.707 338.266 102.218C338.266 103.73 339.491 104.955 341.002 104.955Z" fill="#E0F2F1"/>
<path d="M364.017 103.906C365.529 103.906 366.754 102.681 366.754 101.17C366.754 99.6584 365.529 98.4331 364.017 98.4331C362.506 98.4331 361.281 99.6584 361.281 101.17C361.281 102.681 362.506 103.906 364.017 103.906Z" fill="#E0F2F1"/>
<path d="M192.419 143.22C193.931 143.22 195.156 141.995 195.156 140.483C195.156 138.972 193.931 137.747 192.419 137.747C190.908 137.747 189.683 138.972 189.683 140.483C189.683 141.995 190.908 143.22 192.419 143.22Z" fill="#E0F2F1"/>
<path d="M254.537 43.8606C256.049 43.8606 257.274 42.6353 257.274 41.1239C257.274 39.6125 256.049 38.3872 254.537 38.3872C253.026 38.3872 251.801 39.6125 251.801 41.1239C251.801 42.6353 253.026 43.8606 254.537 43.8606Z" fill="#E0F2F1"/>
<path d="M280.955 72.2751C282.466 72.2751 283.692 71.0499 283.692 69.5385C283.692 68.027 282.466 66.8018 280.955 66.8018C279.444 66.8018 278.218 68.027 278.218 69.5385C278.218 71.0499 279.444 72.2751 280.955 72.2751Z" fill="#E0F2F1"/>
<path d="M262.612 83.7151C264.123 83.7151 265.348 82.4898 265.348 80.9784C265.348 79.467 264.123 78.2417 262.612 78.2417C261.1 78.2417 259.875 79.467 259.875 80.9784C259.875 82.4898 261.1 83.7151 262.612 83.7151Z" fill="#E0F2F1"/>
<path d="M250.79 104.622C252.301 104.622 253.527 103.397 253.527 101.885C253.527 100.374 252.301 99.1484 250.79 99.1484C249.278 99.1484 248.053 100.374 248.053 101.885C248.053 103.397 249.278 104.622 250.79 104.622Z" fill="#E0F2F1"/>
<path d="M262.489 105.288C264 105.288 265.225 104.063 265.225 102.551C265.225 101.04 264 99.8145 262.489 99.8145C260.977 99.8145 259.752 101.04 259.752 102.551C259.752 104.063 260.977 105.288 262.489 105.288Z" fill="#E0F2F1"/>
<path d="M354.55 26.072C356.062 26.072 357.287 24.8468 357.287 23.3353C357.287 21.8239 356.062 20.5986 354.55 20.5986C353.039 20.5986 351.813 21.8239 351.813 23.3353C351.813 24.8468 353.039 26.072 354.55 26.072Z" fill="#E0F2F1"/>
<path d="M344.947 44.8591C346.459 44.8591 347.684 43.6339 347.684 42.1224C347.684 40.611 346.459 39.3857 344.947 39.3857C343.436 39.3857 342.21 40.611 342.21 42.1224C342.21 43.6339 343.436 44.8591 344.947 44.8591Z" fill="#E0F2F1"/>
<path d="M325.445 81.4343C326.956 81.4343 328.181 80.2091 328.181 78.6976C328.181 77.1862 326.956 75.9609 325.445 75.9609C323.933 75.9609 322.708 77.1862 322.708 78.6976C322.708 80.2091 323.933 81.4343 325.445 81.4343Z" fill="#E0F2F1"/>
<path d="M315.681 49.9988C317.193 49.9988 318.418 48.7735 318.418 47.2621C318.418 45.7507 317.193 44.5254 315.681 44.5254C314.17 44.5254 312.945 45.7507 312.945 47.2621C312.945 48.7735 314.17 49.9988 315.681 49.9988Z" fill="#E0F2F1"/>
<path d="M231.214 70.4875C232.725 70.4875 233.95 69.2623 233.95 67.7508C233.95 66.2394 232.725 65.0142 231.214 65.0142C229.702 65.0142 228.477 66.2394 228.477 67.7508C228.477 69.2623 229.702 70.4875 231.214 70.4875Z" fill="#E0F2F1"/>
<path d="M325.359 79.573L345.588 41.6538L315.238 46.9916L325.359 79.573ZM344.318 42.5784L325.519 77.8102L316.113 47.534L344.318 42.5784Z" fill="#E0F2F1"/>
<path d="M262.353 120.783L262.945 80.9904L262.267 80.9781L261.712 118.355L231.51 67.5781L230.918 67.9356L262.353 120.783Z" fill="#E0F2F1"/>
<path d="M313.142 103.945L254.784 40.8901L254.279 41.3586L311.552 103.23L212.969 101.344L212.957 102.022L313.142 103.945Z" fill="#E0F2F1"/>
<path d="M342.284 145.623C342.371 145.598 342.445 145.537 342.494 145.451L364.461 102.23C364.548 102.058 364.474 101.861 364.313 101.774C364.141 101.688 363.944 101.75 363.857 101.922L342.309 144.329L325.987 79.4124L363.857 101.478C363.993 101.552 364.153 101.54 364.264 101.429C364.375 101.318 364.4 101.158 364.326 101.022L354.871 83.2215L354.908 23.3471C354.908 23.1622 354.76 23.002 354.562 23.002C354.378 23.002 354.217 23.1499 354.217 23.3471L354.18 83.3078C354.18 83.3695 354.193 83.4188 354.217 83.4681L363.155 100.27L325.618 78.4015C325.494 78.3275 325.346 78.3399 325.235 78.4262C325.125 78.5125 325.075 78.6481 325.112 78.7837L341.853 145.389C341.89 145.524 342.001 145.635 342.149 145.648C342.186 145.635 342.235 145.635 342.284 145.623Z" fill="#E0F2F1"/>
<path d="M370.748 148.262C370.773 148.25 370.81 148.237 370.835 148.225C370.995 148.126 371.032 147.905 370.933 147.757L325.728 78.5134C325.63 78.3531 325.408 78.3161 325.26 78.4148C325.1 78.5134 325.063 78.7353 325.161 78.8832L370.366 148.126C370.44 148.262 370.6 148.311 370.748 148.262Z" fill="#E0F2F1"/>
<path d="M242.456 196.205C241.642 196.488 240.755 196.069 240.471 195.255L237.611 187.206C236.65 184.481 233.642 183.051 230.917 184.025L228.353 184.937C224.014 186.478 219.231 184.198 217.69 179.858C216.149 175.519 218.43 170.736 222.769 169.195L254.783 157.829C257.804 156.757 259.394 153.416 258.321 150.396C257.249 147.376 253.908 145.785 250.888 146.858L234.246 152.763C229.907 154.304 225.124 152.023 223.583 147.684L220.402 138.722C220.119 137.908 220.538 137.02 221.351 136.737C222.165 136.453 223.053 136.873 223.336 137.686L226.517 146.648C227.478 149.373 230.486 150.803 233.21 149.829L249.852 143.924C254.487 142.272 259.603 144.713 261.255 149.348C262.907 153.983 260.466 159.099 255.831 160.751L223.817 172.117C221.092 173.078 219.662 176.086 220.636 178.811C221.598 181.535 224.606 182.965 227.33 181.991L229.894 181.079C234.234 179.538 239.017 181.818 240.557 186.158L243.417 194.208C243.676 195.033 243.257 195.921 242.456 196.205Z" fill="black"/>
<path d="M250.616 199.484L238.905 203.638C236.982 204.316 234.874 203.318 234.196 201.395C233.518 199.472 234.516 197.364 236.439 196.686L248.15 192.531C250.073 191.853 252.181 192.852 252.859 194.775C253.538 196.698 252.539 198.806 250.616 199.484Z" fill="#C5E1A5"/>
<path d="M250.913 200.298L239.202 204.452C236.835 205.29 234.234 204.045 233.395 201.691C232.557 199.324 233.802 196.723 236.157 195.885L247.868 191.73C250.235 190.892 252.836 192.137 253.674 194.492C254.512 196.846 253.267 199.46 250.913 200.298ZM236.736 197.5C235.269 198.017 234.492 199.645 235.01 201.111C235.528 202.578 237.155 203.355 238.622 202.837L250.333 198.683C251.8 198.165 252.577 196.538 252.059 195.071C251.541 193.604 249.914 192.827 248.447 193.358L236.736 197.5Z" fill="black"/>
<path d="M294.722 180.329L192.64 216.573L214.464 278.041L316.546 241.797L294.722 180.329Z" fill="#E6EE9C"/>
<path d="M316.815 242.605L214.744 278.848C214.3 279.008 213.807 278.774 213.647 278.33L191.827 216.865C191.667 216.422 191.901 215.929 192.345 215.768L294.416 179.526C294.86 179.365 295.353 179.6 295.514 180.043L317.333 241.508C317.493 241.964 317.259 242.445 316.815 242.605ZM214.966 276.949L315.422 241.286L294.17 181.436L193.713 217.1L214.966 276.949Z" fill="black"/>
<path d="M171.338 249.804L237.598 251.468L216.974 322.264C211.439 341.261 192.332 340.941 187.894 321.66L171.338 249.804Z" fill="#DCE775"/>
<path d="M206.534 336.454C205.054 336.984 203.501 337.231 201.886 337.182C194.86 336.984 189.177 331.117 187.044 321.859L170.488 250.002C170.427 249.743 170.488 249.472 170.661 249.262C170.833 249.053 171.08 248.942 171.351 248.942L237.611 250.606C237.882 250.618 238.129 250.742 238.277 250.964C238.437 251.173 238.486 251.457 238.412 251.716L217.789 322.512C215.718 329.674 211.588 334.655 206.534 336.454ZM172.424 250.692L188.733 321.464C190.681 329.921 195.747 335.283 201.948 335.456C208.247 335.641 213.684 330.488 216.149 322.019L236.452 252.295L172.424 250.692Z" fill="black"/>
<g opacity="0.1">
<path opacity="0.1" d="M211.107 284.593C229.544 284.593 244.49 269.647 244.49 251.21C244.49 232.773 229.544 217.827 211.107 217.827C192.671 217.827 177.725 232.773 177.725 251.21C177.725 269.647 192.671 284.593 211.107 284.593Z" fill="black"/>
</g>
<path d="M343.689 277.701L301.381 248.436L285.91 237.736L283.038 235.751L283.888 235.011L333.272 192.309L346.364 219.023L365.73 258.52C374.458 276.284 359.961 288.956 343.689 277.701Z" fill="#DCE775"/>
<path d="M360.528 282.053C355.511 283.828 349.248 282.583 343.196 278.404L282.545 236.454C282.323 236.306 282.187 236.059 282.175 235.788C282.162 235.529 282.273 235.27 282.471 235.098L283.321 234.358L332.705 191.656C332.902 191.483 333.173 191.409 333.432 191.458C333.691 191.508 333.913 191.68 334.036 191.927L366.494 258.138C370.723 266.767 369.995 275.014 364.571 279.686C363.363 280.746 361.995 281.523 360.528 282.053ZM344.17 276.999C351.319 281.942 358.716 282.484 363.462 278.392C368.257 274.262 368.824 266.804 364.954 258.902L332.976 193.69L284.418 235.677L301.849 247.733L344.17 276.999Z" fill="black"/>
<g opacity="0.1">
<path opacity="0.1" d="M346.118 218.295C344.984 231.214 336.515 242.938 323.509 247.548C315.989 250.223 308.137 250.088 301.11 247.696L285.639 236.996C284.924 236.121 284.259 235.221 283.63 234.272L333.014 191.569L346.118 218.295Z" fill="black"/>
</g>
<g opacity="0.1">
<path opacity="0.1" d="M265.829 230.129L251.566 235.196C250.358 235.627 249.027 234.986 248.595 233.778C248.164 232.57 248.805 231.239 250.013 230.807L264.276 225.741C265.484 225.309 266.815 225.95 267.246 227.158C267.678 228.379 267.037 229.71 265.829 230.129Z" fill="black"/>
</g>
<g opacity="0.1">
<path opacity="0.1" d="M262.192 219.885L247.929 224.952C246.721 225.383 245.39 224.742 244.958 223.534C244.527 222.326 245.168 220.994 246.376 220.563L260.639 215.496C261.847 215.065 263.178 215.706 263.61 216.914C264.041 218.122 263.4 219.466 262.192 219.885Z" fill="black"/>
</g>
<path d="M305.608 244.453C324.045 244.453 338.991 229.507 338.991 211.07C338.991 192.633 324.045 177.688 305.608 177.688C287.172 177.688 272.226 192.633 272.226 211.07C272.226 229.507 287.172 244.453 305.608 244.453Z" fill="#D4E157"/>
<path d="M317.074 243.344C299.273 249.668 279.66 240.324 273.336 222.523C267.012 204.722 276.356 185.109 294.157 178.785C311.958 172.461 331.571 181.806 337.895 199.606C344.207 217.407 334.862 237.02 317.074 243.344ZM294.724 180.413C277.823 186.416 268.948 205.043 274.951 221.956C280.954 238.857 299.581 247.733 316.494 241.729C333.395 235.726 342.271 217.099 336.268 200.186C330.264 183.273 311.625 174.409 294.724 180.413Z" fill="black"/>
<path d="M301.158 256.954C306.516 256.954 310.86 252.61 310.86 247.252C310.86 241.894 306.516 237.55 301.158 237.55C295.8 237.55 291.457 241.894 291.457 247.252C291.457 252.61 295.8 256.954 301.158 256.954Z" fill="#F0F4C3"/>
<path d="M304.685 257.214C299.199 259.161 293.147 256.277 291.199 250.791C289.251 245.305 292.136 239.252 297.621 237.305C303.107 235.357 309.16 238.242 311.108 243.727C313.055 249.213 310.183 255.266 304.685 257.214ZM298.201 238.92C293.603 240.547 291.186 245.626 292.826 250.224C294.453 254.822 299.532 257.238 304.118 255.599C308.716 253.971 311.132 248.893 309.493 244.307C307.865 239.696 302.799 237.28 298.201 238.92Z" fill="black"/>
<g opacity="0.1">
<path opacity="0.1" d="M302.417 200.544C305.419 200.544 307.853 198.11 307.853 195.107C307.853 192.105 305.419 189.671 302.417 189.671C299.414 189.671 296.98 192.105 296.98 195.107C296.98 198.11 299.414 200.544 302.417 200.544Z" fill="black"/>
</g>
<g opacity="0.1">
<path opacity="0.1" d="M291.913 222.598C294.916 222.598 297.35 220.164 297.35 217.162C297.35 214.159 294.916 211.725 291.913 211.725C288.911 211.725 286.477 214.159 286.477 217.162C286.477 220.164 288.911 222.598 291.913 222.598Z" fill="black"/>
</g>
<g opacity="0.1">
<path opacity="0.1" d="M313.98 233.101C316.982 233.101 319.416 230.667 319.416 227.664C319.416 224.662 316.982 222.228 313.98 222.228C310.977 222.228 308.543 224.662 308.543 227.664C308.543 230.667 310.977 233.101 313.98 233.101Z" fill="black"/>
</g>
<g opacity="0.1">
<path opacity="0.1" d="M324.483 211.047C327.485 211.047 329.919 208.613 329.919 205.611C329.919 202.608 327.485 200.174 324.483 200.174C321.48 200.174 319.046 202.608 319.046 205.611C319.046 208.613 321.48 211.047 324.483 211.047Z" fill="black"/>
</g>
<path d="M204.634 280.303C223.071 280.303 238.017 265.357 238.017 246.92C238.017 228.483 223.071 213.537 204.634 213.537C186.197 213.537 171.251 228.483 171.251 246.92C171.251 265.357 186.197 280.303 204.634 280.303Z" fill="#CDDC39"/>
<path d="M216.088 279.193C198.287 285.517 178.674 276.173 172.35 258.372C166.026 240.571 175.37 220.958 193.171 214.634C210.972 208.31 230.585 217.655 236.909 235.456C243.22 253.256 233.888 272.869 216.088 279.193ZM193.75 216.262C176.849 222.265 167.974 240.892 173.977 257.805C179.98 274.706 198.607 283.582 215.52 277.578C232.421 271.575 241.297 252.948 235.294 236.035C229.29 219.134 210.651 210.258 193.75 216.262Z" fill="black"/>
<g opacity="0.1">
<path opacity="0.1" d="M215.015 240.756L210.072 242.507L208.321 237.563C207.495 235.246 204.943 234.025 202.626 234.851C200.296 235.677 199.088 238.229 199.914 240.546L201.664 245.49L196.721 247.24C194.403 248.066 193.183 250.618 194.009 252.936C194.835 255.253 197.387 256.474 199.704 255.648L204.647 253.897L206.398 258.84C207.224 261.158 209.776 262.378 212.093 261.552C214.411 260.727 215.631 258.175 214.805 255.857L213.055 250.914L217.998 249.163C220.316 248.337 221.536 245.786 220.71 243.468C219.884 241.151 217.332 239.93 215.015 240.756Z" fill="black"/>
</g>
<path d="M230.904 281.891C236.262 281.891 240.606 277.548 240.606 272.19C240.606 266.831 236.262 262.488 230.904 262.488C225.546 262.488 221.202 266.831 221.202 272.19C221.202 277.548 225.546 281.891 230.904 281.891Z" fill="#F0F4C3"/>
<path d="M234.443 282.152C228.957 284.099 222.904 281.215 220.957 275.729C219.009 270.243 221.893 264.19 227.379 262.243C232.865 260.295 238.918 263.18 240.865 268.665C242.813 274.151 239.929 280.204 234.443 282.152ZM227.946 263.858C223.348 265.485 220.932 270.564 222.572 275.15C224.199 279.748 229.278 282.164 233.863 280.524C238.449 278.885 240.878 273.818 239.238 269.232C237.611 264.634 232.544 262.23 227.946 263.858Z" fill="black"/>
<path d="M230.904 274.902C232.402 274.902 233.616 273.687 233.616 272.19C233.616 270.692 232.402 269.478 230.904 269.478C229.406 269.478 228.192 270.692 228.192 272.19C228.192 273.687 229.406 274.902 230.904 274.902Z" fill="#C5E1A5"/>
<path d="M232.101 275.569C230.239 276.235 228.193 275.248 227.54 273.399C226.874 271.538 227.86 269.491 229.709 268.838C231.571 268.172 233.617 269.159 234.27 271.008C234.936 272.857 233.962 274.903 232.101 275.569ZM230.289 270.441C229.327 270.786 228.822 271.846 229.155 272.82C229.487 273.794 230.56 274.287 231.534 273.954C232.495 273.609 233.001 272.549 232.668 271.575C232.323 270.613 231.25 270.095 230.289 270.441Z" fill="black"/>
<path d="M301.158 249.964C302.656 249.964 303.87 248.749 303.87 247.252C303.87 245.754 302.656 244.54 301.158 244.54C299.661 244.54 298.446 245.754 298.446 247.252C298.446 248.749 299.661 249.964 301.158 249.964Z" fill="#C5E1A5"/>
<path d="M302.355 250.63C300.493 251.296 298.447 250.31 297.794 248.461C297.128 246.599 298.114 244.553 299.963 243.9C301.825 243.234 303.871 244.22 304.524 246.069C305.19 247.918 304.216 249.965 302.355 250.63ZM300.53 245.502C299.569 245.847 299.063 246.907 299.396 247.881C299.741 248.843 300.802 249.348 301.775 249.015C302.737 248.67 303.242 247.61 302.91 246.636C302.577 245.662 301.504 245.157 300.53 245.502Z" fill="black"/>
<path d="M263.215 228.587L248.952 233.654C247.744 234.085 246.412 233.444 245.981 232.236C245.549 231.028 246.19 229.697 247.398 229.265L261.661 224.199C262.869 223.767 264.201 224.408 264.632 225.616C265.064 226.824 264.435 228.156 263.215 228.587Z" fill="#C5E1A5"/>
<path d="M263.511 229.401L249.248 234.468C247.596 235.06 245.772 234.185 245.18 232.533C244.589 230.881 245.464 229.044 247.116 228.465L261.378 223.398C263.03 222.806 264.867 223.682 265.447 225.333C266.026 226.985 265.163 228.81 263.511 229.401ZM247.683 230.067C246.918 230.338 246.512 231.177 246.795 231.941C247.066 232.705 247.905 233.112 248.669 232.841L262.932 227.774C263.696 227.503 264.103 226.665 263.832 225.9C263.56 225.136 262.722 224.729 261.958 225.001L247.683 230.067Z" fill="black"/>
<path d="M259.578 218.344L245.315 223.411C244.107 223.843 242.776 223.201 242.344 221.993C241.913 220.785 242.554 219.454 243.762 219.022L258.025 213.956C259.233 213.524 260.564 214.165 260.996 215.374C261.427 216.582 260.798 217.913 259.578 218.344Z" fill="#C5E1A5"/>
<path d="M259.862 219.158L245.599 224.225C243.947 224.817 242.123 223.941 241.531 222.29C240.94 220.638 241.815 218.801 243.467 218.221L257.73 213.155C259.381 212.563 261.218 213.438 261.798 215.09C262.389 216.742 261.526 218.567 259.862 219.158ZM244.046 219.824C243.282 220.095 242.875 220.933 243.159 221.698C243.43 222.462 244.268 222.869 245.032 222.598L259.295 217.531C260.059 217.26 260.466 216.422 260.195 215.657C259.924 214.893 259.086 214.486 258.321 214.757L244.046 219.824Z" fill="black"/>
<path d="M208.395 260.418C206.077 261.244 203.513 260.023 202.699 257.706L196.203 239.412C195.377 237.094 196.597 234.53 198.915 233.716C201.232 232.89 203.796 234.111 204.61 236.428L211.107 254.722C211.933 257.04 210.712 259.592 208.395 260.418Z" fill="#E6EE9C"/>
<path d="M208.679 261.22C205.918 262.206 202.86 260.751 201.887 257.99L195.39 239.696C194.404 236.935 195.858 233.878 198.62 232.904C201.381 231.917 204.438 233.372 205.412 236.133L211.909 254.427C212.895 257.189 211.453 260.246 208.679 261.22ZM199.199 234.519C197.325 235.184 196.339 237.255 197.005 239.129L203.501 257.423C204.167 259.297 206.238 260.283 208.112 259.617C209.986 258.952 210.972 256.881 210.306 255.007L203.81 236.713C203.144 234.839 201.073 233.853 199.199 234.519Z" fill="black"/>
<path d="M190.298 251.8C189.472 249.483 190.692 246.919 193.01 246.105L211.304 239.609C213.622 238.783 216.186 240.003 216.999 242.321C217.825 244.638 216.605 247.202 214.287 248.016L196.006 254.512C193.676 255.338 191.124 254.118 190.298 251.8Z" fill="#E6EE9C"/>
<path d="M214.584 248.83L196.29 255.327C193.528 256.313 190.471 254.858 189.497 252.097C188.511 249.336 189.966 246.278 192.727 245.305L211.021 238.808C213.782 237.822 216.84 239.276 217.814 242.038C218.8 244.799 217.345 247.844 214.584 248.83ZM193.294 246.907C191.42 247.573 190.434 249.644 191.1 251.518C191.766 253.391 193.837 254.377 195.71 253.712L214.004 247.215C215.878 246.55 216.864 244.479 216.199 242.605C215.533 240.731 213.462 239.745 211.588 240.411L193.294 246.907Z" fill="black"/>
<path d="M299.827 200.222C302.829 200.222 305.263 197.788 305.263 194.786C305.263 191.783 302.829 189.349 299.827 189.349C296.825 189.349 294.391 191.783 294.391 194.786C294.391 197.788 296.825 200.222 299.827 200.222Z" fill="#E6EE9C"/>
<path d="M301.936 200.716C298.669 201.875 295.057 200.161 293.898 196.894C292.74 193.628 294.453 190.016 297.72 188.857C300.987 187.698 304.599 189.412 305.757 192.678C306.916 195.945 305.203 199.557 301.936 200.716ZM298.299 190.472C295.92 191.31 294.675 193.936 295.513 196.315C296.352 198.694 298.977 199.939 301.357 199.101C303.736 198.263 304.981 195.637 304.142 193.258C303.304 190.879 300.678 189.621 298.299 190.472Z" fill="black"/>
<path d="M289.325 222.289C292.328 222.289 294.761 219.855 294.761 216.853C294.761 213.85 292.328 211.417 289.325 211.417C286.323 211.417 283.889 213.85 283.889 216.853C283.889 219.855 286.323 222.289 289.325 222.289Z" fill="#E6EE9C"/>
<path d="M291.433 222.782C288.166 223.941 284.554 222.228 283.395 218.961C282.237 215.694 283.95 212.082 287.217 210.923C290.484 209.765 294.096 211.478 295.255 214.745C296.426 218.012 294.712 221.611 291.433 222.782ZM287.796 212.538C285.417 213.376 284.172 216.002 285.01 218.381C285.849 220.761 288.474 222.006 290.854 221.167C293.233 220.329 294.478 217.703 293.64 215.324C292.801 212.933 290.176 211.688 287.796 212.538Z" fill="black"/>
<path d="M311.39 232.779C314.392 232.779 316.826 230.345 316.826 227.343C316.826 224.34 314.392 221.906 311.39 221.906C308.388 221.906 305.954 224.34 305.954 227.343C305.954 230.345 308.388 232.779 311.39 232.779Z" fill="#E6EE9C"/>
<path d="M313.499 233.273C310.232 234.431 306.62 232.718 305.461 229.451C304.303 226.184 306.016 222.572 309.283 221.414C312.55 220.255 316.162 221.968 317.32 225.235C318.479 228.514 316.766 232.114 313.499 233.273ZM309.862 223.028C307.483 223.867 306.238 226.492 307.076 228.872C307.915 231.251 310.54 232.496 312.92 231.658C315.299 230.819 316.544 228.194 315.706 225.814C314.855 223.435 312.241 222.19 309.862 223.028Z" fill="black"/>
<path d="M321.893 210.725C324.895 210.725 327.329 208.291 327.329 205.289C327.329 202.287 324.895 199.853 321.893 199.853C318.891 199.853 316.457 202.287 316.457 205.289C316.457 208.291 318.891 210.725 321.893 210.725Z" fill="#E6EE9C"/>
<path d="M324.002 211.219C320.735 212.378 317.123 210.665 315.964 207.398C314.806 204.131 316.519 200.519 319.786 199.36C323.053 198.202 326.665 199.915 327.823 203.182C328.982 206.449 327.269 210.061 324.002 211.219ZM320.365 200.975C317.986 201.813 316.741 204.439 317.579 206.818C318.417 209.198 321.043 210.443 323.422 209.604C325.802 208.766 327.047 206.14 326.208 203.761C325.358 201.382 322.744 200.125 320.365 200.975Z" fill="black"/>
<path d="M259.271 88.3875C256.029 65.5201 237.944 47.4357 215.077 44.1936V31.6196H200.296V44.1936C177.429 47.4357 159.344 65.5201 156.102 88.3875H143.528V103.168H156.102C159.344 126.036 177.429 144.12 200.296 147.362V159.936H215.077V147.362C237.944 144.12 256.029 126.036 259.271 103.168H271.845V88.3875H259.271ZM246.647 103.156C243.652 119.132 231.053 131.731 215.065 134.739C212.673 135.195 210.207 135.429 207.68 135.429C205.153 135.429 202.688 135.195 200.296 134.739C184.32 131.731 171.721 119.145 168.713 103.156C168.257 100.764 168.023 98.2988 168.023 95.7717C168.023 93.2445 168.257 90.779 168.713 88.3875C171.709 72.4111 184.308 59.8125 200.296 56.8046C202.688 56.3485 205.153 56.1143 207.68 56.1143C210.207 56.1143 212.673 56.3485 215.065 56.8046C231.041 59.8125 243.64 72.3988 246.647 88.3875C247.104 90.779 247.338 93.2445 247.338 95.7717C247.338 98.2988 247.116 100.764 246.647 103.156Z" fill="#DCE775" stroke="black" stroke-width="2.1572" stroke-miterlimit="10" stroke-linecap="round" stroke-linejoin="round"/>
<path d="M207.68 111.328C216.272 111.328 223.238 104.363 223.238 95.7706C223.238 87.1786 216.272 80.2134 207.68 80.2134C199.088 80.2134 192.123 87.1786 192.123 95.7706C192.123 104.363 199.088 111.328 207.68 111.328Z" fill="#DCE775" stroke="black" stroke-width="2.1572" stroke-miterlimit="10" stroke-linecap="round" stroke-linejoin="round"/>
<path d="M59.3198 317.111L97.3007 236.194L158.396 175.087V166.827L142.715 151.147L84.0857 209.764V222.979L68.3928 253.526L55.1901 256.83L24.6304 295.637L59.3198 317.111Z" fill="#00897B" stroke="black" stroke-width="2.1572" stroke-miterlimit="10" stroke-linecap="round" stroke-linejoin="round"/>
<path d="M163.35 130.495L142.708 151.136L155.923 164.351L176.564 143.71L163.35 130.495Z" fill="#80CBC4" stroke="black" stroke-width="2.1572" stroke-miterlimit="10" stroke-linecap="round" stroke-linejoin="round"/>
<path d="M164.177 130.498L195.562 99.1245H207.939L170.377 136.686L164.177 130.498Z" fill="#26A69A" stroke="black" stroke-width="2.1572" stroke-miterlimit="10" stroke-linecap="round" stroke-linejoin="round"/>
<path d="M84.0854 222.979L96.8813 235.774L104.734 243.627L112.155 262.611L122.892 258.482L120.414 237.845L108.025 225.456L97.3005 236.194" fill="#26A69A"/>
<path d="M84.0854 222.979L96.8813 235.774L104.734 243.627L112.155 262.611L122.892 258.482L120.414 237.845L108.025 225.456L97.3005 236.194" stroke="black" stroke-width="2.1572" stroke-miterlimit="10" stroke-linecap="round" stroke-linejoin="round"/>
<path d="M107.207 199.854L92.3447 214.716L96.4765 218.848L111.338 203.986L107.207 199.854Z" fill="#80CBC4" stroke="black" stroke-width="2.1572" stroke-miterlimit="10" stroke-linecap="round" stroke-linejoin="round"/>
<path d="M137.402 196.081C137.402 196.081 160.047 222.979 192.247 207.286L206.288 221.327C206.288 221.327 164.177 255.178 122.893 210.59L137.402 196.081Z" fill="#4DB6AC" stroke="black" stroke-width="2.1572" stroke-miterlimit="10" stroke-linecap="round" stroke-linejoin="round"/>
<path d="M122.895 210.596L108.033 225.458L114.666 232.091L129.528 217.229L122.895 210.596Z" fill="#80CBC4" stroke="black" stroke-width="2.1572" stroke-miterlimit="10" stroke-linecap="round" stroke-linejoin="round"/>
<path d="M115.459 218.024L122.103 224.668" stroke="black" stroke-width="2.1572" stroke-miterlimit="10" stroke-linecap="round" stroke-linejoin="round"/>
<path d="M207.939 99.1249L239.325 67.7393" stroke="black" stroke-width="2.1572" stroke-miterlimit="10" stroke-linecap="round" stroke-linejoin="round"/>
<path d="M231.768 72.1528L228.625 69.0093" stroke="black" stroke-width="2.1572" stroke-miterlimit="10" stroke-linecap="round" stroke-linejoin="round"/>
</g>
<defs>
<clipPath id="clip0">
<rect width="377.701" height="384" fill="white"/>
</clipPath>
</defs>
</svg>
