<svg width="379" height="375" viewBox="0 0 379 375" fill="none" xmlns="http://www.w3.org/2000/svg">
<g clip-path="url(#clip0)">
<path d="M205.414 316.543C279.113 316.543 338.858 256.798 338.858 183.099C338.858 109.4 279.113 49.6558 205.414 49.6558C131.715 49.6558 71.9707 109.4 71.9707 183.099C71.9707 256.798 131.715 316.543 205.414 316.543Z" fill="#9FA8DA"/>
<path d="M287.366 270.186C287.366 270.21 287.354 270.246 287.354 270.27C287.354 270.378 287.414 270.474 287.498 270.546C287.51 270.582 287.522 270.63 287.546 270.666L338.486 349.055C338.594 349.211 338.798 349.259 338.966 349.163L375.809 326.705C375.917 326.645 375.977 326.525 375.977 326.405C375.977 326.285 375.917 326.165 375.809 326.105L288.314 270.234L361.532 216.151C361.688 216.043 361.724 215.827 361.616 215.672L314.948 143.857C314.876 143.737 314.732 143.677 314.588 143.701C314.444 143.725 314.336 143.833 314.312 143.977L287.594 269.886L287.486 269.97C287.438 270.03 287.39 270.102 287.366 270.186ZM288.47 269.274L314.852 144.973L360.873 215.791L288.47 269.274ZM338.906 348.383L288.902 271.434L374.981 326.405L338.906 348.383Z" fill="#3949AB"/>
<path d="M331.948 237.254C331.936 237.29 331.936 237.314 331.936 237.35L336.842 301.883C336.854 302.027 336.962 302.159 337.106 302.195C337.25 302.231 337.406 302.183 337.49 302.051L373.373 250.367C373.433 250.271 373.457 250.163 373.421 250.055C373.385 249.947 373.302 249.863 373.194 249.827L332.415 236.99C332.307 236.954 332.187 236.978 332.092 237.05C332.008 237.11 331.972 237.182 331.948 237.254ZM337.478 300.851L332.691 237.83L372.522 250.367L337.478 300.851Z" fill="#3949AB"/>
<path d="M284.583 318.979C284.571 319.039 284.571 319.099 284.595 319.158C284.631 319.266 284.715 319.35 284.835 319.386L327.449 331.887C327.593 331.923 327.749 331.875 327.833 331.755C327.917 331.635 327.929 331.479 327.845 331.348L303.922 294.54C303.862 294.444 303.754 294.385 303.646 294.385C303.526 294.385 303.418 294.433 303.359 294.516L284.667 318.835C284.619 318.883 284.595 318.931 284.583 318.979ZM326.729 330.94L285.531 318.859L303.598 295.344L326.729 330.94Z" fill="#3949AB"/>
<path d="M218.551 300.635C218.539 300.695 218.539 300.755 218.563 300.815C218.599 300.911 218.671 300.995 218.767 301.031L264.068 318.571C264.236 318.631 264.428 318.559 264.512 318.403L288.302 270.834C288.362 270.714 288.35 270.582 288.278 270.474C288.206 270.366 288.086 270.306 287.954 270.318L234.927 275.645C234.819 275.657 234.723 275.717 234.663 275.801L218.611 300.503C218.575 300.551 218.563 300.599 218.551 300.635ZM264.02 317.815L219.427 300.539L235.155 276.341L287.378 271.098L264.02 317.815Z" fill="#3949AB"/>
<path d="M375.641 329.224C377.198 329.224 378.46 327.962 378.46 326.405C378.46 324.848 377.198 323.585 375.641 323.585C374.084 323.585 372.821 324.848 372.821 326.405C372.821 327.962 374.084 329.224 375.641 329.224Z" fill="#3949AB"/>
<path d="M285.003 321.522C286.56 321.522 287.822 320.26 287.822 318.703C287.822 317.146 286.56 315.883 285.003 315.883C283.446 315.883 282.184 317.146 282.184 318.703C282.184 320.26 283.446 321.522 285.003 321.522Z" fill="#3949AB"/>
<path d="M287.99 273.498C289.547 273.498 290.81 272.235 290.81 270.678C290.81 269.121 289.547 267.859 287.99 267.859C286.433 267.859 285.171 269.121 285.171 270.678C285.171 272.235 286.433 273.498 287.99 273.498Z" fill="#3949AB"/>
<path d="M339.842 185.391C341.399 185.391 342.661 184.129 342.661 182.572C342.661 181.015 341.399 179.752 339.842 179.752C338.285 179.752 337.022 181.015 337.022 182.572C337.022 184.129 338.285 185.391 339.842 185.391Z" fill="#3949AB"/>
<path d="M298.908 220.315C300.465 220.315 301.727 219.052 301.727 217.495C301.727 215.938 300.465 214.676 298.908 214.676C297.351 214.676 296.088 215.938 296.088 217.495C296.088 219.052 297.351 220.315 298.908 220.315Z" fill="#3949AB"/>
<path d="M235.575 279.316C237.132 279.316 238.394 278.054 238.394 276.497C238.394 274.94 237.132 273.677 235.575 273.677C234.018 273.677 232.755 274.94 232.755 276.497C232.755 278.054 234.018 279.316 235.575 279.316Z" fill="#3949AB"/>
<path d="M218.899 303.526C220.456 303.526 221.718 302.264 221.718 300.707C221.718 299.15 220.456 297.888 218.899 297.888C217.342 297.888 216.08 299.15 216.08 300.707C216.08 302.264 217.342 303.526 218.899 303.526Z" fill="#3949AB"/>
<path d="M250.655 301.619C252.212 301.619 253.475 300.357 253.475 298.8C253.475 297.242 252.212 295.98 250.655 295.98C249.098 295.98 247.836 297.242 247.836 298.8C247.836 300.357 249.098 301.619 250.655 301.619Z" fill="#3949AB"/>
<path d="M279.544 291.169C281.101 291.169 282.364 289.907 282.364 288.35C282.364 286.793 281.101 285.531 279.544 285.531C277.987 285.531 276.725 286.793 276.725 288.35C276.725 289.907 277.987 291.169 279.544 291.169Z" fill="#3949AB"/>
<path d="M274.817 299.903C276.374 299.903 277.637 298.641 277.637 297.084C277.637 295.527 276.374 294.264 274.817 294.264C273.26 294.264 271.998 295.527 271.998 297.084C271.998 298.641 273.26 299.903 274.817 299.903Z" fill="#3949AB"/>
<path d="M264.188 321.078C265.745 321.078 267.007 319.816 267.007 318.259C267.007 316.702 265.745 315.439 264.188 315.439C262.631 315.439 261.369 316.702 261.369 318.259C261.369 319.816 262.631 321.078 264.188 321.078Z" fill="#3949AB"/>
<path d="M315.127 147.336C316.684 147.336 317.947 146.074 317.947 144.517C317.947 142.96 316.684 141.698 315.127 141.698C313.57 141.698 312.308 142.96 312.308 144.517C312.308 146.074 313.57 147.336 315.127 147.336Z" fill="#3949AB"/>
<path d="M373.073 252.995C374.63 252.995 375.893 251.732 375.893 250.175C375.893 248.618 374.63 247.356 373.073 247.356C371.516 247.356 370.254 248.618 370.254 250.175C370.254 251.732 371.516 252.995 373.073 252.995Z" fill="#3949AB"/>
<path d="M334.311 262.424C335.868 262.424 337.13 261.162 337.13 259.605C337.13 258.048 335.868 256.785 334.311 256.785C332.753 256.785 331.491 258.048 331.491 259.605C331.491 261.162 332.753 262.424 334.311 262.424Z" fill="#3949AB"/>
<path d="M333.255 240.218C334.812 240.218 336.074 238.955 336.074 237.398C336.074 235.841 334.812 234.579 333.255 234.579C331.698 234.579 330.436 235.841 330.436 237.398C330.436 238.955 331.698 240.218 333.255 240.218Z" fill="#3949AB"/>
<path d="M320.43 219.115C321.987 219.115 323.249 217.852 323.249 216.295C323.249 214.738 321.987 213.476 320.43 213.476C318.873 213.476 317.611 214.738 317.611 216.295C317.611 217.852 318.873 219.115 320.43 219.115Z" fill="#3949AB"/>
<path d="M313.952 229.276C315.509 229.276 316.771 228.014 316.771 226.457C316.771 224.9 315.509 223.638 313.952 223.638C312.395 223.638 311.132 224.9 311.132 226.457C311.132 228.014 312.395 229.276 313.952 229.276Z" fill="#3949AB"/>
<path d="M338.798 351.683C340.355 351.683 341.617 350.42 341.617 348.863C341.617 347.306 340.355 346.044 338.798 346.044C337.241 346.044 335.979 347.306 335.979 348.863C335.979 350.42 337.241 351.683 338.798 351.683Z" fill="#3949AB"/>
<path d="M326.765 333.639C328.322 333.639 329.584 332.377 329.584 330.82C329.584 329.263 328.322 328 326.765 328C325.208 328 323.945 329.263 323.945 330.82C323.945 332.377 325.208 333.639 326.765 333.639Z" fill="#3949AB"/>
<path d="M303.742 297.756C305.299 297.756 306.561 296.493 306.561 294.936C306.561 293.379 305.299 292.117 303.742 292.117C302.185 292.117 300.923 293.379 300.923 294.936C300.923 296.493 302.185 297.756 303.742 297.756Z" fill="#3949AB"/>
<path d="M336.854 304.774C338.411 304.774 339.673 303.512 339.673 301.955C339.673 300.398 338.411 299.135 336.854 299.135C335.297 299.135 334.035 300.398 334.035 301.955C334.035 303.512 335.297 304.774 336.854 304.774Z" fill="#3949AB"/>
<path d="M360.896 218.695C362.454 218.695 363.716 217.433 363.716 215.875C363.716 214.318 362.454 213.056 360.896 213.056C359.339 213.056 358.077 214.318 358.077 215.875C358.077 217.433 359.339 218.695 360.896 218.695Z" fill="#3949AB"/>
<path d="M302.986 294.408L326.849 331.611L337.31 301.691L302.986 294.408ZM326.669 330.016L304.498 295.452L336.386 302.219L326.669 330.016Z" fill="#3949AB"/>
<path d="M297.66 217.171L333.075 237.698L333.435 237.099L300.167 217.819L360.896 216.224L360.884 215.516L297.66 217.171Z" fill="#3949AB"/>
<path d="M287.258 271.218L373.157 250.523L372.989 249.828L288.71 270.151L339.925 182.62L339.314 182.272L287.258 271.218Z" fill="#3949AB"/>
<path d="M235.227 276.425C235.203 276.521 235.227 276.617 235.275 276.689L263.024 318.115C263.132 318.271 263.348 318.319 263.516 318.211C263.672 318.103 263.72 317.887 263.612 317.719L236.39 277.085L302.842 295.056L264.008 317.959C263.876 318.043 263.804 318.199 263.84 318.355C263.876 318.511 264.02 318.619 264.176 318.619L284.895 319.074L338.606 349.187C338.774 349.283 338.989 349.223 339.085 349.055C339.181 348.887 339.121 348.671 338.953 348.575L285.171 318.403C285.123 318.379 285.063 318.355 285.003 318.355L265.435 317.935L303.922 295.236C304.042 295.164 304.114 295.02 304.09 294.888C304.066 294.744 303.97 294.636 303.838 294.6L235.659 276.161C235.515 276.125 235.371 276.173 235.275 276.293C235.251 276.329 235.239 276.377 235.227 276.425Z" fill="#3949AB"/>
<path d="M218.551 300.635C218.539 300.671 218.539 300.695 218.539 300.731C218.551 300.923 218.719 301.067 218.911 301.055L303.754 295.272C303.946 295.26 304.09 295.092 304.078 294.9C304.066 294.708 303.898 294.564 303.706 294.576L218.863 300.359C218.707 300.371 218.587 300.491 218.551 300.635Z" fill="#3949AB"/>
<path d="M106.246 148.848C106.234 148.872 106.21 148.896 106.198 148.92C106.126 148.992 106.018 149.04 105.91 149.016C105.874 149.04 105.838 149.064 105.79 149.064L14.6127 171.774C14.4207 171.822 14.2408 171.714 14.1808 171.522L2.48362 129.76C2.44763 129.641 2.48362 129.521 2.5676 129.425C2.65158 129.329 2.77155 129.293 2.89152 129.317L105.491 148.2L88.7426 58.2939C88.7066 58.1139 88.8266 57.9339 89.0066 57.886L172.518 37.071C172.662 37.035 172.806 37.083 172.89 37.203C172.974 37.323 172.986 37.4789 172.914 37.5989L106.27 148.464L106.294 148.596C106.306 148.692 106.294 148.776 106.246 148.848ZM106.078 147.42L171.87 37.9708L89.4985 58.4858L106.078 147.42ZM14.7806 171.018L104.279 148.716L3.33542 130.132L14.7806 171.018Z" fill="#3949AB"/>
<path d="M96.0487 94.0933C96.0368 94.1173 96.0128 94.1533 95.9888 94.1773L48.1564 138.255C48.0484 138.351 47.8805 138.375 47.7485 138.303C47.6165 138.231 47.5445 138.087 47.5685 137.943L56.6143 75.3538C56.6263 75.2459 56.6983 75.1499 56.7943 75.0899C56.8903 75.0419 57.0102 75.0299 57.1182 75.0779L95.8928 93.5894C96.0008 93.6374 96.0727 93.7454 96.0847 93.8534C96.1087 93.9373 96.0847 94.0213 96.0487 94.0933ZM48.4083 137.043L95.113 93.9973L57.2502 75.9297L48.4083 137.043Z" fill="#3949AB"/>
<path d="M74.862 186.627C74.826 186.675 74.79 186.723 74.73 186.759C74.622 186.819 74.5021 186.819 74.3941 186.771L34.5038 166.76C34.3718 166.688 34.2998 166.556 34.3118 166.4C34.3238 166.256 34.4318 166.136 34.5758 166.1L77.3934 155.434C77.5013 155.41 77.6213 155.434 77.7053 155.506C77.7893 155.578 77.8373 155.698 77.8253 155.806L74.898 186.495C74.91 186.531 74.886 186.579 74.862 186.627ZM35.6915 166.532L74.2621 185.883L77.0934 156.214L35.6915 166.532Z" fill="#3949AB"/>
<path d="M135.975 218.395C135.939 218.443 135.903 218.491 135.843 218.527C135.747 218.575 135.639 218.587 135.543 218.551L90.218 200.399C90.05 200.327 89.9541 200.147 90.014 199.968L105.13 148.692C105.166 148.572 105.262 148.476 105.394 148.44C105.526 148.416 105.646 148.452 105.742 148.548L141.074 188.81C141.146 188.894 141.17 189.002 141.158 189.11L136.035 218.275C136.011 218.311 135.999 218.359 135.975 218.395ZM90.7819 199.86L135.399 217.723L140.426 189.158L105.622 149.508L90.7819 199.86Z" fill="#3949AB"/>
<path d="M2.83131 132.52C4.395 132.52 5.66262 131.252 5.66262 129.688C5.66262 128.125 4.395 126.857 2.83131 126.857C1.26762 126.857 0 128.125 0 129.688C0 131.252 1.26762 132.52 2.83131 132.52Z" fill="#3949AB"/>
<path d="M74.742 188.966C76.3056 188.966 77.5733 187.698 77.5733 186.135C77.5733 184.571 76.3056 183.303 74.742 183.303C73.1783 183.303 71.9106 184.571 71.9106 186.135C71.9106 187.698 73.1783 188.966 74.742 188.966Z" fill="#3949AB"/>
<path d="M105.454 151.619C107.018 151.619 108.286 150.352 108.286 148.788C108.286 147.224 107.018 145.957 105.454 145.957C103.891 145.957 102.623 147.224 102.623 148.788C102.623 150.352 103.891 151.619 105.454 151.619Z" fill="#3949AB"/>
<path d="M127.721 51.3116C129.285 51.3116 130.552 50.0439 130.552 48.4802C130.552 46.9165 129.285 45.6489 127.721 45.6489C126.157 45.6489 124.89 46.9165 124.89 48.4802C124.89 50.0439 126.157 51.3116 127.721 51.3116Z" fill="#3949AB"/>
<path d="M133.875 105.034C135.439 105.034 136.707 103.767 136.707 102.203C136.707 100.639 135.439 99.3718 133.875 99.3718C132.312 99.3718 131.044 100.639 131.044 102.203C131.044 103.767 132.312 105.034 133.875 105.034Z" fill="#3949AB"/>
<path d="M140.006 191.822C141.57 191.822 142.837 190.554 142.837 188.99C142.837 187.427 141.57 186.159 140.006 186.159C138.442 186.159 137.175 187.427 137.175 188.99C137.175 190.554 138.442 191.822 140.006 191.822Z" fill="#3949AB"/>
<path d="M135.663 221.046C137.227 221.046 138.494 219.779 138.494 218.215C138.494 216.651 137.227 215.384 135.663 215.384C134.099 215.384 132.832 216.651 132.832 218.215C132.832 219.779 134.099 221.046 135.663 221.046Z" fill="#3949AB"/>
<path d="M113.624 197.868C115.188 197.868 116.456 196.601 116.456 195.037C116.456 193.473 115.188 192.206 113.624 192.206C112.061 192.206 110.793 193.473 110.793 195.037C110.793 196.601 112.061 197.868 113.624 197.868Z" fill="#3949AB"/>
<path d="M99.552 170.395C101.116 170.395 102.383 169.127 102.383 167.563C102.383 166 101.116 164.732 99.552 164.732C97.9883 164.732 96.7207 166 96.7207 167.563C96.7207 169.127 97.9883 170.395 99.552 170.395Z" fill="#3949AB"/>
<path d="M97.0564 180.052C98.6201 180.052 99.8877 178.785 99.8877 177.221C99.8877 175.657 98.6201 174.39 97.0564 174.39C95.4927 174.39 94.2251 175.657 94.2251 177.221C94.2251 178.785 95.4927 180.052 97.0564 180.052Z" fill="#3949AB"/>
<path d="M90.3499 202.895C91.9136 202.895 93.1812 201.627 93.1812 200.063C93.1812 198.5 91.9136 197.232 90.3499 197.232C88.7862 197.232 87.5186 198.5 87.5186 200.063C87.5186 201.627 88.7862 202.895 90.3499 202.895Z" fill="#3949AB"/>
<path d="M171.966 40.2862C173.53 40.2862 174.797 39.0185 174.797 37.4548C174.797 35.8912 173.53 34.6235 171.966 34.6235C170.402 34.6235 169.135 35.8912 169.135 37.4548C169.135 39.0185 170.402 40.2862 171.966 40.2862Z" fill="#3949AB"/>
<path d="M56.9622 78.2329C58.5259 78.2329 59.7935 76.9653 59.7935 75.4016C59.7935 73.8379 58.5259 72.5703 56.9622 72.5703C55.3985 72.5703 54.1309 73.8379 54.1309 75.4016C54.1309 76.9653 55.3985 78.2329 56.9622 78.2329Z" fill="#3949AB"/>
<path d="M79.0007 111.729C80.5644 111.729 81.8321 110.461 81.8321 108.898C81.8321 107.334 80.5644 106.066 79.0007 106.066C77.4371 106.066 76.1694 107.334 76.1694 108.898C76.1694 110.461 77.4371 111.729 79.0007 111.729Z" fill="#3949AB"/>
<path d="M94.9929 96.1326C96.5566 96.1326 97.8242 94.865 97.8242 93.3013C97.8242 91.7376 96.5566 90.47 94.9929 90.47C93.4292 90.47 92.1616 91.7376 92.1616 93.3013C92.1616 94.865 93.4292 96.1326 94.9929 96.1326Z" fill="#3949AB"/>
<path d="M118.879 89.4024C120.443 89.4024 121.71 88.1347 121.71 86.5711C121.71 85.0074 120.443 83.7397 118.879 83.7397C117.315 83.7397 116.048 85.0074 116.048 86.5711C116.048 88.1347 117.315 89.4024 118.879 89.4024Z" fill="#3949AB"/>
<path d="M116.684 101.315C118.248 101.315 119.515 100.048 119.515 98.4841C119.515 96.9204 118.248 95.6528 116.684 95.6528C115.12 95.6528 113.853 96.9204 113.853 98.4841C113.853 100.048 115.12 101.315 116.684 101.315Z" fill="#3949AB"/>
<path d="M14.5286 174.27C16.0923 174.27 17.3599 173.002 17.3599 171.438C17.3599 169.875 16.0923 168.607 14.5286 168.607C12.9649 168.607 11.6973 169.875 11.6973 171.438C11.6973 173.002 12.9649 174.27 14.5286 174.27Z" fill="#3949AB"/>
<path d="M35.7395 169.243C37.3032 169.243 38.5708 167.975 38.5708 166.412C38.5708 164.848 37.3032 163.58 35.7395 163.58C34.1758 163.58 32.9082 164.848 32.9082 166.412C32.9082 167.975 34.1758 169.243 35.7395 169.243Z" fill="#3949AB"/>
<path d="M77.261 158.649C78.8247 158.649 80.0923 157.382 80.0923 155.818C80.0923 154.254 78.8247 152.987 77.261 152.987C75.6973 152.987 74.4297 154.254 74.4297 155.818C74.4297 157.382 75.6973 158.649 77.261 158.649Z" fill="#3949AB"/>
<path d="M48.0964 141.122C49.6601 141.122 50.9278 139.854 50.9278 138.291C50.9278 136.727 49.6601 135.459 48.0964 135.459C46.5328 135.459 45.2651 136.727 45.2651 138.291C45.2651 139.854 46.5328 141.122 48.0964 141.122Z" fill="#3949AB"/>
<path d="M89.426 61.3653C90.9897 61.3653 92.2574 60.0976 92.2574 58.5339C92.2574 56.9703 90.9897 55.7026 89.426 55.7026C87.8623 55.7026 86.5947 56.9703 86.5947 58.5339C86.5947 60.0976 87.8623 61.3653 89.426 61.3653Z" fill="#3949AB"/>
<path d="M78.1608 155.95L35.1152 166.94L47.9281 137.775L78.1608 155.95ZM36.3629 165.896L76.3492 155.686L48.264 138.806L36.3629 165.896Z" fill="#3949AB"/>
<path d="M135.015 102.827L94.9089 93.6374L95.0649 92.9536L132.736 101.579L89.1743 58.7859L89.6782 58.282L135.015 102.827Z" fill="#3949AB"/>
<path d="M105.622 149.676L56.6621 75.5937L57.262 75.2098L105.298 147.9L127.625 48.4683L128.321 48.6242L105.622 149.676Z" fill="#3949AB"/>
<path d="M140.306 189.17C140.258 189.254 140.174 189.314 140.078 189.338L91.2978 200.771C91.1058 200.819 90.9138 200.699 90.8779 200.508C90.8299 200.316 90.9498 200.124 91.1418 200.088L139.01 188.87L77.837 156.538L90.6859 199.98C90.7339 200.136 90.6739 200.292 90.5299 200.376C90.398 200.46 90.218 200.448 90.11 200.34L74.5738 186.471L14.4444 171.798C14.2525 171.75 14.1325 171.559 14.1805 171.367C14.2285 171.175 14.4204 171.055 14.6124 171.103L74.8258 185.799C74.8857 185.811 74.9337 185.835 74.9817 185.883L89.6542 198.984L76.9133 155.926C76.8773 155.794 76.9132 155.638 77.0332 155.554C77.1412 155.458 77.2972 155.446 77.4291 155.518L140.174 188.69C140.306 188.762 140.378 188.906 140.354 189.05C140.354 189.074 140.33 189.122 140.306 189.17Z" fill="#3949AB"/>
<path d="M135.975 218.395C135.963 218.419 135.939 218.443 135.915 218.467C135.771 218.599 135.543 218.599 135.411 218.455L76.9974 156.058C76.8655 155.914 76.8655 155.686 77.0094 155.554C77.1534 155.422 77.3813 155.422 77.5133 155.566L135.927 217.963C136.035 218.083 136.047 218.263 135.975 218.395Z" fill="#3949AB"/>
<path d="M296.903 109.605C296.927 109.593 296.963 109.581 296.987 109.569C297.083 109.509 297.143 109.413 297.155 109.305C297.191 109.281 297.215 109.246 297.239 109.21L341.688 24.6901C341.784 24.5221 341.712 24.3062 341.544 24.2102L303.154 2.56745C303.046 2.50746 302.914 2.50746 302.806 2.56745C302.698 2.62744 302.626 2.73541 302.614 2.86738L296.471 108.73L211.736 70.4589C211.568 70.375 211.352 70.4469 211.268 70.6149L170.55 148.032C170.478 148.164 170.502 148.32 170.586 148.428C170.682 148.536 170.826 148.584 170.97 148.536L296.531 109.533L296.651 109.593C296.735 109.629 296.819 109.629 296.903 109.605ZM295.536 109.09L171.582 147.588L211.736 71.2387L295.536 109.09ZM340.897 24.6541L297.263 107.614L303.31 3.46723L340.897 24.6541Z" fill="#5C6BC0"/>
<path d="M245.316 86.3069C245.352 86.2949 245.376 86.2829 245.412 86.2589L300.479 49.6918C300.611 49.6078 300.671 49.4518 300.635 49.3079C300.599 49.1639 300.467 49.0559 300.323 49.0319L236.342 42.8414C236.223 42.8294 236.115 42.8774 236.043 42.9614C235.971 43.0454 235.935 43.1653 235.959 43.2733L244.86 86.0309C244.884 86.1509 244.968 86.2469 245.076 86.2949C245.148 86.3189 245.232 86.3309 245.316 86.3069ZM299.231 49.6558L245.448 85.3711L236.762 43.6212L299.231 49.6558Z" fill="#5C6BC0"/>
<path d="M341.785 87.7466C341.845 87.7226 341.905 87.6986 341.941 87.6506C342.025 87.5666 342.049 87.4466 342.025 87.3267L331.899 43.1174C331.863 42.9735 331.743 42.8655 331.599 42.8415C331.455 42.8175 331.299 42.9015 331.239 43.0334L310.364 82.7198C310.304 82.8278 310.304 82.9477 310.364 83.0557C310.424 83.1637 310.52 83.2357 310.628 83.2477L341.629 87.7706C341.677 87.7706 341.737 87.7586 341.785 87.7466ZM331.419 44.2212L341.209 86.9788L311.24 82.5998L331.419 44.2212Z" fill="#5C6BC0"/>
<path d="M358.377 155.746C358.437 155.722 358.485 155.698 358.533 155.65C358.605 155.566 358.641 155.458 358.629 155.35L351.67 106.222C351.646 106.042 351.478 105.91 351.298 105.91L297.024 108.442C296.892 108.454 296.772 108.526 296.712 108.645C296.652 108.765 296.664 108.897 296.736 109.005L327.94 153.623C328 153.707 328.108 153.767 328.216 153.779L358.245 155.758C358.293 155.77 358.341 155.758 358.377 155.746ZM350.999 106.654L357.849 155.014L328.432 153.071L297.696 109.137L350.999 106.654Z" fill="#5C6BC0"/>
<path d="M302.974 5.7586C304.564 5.7586 305.853 4.46949 305.853 2.8793C305.853 1.28911 304.564 0 302.974 0C301.384 0 300.095 1.28911 300.095 2.8793C300.095 4.46949 301.384 5.7586 302.974 5.7586Z" fill="#5C6BC0"/>
<path d="M341.329 90.386C342.919 90.386 344.208 89.0969 344.208 87.5067C344.208 85.9165 342.919 84.6274 341.329 84.6274C339.738 84.6274 338.449 85.9165 338.449 87.5067C338.449 89.0969 339.738 90.386 341.329 90.386Z" fill="#5C6BC0"/>
<path d="M297.036 111.693C298.626 111.693 299.915 110.404 299.915 108.814C299.915 107.223 298.626 105.934 297.036 105.934C295.445 105.934 294.156 107.223 294.156 108.814C294.156 110.404 295.445 111.693 297.036 111.693Z" fill="#5C6BC0"/>
<path d="M192.625 109.425C194.215 109.425 195.504 108.136 195.504 106.546C195.504 104.956 194.215 103.667 192.625 103.667C191.035 103.667 189.746 104.956 189.746 106.546C189.746 108.136 191.035 109.425 192.625 109.425Z" fill="#5C6BC0"/>
<path d="M244.176 128.489C245.766 128.489 247.055 127.2 247.055 125.61C247.055 124.019 245.766 122.73 244.176 122.73C242.586 122.73 241.297 124.019 241.297 125.61C241.297 127.2 242.586 128.489 244.176 128.489Z" fill="#5C6BC0"/>
<path d="M328.372 155.506C329.962 155.506 331.251 154.217 331.251 152.627C331.251 151.037 329.962 149.748 328.372 149.748C326.782 149.748 325.493 151.037 325.493 152.627C325.493 154.217 326.782 155.506 328.372 155.506Z" fill="#5C6BC0"/>
<path d="M358.268 158.289C359.859 158.289 361.148 157 361.148 155.41C361.148 153.82 359.859 152.531 358.268 152.531C356.678 152.531 355.389 153.82 355.389 155.41C355.389 157 356.678 158.289 358.268 158.289Z" fill="#5C6BC0"/>
<path d="M340.729 130.924C342.319 130.924 343.608 129.635 343.608 128.045C343.608 126.455 342.319 125.166 340.729 125.166C339.139 125.166 337.85 126.455 337.85 128.045C337.85 129.635 339.139 130.924 340.729 130.924Z" fill="#5C6BC0"/>
<path d="M316.998 110.397C318.589 110.397 319.878 109.108 319.878 107.518C319.878 105.928 318.589 104.638 316.998 104.638C315.408 104.638 314.119 105.928 314.119 107.518C314.119 109.108 315.408 110.397 316.998 110.397Z" fill="#5C6BC0"/>
<path d="M327.136 110.253C328.726 110.253 330.015 108.964 330.015 107.374C330.015 105.784 328.726 104.495 327.136 104.495C325.546 104.495 324.257 105.784 324.257 107.374C324.257 108.964 325.546 110.253 327.136 110.253Z" fill="#5C6BC0"/>
<path d="M351.31 109.161C352.901 109.161 354.19 107.872 354.19 106.282C354.19 104.692 352.901 103.403 351.31 103.403C349.72 103.403 348.431 104.692 348.431 106.282C348.431 107.872 349.72 109.161 351.31 109.161Z" fill="#5C6BC0"/>
<path d="M171.054 150.455C172.644 150.455 173.933 149.166 173.933 147.576C173.933 145.986 172.644 144.697 171.054 144.697C169.464 144.697 168.175 145.986 168.175 147.576C168.175 149.166 169.464 150.455 171.054 150.455Z" fill="#5C6BC0"/>
<path d="M236.307 46.0809C237.897 46.0809 239.186 44.7918 239.186 43.2016C239.186 41.6114 237.897 40.3223 236.307 40.3223C234.716 40.3223 233.427 41.6114 233.427 43.2016C233.427 44.7918 234.716 46.0809 236.307 46.0809Z" fill="#5C6BC0"/>
<path d="M264.056 75.9295C265.646 75.9295 266.935 74.6404 266.935 73.0502C266.935 71.46 265.646 70.1709 264.056 70.1709C262.465 70.1709 261.176 71.46 261.176 73.0502C261.176 74.6404 262.465 75.9295 264.056 75.9295Z" fill="#5C6BC0"/>
<path d="M244.788 87.9507C246.378 87.9507 247.667 86.6616 247.667 85.0714C247.667 83.4812 246.378 82.1921 244.788 82.1921C243.198 82.1921 241.909 83.4812 241.909 85.0714C241.909 86.6616 243.198 87.9507 244.788 87.9507Z" fill="#5C6BC0"/>
<path d="M232.371 109.905C233.961 109.905 235.25 108.616 235.25 107.026C235.25 105.436 233.961 104.147 232.371 104.147C230.781 104.147 229.492 105.436 229.492 107.026C229.492 108.616 230.781 109.905 232.371 109.905Z" fill="#5C6BC0"/>
<path d="M244.656 110.613C246.246 110.613 247.535 109.324 247.535 107.734C247.535 106.144 246.246 104.854 244.656 104.854C243.066 104.854 241.777 106.144 241.777 107.734C241.777 109.324 243.066 110.613 244.656 110.613Z" fill="#5C6BC0"/>
<path d="M341.377 27.4014C342.967 27.4014 344.256 26.1123 344.256 24.5221C344.256 22.9319 342.967 21.6428 341.377 21.6428C339.787 21.6428 338.498 22.9319 338.498 24.5221C338.498 26.1123 339.787 27.4014 341.377 27.4014Z" fill="#5C6BC0"/>
<path d="M331.287 47.1246C332.877 47.1246 334.166 45.8355 334.166 44.2453C334.166 42.6551 332.877 41.366 331.287 41.366C329.697 41.366 328.408 42.6551 328.408 44.2453C328.408 45.8355 329.697 47.1246 331.287 47.1246Z" fill="#5C6BC0"/>
<path d="M310.784 85.5511C312.374 85.5511 313.663 84.262 313.663 82.6718C313.663 81.0816 312.374 79.7925 310.784 79.7925C309.194 79.7925 307.905 81.0816 307.905 82.6718C307.905 84.262 309.194 85.5511 310.784 85.5511Z" fill="#5C6BC0"/>
<path d="M300.527 52.5232C302.117 52.5232 303.406 51.2341 303.406 49.6439C303.406 48.0538 302.117 46.7646 300.527 46.7646C298.937 46.7646 297.647 48.0538 297.647 49.6439C297.647 51.2341 298.937 52.5232 300.527 52.5232Z" fill="#5C6BC0"/>
<path d="M211.808 74.0579C213.398 74.0579 214.687 72.7688 214.687 71.1786C214.687 69.5884 213.398 68.2993 211.808 68.2993C210.218 68.2993 208.929 69.5884 208.929 71.1786C208.929 72.7688 210.218 74.0579 211.808 74.0579Z" fill="#5C6BC0"/>
<path d="M310.7 83.5957L331.947 43.7654L300.059 49.368L310.7 83.5957ZM330.615 44.7251L310.868 81.7361L300.994 49.9319L330.615 44.7251Z" fill="#5C6BC0"/>
<path d="M244.524 126.881L245.148 85.0712L244.428 85.0592L243.84 124.326L212.12 70.9866L211.496 71.3585L244.524 126.881Z" fill="#5C6BC0"/>
<path d="M297.875 109.185L236.57 42.9614L236.042 43.4413L296.196 108.43L192.637 106.462L192.625 107.182L297.875 109.185Z" fill="#5C6BC0"/>
<path d="M328.48 152.975C328.576 152.951 328.648 152.879 328.696 152.795L351.766 107.398C351.862 107.218 351.79 107.002 351.61 106.918C351.431 106.822 351.215 106.894 351.131 107.074L328.492 151.619L311.348 83.4154L351.131 106.606C351.275 106.69 351.443 106.666 351.562 106.558C351.682 106.45 351.706 106.27 351.634 106.126L341.701 87.4344L341.749 24.5337C341.749 24.3298 341.593 24.1738 341.389 24.1738C341.185 24.1738 341.029 24.3298 341.029 24.5337L340.981 87.5304C340.981 87.5904 340.993 87.6504 341.029 87.6984L350.411 105.358L310.964 82.3597C310.844 82.2877 310.676 82.2997 310.568 82.3837C310.448 82.4677 310.401 82.6236 310.436 82.7556L328.024 152.723C328.06 152.867 328.18 152.975 328.336 152.999C328.384 152.987 328.432 152.987 328.48 152.975Z" fill="#5C6BC0"/>
<path d="M358.377 155.746C358.413 155.734 358.437 155.722 358.473 155.698C358.64 155.59 358.688 155.362 358.581 155.194L311.084 82.4679C310.976 82.2999 310.748 82.2519 310.58 82.3599C310.412 82.4679 310.364 82.6958 310.472 82.8638L357.957 155.602C358.065 155.746 358.233 155.794 358.377 155.746Z" fill="#5C6BC0"/>
<path d="M110.493 274.181C110.469 274.181 110.433 274.181 110.409 274.193C110.301 274.217 110.217 274.289 110.169 274.385C110.133 274.397 110.097 274.421 110.061 274.457L41.9056 339.134C41.7616 339.266 41.7616 339.482 41.8816 339.625L70.8066 371.934C70.8906 372.03 71.0105 372.066 71.1305 372.042C71.2505 372.018 71.3465 371.934 71.3944 371.826L110.613 275.153L177.437 337.622C177.569 337.754 177.785 337.754 177.917 337.622L240.349 278.38C240.457 278.284 240.493 278.128 240.433 277.996C240.385 277.865 240.253 277.769 240.109 277.769L110.829 274.373L110.733 274.277C110.673 274.217 110.589 274.181 110.493 274.181ZM111.609 275.105L239.27 278.464L177.701 336.89L111.609 275.105ZM42.6374 339.398L109.545 275.921L70.9625 371.034L42.6374 339.398Z" fill="#5C6BC0"/>
<path d="M151.187 312.224C151.151 312.224 151.115 312.224 151.091 312.236L88.2148 328.876C88.0708 328.912 87.9628 329.044 87.9508 329.188C87.9388 329.332 88.0228 329.476 88.1548 329.536L145.789 355.546C145.897 355.594 146.005 355.582 146.113 355.534C146.209 355.474 146.281 355.378 146.293 355.27L151.535 312.62C151.547 312.5 151.499 312.392 151.415 312.308C151.355 312.26 151.271 312.224 151.187 312.224ZM89.3665 329.308L150.768 313.064L145.657 354.718L89.3665 329.308Z" fill="#5C6BC0"/>
<path d="M61.7731 280.348C61.7131 280.348 61.6532 280.36 61.5932 280.396C61.4852 280.456 61.4252 280.552 61.4132 280.672L56.8543 325.061C56.8423 325.205 56.9143 325.349 57.0463 325.421C57.1782 325.481 57.3342 325.457 57.4422 325.361L89.4504 294.996C89.5344 294.912 89.5704 294.804 89.5584 294.684C89.5464 294.576 89.4744 294.468 89.3664 294.42L61.9171 280.396C61.8811 280.36 61.8331 280.348 61.7731 280.348ZM57.6581 324.185L62.0731 281.259L88.6106 294.816L57.6581 324.185Z" fill="#5C6BC0"/>
<path d="M67.8313 211.736C67.7714 211.736 67.7114 211.748 67.6514 211.784C67.5554 211.832 67.4954 211.928 67.4714 212.024L58.4136 259.989C58.3776 260.169 58.4856 260.349 58.6656 260.396L110.025 275.213C110.145 275.249 110.289 275.213 110.373 275.117C110.457 275.021 110.493 274.889 110.457 274.769L95.5086 223.338C95.4846 223.23 95.4006 223.146 95.3047 223.11L67.9513 211.76C67.9153 211.748 67.8793 211.736 67.8313 211.736ZM59.1695 259.809L68.0833 212.588L94.8728 223.709L109.605 274.361L59.1695 259.809Z" fill="#5C6BC0"/>
<path d="M71.0706 374.525C72.6343 374.525 73.9019 373.257 73.9019 371.694C73.9019 370.13 72.6343 368.862 71.0706 368.862C69.5069 368.862 68.2393 370.13 68.2393 371.694C68.2393 373.257 69.5069 374.525 71.0706 374.525Z" fill="#5C6BC0"/>
<path d="M62.1209 283.539C63.6846 283.539 64.9522 282.271 64.9522 280.707C64.9522 279.144 63.6846 277.876 62.1209 277.876C60.5572 277.876 59.2896 279.144 59.2896 280.707C59.2896 282.271 60.5572 283.539 62.1209 283.539Z" fill="#5C6BC0"/>
<path d="M110.121 277.708C111.685 277.708 112.953 276.441 112.953 274.877C112.953 273.313 111.685 272.046 110.121 272.046C108.558 272.046 107.29 273.313 107.29 274.877C107.29 276.441 108.558 277.708 110.121 277.708Z" fill="#5C6BC0"/>
<path d="M206.686 312.86C208.249 312.86 209.517 311.592 209.517 310.029C209.517 308.465 208.249 307.197 206.686 307.197C205.122 307.197 203.854 308.465 203.854 310.029C203.854 311.592 205.122 312.86 206.686 312.86Z" fill="#5C6BC0"/>
<path d="M164.684 278.788C166.248 278.788 167.515 277.52 167.515 275.957C167.515 274.393 166.248 273.125 164.684 273.125C163.12 273.125 161.853 274.393 161.853 275.957C161.853 277.52 163.12 278.788 164.684 278.788Z" fill="#5C6BC0"/>
<path d="M94.801 226.973C96.3647 226.973 97.6323 225.705 97.6323 224.141C97.6323 222.578 96.3647 221.31 94.801 221.31C93.2373 221.31 91.9697 222.578 91.9697 224.141C91.9697 225.705 93.2373 226.973 94.801 226.973Z" fill="#5C6BC0"/>
<path d="M67.8196 214.928C69.3833 214.928 70.6509 213.66 70.6509 212.096C70.6509 210.533 69.3833 209.265 67.8196 209.265C66.2559 209.265 64.9883 210.533 64.9883 212.096C64.9883 213.66 66.2559 214.928 67.8196 214.928Z" fill="#5C6BC0"/>
<path d="M75.5095 245.964C77.0732 245.964 78.3408 244.697 78.3408 243.133C78.3408 241.569 77.0732 240.302 75.5095 240.302C73.9458 240.302 72.6782 241.569 72.6782 243.133C72.6782 244.697 73.9458 245.964 75.5095 245.964Z" fill="#5C6BC0"/>
<path d="M91.1179 272.61C92.6816 272.61 93.9492 271.342 93.9492 269.778C93.9492 268.215 92.6816 266.947 91.1179 266.947C89.5542 266.947 88.2866 268.215 88.2866 269.778C88.2866 271.342 89.5542 272.61 91.1179 272.61Z" fill="#5C6BC0"/>
<path d="M81.6282 269.526C83.1919 269.526 84.4595 268.259 84.4595 266.695C84.4595 265.131 83.1919 263.864 81.6282 263.864C80.0645 263.864 78.7969 265.131 78.7969 266.695C78.7969 268.259 80.0645 269.526 81.6282 269.526Z" fill="#5C6BC0"/>
<path d="M58.7615 262.892C60.3252 262.892 61.5928 261.624 61.5928 260.061C61.5928 258.497 60.3252 257.229 58.7615 257.229C57.1978 257.229 55.9302 258.497 55.9302 260.061C55.9302 261.624 57.1978 262.892 58.7615 262.892Z" fill="#5C6BC0"/>
<path d="M239.761 281.475C241.325 281.475 242.593 280.208 242.593 278.644C242.593 277.08 241.325 275.812 239.761 275.812C238.198 275.812 236.93 277.08 236.93 278.644C236.93 280.208 238.198 281.475 239.761 281.475Z" fill="#5C6BC0"/>
<path d="M145.945 358.053C147.508 358.053 148.776 356.785 148.776 355.221C148.776 353.658 147.508 352.39 145.945 352.39C144.381 352.39 143.113 353.658 143.113 355.221C143.113 356.785 144.381 358.053 145.945 358.053Z" fill="#5C6BC0"/>
<path d="M129.532 321.474C131.096 321.474 132.364 320.206 132.364 318.643C132.364 317.079 131.096 315.811 129.532 315.811C127.969 315.811 126.701 317.079 126.701 318.643C126.701 320.206 127.969 321.474 129.532 321.474Z" fill="#5C6BC0"/>
<path d="M151.295 316.375C152.859 316.375 154.126 315.107 154.126 313.544C154.126 311.98 152.859 310.712 151.295 310.712C149.731 310.712 148.464 311.98 148.464 313.544C148.464 315.107 149.731 316.375 151.295 316.375Z" fill="#5C6BC0"/>
<path d="M169.807 299.843C171.371 299.843 172.638 298.575 172.638 297.012C172.638 295.448 171.371 294.18 169.807 294.18C168.243 294.18 166.976 295.448 166.976 297.012C166.976 298.575 168.243 299.843 169.807 299.843Z" fill="#5C6BC0"/>
<path d="M158.577 295.296C160.141 295.296 161.409 294.028 161.409 292.465C161.409 290.901 160.141 289.633 158.577 289.633C157.014 289.633 155.746 290.901 155.746 292.465C155.746 294.028 157.014 295.296 158.577 295.296Z" fill="#5C6BC0"/>
<path d="M42.1458 342.217C43.7095 342.217 44.9771 340.949 44.9771 339.386C44.9771 337.822 43.7095 336.554 42.1458 336.554C40.5821 336.554 39.3145 337.822 39.3145 339.386C39.3145 340.949 40.5821 342.217 42.1458 342.217Z" fill="#5C6BC0"/>
<path d="M57.7898 327.028C59.3535 327.028 60.6211 325.76 60.6211 324.197C60.6211 322.633 59.3535 321.365 57.7898 321.365C56.2261 321.365 54.9585 322.633 54.9585 324.197C54.9585 325.76 56.2261 327.028 57.7898 327.028Z" fill="#5C6BC0"/>
<path d="M89.0422 297.72C90.6059 297.72 91.8736 296.452 91.8736 294.888C91.8736 293.325 90.6059 292.057 89.0422 292.057C87.4786 292.057 86.2109 293.325 86.2109 294.888C86.2109 296.452 87.4786 297.72 89.0422 297.72Z" fill="#5C6BC0"/>
<path d="M88.1428 331.719C89.7065 331.719 90.9741 330.452 90.9741 328.888C90.9741 327.324 89.7065 326.057 88.1428 326.057C86.5791 326.057 85.3115 327.324 85.3115 328.888C85.3115 330.452 86.5791 331.719 88.1428 331.719Z" fill="#5C6BC0"/>
<path d="M177.617 339.745C179.181 339.745 180.448 338.478 180.448 336.914C180.448 335.35 179.181 334.083 177.617 334.083C176.053 334.083 174.786 335.35 174.786 336.914C174.786 338.478 176.053 339.745 177.617 339.745Z" fill="#5C6BC0"/>
<path d="M89.4144 294.048L57.0103 324.437L88.4906 329.308L89.4144 294.048ZM58.5579 323.957L88.6586 295.728L87.7948 328.48L58.5579 323.957Z" fill="#5C6BC0"/>
<path d="M164.768 274.661L150.959 313.423L151.631 313.651L164.6 277.264L177.269 336.986L177.965 336.842L164.768 274.661Z" fill="#5C6BC0"/>
<path d="M109.461 274.265L145.621 355.365L146.268 355.077L110.793 275.501L206.638 310.112L206.878 309.453L109.461 274.265Z" fill="#5C6BC0"/>
<path d="M94.8132 223.793C94.7172 223.793 94.6212 223.829 94.5612 223.889L58.7019 258.885C58.558 259.017 58.558 259.245 58.6899 259.389C58.8219 259.533 59.0499 259.533 59.1938 259.401L94.3813 225.065L88.7666 294.024L59.0379 259.833C58.9299 259.713 58.7619 259.677 58.618 259.749C58.474 259.821 58.39 259.965 58.414 260.121L61.7612 280.684L41.8221 339.265C41.7621 339.445 41.858 339.649 42.038 339.709C42.218 339.769 42.4219 339.673 42.4819 339.493L62.457 280.828C62.481 280.768 62.481 280.72 62.469 280.66L59.3138 261.236L88.7786 295.116C88.8746 295.224 89.0186 295.26 89.1625 295.224C89.2945 295.176 89.3905 295.056 89.4025 294.912L95.1611 224.165C95.1731 224.021 95.0891 223.877 94.9571 223.817C94.9091 223.805 94.8612 223.793 94.8132 223.793Z" fill="#5C6BC0"/>
<path d="M67.8314 211.736C67.7954 211.736 67.7714 211.736 67.7355 211.748C67.5435 211.796 67.4355 211.988 67.4835 212.18L88.7064 294.972C88.7544 295.164 88.9463 295.272 89.1383 295.224C89.3302 295.176 89.4382 294.984 89.3902 294.792L68.1674 212C68.1194 211.844 67.9874 211.748 67.8314 211.736Z" fill="#5C6BC0"/>
<path d="M253.739 265.184H100.008C94.3214 265.184 89.7266 260.577 89.7266 254.902V108.574C89.7266 102.887 94.3334 98.2925 100.008 98.2925H323.622C329.308 98.2925 333.903 102.899 333.903 108.574V254.89C333.903 260.577 329.296 265.172 323.622 265.172H278.873" fill="#CFD8DC"/>
<path d="M323.61 266.287H278.861C278.249 266.287 277.745 265.784 277.745 265.172C277.745 264.56 278.249 264.056 278.861 264.056H323.61C328.672 264.056 332.787 259.941 332.787 254.878V108.574C332.787 103.511 328.672 99.396 323.61 99.396H100.008C94.9453 99.396 90.8303 103.511 90.8303 108.574V254.89C90.8303 259.953 94.9453 264.068 100.008 264.068H253.739C254.351 264.068 254.854 264.572 254.854 265.184C254.854 265.796 254.351 266.299 253.739 266.299H100.008C93.7216 266.299 88.6108 261.189 88.6108 254.902V108.574C88.6108 102.287 93.7216 97.1765 100.008 97.1765H323.622C329.908 97.1765 335.019 102.287 335.019 108.574V254.89C335.019 261.177 329.896 266.287 323.61 266.287Z" fill="black"/>
<path d="M268.603 266.059H263.192C262.712 266.059 262.316 265.664 262.316 265.184C262.316 264.704 262.712 264.308 263.192 264.308H268.603C269.083 264.308 269.479 264.704 269.479 265.184C269.479 265.664 269.083 266.059 268.603 266.059Z" fill="black"/>
<path d="M315.943 250.463H107.674C105.155 250.463 103.103 248.424 103.103 245.892V117.572C103.103 115.052 105.143 113.001 107.674 113.001H315.931C318.451 113.001 320.502 115.04 320.502 117.572V245.904C320.502 248.424 318.463 250.463 315.943 250.463Z" fill="#B0BEC5"/>
<path d="M315.944 251.579H107.674C104.543 251.579 102 249.036 102 245.905V117.572C102 114.441 104.543 111.897 107.674 111.897H315.932C319.063 111.897 321.606 114.441 321.606 117.572V245.905C321.618 249.036 319.075 251.579 315.944 251.579ZM107.674 114.117C105.767 114.117 104.219 115.664 104.219 117.572V245.905C104.219 247.812 105.767 249.36 107.674 249.36H315.932C317.839 249.36 319.387 247.812 319.387 245.905V117.572C319.387 115.664 317.839 114.117 315.932 114.117H107.674Z" fill="black"/>
<path d="M222.354 167.203V172.554C222.354 173.022 221.982 173.394 221.514 173.394H202.547C202.079 173.394 201.707 173.022 201.707 172.554V167.203C201.707 166.736 202.079 166.364 202.547 166.364H205.918C206.386 166.364 206.758 165.992 206.758 165.524V114.056C206.758 113.588 207.13 113.217 207.598 113.217H216.02C216.487 113.217 216.859 113.588 216.859 114.056V165.524C216.859 165.992 217.231 166.364 217.699 166.364H221.514C221.97 166.364 222.354 166.736 222.354 167.203Z" fill="#FFAB91"/>
<path d="M221.514 174.498H202.547C201.467 174.498 200.591 173.622 200.591 172.542V167.191C200.591 166.112 201.467 165.236 202.547 165.236H205.642V114.056C205.642 112.977 206.518 112.101 207.598 112.101H216.02C217.099 112.101 217.975 112.977 217.975 114.056V165.248H221.514C222.594 165.248 223.47 166.124 223.47 167.203V172.554C223.458 173.622 222.582 174.498 221.514 174.498ZM202.823 172.278H221.238V167.479H217.699C216.619 167.479 215.744 166.604 215.744 165.524V114.332H207.862V165.524C207.862 166.604 206.986 167.479 205.906 167.479H202.811V172.278H202.823Z" fill="black"/>
<path d="M202.583 164.9V220.171C202.583 229.564 193.645 236.391 184.588 233.919L170.275 230.02C158.782 226.889 152.016 215.012 155.183 203.519L167.432 159.094C169.867 150.24 179.009 145.033 187.875 147.432L189.59 147.9C197.257 149.988 202.583 156.946 202.583 164.9Z" fill="#E64A19"/>
<path d="M188.379 235.539C187.023 235.539 185.643 235.359 184.3 234.987L169.987 231.088C164.144 229.493 159.262 225.713 156.262 220.447C153.263 215.18 152.495 209.062 154.103 203.219L166.352 158.794C168.943 149.376 178.721 143.797 188.151 146.353L189.866 146.821C198 149.028 203.687 156.466 203.687 164.9V220.171C203.687 224.994 201.491 229.445 197.652 232.384C194.941 234.459 191.69 235.539 188.379 235.539ZM183.52 147.96C176.693 147.96 170.407 152.495 168.511 159.382L156.262 203.807C154.811 209.074 155.495 214.592 158.206 219.343C160.905 224.094 165.308 227.501 170.575 228.941L184.887 232.84C188.87 233.931 193.033 233.116 196.321 230.608C199.596 228.101 201.479 224.298 201.479 220.171V164.9C201.479 157.474 196.465 150.912 189.302 148.968L187.587 148.5C186.219 148.14 184.863 147.96 183.52 147.96Z" fill="black"/>
<path d="M221.035 164.9V220.171C221.035 229.564 229.972 236.391 239.03 233.919L253.343 230.02C264.836 226.889 271.602 215.012 268.435 203.519L256.186 159.094C253.751 150.24 244.609 145.033 235.743 147.432L234.028 147.9C226.361 149.988 221.035 156.946 221.035 164.9Z" fill="#E64A19"/>
<path d="M235.239 235.539C231.916 235.539 228.677 234.459 225.953 232.372C222.114 229.445 219.919 224.994 219.919 220.159V164.888C219.919 156.454 225.606 149.016 233.74 146.809L235.455 146.341C244.873 143.785 254.662 149.364 257.254 158.782L269.503 203.207C271.111 209.05 270.355 215.168 267.343 220.435C264.344 225.702 259.473 229.481 253.619 231.076L239.306 234.975C237.975 235.359 236.595 235.539 235.239 235.539ZM240.098 147.96C238.754 147.96 237.387 148.14 236.031 148.5L234.315 148.968C227.141 150.912 222.138 157.462 222.138 164.9V220.171C222.138 224.298 224.022 228.101 227.297 230.608C230.572 233.116 234.747 233.932 238.73 232.84L253.043 228.941C258.322 227.501 262.713 224.094 265.412 219.343C268.111 214.592 268.807 209.074 267.355 203.807L255.106 159.382C253.223 152.507 246.936 147.96 240.098 147.96Z" fill="black"/>
<path d="M111.141 143.005H93.1817C89.8825 143.005 87.0752 145.441 86.6073 148.704L81.8564 181.936H122.467L117.716 148.704C117.248 145.441 114.441 143.005 111.141 143.005Z" fill="#283593"/>
<path d="M123.69 183.016H80.6206L85.5394 148.56C86.0793 144.781 89.3545 141.938 93.1696 141.938H111.129C114.944 141.938 118.219 144.781 118.759 148.56L123.69 183.016ZM83.092 180.88H121.231L116.66 148.86C116.264 146.137 113.901 144.073 111.141 144.073H93.1816C90.4222 144.073 88.0588 146.125 87.6629 148.86L83.092 180.88Z" fill="black"/>
<path d="M111.141 278.177H93.1812C89.882 278.177 87.0747 275.741 86.6068 272.478L81.856 239.246H122.466L117.715 272.478C117.247 275.741 114.44 278.177 111.141 278.177Z" fill="#283593"/>
<path d="M111.141 279.244H93.1813C89.3662 279.244 86.091 276.401 85.5511 272.622L80.6323 238.166H123.702L118.771 272.622C118.231 276.401 114.944 279.244 111.141 279.244ZM83.0917 240.302L87.6626 272.322C88.0585 275.045 90.4219 277.109 93.1813 277.109H111.141C113.9 277.109 116.264 275.057 116.66 272.322L121.23 240.302H83.0917Z" fill="black"/>
<path d="M121.711 238.958H83.7158C76.9495 238.958 71.4668 233.475 71.4668 226.709V193.909C71.4668 187.143 76.9495 181.66 83.7158 181.66H121.723C128.489 181.66 133.972 187.143 133.972 193.909V226.709C133.96 233.475 128.477 238.958 121.711 238.958Z" fill="#3949AB"/>
<path d="M121.711 240.074H83.7158C76.3496 240.074 70.3511 234.075 70.3511 226.709V193.909C70.3511 186.543 76.3496 180.544 83.7158 180.544H121.723C129.089 180.544 135.087 186.543 135.087 193.909V226.709C135.075 234.075 129.077 240.074 121.711 240.074ZM83.7158 182.776C77.5733 182.776 72.5825 187.766 72.5825 193.909V226.709C72.5825 232.851 77.5733 237.842 83.7158 237.842H121.723C127.865 237.842 132.856 232.851 132.856 226.709V193.909C132.856 187.766 127.865 182.776 121.723 182.776H83.7158Z" fill="black"/>
<path d="M117.835 230.896H87.6027C83.5477 230.896 80.2725 227.609 80.2725 223.566V197.076C80.2725 193.021 83.5597 189.746 87.6027 189.746H117.835C121.89 189.746 125.166 193.033 125.166 197.076V223.566C125.166 227.609 121.878 230.896 117.835 230.896Z" fill="#B3E5FC"/>
<path d="M117.835 231.964H87.6028C82.9719 231.964 79.1929 228.197 79.1929 223.554V197.064C79.1929 192.433 82.9599 188.654 87.6028 188.654H117.835C122.466 188.654 126.245 192.421 126.245 197.064V223.554C126.233 228.197 122.466 231.964 117.835 231.964ZM87.6028 190.802C84.1477 190.802 81.3404 193.609 81.3404 197.064V223.554C81.3404 227.009 84.1477 229.816 87.6028 229.816H117.835C121.291 229.816 124.098 227.009 124.098 223.554V197.064C124.098 193.609 121.291 190.802 117.835 190.802H87.6028Z" fill="black"/>
<path d="M94.093 226.445C93.5772 226.445 93.1333 226.098 93.0133 225.606L89.8821 213.105H86.2949C85.6831 213.105 85.1792 212.601 85.1792 211.989C85.1792 211.377 85.6831 210.873 86.2949 210.873H90.7458C91.2617 210.873 91.7056 211.221 91.8256 211.713L94.057 220.663L100.224 195.037C100.344 194.533 100.787 194.185 101.303 194.185C101.315 194.185 101.315 194.185 101.327 194.185C101.855 194.197 102.299 194.569 102.395 195.085L106.474 216.356L109.689 203.915C109.809 203.459 110.205 203.123 110.685 203.087C111.165 203.051 111.609 203.315 111.789 203.759L114.836 210.873H117.991C118.603 210.873 119.107 211.377 119.107 211.989C119.107 212.601 118.603 213.105 117.991 213.105H114.092C113.648 213.105 113.24 212.841 113.072 212.433L111.021 207.646L107.386 221.731C107.254 222.234 106.798 222.582 106.27 222.57C105.754 222.558 105.31 222.175 105.214 221.671L101.171 200.592L95.1488 225.618C95.0528 226.086 94.6089 226.445 94.093 226.445Z" fill="black"/>
<path d="M86.3074 214.208C87.5331 214.208 88.5268 213.215 88.5268 211.989C88.5268 210.763 87.5331 209.769 86.3074 209.769C85.0816 209.769 84.0879 210.763 84.0879 211.989C84.0879 213.215 85.0816 214.208 86.3074 214.208Z" fill="black"/>
<path d="M119.119 214.208C120.345 214.208 121.339 213.215 121.339 211.989C121.339 210.763 120.345 209.769 119.119 209.769C117.894 209.769 116.9 210.763 116.9 211.989C116.9 213.215 117.894 214.208 119.119 214.208Z" fill="black"/>
<g opacity="0.15">
<path opacity="0.15" d="M121.339 239.234H82.4082V248.136H121.339V239.234Z" fill="black"/>
</g>
<path d="M203.794 291.601C213.932 291.601 222.15 283.383 222.15 273.245C222.15 263.108 213.932 254.89 203.794 254.89C193.657 254.89 185.439 263.108 185.439 273.245C185.439 283.383 193.657 291.601 203.794 291.601Z" fill="#9FA8DA"/>
<path d="M203.795 292.717C193.057 292.717 184.335 283.983 184.335 273.258C184.335 262.52 193.069 253.798 203.795 253.798C214.52 253.798 223.254 262.532 223.254 273.258C223.254 283.983 214.52 292.717 203.795 292.717ZM203.795 256.018C194.293 256.018 186.555 263.756 186.555 273.258C186.555 282.759 194.293 290.497 203.795 290.497C213.296 290.497 221.035 282.759 221.035 273.258C221.035 263.744 213.296 256.018 203.795 256.018Z" fill="black"/>
<path d="M197.125 286.046C196.945 286.046 196.765 285.998 196.597 285.915C196.057 285.615 195.865 284.943 196.153 284.403L208.942 261.045C209.242 260.505 209.914 260.313 210.453 260.601C210.993 260.901 211.185 261.572 210.897 262.112L198.108 285.471C197.892 285.831 197.509 286.046 197.125 286.046Z" fill="black"/>
<path d="M180.509 256.594C180.293 260.589 178.661 264.524 175.614 267.571L152.759 290.425C146.197 296.988 135.567 296.988 129.017 290.425C122.455 283.863 122.455 273.234 129.017 266.683L151.871 243.829C158.434 237.266 169.063 237.266 175.614 243.829C178.169 246.384 179.729 249.563 180.293 252.887" fill="#3949AB"/>
<path d="M128.225 291.217C121.243 284.235 121.243 272.874 128.225 265.903L151.079 243.049C158.062 236.067 169.423 236.067 176.393 243.049C179.033 245.688 180.76 249.036 181.384 252.707C181.492 253.306 181.084 253.882 180.472 253.99C179.872 254.098 179.297 253.69 179.189 253.079C178.649 249.863 177.137 246.936 174.822 244.621C168.703 238.502 158.758 238.502 152.651 244.621L129.797 267.475C123.678 273.594 123.678 283.539 129.797 289.646C135.915 295.752 145.861 295.764 151.967 289.646L174.822 266.791C177.569 264.044 179.189 260.409 179.393 256.534C179.429 255.922 179.944 255.454 180.556 255.478C181.168 255.514 181.636 256.03 181.612 256.642C181.384 261.057 179.525 265.22 176.393 268.351L153.539 291.205C146.569 298.2 135.207 298.2 128.225 291.217Z" fill="black"/>
<path d="M164.6 278.596L152.759 290.437C146.197 297 135.567 297 129.017 290.437C122.455 283.875 122.455 273.246 129.017 266.695L140.858 254.854" fill="#B3E5FC"/>
<path d="M128.225 291.217C121.243 284.235 121.243 272.874 128.225 265.903L140.066 254.062L141.638 255.634L129.797 267.475C123.678 273.593 123.678 283.539 129.797 289.646C135.915 295.752 145.861 295.764 151.967 289.646L163.808 277.804L165.38 279.376L153.539 291.217C146.569 298.2 135.207 298.2 128.225 291.217Z" fill="black"/>
</g>
<defs>
<clipPath id="clip0">
<rect width="378.46" height="374.525" fill="white"/>
</clipPath>
</defs>
</svg>
