<svg width="379" height="348" viewBox="0 0 379 348" fill="none" xmlns="http://www.w3.org/2000/svg">
<g clip-path="url(#clip0)">
<path d="M186.075 286.75C252.837 286.75 306.958 232.628 306.958 165.866C306.958 99.1043 252.837 44.9829 186.075 44.9829C119.313 44.9829 65.1914 99.1043 65.1914 165.866C65.1914 232.628 119.313 286.75 186.075 286.75Z" fill="#D1C4E9"/>
<path d="M292.44 232.292C292.44 232.316 292.428 232.34 292.428 232.365C292.428 232.463 292.477 232.548 292.562 232.609C292.574 232.646 292.586 232.682 292.611 232.719L338.754 303.735C338.852 303.881 339.035 303.918 339.194 303.833L372.565 283.49C372.663 283.429 372.711 283.331 372.724 283.221C372.724 283.111 372.675 283.014 372.577 282.953L293.319 232.34L359.646 183.352C359.781 183.254 359.817 183.059 359.719 182.925L317.447 117.88C317.374 117.77 317.252 117.721 317.117 117.745C316.995 117.77 316.885 117.868 316.861 117.99L292.66 232.047L292.562 232.121C292.501 232.145 292.452 232.218 292.44 232.292ZM293.429 231.461L317.325 118.869L359.011 183.022L293.429 231.461ZM339.12 303.124L293.82 233.415L371.796 283.209L339.12 303.124Z" fill="#B39DDB"/>
<path d="M332.832 202.461C332.82 202.486 332.82 202.522 332.832 202.547L337.277 260.998C337.289 261.132 337.386 261.242 337.509 261.279C337.643 261.315 337.777 261.267 337.85 261.157L370.355 214.33C370.416 214.244 370.428 214.134 370.391 214.049C370.355 213.951 370.281 213.878 370.184 213.853L333.247 202.217C333.149 202.18 333.039 202.205 332.954 202.266C332.881 202.327 332.844 202.388 332.832 202.461ZM337.826 260.058L333.491 202.974L369.573 214.33L337.826 260.058Z" fill="#B39DDB"/>
<path d="M289.912 276.482C289.9 276.531 289.9 276.592 289.925 276.653C289.961 276.75 290.034 276.836 290.144 276.86L328.742 288.179C328.876 288.216 329.01 288.167 329.083 288.07C329.169 287.96 329.169 287.813 329.096 287.703L307.422 254.356C307.361 254.271 307.276 254.21 307.166 254.21C307.068 254.21 306.958 254.247 306.897 254.332L289.973 276.36C289.949 276.396 289.925 276.445 289.912 276.482ZM328.094 287.325L290.767 276.384L307.141 255.089L328.094 287.325Z" fill="#B39DDB"/>
<path d="M230.106 259.875C230.093 259.924 230.093 259.985 230.118 260.034C230.142 260.132 230.216 260.205 230.301 260.229L271.328 276.115C271.487 276.176 271.658 276.103 271.731 275.956L293.283 232.866C293.331 232.756 293.331 232.634 293.258 232.536C293.185 232.438 293.075 232.39 292.965 232.402L244.929 237.225C244.831 237.237 244.746 237.286 244.697 237.371L230.155 259.753C230.13 259.802 230.106 259.839 230.106 259.875ZM271.291 275.431L230.899 259.79L245.149 237.872L292.464 233.122L271.291 275.431Z" fill="#B39DDB"/>
<path d="M372.406 285.773C373.815 285.773 374.958 284.631 374.958 283.221C374.958 281.812 373.815 280.669 372.406 280.669C370.997 280.669 369.854 281.812 369.854 283.221C369.854 284.631 370.997 285.773 372.406 285.773Z" fill="#B39DDB"/>
<path d="M290.291 278.789C291.7 278.789 292.843 277.646 292.843 276.237C292.843 274.828 291.7 273.685 290.291 273.685C288.881 273.685 287.739 274.828 287.739 276.237C287.739 277.646 288.881 278.789 290.291 278.789Z" fill="#B39DDB"/>
<path d="M293.002 235.283C294.411 235.283 295.554 234.141 295.554 232.731C295.554 231.322 294.411 230.179 293.002 230.179C291.592 230.179 290.45 231.322 290.45 232.731C290.45 234.141 291.592 235.283 293.002 235.283Z" fill="#B39DDB"/>
<path d="M339.975 155.464C341.385 155.464 342.527 154.321 342.527 152.912C342.527 151.502 341.385 150.36 339.975 150.36C338.566 150.36 337.423 151.502 337.423 152.912C337.423 154.321 338.566 155.464 339.975 155.464Z" fill="#B39DDB"/>
<path d="M302.904 187.101C304.313 187.101 305.456 185.958 305.456 184.549C305.456 183.139 304.313 181.997 302.904 181.997C301.495 181.997 300.352 183.139 300.352 184.549C300.352 185.958 301.495 187.101 302.904 187.101Z" fill="#B39DDB"/>
<path d="M245.515 240.559C246.925 240.559 248.067 239.416 248.067 238.007C248.067 236.597 246.925 235.455 245.515 235.455C244.106 235.455 242.963 236.597 242.963 238.007C242.963 239.416 244.106 240.559 245.515 240.559Z" fill="#B39DDB"/>
<path d="M230.411 262.488C231.82 262.488 232.963 261.346 232.963 259.936C232.963 258.527 231.82 257.384 230.411 257.384C229.001 257.384 227.859 258.527 227.859 259.936C227.859 261.346 229.001 262.488 230.411 262.488Z" fill="#B39DDB"/>
<path d="M259.191 260.767C260.6 260.767 261.743 259.624 261.743 258.215C261.743 256.805 260.6 255.663 259.191 255.663C257.781 255.663 256.639 256.805 256.639 258.215C256.639 259.624 257.781 260.767 259.191 260.767Z" fill="#B39DDB"/>
<path d="M285.358 251.291C286.767 251.291 287.91 250.149 287.91 248.739C287.91 247.33 286.767 246.188 285.358 246.188C283.948 246.188 282.806 247.33 282.806 248.739C282.806 250.149 283.948 251.291 285.358 251.291Z" fill="#B39DDB"/>
<path d="M281.072 259.204C282.481 259.204 283.624 258.061 283.624 256.652C283.624 255.242 282.481 254.1 281.072 254.1C279.663 254.1 278.52 255.242 278.52 256.652C278.52 258.061 279.663 259.204 281.072 259.204Z" fill="#B39DDB"/>
<path d="M271.45 278.386C272.859 278.386 274.002 277.244 274.002 275.834C274.002 274.425 272.859 273.282 271.45 273.282C270.041 273.282 268.898 274.425 268.898 275.834C268.898 277.244 270.041 278.386 271.45 278.386Z" fill="#B39DDB"/>
<path d="M317.581 121.006C318.991 121.006 320.133 119.863 320.133 118.454C320.133 117.044 318.991 115.902 317.581 115.902C316.172 115.902 315.029 117.044 315.029 118.454C315.029 119.863 316.172 121.006 317.581 121.006Z" fill="#B39DDB"/>
<path d="M370.074 216.711C371.483 216.711 372.626 215.569 372.626 214.159C372.626 212.75 371.483 211.607 370.074 211.607C368.665 211.607 367.522 212.75 367.522 214.159C367.522 215.569 368.665 216.711 370.074 216.711Z" fill="#B39DDB"/>
<path d="M334.957 225.258C336.366 225.258 337.509 224.116 337.509 222.706C337.509 221.297 336.366 220.154 334.957 220.154C333.547 220.154 332.405 221.297 332.405 222.706C332.405 224.116 333.547 225.258 334.957 225.258Z" fill="#B39DDB"/>
<path d="M334.004 205.135C335.414 205.135 336.556 203.993 336.556 202.583C336.556 201.174 335.414 200.031 334.004 200.031C332.595 200.031 331.452 201.174 331.452 202.583C331.452 203.993 332.595 205.135 334.004 205.135Z" fill="#B39DDB"/>
<path d="M322.392 186.014C323.802 186.014 324.944 184.872 324.944 183.462C324.944 182.053 323.802 180.91 322.392 180.91C320.983 180.91 319.84 182.053 319.84 183.462C319.84 184.872 320.983 186.014 322.392 186.014Z" fill="#B39DDB"/>
<path d="M316.519 195.221C317.928 195.221 319.071 194.078 319.071 192.669C319.071 191.259 317.928 190.117 316.519 190.117C315.109 190.117 313.967 191.259 313.967 192.669C313.967 194.078 315.109 195.221 316.519 195.221Z" fill="#B39DDB"/>
<path d="M339.023 306.116C340.432 306.116 341.575 304.973 341.575 303.564C341.575 302.154 340.432 301.012 339.023 301.012C337.613 301.012 336.471 302.154 336.471 303.564C336.471 304.973 337.613 306.116 339.023 306.116Z" fill="#B39DDB"/>
<path d="M328.131 289.754C329.541 289.754 330.683 288.612 330.683 287.202C330.683 285.793 329.541 284.65 328.131 284.65C326.722 284.65 325.579 285.793 325.579 287.202C325.579 288.612 326.722 289.754 328.131 289.754Z" fill="#B39DDB"/>
<path d="M307.276 257.25C308.685 257.25 309.828 256.107 309.828 254.698C309.828 253.289 308.685 252.146 307.276 252.146C305.866 252.146 304.724 253.289 304.724 254.698C304.724 256.107 305.866 257.25 307.276 257.25Z" fill="#B39DDB"/>
<path d="M337.264 263.623C338.674 263.623 339.816 262.481 339.816 261.072C339.816 259.662 338.674 258.52 337.264 258.52C335.855 258.52 334.712 259.662 334.712 261.072C334.712 262.481 335.855 263.623 337.264 263.623Z" fill="#B39DDB"/>
<path d="M359.048 185.636C360.457 185.636 361.6 184.494 361.6 183.084C361.6 181.675 360.457 180.532 359.048 180.532C357.639 180.532 356.496 181.675 356.496 183.084C356.496 184.494 357.639 185.636 359.048 185.636Z" fill="#B39DDB"/>
<path d="M306.592 254.233L328.216 287.934L337.692 260.839L306.592 254.233ZM328.046 286.481L307.959 255.174L336.849 261.303L328.046 286.481Z" fill="#B39DDB"/>
<path d="M301.756 184.268L333.845 202.865L334.163 202.303L304.04 184.842L359.048 183.401L359.036 182.766L301.756 184.268Z" fill="#B39DDB"/>
<path d="M292.342 233.22L370.159 214.465L370.001 213.854L293.649 232.243L340.048 152.961L339.499 152.643L292.342 233.22Z" fill="#B39DDB"/>
<path d="M245.21 237.933C245.198 238.018 245.21 238.104 245.259 238.177L270.4 275.7C270.498 275.846 270.693 275.883 270.84 275.785C270.986 275.688 271.023 275.492 270.925 275.346L246.26 238.531L306.458 254.808L271.279 275.553C271.157 275.627 271.096 275.773 271.133 275.907C271.169 276.042 271.291 276.139 271.438 276.152L290.205 276.555L338.864 303.833C339.023 303.918 339.218 303.869 339.304 303.711C339.389 303.552 339.34 303.357 339.182 303.271L290.45 275.956C290.401 275.932 290.352 275.92 290.303 275.92L272.574 275.529L307.434 254.967C307.544 254.906 307.605 254.771 307.593 254.649C307.581 254.527 307.483 254.417 307.361 254.38L245.601 237.677C245.466 237.64 245.332 237.689 245.259 237.799C245.234 237.848 245.21 237.896 245.21 237.933Z" fill="#B39DDB"/>
<path d="M230.105 259.875C230.105 259.899 230.093 259.936 230.093 259.96C230.105 260.131 230.252 260.266 230.435 260.253L307.3 255.015C307.471 255.003 307.605 254.844 307.593 254.673C307.581 254.502 307.434 254.368 307.251 254.38L230.386 259.618C230.252 259.631 230.13 259.741 230.105 259.875Z" fill="#B39DDB"/>
<path d="M106.206 256.92C106.182 256.92 106.158 256.92 106.133 256.933C106.036 256.957 105.95 257.018 105.913 257.104C105.877 257.116 105.84 257.14 105.816 257.165L44.0675 315.75C43.9454 315.872 43.9332 316.068 44.0431 316.202L70.2467 345.471C70.32 345.556 70.4299 345.593 70.5398 345.568C70.6497 345.544 70.7351 345.471 70.784 345.373L106.316 257.8L166.856 314.395C166.978 314.517 167.173 314.505 167.295 314.395L223.854 260.73C223.952 260.645 223.976 260.498 223.927 260.388C223.879 260.266 223.769 260.181 223.634 260.181L106.5 257.104L106.414 257.018C106.353 256.957 106.28 256.92 106.206 256.92ZM107.208 257.751L222.853 260.791L167.076 313.711L107.208 257.751ZM44.7269 315.995L105.34 258.496L70.381 344.652L44.7269 315.995Z" fill="#9575CD"/>
<path d="M143.07 291.378C143.046 291.378 143.009 291.378 142.985 291.39L86.0229 306.458C85.8885 306.494 85.7909 306.604 85.7909 306.739C85.7787 306.873 85.8519 307.007 85.974 307.056L138.186 330.622C138.284 330.659 138.381 330.659 138.479 330.61C138.564 330.561 138.625 330.476 138.638 330.366L143.388 291.732C143.4 291.622 143.363 291.524 143.278 291.451C143.204 291.402 143.143 291.378 143.07 291.378ZM87.0485 306.849L142.679 292.123L138.039 329.853L87.0485 306.849Z" fill="#9575CD"/>
<path d="M62.0656 262.5C62.0045 262.5 61.9557 262.513 61.9068 262.537C61.8091 262.586 61.7481 262.684 61.7359 262.781L57.6087 302.99C57.5965 303.125 57.6698 303.247 57.7919 303.308C57.914 303.369 58.0605 303.344 58.1582 303.247L87.158 275.737C87.2313 275.663 87.2679 275.566 87.2557 275.456C87.2435 275.358 87.1824 275.26 87.0848 275.212L62.2243 262.513C62.1632 262.513 62.1144 262.5 62.0656 262.5ZM58.3292 302.209L62.322 263.319L86.3643 275.602L58.3292 302.209Z" fill="#9575CD"/>
<path d="M67.548 200.361C67.487 200.361 67.4381 200.374 67.3893 200.398C67.3038 200.447 67.2428 200.52 67.2306 200.618L59.0251 244.075C58.9885 244.233 59.0984 244.392 59.2571 244.441L105.779 257.86C105.889 257.897 106.011 257.86 106.096 257.775C106.182 257.689 106.206 257.567 106.182 257.457L92.6283 210.875C92.6039 210.777 92.5306 210.704 92.4451 210.667L67.6701 200.386C67.6335 200.361 67.5847 200.361 67.548 200.361ZM59.7089 243.904L67.7922 201.131L92.0666 211.204L105.413 257.091L59.7089 243.904Z" fill="#9575CD"/>
<path d="M70.4909 347.814C71.9071 347.814 73.0551 346.666 73.0551 345.25C73.0551 343.834 71.9071 342.686 70.4909 342.686C69.0748 342.686 67.9268 343.834 67.9268 345.25C67.9268 346.666 69.0748 347.814 70.4909 347.814Z" fill="#9575CD"/>
<path d="M62.383 265.394C63.7992 265.394 64.9472 264.246 64.9472 262.83C64.9472 261.414 63.7992 260.266 62.383 260.266C60.9669 260.266 59.8188 261.414 59.8188 262.83C59.8188 264.246 60.9669 265.394 62.383 265.394Z" fill="#9575CD"/>
<path d="M105.864 260.119C107.281 260.119 108.429 258.971 108.429 257.555C108.429 256.139 107.281 254.991 105.864 254.991C104.448 254.991 103.3 256.139 103.3 257.555C103.3 258.971 104.448 260.119 105.864 260.119Z" fill="#9575CD"/>
<path d="M193.328 291.952C194.744 291.952 195.892 290.804 195.892 289.388C195.892 287.972 194.744 286.824 193.328 286.824C191.912 286.824 190.764 287.972 190.764 289.388C190.764 290.804 191.912 291.952 193.328 291.952Z" fill="#9575CD"/>
<path d="M155.292 261.096C156.708 261.096 157.856 259.948 157.856 258.532C157.856 257.116 156.708 255.968 155.292 255.968C153.876 255.968 152.728 257.116 152.728 258.532C152.728 259.948 153.876 261.096 155.292 261.096Z" fill="#9575CD"/>
<path d="M91.9812 214.159C93.3973 214.159 94.5454 213.011 94.5454 211.595C94.5454 210.179 93.3973 209.031 91.9812 209.031C90.565 209.031 89.417 210.179 89.417 211.595C89.417 213.011 90.565 214.159 91.9812 214.159Z" fill="#9575CD"/>
<path d="M67.5481 203.243C68.9642 203.243 70.1123 202.095 70.1123 200.679C70.1123 199.263 68.9642 198.115 67.5481 198.115C66.1319 198.115 64.9839 199.263 64.9839 200.679C64.9839 202.095 66.1319 203.243 67.5481 203.243Z" fill="#9575CD"/>
<path d="M74.508 231.363C75.9242 231.363 77.0722 230.215 77.0722 228.799C77.0722 227.383 75.9242 226.235 74.508 226.235C73.0919 226.235 71.9438 227.383 71.9438 228.799C71.9438 230.215 73.0919 231.363 74.508 231.363Z" fill="#9575CD"/>
<path d="M88.6477 255.492C90.0639 255.492 91.2119 254.344 91.2119 252.927C91.2119 251.511 90.0639 250.363 88.6477 250.363C87.2315 250.363 86.0835 251.511 86.0835 252.927C86.0835 254.344 87.2315 255.492 88.6477 255.492Z" fill="#9575CD"/>
<path d="M80.0515 252.695C81.4677 252.695 82.6157 251.547 82.6157 250.131C82.6157 248.715 81.4677 247.567 80.0515 247.567C78.6353 247.567 77.4873 248.715 77.4873 250.131C77.4873 251.547 78.6353 252.695 80.0515 252.695Z" fill="#9575CD"/>
<path d="M59.3308 246.7C60.747 246.7 61.895 245.552 61.895 244.136C61.895 242.72 60.747 241.572 59.3308 241.572C57.9146 241.572 56.7666 242.72 56.7666 244.136C56.7666 245.552 57.9146 246.7 59.3308 246.7Z" fill="#9575CD"/>
<path d="M223.293 263.526C224.709 263.526 225.857 262.378 225.857 260.962C225.857 259.546 224.709 258.398 223.293 258.398C221.877 258.398 220.729 259.546 220.729 260.962C220.729 262.378 221.877 263.526 223.293 263.526Z" fill="#9575CD"/>
<path d="M138.308 332.894C139.724 332.894 140.872 331.746 140.872 330.33C140.872 328.914 139.724 327.766 138.308 327.766C136.892 327.766 135.744 328.914 135.744 330.33C135.744 331.746 136.892 332.894 138.308 332.894Z" fill="#9575CD"/>
<path d="M123.447 299.754C124.864 299.754 126.012 298.606 126.012 297.19C126.012 295.774 124.864 294.626 123.447 294.626C122.031 294.626 120.883 295.774 120.883 297.19C120.883 298.606 122.031 299.754 123.447 299.754Z" fill="#9575CD"/>
<path d="M143.155 295.139C144.572 295.139 145.72 293.991 145.72 292.574C145.72 291.158 144.572 290.01 143.155 290.01C141.739 290.01 140.591 291.158 140.591 292.574C140.591 293.991 141.739 295.139 143.155 295.139Z" fill="#9575CD"/>
<path d="M159.92 280.157C161.336 280.157 162.484 279.009 162.484 277.593C162.484 276.176 161.336 275.028 159.92 275.028C158.504 275.028 157.356 276.176 157.356 277.593C157.356 279.009 158.504 280.157 159.92 280.157Z" fill="#9575CD"/>
<path d="M149.761 276.042C151.177 276.042 152.325 274.894 152.325 273.478C152.325 272.062 151.177 270.914 149.761 270.914C148.345 270.914 147.197 272.062 147.197 273.478C147.197 274.894 148.345 276.042 149.761 276.042Z" fill="#9575CD"/>
<path d="M44.2873 318.546C45.7035 318.546 46.8515 317.398 46.8515 315.982C46.8515 314.566 45.7035 313.418 44.2873 313.418C42.8712 313.418 41.7231 314.566 41.7231 315.982C41.7231 317.398 42.8712 318.546 44.2873 318.546Z" fill="#9575CD"/>
<path d="M58.4514 304.786C59.8676 304.786 61.0156 303.638 61.0156 302.221C61.0156 300.805 59.8676 299.657 58.4514 299.657C57.0352 299.657 55.8872 300.805 55.8872 302.221C55.8872 303.638 57.0352 304.786 58.4514 304.786Z" fill="#9575CD"/>
<path d="M86.7673 278.24C88.1835 278.24 89.3315 277.092 89.3315 275.676C89.3315 274.259 88.1835 273.111 86.7673 273.111C85.3512 273.111 84.2031 274.259 84.2031 275.676C84.2031 277.092 85.3512 278.24 86.7673 278.24Z" fill="#9575CD"/>
<path d="M85.9494 309.046C87.3656 309.046 88.5136 307.898 88.5136 306.482C88.5136 305.066 87.3656 303.918 85.9494 303.918C84.5333 303.918 83.3853 305.066 83.3853 306.482C83.3853 307.898 84.5333 309.046 85.9494 309.046Z" fill="#9575CD"/>
<path d="M167.002 316.312C168.418 316.312 169.566 315.164 169.566 313.748C169.566 312.332 168.418 311.184 167.002 311.184C165.586 311.184 164.438 312.332 164.438 313.748C164.438 315.164 165.586 316.312 167.002 316.312Z" fill="#9575CD"/>
<path d="M87.1093 274.918L57.7554 302.441L86.2668 306.849L87.1093 274.918ZM59.1474 302.013L86.4133 276.445L85.6318 306.116L59.1474 302.013Z" fill="#9575CD"/>
<path d="M155.366 257.36L142.85 292.465L143.461 292.672L155.207 259.704L166.685 313.809L167.32 313.674L155.366 257.36Z" fill="#9575CD"/>
<path d="M105.266 256.994L138.015 330.464L138.601 330.208L106.463 258.117L193.291 289.474L193.511 288.863L105.266 256.994Z" fill="#9575CD"/>
<path d="M91.9937 211.277C91.9082 211.277 91.8228 211.302 91.7617 211.363L59.2819 243.061C59.1598 243.183 59.1476 243.391 59.2819 243.513C59.404 243.635 59.6116 243.647 59.7337 243.513L91.603 212.413L86.5234 274.882L59.5994 243.916C59.5017 243.806 59.3552 243.769 59.2209 243.83C59.0866 243.891 59.0133 244.026 59.0377 244.172L62.0659 262.793L43.9945 315.86C43.9334 316.031 44.0311 316.214 44.1898 316.263C44.3608 316.324 44.5439 316.226 44.5928 316.067L62.6886 262.915C62.7009 262.866 62.7131 262.818 62.7009 262.757L59.8314 245.198L86.5234 275.895C86.6089 275.993 86.7432 276.029 86.8653 275.993C86.9874 275.956 87.0729 275.846 87.0851 275.712L92.299 211.631C92.3112 211.497 92.2379 211.375 92.1158 211.314C92.0792 211.29 92.0303 211.277 91.9937 211.277Z" fill="#9575CD"/>
<path d="M67.5484 200.361C67.5239 200.361 67.4873 200.361 67.4629 200.374C67.2919 200.422 67.1821 200.593 67.2309 200.764L86.4501 275.761C86.499 275.932 86.6699 276.042 86.8409 275.993C87.0118 275.944 87.1217 275.773 87.0729 275.602L67.8536 200.606C67.817 200.459 67.6949 200.361 67.5484 200.361Z" fill="#9575CD"/>
<path d="M96.2429 134.841C96.2307 134.865 96.2185 134.877 96.1941 134.902C96.1208 134.975 96.0231 134.999 95.9255 134.999C95.8888 135.024 95.8522 135.036 95.8156 135.048L13.2241 155.623C13.0532 155.659 12.8822 155.562 12.8334 155.403L2.25916 117.563C2.23474 117.453 2.25916 117.343 2.33242 117.258C2.40568 117.172 2.51558 117.135 2.62547 117.16L95.5714 134.267L80.3938 52.8109C80.3571 52.6399 80.467 52.4812 80.6258 52.4445L156.282 33.5916C156.404 33.555 156.538 33.6038 156.611 33.7137C156.685 33.8236 156.697 33.9579 156.624 34.0678L96.2551 134.499L96.2796 134.621C96.304 134.694 96.2918 134.767 96.2429 134.841ZM96.0842 133.546L155.683 34.3975L81.0776 52.9818L96.0842 133.546ZM13.3829 154.915L94.448 134.719L3.01621 117.893L13.3829 154.915Z" fill="#B39DDB"/>
<path d="M86.9996 85.2297C86.9874 85.2541 86.963 85.2785 86.9386 85.3029L43.6159 125.231C43.5183 125.329 43.3717 125.341 43.2496 125.28C43.1275 125.219 43.0665 125.085 43.0787 124.95L51.2841 68.2571C51.2963 68.1595 51.3574 68.074 51.455 68.0251C51.5405 67.9763 51.6504 67.9763 51.7481 68.0129L86.8775 84.7779C86.9752 84.8267 87.0363 84.9122 87.0607 85.0221C87.0607 85.0953 87.0363 85.1686 86.9996 85.2297ZM43.8479 124.144L86.1571 85.1442L51.8458 68.77L43.8479 124.144Z" fill="#B39DDB"/>
<path d="M67.8167 169.054C67.7923 169.103 67.7434 169.14 67.6946 169.164C67.5969 169.213 67.487 169.213 67.3893 169.164L31.2586 151.044C31.1365 150.983 31.0633 150.861 31.0877 150.726C31.0999 150.592 31.1976 150.482 31.3319 150.445L70.1123 140.787C70.2099 140.763 70.3198 140.787 70.4053 140.86C70.4908 140.934 70.5274 141.031 70.5152 141.129L67.8655 168.92C67.8533 168.969 67.8411 169.018 67.8167 169.054ZM32.3209 150.861L67.255 168.395L69.8192 141.52L32.3209 150.861Z" fill="#B39DDB"/>
<path d="M123.167 197.835C123.142 197.884 123.093 197.92 123.045 197.945C122.959 197.993 122.861 197.993 122.764 197.957L81.7123 181.522C81.5535 181.461 81.4803 181.29 81.5291 181.131L95.217 134.682C95.2537 134.572 95.3391 134.487 95.4612 134.463C95.5711 134.438 95.6932 134.475 95.7665 134.56L127.77 171.033C127.831 171.106 127.856 171.204 127.843 171.301L123.203 197.725C123.203 197.761 123.191 197.798 123.167 197.835ZM82.2373 181.045L122.654 197.224L127.208 171.35L95.681 135.439L82.2373 181.045Z" fill="#B39DDB"/>
<path d="M2.56419 120.041C3.98036 120.041 5.12839 118.893 5.12839 117.477C5.12839 116.061 3.98036 114.913 2.56419 114.913C1.14803 114.913 0 116.061 0 117.477C0 118.893 1.14803 120.041 2.56419 120.041Z" fill="#B39DDB"/>
<path d="M67.7068 171.179C69.1229 171.179 70.271 170.031 70.271 168.614C70.271 167.198 69.1229 166.05 67.7068 166.05C66.2906 166.05 65.1426 167.198 65.1426 168.614C65.1426 170.031 66.2906 171.179 67.7068 171.179Z" fill="#B39DDB"/>
<path d="M95.5344 137.344C96.9506 137.344 98.0986 136.196 98.0986 134.78C98.0986 133.363 96.9506 132.215 95.5344 132.215C94.1182 132.215 92.9702 133.363 92.9702 134.78C92.9702 136.196 94.1182 137.344 95.5344 137.344Z" fill="#B39DDB"/>
<path d="M115.694 46.4736C117.11 46.4736 118.258 45.3256 118.258 43.9094C118.258 42.4932 117.11 41.3452 115.694 41.3452C114.278 41.3452 113.13 42.4932 113.13 43.9094C113.13 45.3256 114.278 46.4736 115.694 46.4736Z" fill="#B39DDB"/>
<path d="M121.274 95.1445C122.69 95.1445 123.838 93.9965 123.838 92.5803C123.838 91.1641 122.69 90.0161 121.274 90.0161C119.858 90.0161 118.71 91.1641 118.71 92.5803C118.71 93.9965 119.858 95.1445 121.274 95.1445Z" fill="#B39DDB"/>
<path d="M126.83 173.755C128.246 173.755 129.394 172.607 129.394 171.191C129.394 169.774 128.246 168.626 126.83 168.626C125.414 168.626 124.266 169.774 124.266 171.191C124.266 172.607 125.414 173.755 126.83 173.755Z" fill="#B39DDB"/>
<path d="M122.898 200.239C124.314 200.239 125.462 199.091 125.462 197.675C125.462 196.259 124.314 195.111 122.898 195.111C121.482 195.111 120.334 196.259 120.334 197.675C120.334 199.091 121.482 200.239 122.898 200.239Z" fill="#B39DDB"/>
<path d="M102.934 179.25C104.35 179.25 105.499 178.102 105.499 176.686C105.499 175.27 104.35 174.122 102.934 174.122C101.518 174.122 100.37 175.27 100.37 176.686C100.37 178.102 101.518 179.25 102.934 179.25Z" fill="#B39DDB"/>
<path d="M90.1741 154.353C91.5902 154.353 92.7382 153.204 92.7382 151.788C92.7382 150.372 91.5902 149.224 90.1741 149.224C88.7579 149.224 87.6099 150.372 87.6099 151.788C87.6099 153.204 88.7579 154.353 90.1741 154.353Z" fill="#B39DDB"/>
<path d="M87.9153 163.108C89.3314 163.108 90.4795 161.96 90.4795 160.544C90.4795 159.128 89.3314 157.98 87.9153 157.98C86.4991 157.98 85.3511 159.128 85.3511 160.544C85.3511 161.96 86.4991 163.108 87.9153 163.108Z" fill="#B39DDB"/>
<path d="M81.8464 183.792C83.2626 183.792 84.4106 182.644 84.4106 181.228C84.4106 179.812 83.2626 178.664 81.8464 178.664C80.4303 178.664 79.2822 179.812 79.2822 181.228C79.2822 182.644 80.4303 183.792 81.8464 183.792Z" fill="#B39DDB"/>
<path d="M155.781 36.4853C157.197 36.4853 158.345 35.3373 158.345 33.9211C158.345 32.505 157.197 31.3569 155.781 31.3569C154.365 31.3569 153.217 32.505 153.217 33.9211C153.217 35.3373 154.365 36.4853 155.781 36.4853Z" fill="#B39DDB"/>
<path d="M51.6013 70.8701C53.0175 70.8701 54.1655 69.7221 54.1655 68.3059C54.1655 66.8897 53.0175 65.7417 51.6013 65.7417C50.1851 65.7417 49.0371 66.8897 49.0371 68.3059C49.0371 69.7221 50.1851 70.8701 51.6013 70.8701Z" fill="#B39DDB"/>
<path d="M71.5657 101.212C72.9818 101.212 74.1299 100.064 74.1299 98.6482C74.1299 97.232 72.9818 96.084 71.5657 96.084C70.1495 96.084 69.0015 97.232 69.0015 98.6482C69.0015 100.064 70.1495 101.212 71.5657 101.212Z" fill="#B39DDB"/>
<path d="M86.0471 87.0737C87.4633 87.0737 88.6113 85.9257 88.6113 84.5095C88.6113 83.0933 87.4633 81.9453 86.0471 81.9453C84.6309 81.9453 83.4829 83.0933 83.4829 84.5095C83.4829 85.9257 84.6309 87.0737 86.0471 87.0737Z" fill="#B39DDB"/>
<path d="M107.684 80.9804C109.1 80.9804 110.248 79.8324 110.248 78.4162C110.248 77.0001 109.1 75.8521 107.684 75.8521C106.268 75.8521 105.12 77.0001 105.12 78.4162C105.12 79.8324 106.268 80.9804 107.684 80.9804Z" fill="#B39DDB"/>
<path d="M105.694 91.7739C107.11 91.7739 108.258 90.6259 108.258 89.2097C108.258 87.7935 107.11 86.6455 105.694 86.6455C104.277 86.6455 103.129 87.7935 103.129 89.2097C103.129 90.6259 104.277 91.7739 105.694 91.7739Z" fill="#B39DDB"/>
<path d="M13.1628 157.87C14.579 157.87 15.727 156.722 15.727 155.305C15.727 153.889 14.579 152.741 13.1628 152.741C11.7467 152.741 10.5986 153.889 10.5986 155.305C10.5986 156.722 11.7467 157.87 13.1628 157.87Z" fill="#B39DDB"/>
<path d="M32.3821 153.315C33.7982 153.315 34.9463 152.167 34.9463 150.751C34.9463 149.335 33.7982 148.187 32.3821 148.187C30.9659 148.187 29.8179 149.335 29.8179 150.751C29.8179 152.167 30.9659 153.315 32.3821 153.315Z" fill="#B39DDB"/>
<path d="M69.9905 143.717C71.4066 143.717 72.5547 142.569 72.5547 141.153C72.5547 139.737 71.4066 138.589 69.9905 138.589C68.5743 138.589 67.4263 139.737 67.4263 141.153C67.4263 142.569 68.5743 143.717 69.9905 143.717Z" fill="#B39DDB"/>
<path d="M43.5788 127.832C44.995 127.832 46.143 126.684 46.143 125.268C46.143 123.852 44.995 122.704 43.5788 122.704C42.1627 122.704 41.0146 123.852 41.0146 125.268C41.0146 126.684 42.1627 127.832 43.5788 127.832Z" fill="#B39DDB"/>
<path d="M81.0041 55.5825C82.4203 55.5825 83.5683 54.4345 83.5683 53.0183C83.5683 51.6021 82.4203 50.4541 81.0041 50.4541C79.588 50.4541 78.4399 51.6021 78.4399 53.0183C78.4399 54.4345 79.588 55.5825 81.0041 55.5825Z" fill="#B39DDB"/>
<path d="M70.8083 141.263L31.8203 151.214L43.4324 124.803L70.8083 141.263ZM32.9315 150.274L69.1599 141.019L43.7255 125.731L32.9315 150.274Z" fill="#B39DDB"/>
<path d="M122.312 93.1421L85.9736 84.8268L86.1201 84.2041L120.236 92.0188L80.7842 53.2506L81.236 52.7988L122.312 93.1421Z" fill="#B39DDB"/>
<path d="M95.6809 135.585L51.3325 68.4766L51.8698 68.1225L95.3878 133.973L115.621 43.897L116.243 44.0435L95.6809 135.585Z" fill="#B39DDB"/>
<path d="M127.098 171.362C127.049 171.435 126.988 171.484 126.891 171.508L82.7011 181.863C82.5302 181.899 82.3592 181.802 82.3104 181.618C82.2737 181.447 82.3714 181.277 82.5546 181.228L125.914 171.069L70.5029 141.776L82.1394 181.13C82.1761 181.264 82.1272 181.411 82.0051 181.496C81.883 181.57 81.7243 181.557 81.6144 181.46L67.5357 168.895L13.0649 155.598C12.894 155.561 12.7841 155.378 12.8329 155.207C12.8696 155.036 13.0527 154.926 13.2237 154.975L67.7677 168.285C67.8166 168.297 67.8654 168.321 67.9021 168.358L81.1992 180.226L69.6604 141.226C69.6237 141.104 69.6604 140.97 69.7702 140.884C69.8679 140.799 70.0145 140.787 70.1244 140.848L126.964 170.898C127.086 170.959 127.147 171.093 127.135 171.227C127.135 171.276 127.123 171.325 127.098 171.362Z" fill="#B39DDB"/>
<path d="M123.167 197.835C123.154 197.859 123.13 197.883 123.105 197.908C122.971 198.03 122.776 198.018 122.654 197.896L69.7459 141.373C69.6238 141.239 69.636 141.044 69.7581 140.922C69.8924 140.8 70.0878 140.812 70.2099 140.934L123.118 197.456C123.228 197.554 123.24 197.712 123.167 197.835Z" fill="#B39DDB"/>
<path d="M268.959 99.2833C268.984 99.2711 269.008 99.2589 269.033 99.2467C269.118 99.1979 269.179 99.1002 269.191 99.0025C269.216 98.9781 269.24 98.9415 269.265 98.9048L309.535 22.3453C309.62 22.1866 309.559 21.9912 309.4 21.9058L274.613 2.33241C274.515 2.27136 274.393 2.27136 274.295 2.33241C274.198 2.38125 274.137 2.49115 274.124 2.60104L268.556 98.4897L191.802 63.8242C191.643 63.7509 191.46 63.812 191.374 63.9707L154.486 134.108C154.425 134.23 154.438 134.364 154.523 134.474C154.609 134.572 154.743 134.62 154.865 134.572L268.605 99.2467L268.715 99.2956C268.801 99.3078 268.886 99.3078 268.959 99.2833ZM267.714 98.8194L155.439 133.692L191.814 64.5324L267.714 98.8194ZM308.802 22.3331L269.277 97.4884L274.747 3.15051L308.802 22.3331Z" fill="#9575CD"/>
<path d="M222.218 78.1715C222.242 78.1593 222.279 78.1471 222.303 78.1349L272.195 45.0079C272.305 44.9347 272.366 44.7881 272.329 44.6538C272.293 44.5195 272.183 44.4218 272.048 44.4096L214.098 38.805C213.988 38.7928 213.89 38.8294 213.829 38.9149C213.756 38.9882 213.731 39.0981 213.756 39.1958L221.815 77.9273C221.839 78.0372 221.912 78.1227 222.01 78.1593C222.071 78.1959 222.144 78.1959 222.218 78.1715ZM271.059 44.9835L222.34 77.329L214.464 39.501L271.059 44.9835Z" fill="#9575CD"/>
<path d="M309.608 79.4904C309.657 79.4782 309.706 79.4416 309.755 79.405C309.828 79.3317 309.852 79.2218 309.828 79.1119L300.658 39.0617C300.633 38.9273 300.511 38.8297 300.377 38.8052C300.243 38.793 300.108 38.8541 300.047 38.9762L281.133 74.9237C281.084 75.0214 281.084 75.1313 281.133 75.229C281.182 75.3267 281.268 75.3877 281.378 75.3999L309.462 79.5027C309.51 79.5027 309.559 79.5027 309.608 79.4904ZM300.218 40.0507L309.083 78.7822L281.927 74.8138L300.218 40.0507Z" fill="#9575CD"/>
<path d="M324.639 141.092C324.688 141.079 324.737 141.043 324.786 141.006C324.847 140.933 324.883 140.835 324.871 140.737L318.558 96.2426C318.534 96.0717 318.387 95.9496 318.216 95.9618L269.057 98.2573C268.935 98.2696 268.837 98.3306 268.776 98.4405C268.727 98.5504 268.74 98.6725 268.801 98.7702L297.068 139.187C297.129 139.272 297.214 139.321 297.312 139.321L324.517 141.116C324.566 141.104 324.602 141.104 324.639 141.092ZM317.96 96.6211L324.175 140.432L297.532 138.674L269.692 98.8801L317.96 96.6211Z" fill="#9575CD"/>
<path d="M274.454 5.22607C275.897 5.22607 277.067 4.05617 277.067 2.61304C277.067 1.1699 275.897 0 274.454 0C273.011 0 271.841 1.1699 271.841 2.61304C271.841 4.05617 273.011 5.22607 274.454 5.22607Z" fill="#9575CD"/>
<path d="M309.205 81.8833C310.648 81.8833 311.818 80.7134 311.818 79.2703C311.818 77.8271 310.648 76.6572 309.205 76.6572C307.762 76.6572 306.592 77.8271 306.592 79.2703C306.592 80.7134 307.762 81.8833 309.205 81.8833Z" fill="#9575CD"/>
<path d="M269.069 101.176C270.512 101.176 271.682 100.006 271.682 98.5627C271.682 97.1196 270.512 95.9497 269.069 95.9497C267.626 95.9497 266.456 97.1196 266.456 98.5627C266.456 100.006 267.626 101.176 269.069 101.176Z" fill="#9575CD"/>
<path d="M174.499 99.1372C175.942 99.1372 177.112 97.9673 177.112 96.5242C177.112 95.081 175.942 93.9111 174.499 93.9111C173.056 93.9111 171.886 95.081 171.886 96.5242C171.886 97.9673 173.056 99.1372 174.499 99.1372Z" fill="#9575CD"/>
<path d="M221.192 116.402C222.635 116.402 223.805 115.232 223.805 113.789C223.805 112.346 222.635 111.176 221.192 111.176C219.749 111.176 218.579 112.346 218.579 113.789C218.579 115.232 219.749 116.402 221.192 116.402Z" fill="#9575CD"/>
<path d="M297.458 140.872C298.901 140.872 300.071 139.702 300.071 138.259C300.071 136.815 298.901 135.646 297.458 135.646C296.015 135.646 294.845 136.815 294.845 138.259C294.845 139.702 296.015 140.872 297.458 140.872Z" fill="#9575CD"/>
<path d="M324.553 143.387C325.997 143.387 327.166 142.217 327.166 140.774C327.166 139.331 325.997 138.161 324.553 138.161C323.11 138.161 321.94 139.331 321.94 140.774C321.94 142.217 323.11 143.387 324.553 143.387Z" fill="#9575CD"/>
<path d="M308.656 118.612C310.099 118.612 311.269 117.442 311.269 115.999C311.269 114.556 310.099 113.386 308.656 113.386C307.212 113.386 306.042 114.556 306.042 115.999C306.042 117.442 307.212 118.612 308.656 118.612Z" fill="#9575CD"/>
<path d="M287.153 100.004C288.596 100.004 289.766 98.834 289.766 97.3909C289.766 95.9477 288.596 94.7778 287.153 94.7778C285.71 94.7778 284.54 95.9477 284.54 97.3909C284.54 98.834 285.71 100.004 287.153 100.004Z" fill="#9575CD"/>
<path d="M296.347 99.8818C297.791 99.8818 298.96 98.7119 298.96 97.2688C298.96 95.8257 297.791 94.6558 296.347 94.6558C294.904 94.6558 293.734 95.8257 293.734 97.2688C293.734 98.7119 294.904 99.8818 296.347 99.8818Z" fill="#9575CD"/>
<path d="M318.24 98.8926C319.684 98.8926 320.854 97.7227 320.854 96.2795C320.854 94.8364 319.684 93.6665 318.24 93.6665C316.797 93.6665 315.627 94.8364 315.627 96.2795C315.627 97.7227 316.797 98.8926 318.24 98.8926Z" fill="#9575CD"/>
<path d="M154.95 136.293C156.394 136.293 157.563 135.123 157.563 133.68C157.563 132.237 156.394 131.067 154.95 131.067C153.507 131.067 152.337 132.237 152.337 133.68C152.337 135.123 153.507 136.293 154.95 136.293Z" fill="#9575CD"/>
<path d="M214.061 41.7476C215.504 41.7476 216.674 40.5777 216.674 39.1345C216.674 37.6914 215.504 36.5215 214.061 36.5215C212.618 36.5215 211.448 37.6914 211.448 39.1345C211.448 40.5777 212.618 41.7476 214.061 41.7476Z" fill="#9575CD"/>
<path d="M239.202 68.7808C240.646 68.7808 241.815 67.6109 241.815 66.1677C241.815 64.7246 240.646 63.5547 239.202 63.5547C237.759 63.5547 236.589 64.7246 236.589 66.1677C236.589 67.6109 237.759 68.7808 239.202 68.7808Z" fill="#9575CD"/>
<path d="M221.741 79.6728C223.185 79.6728 224.354 78.503 224.354 77.0598C224.354 75.6167 223.185 74.4468 221.741 74.4468C220.298 74.4468 219.128 75.6167 219.128 77.0598C219.128 78.503 220.298 79.6728 221.741 79.6728Z" fill="#9575CD"/>
<path d="M210.496 99.564C211.939 99.564 213.109 98.3941 213.109 96.9509C213.109 95.5078 211.939 94.3379 210.496 94.3379C209.053 94.3379 207.883 95.5078 207.883 96.9509C207.883 98.3941 209.053 99.564 210.496 99.564Z" fill="#9575CD"/>
<path d="M221.632 100.211C223.075 100.211 224.245 99.041 224.245 97.5979C224.245 96.1548 223.075 94.9849 221.632 94.9849C220.188 94.9849 219.019 96.1548 219.019 97.5979C219.019 99.041 220.188 100.211 221.632 100.211Z" fill="#9575CD"/>
<path d="M309.241 24.8237C310.685 24.8237 311.854 23.6538 311.854 22.2107C311.854 20.7676 310.685 19.5977 309.241 19.5977C307.798 19.5977 306.628 20.7676 306.628 22.2107C306.628 23.6538 307.798 24.8237 309.241 24.8237Z" fill="#9575CD"/>
<path d="M300.096 42.6875C301.539 42.6875 302.709 41.5176 302.709 40.0745C302.709 38.6313 301.539 37.4614 300.096 37.4614C298.653 37.4614 297.483 38.6313 297.483 40.0745C297.483 41.5176 298.653 42.6875 300.096 42.6875Z" fill="#9575CD"/>
<path d="M281.536 77.4995C282.98 77.4995 284.149 76.3296 284.149 74.8865C284.149 73.4433 282.98 72.2734 281.536 72.2734C280.093 72.2734 278.923 73.4433 278.923 74.8865C278.923 76.3296 280.093 77.4995 281.536 77.4995Z" fill="#9575CD"/>
<path d="M272.244 47.584C273.687 47.584 274.857 46.4141 274.857 44.9709C274.857 43.5278 273.687 42.3579 272.244 42.3579C270.801 42.3579 269.631 43.5278 269.631 44.9709C269.631 46.4141 270.801 47.584 272.244 47.584Z" fill="#9575CD"/>
<path d="M191.875 67.0845C193.318 67.0845 194.488 65.9146 194.488 64.4714C194.488 63.0283 193.318 61.8584 191.875 61.8584C190.432 61.8584 189.262 63.0283 189.262 64.4714C189.262 65.9146 190.432 67.0845 191.875 67.0845Z" fill="#9575CD"/>
<path d="M281.45 75.7298L300.706 39.6479L271.829 44.7275L281.45 75.7298ZM299.497 40.5149L281.609 74.0448L272.659 45.2403L299.497 40.5149Z" fill="#9575CD"/>
<path d="M221.498 114.937L222.071 77.0597H221.412L220.887 112.629L192.144 64.312L191.594 64.6417L221.498 114.937Z" fill="#9575CD"/>
<path d="M269.839 98.9045L214.293 38.9146L213.817 39.3541L268.312 98.2329L174.5 96.438L174.487 97.0851L269.839 98.9045Z" fill="#9575CD"/>
<path d="M297.556 138.577C297.642 138.552 297.715 138.491 297.752 138.418L318.656 97.2931C318.741 97.1343 318.668 96.9389 318.509 96.8535C318.351 96.768 318.155 96.8413 318.07 97L297.568 137.356L282.037 75.5829L318.07 96.5848C318.192 96.6581 318.351 96.6337 318.461 96.536C318.57 96.4383 318.595 96.2796 318.522 96.1453L309.522 79.2094L309.559 22.2232C309.559 22.0401 309.413 21.8936 309.229 21.8936C309.046 21.8936 308.9 22.0401 308.9 22.2232L308.863 79.2826C308.863 79.3315 308.875 79.3925 308.9 79.4414L317.398 95.4371L281.695 74.606C281.585 74.545 281.438 74.545 281.329 74.6305C281.219 74.7037 281.182 74.838 281.206 74.9724L297.141 138.345C297.178 138.479 297.288 138.577 297.422 138.589C297.471 138.589 297.52 138.589 297.556 138.577Z" fill="#9575CD"/>
<path d="M324.639 141.092C324.664 141.08 324.7 141.067 324.725 141.055C324.871 140.958 324.92 140.75 324.822 140.603L281.805 74.7159C281.707 74.5694 281.5 74.5205 281.353 74.6182C281.207 74.7159 281.158 74.9235 281.255 75.07L324.273 140.958C324.358 141.08 324.505 141.128 324.639 141.092Z" fill="#9575CD"/>
<path d="M20.6972 205.026H13.896V225.417H20.6972V205.026Z" fill="#7E57C2"/>
<path d="M20.6966 203.669H13.8954C13.1384 203.669 12.5278 204.28 12.5278 205.037V225.428C12.5278 225.599 12.5645 225.77 12.6255 225.929C12.8209 226.442 13.3093 226.796 13.8954 226.796H20.6966C21.1972 226.796 21.6368 226.515 21.8688 226.112C21.9909 225.905 22.052 225.673 22.052 225.428V205.037C22.052 204.28 21.4415 203.669 20.6966 203.669ZM19.329 224.073H15.2508V206.392H19.329V224.073Z" fill="black"/>
<path d="M370.844 205.026H364.043V225.417H370.844V205.026Z" fill="#7E57C2"/>
<path d="M370.844 203.669H364.042C363.285 203.669 362.687 204.28 362.687 205.037V225.428C362.687 225.673 362.748 225.905 362.87 226.112C363.102 226.515 363.53 226.796 364.042 226.796H370.844C371.124 226.796 371.381 226.711 371.601 226.564H371.613C371.967 226.308 372.199 225.892 372.199 225.428V205.037C372.199 204.28 371.588 203.669 370.844 203.669ZM369.476 224.073H365.398V206.392H369.476V224.073Z" fill="black"/>
<path d="M17.2906 209.446C12.4064 209.446 8.4502 205.49 8.4502 200.606C8.4502 195.722 12.4064 191.766 17.2906 191.766C22.1747 191.766 26.1309 195.722 26.1309 200.606C26.1309 205.49 22.1747 209.446 17.2906 209.446Z" fill="#673AB7"/>
<path d="M17.29 190.421C11.6732 190.421 7.09424 194.988 7.09424 200.617C7.09424 204.512 9.30433 207.919 12.5279 209.628C12.9675 209.86 13.4192 210.068 13.8955 210.227C14.335 210.385 14.7868 210.508 15.2508 210.605C15.9102 210.74 16.594 210.813 17.29 210.813C17.986 210.813 18.6697 210.74 19.3291 210.605C19.8053 210.508 20.2571 210.385 20.6967 210.227C21.1729 210.056 21.6247 209.86 22.052 209.628C25.2878 207.919 27.4857 204.512 27.4857 200.617C27.4857 194.988 22.919 190.421 17.29 190.421ZM22.052 206.38C21.6369 206.722 21.1851 207.028 20.6967 207.26C20.2693 207.492 19.8053 207.675 19.3291 207.809C18.682 207.992 17.9982 208.09 17.29 208.09C16.5818 208.09 15.898 207.992 15.2508 207.809C14.7746 207.675 14.3228 207.492 13.8955 207.272C13.407 207.028 12.943 206.722 12.5279 206.38C10.8673 205.001 9.81717 202.937 9.81717 200.617C9.81717 196.49 13.1628 193.132 17.29 193.132C21.4171 193.132 24.775 196.49 24.775 200.617C24.775 202.937 23.7127 205.001 22.052 206.38Z" fill="black"/>
<path d="M367.45 209.788C362.566 209.788 358.609 205.831 358.609 200.947C358.609 196.063 362.566 192.107 367.45 192.107C372.334 192.107 376.29 196.063 376.29 200.947C376.278 205.831 372.322 209.788 367.45 209.788Z" fill="#673AB7"/>
<path d="M367.437 190.751C361.82 190.751 357.241 195.33 357.241 200.959C357.241 204.866 359.451 208.273 362.687 209.982C363.127 210.202 363.578 210.41 364.042 210.569C364.482 210.727 364.934 210.849 365.398 210.947C366.057 211.081 366.741 211.155 367.437 211.155C368.133 211.155 368.817 211.081 369.476 210.947C369.952 210.849 370.404 210.727 370.844 210.569C371.32 210.398 371.772 210.202 372.199 209.97C375.435 208.261 377.645 204.854 377.645 200.959C377.645 195.33 373.066 190.751 367.437 190.751ZM372.199 206.71C371.784 207.052 371.332 207.357 370.844 207.601C370.416 207.833 369.952 208.017 369.476 208.139C368.829 208.334 368.145 208.432 367.437 208.432C366.729 208.432 366.045 208.334 365.398 208.139C364.922 208.017 364.47 207.833 364.042 207.601C363.554 207.357 363.102 207.064 362.687 206.722C361.026 205.355 359.964 203.279 359.964 200.959C359.964 196.832 363.322 193.474 367.437 193.474C371.564 193.474 374.922 196.832 374.922 200.959C374.922 203.267 373.86 205.342 372.199 206.71Z" fill="black"/>
<path d="M275.48 241.743H369.147C373.836 241.743 377.645 237.933 377.645 233.244C377.645 228.555 373.836 224.746 369.147 224.746H16.9487C12.2599 224.746 8.4502 228.555 8.4502 233.244C8.4502 237.933 12.2599 241.743 16.9487 241.743H260.694H275.48Z" fill="#673AB7"/>
<path d="M379 233.256C379 238.69 374.58 243.11 369.146 243.11H275.48C274.735 243.11 274.124 242.499 274.124 241.755C274.124 240.998 274.735 240.387 275.48 240.387H369.146C373.078 240.387 376.277 237.188 376.277 233.256C376.277 230.179 374.336 227.554 371.613 226.565H371.6C370.831 226.272 370.013 226.113 369.146 226.113H16.9481C15.8735 226.113 14.8479 226.357 13.9321 226.797C11.5022 227.92 9.81717 230.399 9.81717 233.256C9.81717 237.188 13.0163 240.387 16.9481 240.387H260.693C261.45 240.387 262.061 240.998 262.061 241.755C262.061 242.499 261.45 243.11 260.693 243.11H16.9481C11.5144 243.11 7.09424 238.69 7.09424 233.256C7.09424 229.398 9.30433 226.064 12.5279 224.44C12.9675 224.22 13.4192 224.025 13.8955 223.879C14.335 223.732 14.7868 223.622 15.2508 223.537C15.8003 223.439 16.3742 223.39 16.9481 223.39H369.146C369.256 223.39 369.366 223.39 369.476 223.402C369.94 223.415 370.392 223.463 370.843 223.537C371.307 223.622 371.759 223.732 372.199 223.879C372.699 224.037 373.176 224.233 373.627 224.477C376.814 226.101 379 229.422 379 233.256Z" fill="black"/>
<path d="M270.034 243.097H267.384C266.627 243.097 266.029 242.486 266.029 241.742C266.029 240.997 266.639 240.386 267.384 240.386H270.034C270.791 240.386 271.389 240.997 271.389 241.742C271.389 242.486 270.779 243.097 270.034 243.097Z" fill="black"/>
<path d="M257.299 149.614C261.993 149.614 265.798 145.809 265.798 141.116C265.798 136.422 261.993 132.617 257.299 132.617C252.606 132.617 248.801 136.422 248.801 141.116C248.801 145.809 252.606 149.614 257.299 149.614Z" fill="#BDBDBD"/>
<path d="M257.299 131.262C251.865 131.262 247.445 135.682 247.445 141.128C247.445 141.286 247.445 141.433 247.457 141.58C247.481 142.044 247.53 142.483 247.604 142.923C247.689 143.387 247.811 143.838 247.958 144.266C249.276 148.173 252.964 150.982 257.299 150.982C261.621 150.982 265.297 148.185 266.627 144.302C266.774 143.875 266.884 143.448 266.982 142.996C267.055 142.556 267.116 142.105 267.14 141.641C267.152 141.47 267.152 141.299 267.152 141.128C267.152 135.682 262.732 131.262 257.299 131.262ZM264.43 141.409C264.417 141.873 264.356 142.312 264.246 142.752C264.149 143.216 263.99 143.655 263.795 144.07C262.671 146.537 260.18 148.259 257.299 148.259C254.405 148.259 251.902 146.525 250.778 144.034C250.595 143.619 250.436 143.179 250.339 142.715C250.241 142.276 250.18 141.836 250.168 141.372C250.156 141.286 250.156 141.213 250.156 141.128C250.156 137.184 253.367 133.985 257.299 133.985C261.23 133.985 264.442 137.184 264.442 141.128C264.442 141.225 264.442 141.311 264.43 141.409Z" fill="black"/>
<path d="M339.561 218.97V224.074H174.354V218.97C174.354 216.271 174.488 213.634 174.732 211.045C176.442 193.572 183.743 178.602 194.879 167.148L201.29 161.275C215.967 149.309 235.516 142.483 256.957 142.483C279.766 142.483 300.414 150.2 315.36 163.62C328.547 175.452 337.302 191.716 339.17 211.045C339.426 213.634 339.561 216.271 339.561 218.97Z" fill="#E0E0E0"/>
<path d="M339.572 225.428H174.353C173.596 225.428 172.998 224.818 172.998 224.073V218.969C172.998 198.529 180.226 180.274 193.914 166.195C194.439 165.658 195.294 165.646 195.831 166.171C196.368 166.696 196.381 167.551 195.856 168.088C182.68 181.654 175.708 199.249 175.708 218.969V222.705H338.205V218.969C338.205 175.439 304.04 143.838 256.957 143.838C236.235 143.838 216.772 150.407 202.144 162.325C201.558 162.801 200.703 162.716 200.227 162.129C199.751 161.543 199.836 160.689 200.422 160.212C215.527 147.892 235.601 141.115 256.957 141.115C279.778 141.115 300.841 148.747 316.275 162.593C332.173 176.855 340.928 196.88 340.928 218.957V224.061C340.928 224.818 340.317 225.428 339.572 225.428Z" fill="black"/>
<path opacity="0.2" d="M339.56 221.35V224.06H174.353V221.35C174.353 219.921 174.487 218.517 174.732 217.137L338.706 211.032C338.962 212.412 339.56 219.921 339.56 221.35Z" fill="#212121"/>
<path d="M197.626 165.805C197.26 165.805 196.894 165.659 196.625 165.365C196.112 164.816 196.149 163.961 196.698 163.448C197.052 163.119 197.419 162.789 197.785 162.459C198.347 161.959 199.201 162.008 199.702 162.569C200.203 163.131 200.154 163.986 199.592 164.486C199.238 164.804 198.896 165.121 198.542 165.439C198.298 165.695 197.956 165.805 197.626 165.805Z" fill="black"/>
<path d="M319.315 208.176C318.973 206.796 318.497 205.331 317.972 203.939C317.447 202.535 316.849 201.167 316.189 199.836C314.871 197.186 313.332 194.671 311.549 192.424C309.779 190.165 307.776 188.163 305.591 186.515C303.417 184.842 301.036 183.547 298.594 182.571C295.981 181.52 294.711 178.566 295.761 175.953C296.811 173.339 299.766 172.07 302.379 173.12C302.697 173.242 302.99 173.401 303.258 173.571L303.332 173.62C306.323 175.586 309.046 177.894 311.317 180.531C313.613 183.144 315.493 186.026 317.007 189.005C318.522 191.997 319.657 195.098 320.5 198.249C320.915 199.824 321.257 201.411 321.513 202.999C321.77 204.61 321.965 206.161 322.038 207.846C322.075 208.603 321.489 209.238 320.744 209.263C320.084 209.287 319.511 208.847 319.364 208.237L319.315 208.176Z" fill="white"/>
<path d="M285.993 177.43C289.371 177.43 292.11 174.691 292.11 171.312C292.11 167.934 289.371 165.195 285.993 165.195C282.614 165.195 279.875 167.934 279.875 171.312C279.875 174.691 282.614 177.43 285.993 177.43Z" fill="white"/>
<path d="M107.037 127.366V160.163C107.037 169.932 99.1244 177.844 89.356 177.844C79.5877 177.844 71.6753 169.932 71.6753 160.163V108.477H107.025V117.268V127.366H107.037Z" fill="#E0F7FA"/>
<path d="M89.3686 179.139C78.9042 179.139 70.3813 170.616 70.3813 160.152V108.477C70.3813 107.757 70.9674 107.17 71.6879 107.17H107.037C107.758 107.17 108.344 107.757 108.344 108.477V117.268C108.344 117.989 107.758 118.575 107.037 118.575C106.317 118.575 105.731 117.989 105.731 117.268V109.796H72.9944V160.164C72.9944 169.187 80.3329 176.526 89.3564 176.526C98.3799 176.526 105.718 169.187 105.718 160.164V127.366C105.718 126.646 106.304 126.06 107.025 126.06C107.745 126.06 108.331 126.646 108.331 127.366V160.164C108.356 170.628 99.8329 179.139 89.3686 179.139Z" fill="black"/>
<path d="M107.037 124.643C106.317 124.643 105.73 124.057 105.73 123.337V121.554C105.73 120.834 106.317 120.248 107.037 120.248C107.757 120.248 108.344 120.834 108.344 121.554V123.337C108.356 124.057 107.77 124.643 107.037 124.643Z" fill="black"/>
<path d="M89.368 173.547C81.8953 173.547 75.8267 167.49 75.8267 160.005V141.519L102.897 136.366V160.017C102.897 167.478 96.8408 173.547 89.368 173.547Z" fill="#D62828"/>
<path d="M87.3296 194.988V177.832H91.4079V219.311H87.3296V204.5V194.988Z" fill="#E0F7FA"/>
<path d="M91.4073 220.678H87.329C86.5719 220.678 85.9614 220.068 85.9614 219.311V204.512C85.9614 203.755 86.5719 203.144 87.329 203.144C88.086 203.144 88.6966 203.755 88.6966 204.512V217.943H90.0397V179.212H88.6966V195C88.6966 195.757 88.086 196.367 87.329 196.367C86.5719 196.367 85.9614 195.757 85.9614 195V177.844C85.9614 177.087 86.5719 176.477 87.329 176.477H91.4073C92.1643 176.477 92.7749 177.087 92.7749 177.844V219.323C92.7749 220.068 92.1643 220.678 91.4073 220.678Z" fill="black"/>
<path d="M70.748 224.306H107.965L96.854 220.753C91.7989 219.129 86.353 219.154 81.3101 220.826L70.748 224.306Z" fill="#E0F7FA"/>
<path d="M108.978 223.39C108.82 223.219 108.624 223.085 108.392 223.011L97.2806 219.458C95.791 218.982 94.2891 218.64 92.775 218.445C92.3232 218.371 91.8592 218.322 91.3952 218.286C90.0398 218.164 88.6723 218.164 87.3169 218.261C86.8651 218.286 86.4133 218.335 85.9494 218.396C84.2521 218.603 82.5548 218.982 80.8942 219.531L70.32 223.023C70.088 223.097 69.8926 223.231 69.7461 223.39C69.4775 223.695 69.3431 224.098 69.4042 224.525C69.4164 224.599 69.4408 224.672 69.4653 224.745C69.6484 225.282 70.1612 225.673 70.7473 225.673H107.977C108.563 225.673 109.076 225.282 109.271 224.745C109.284 224.672 109.308 224.599 109.32 224.525C109.381 224.098 109.247 223.683 108.978 223.39ZM96.4503 222.047L99.2587 222.95H79.2092L81.749 222.12C86.5477 220.533 91.6272 220.508 96.4503 222.047Z" fill="black"/>
<path d="M87.329 202.106C86.5719 202.106 85.9614 201.496 85.9614 200.739V198.59C85.9614 197.833 86.5719 197.222 87.329 197.222C88.086 197.222 88.6966 197.833 88.6966 198.59V200.739C88.6966 201.496 88.086 202.106 87.329 202.106Z" fill="black"/>
<g opacity="0.24">
<g opacity="0.24">
<path opacity="0.24" d="M98.9775 155.414C98.8676 155.866 98.7089 156.342 98.5379 156.781C98.367 157.233 98.1716 157.685 97.9641 158.112C97.5367 158.979 97.0361 159.785 96.4622 160.518C95.8883 161.25 95.2411 161.898 94.5329 162.435C93.8247 162.984 93.0554 163.4 92.2618 163.717C91.4192 164.059 91.0041 165.011 91.346 165.866C91.6879 166.709 92.6403 167.124 93.495 166.782C93.5927 166.745 93.6904 166.696 93.7759 166.635L93.8003 166.623C94.7649 165.988 95.6563 165.231 96.3889 164.376C97.1337 163.534 97.7443 162.594 98.2327 161.629C98.7211 160.664 99.0874 159.651 99.3682 158.637C99.5026 158.125 99.6125 157.612 99.6979 157.099C99.7834 156.574 99.8445 156.073 99.8689 155.524C99.8811 155.28 99.6857 155.072 99.4415 155.06C99.2339 155.048 99.0386 155.194 98.9897 155.389L98.9775 155.414Z" fill="white"/>
</g>
<g opacity="0.24">
<path opacity="0.24" d="M88.1715 169.371C89.2707 169.371 90.1618 168.48 90.1618 167.38C90.1618 166.281 89.2707 165.39 88.1715 165.39C87.0722 165.39 86.1812 166.281 86.1812 167.38C86.1812 168.48 87.0722 169.371 88.1715 169.371Z" fill="white"/>
</g>
</g>
<path d="M157.356 127.366V160.163C157.356 169.932 149.444 177.844 139.675 177.844C129.907 177.844 121.995 169.932 121.995 160.163V108.477H157.344V117.268V127.366H157.356Z" fill="#E0F7FA"/>
<path d="M139.676 179.139C129.211 179.139 120.688 170.616 120.688 160.152V108.477C120.688 107.757 121.275 107.17 121.995 107.17H157.344C158.065 107.17 158.651 107.757 158.651 108.477V117.268C158.651 117.989 158.065 118.575 157.344 118.575C156.624 118.575 156.038 117.989 156.038 117.268V109.796H123.302V160.164C123.302 169.187 130.64 176.526 139.664 176.526C148.687 176.526 156.026 169.187 156.026 160.164V127.366C156.026 126.646 156.612 126.06 157.332 126.06C158.052 126.06 158.639 126.646 158.639 127.366V160.164C158.663 170.628 150.152 179.139 139.676 179.139Z" fill="black"/>
<path d="M157.356 124.643C156.635 124.643 156.049 124.057 156.049 123.337V121.554C156.049 120.834 156.635 120.248 157.356 120.248C158.076 120.248 158.662 120.834 158.662 121.554V123.337C158.662 124.057 158.076 124.643 157.356 124.643Z" fill="black"/>
<path d="M139.675 173.547C132.202 173.547 126.134 167.49 126.134 160.005V141.519L153.204 136.366V160.017C153.217 167.478 147.148 173.547 139.675 173.547Z" fill="#D62828"/>
<path d="M137.637 194.988V177.832H141.715V219.311H137.637V204.5V194.988Z" fill="#E0F7FA"/>
<path d="M141.714 220.678H137.636C136.879 220.678 136.269 220.068 136.269 219.311V204.512C136.269 203.755 136.879 203.144 137.636 203.144C138.393 203.144 139.004 203.755 139.004 204.512V217.943H140.347V179.212H139.004V195C139.004 195.757 138.393 196.367 137.636 196.367C136.879 196.367 136.269 195.757 136.269 195V177.844C136.269 177.087 136.879 176.477 137.636 176.477H141.714C142.471 176.477 143.082 177.087 143.082 177.844V219.323C143.082 220.068 142.471 220.678 141.714 220.678Z" fill="black"/>
<path d="M121.067 224.306H158.285L147.173 220.753C142.118 219.129 136.672 219.154 131.629 220.826L121.067 224.306Z" fill="#E0F7FA"/>
<path d="M159.285 223.39C159.126 223.219 158.931 223.085 158.699 223.011L147.588 219.458C146.11 218.982 144.596 218.64 143.082 218.445C142.63 218.371 142.178 218.322 141.714 218.286C140.359 218.164 138.991 218.164 137.636 218.261C137.172 218.286 136.72 218.335 136.269 218.396C134.559 218.603 132.862 218.982 131.201 219.531L120.639 223.023C120.419 223.097 120.212 223.231 120.065 223.39C119.784 223.683 119.65 224.098 119.723 224.525C119.736 224.599 119.748 224.672 119.784 224.745C119.955 225.282 120.468 225.673 121.067 225.673H158.284C158.882 225.673 159.395 225.282 159.578 224.745C159.603 224.672 159.615 224.599 159.627 224.525C159.7 224.098 159.566 223.683 159.285 223.39ZM146.769 222.047L149.578 222.95H129.528L132.056 222.12C136.867 220.533 141.946 220.508 146.769 222.047Z" fill="black"/>
<path d="M137.636 202.106C136.879 202.106 136.269 201.496 136.269 200.739V198.59C136.269 197.833 136.879 197.222 137.636 197.222C138.393 197.222 139.004 197.833 139.004 198.59V200.739C139.004 201.496 138.393 202.106 137.636 202.106Z" fill="black"/>
<g opacity="0.24">
<g opacity="0.24">
<path opacity="0.24" d="M149.504 155.097C149.394 155.549 149.236 156.025 149.065 156.465C148.894 156.916 148.698 157.368 148.491 157.796C148.064 158.662 147.563 159.468 146.989 160.201C146.415 160.934 145.768 161.581 145.06 162.118C144.352 162.667 143.582 163.083 142.789 163.4C141.946 163.742 141.531 164.694 141.873 165.549C142.215 166.392 143.167 166.807 144.022 166.465C144.12 166.428 144.217 166.379 144.303 166.318L144.327 166.306C145.292 165.671 146.183 164.914 146.916 164.059C147.661 163.217 148.271 162.277 148.76 161.312C149.248 160.347 149.614 159.334 149.895 158.321C150.029 157.808 150.139 157.295 150.225 156.782C150.31 156.257 150.371 155.756 150.396 155.207C150.408 154.963 150.213 154.755 149.968 154.743C149.761 154.731 149.565 154.877 149.517 155.073L149.504 155.097Z" fill="white"/>
</g>
<g opacity="0.24">
<path opacity="0.24" d="M138.686 169.054C139.785 169.054 140.676 168.163 140.676 167.064C140.676 165.964 139.785 165.073 138.686 165.073C137.587 165.073 136.696 165.964 136.696 167.064C136.696 168.163 137.587 169.054 138.686 169.054Z" fill="white"/>
</g>
</g>
<path opacity="0.2" d="M379 233.256C379 238.69 374.58 243.11 369.146 243.11H278.875L303.295 224.477H373.628C376.814 226.101 379 229.422 379 233.256Z" fill="#212121"/>
</g>
<defs>
<clipPath id="clip0">
<rect width="379" height="347.815" fill="white"/>
</clipPath>
</defs>
</svg>
