<svg width="384" height="372" viewBox="0 0 384 372" fill="none" xmlns="http://www.w3.org/2000/svg">
<g clip-path="url(#clip0)">
<path d="M204.11 314.409C277.312 314.409 336.654 255.067 336.654 181.865C336.654 108.663 277.312 49.321 204.11 49.321C130.908 49.321 71.5659 108.663 71.5659 181.865C71.5659 255.067 130.908 314.409 204.11 314.409Z" fill="#FFF8E1"/>
<path d="M268.826 267.174C268.826 267.197 268.814 267.233 268.814 267.257C268.814 267.364 268.874 267.46 268.957 267.531C268.969 267.567 268.981 267.614 269.005 267.65L319.601 345.511C319.709 345.666 319.911 345.713 320.078 345.618L356.673 323.311C356.78 323.251 356.839 323.132 356.839 323.013C356.839 322.894 356.78 322.775 356.673 322.715L269.768 267.221L342.492 213.503C342.647 213.396 342.683 213.181 342.576 213.026L296.222 141.696C296.15 141.577 296.007 141.517 295.864 141.541C295.721 141.565 295.614 141.672 295.59 141.815L269.053 266.876L268.946 266.959C268.898 267.019 268.85 267.09 268.826 267.174ZM269.923 266.268L296.126 142.804L341.837 213.146L269.923 266.268ZM320.018 344.843L270.352 268.413L355.85 323.013L320.018 344.843Z" fill="#FFECB3"/>
<path d="M313.107 234.463C313.095 234.499 313.095 234.523 313.095 234.559L317.969 298.656C317.981 298.799 318.088 298.93 318.231 298.966C318.374 299.002 318.529 298.954 318.612 298.823L354.254 247.488C354.313 247.392 354.337 247.285 354.301 247.178C354.266 247.071 354.182 246.987 354.075 246.952L313.572 234.201C313.465 234.165 313.345 234.189 313.25 234.261C313.167 234.32 313.131 234.392 313.107 234.463ZM318.6 297.631L313.846 235.035L353.408 247.488L318.6 297.631Z" fill="#FFECB3"/>
<path d="M266.062 315.636C266.05 315.696 266.05 315.756 266.074 315.815C266.11 315.922 266.193 316.006 266.312 316.042L308.639 328.458C308.782 328.494 308.937 328.446 309.02 328.327C309.103 328.208 309.115 328.053 309.032 327.922L285.271 291.363C285.211 291.268 285.104 291.208 284.997 291.208C284.878 291.208 284.77 291.256 284.711 291.339L266.145 315.493C266.098 315.541 266.074 315.589 266.062 315.636ZM307.924 327.517L267.003 315.517L284.949 292.162L307.924 327.517Z" fill="#FFECB3"/>
<path d="M200.475 297.416C200.463 297.476 200.463 297.536 200.487 297.595C200.523 297.691 200.594 297.774 200.69 297.81L245.685 315.231C245.852 315.291 246.043 315.219 246.126 315.064L269.756 267.817C269.815 267.697 269.804 267.566 269.732 267.459C269.661 267.352 269.541 267.292 269.41 267.304L216.741 272.595C216.633 272.607 216.538 272.667 216.479 272.75L200.535 297.285C200.499 297.333 200.487 297.381 200.475 297.416ZM245.638 314.48L201.345 297.321L216.967 273.286L268.838 268.079L245.638 314.48Z" fill="#FFECB3"/>
<path d="M356.506 325.813C358.052 325.813 359.306 324.559 359.306 323.013C359.306 321.466 358.052 320.212 356.506 320.212C354.959 320.212 353.706 321.466 353.706 323.013C353.706 324.559 354.959 325.813 356.506 325.813Z" fill="#FFECB3"/>
<path d="M266.479 318.163C268.026 318.163 269.279 316.909 269.279 315.362C269.279 313.816 268.026 312.562 266.479 312.562C264.932 312.562 263.679 313.816 263.679 315.362C263.679 316.909 264.932 318.163 266.479 318.163Z" fill="#FFECB3"/>
<path d="M269.446 270.462C270.993 270.462 272.247 269.208 272.247 267.662C272.247 266.115 270.993 264.861 269.446 264.861C267.9 264.861 266.646 266.115 266.646 267.662C266.646 269.208 267.9 270.462 269.446 270.462Z" fill="#FFECB3"/>
<path d="M320.948 182.949C322.495 182.949 323.749 181.696 323.749 180.149C323.749 178.603 322.495 177.349 320.948 177.349C319.402 177.349 318.148 178.603 318.148 180.149C318.148 181.696 319.402 182.949 320.948 182.949Z" fill="#FFECB3"/>
<path d="M280.29 217.638C281.837 217.638 283.09 216.384 283.09 214.837C283.09 213.291 281.837 212.037 280.29 212.037C278.743 212.037 277.49 213.291 277.49 214.837C277.49 216.384 278.743 217.638 280.29 217.638Z" fill="#FFECB3"/>
<path d="M217.384 276.242C218.931 276.242 220.185 274.988 220.185 273.441C220.185 271.895 218.931 270.641 217.384 270.641C215.838 270.641 214.584 271.895 214.584 273.441C214.584 274.988 215.838 276.242 217.384 276.242Z" fill="#FFECB3"/>
<path d="M200.821 300.288C202.367 300.288 203.621 299.035 203.621 297.488C203.621 295.941 202.367 294.688 200.821 294.688C199.274 294.688 198.021 295.941 198.021 297.488C198.021 299.035 199.274 300.288 200.821 300.288Z" fill="#FFECB3"/>
<path d="M232.363 298.394C233.909 298.394 235.163 297.14 235.163 295.594C235.163 294.047 233.909 292.793 232.363 292.793C230.816 292.793 229.562 294.047 229.562 295.594C229.562 297.14 230.816 298.394 232.363 298.394Z" fill="#FFECB3"/>
<path d="M261.057 288.014C262.604 288.014 263.857 286.761 263.857 285.214C263.857 283.668 262.604 282.414 261.057 282.414C259.511 282.414 258.257 283.668 258.257 285.214C258.257 286.761 259.511 288.014 261.057 288.014Z" fill="#FFECB3"/>
<path d="M256.362 296.689C257.909 296.689 259.163 295.436 259.163 293.889C259.163 292.343 257.909 291.089 256.362 291.089C254.816 291.089 253.562 292.343 253.562 293.889C253.562 295.436 254.816 296.689 256.362 296.689Z" fill="#FFECB3"/>
<path d="M245.804 317.722C247.351 317.722 248.605 316.468 248.605 314.921C248.605 313.375 247.351 312.121 245.804 312.121C244.258 312.121 243.004 313.375 243.004 314.921C243.004 316.468 244.258 317.722 245.804 317.722Z" fill="#FFECB3"/>
<path d="M296.4 145.151C297.947 145.151 299.201 143.898 299.201 142.351C299.201 140.805 297.947 139.551 296.4 139.551C294.854 139.551 293.6 140.805 293.6 142.351C293.6 143.898 294.854 145.151 296.4 145.151Z" fill="#FFECB3"/>
<path d="M353.956 250.097C355.503 250.097 356.756 248.844 356.756 247.297C356.756 245.751 355.503 244.497 353.956 244.497C352.41 244.497 351.156 245.751 351.156 247.297C351.156 248.844 352.41 250.097 353.956 250.097Z" fill="#FFECB3"/>
<path d="M315.455 259.463C317.001 259.463 318.255 258.21 318.255 256.663C318.255 255.117 317.001 253.863 315.455 253.863C313.908 253.863 312.654 255.117 312.654 256.663C312.654 258.21 313.908 259.463 315.455 259.463Z" fill="#FFECB3"/>
<path d="M314.406 237.407C315.952 237.407 317.206 236.153 317.206 234.606C317.206 233.06 315.952 231.806 314.406 231.806C312.859 231.806 311.605 233.06 311.605 234.606C311.605 236.153 312.859 237.407 314.406 237.407Z" fill="#FFECB3"/>
<path d="M301.667 216.446C303.214 216.446 304.468 215.193 304.468 213.646C304.468 212.099 303.214 210.846 301.667 210.846C300.121 210.846 298.867 212.099 298.867 213.646C298.867 215.193 300.121 216.446 301.667 216.446Z" fill="#FFECB3"/>
<path d="M295.233 226.539C296.779 226.539 298.033 225.285 298.033 223.739C298.033 222.192 296.779 220.938 295.233 220.938C293.686 220.938 292.433 222.192 292.433 223.739C292.433 225.285 293.686 226.539 295.233 226.539Z" fill="#FFECB3"/>
<path d="M319.911 348.12C321.458 348.12 322.711 346.866 322.711 345.32C322.711 343.773 321.458 342.52 319.911 342.52C318.365 342.52 317.111 343.773 317.111 345.32C317.111 346.866 318.365 348.12 319.911 348.12Z" fill="#FFECB3"/>
<path d="M307.959 330.198C309.506 330.198 310.76 328.945 310.76 327.398C310.76 325.851 309.506 324.598 307.959 324.598C306.413 324.598 305.159 325.851 305.159 327.398C305.159 328.945 306.413 330.198 307.959 330.198Z" fill="#FFECB3"/>
<path d="M285.092 294.557C286.639 294.557 287.893 293.303 287.893 291.756C287.893 290.21 286.639 288.956 285.092 288.956C283.546 288.956 282.292 290.21 282.292 291.756C282.292 293.303 283.546 294.557 285.092 294.557Z" fill="#FFECB3"/>
<path d="M317.981 301.528C319.528 301.528 320.781 300.274 320.781 298.728C320.781 297.181 319.528 295.927 317.981 295.927C316.434 295.927 315.181 297.181 315.181 298.728C315.181 300.274 316.434 301.528 317.981 301.528Z" fill="#FFECB3"/>
<path d="M341.861 216.029C343.407 216.029 344.661 214.775 344.661 213.229C344.661 211.682 343.407 210.428 341.861 210.428C340.314 210.428 339.061 211.682 339.061 213.229C339.061 214.775 340.314 216.029 341.861 216.029Z" fill="#FFECB3"/>
<path d="M284.342 291.232L308.043 328.184L318.434 298.465L284.342 291.232ZM307.864 326.599L285.843 292.269L317.517 298.99L307.864 326.599Z" fill="#FFECB3"/>
<path d="M279.051 214.516L314.227 234.904L314.585 234.308L281.541 215.159L341.861 213.574L341.849 212.871L279.051 214.516Z" fill="#FFECB3"/>
<path d="M268.719 268.198L354.039 247.643L353.872 246.951L270.161 267.137L321.031 180.197L320.424 179.851L268.719 268.198Z" fill="#FFECB3"/>
<path d="M217.039 273.37C217.015 273.465 217.039 273.561 217.086 273.632L244.648 314.779C244.756 314.934 244.97 314.981 245.137 314.874C245.292 314.767 245.34 314.552 245.232 314.386L218.195 274.025L284.198 291.876L245.626 314.624C245.495 314.707 245.423 314.862 245.459 315.017C245.495 315.172 245.638 315.279 245.792 315.279L266.372 315.732L319.721 345.642C319.887 345.737 320.102 345.677 320.197 345.511C320.293 345.344 320.233 345.129 320.066 345.034L266.646 315.065C266.598 315.041 266.539 315.017 266.479 315.017L247.044 314.6L285.271 292.055C285.39 291.983 285.461 291.84 285.438 291.709C285.414 291.566 285.318 291.459 285.187 291.423L217.468 273.108C217.325 273.072 217.182 273.12 217.086 273.239C217.062 273.275 217.051 273.322 217.039 273.37Z" fill="#FFECB3"/>
<path d="M200.475 297.417C200.463 297.452 200.463 297.476 200.463 297.512C200.475 297.703 200.642 297.846 200.833 297.834L285.104 292.09C285.295 292.078 285.438 291.911 285.426 291.721C285.414 291.53 285.247 291.387 285.056 291.399L200.785 297.143C200.63 297.154 200.511 297.274 200.475 297.417Z" fill="#FFECB3"/>
<path d="M105.61 147.844C105.598 147.868 105.574 147.892 105.563 147.916C105.491 147.987 105.384 148.035 105.277 148.011C105.241 148.035 105.205 148.059 105.157 148.059L14.5943 170.616C14.4036 170.664 14.2249 170.557 14.1653 170.366L2.54701 128.886C2.51126 128.767 2.54701 128.647 2.63042 128.552C2.71383 128.457 2.833 128.421 2.95216 128.445L104.86 147.201L88.2245 57.9009C88.1888 57.7222 88.3079 57.5435 88.4867 57.4958L171.435 36.8212C171.578 36.7854 171.721 36.8331 171.805 36.9523C171.888 37.0714 171.9 37.2263 171.829 37.3455L105.634 147.463L105.658 147.594C105.67 147.69 105.658 147.773 105.61 147.844ZM105.443 146.426L170.792 37.7149L88.9752 58.0916L105.443 146.426ZM14.7611 169.866L103.656 147.713L3.39306 129.255L14.7611 169.866Z" fill="#FFECB3"/>
<path d="M95.4816 93.4588C95.4697 93.4826 95.4459 93.5184 95.4221 93.5422L47.9122 137.322C47.8049 137.418 47.6381 137.441 47.507 137.37C47.3759 137.298 47.3044 137.155 47.3283 137.013L56.3131 74.8457C56.325 74.7384 56.3965 74.6431 56.4918 74.5835C56.5872 74.5359 56.7063 74.5239 56.8136 74.5716L95.3267 92.9583C95.434 93.006 95.5055 93.1132 95.5174 93.2205C95.5412 93.3039 95.5174 93.3873 95.4816 93.4588ZM48.1624 136.119L94.5522 93.3635L56.9446 75.4177L48.1624 136.119Z" fill="#FFECB3"/>
<path d="M74.4377 185.369C74.402 185.416 74.3662 185.464 74.3066 185.5C74.1994 185.559 74.0802 185.559 73.973 185.511L34.3516 165.635C34.2205 165.564 34.149 165.433 34.161 165.278C34.1729 165.135 34.2801 165.016 34.4231 164.98L76.952 154.386C77.0593 154.363 77.1784 154.386 77.2618 154.458C77.3453 154.529 77.3929 154.649 77.381 154.756L74.4735 185.237C74.4854 185.273 74.4615 185.321 74.4377 185.369ZM35.5313 165.409L73.8419 184.63L76.6541 155.161L35.5313 165.409Z" fill="#FFECB3"/>
<path d="M135.139 216.923C135.103 216.97 135.067 217.018 135.007 217.054C134.912 217.101 134.805 217.113 134.71 217.078L89.6901 199.048C89.5233 198.977 89.428 198.798 89.4876 198.619L104.502 147.69C104.538 147.57 104.633 147.475 104.764 147.439C104.895 147.415 105.014 147.451 105.11 147.547L140.203 187.537C140.274 187.621 140.298 187.728 140.286 187.835L135.198 216.803C135.174 216.839 135.162 216.887 135.139 216.923ZM90.2502 198.512L134.567 216.255L139.559 187.883L104.991 148.5L90.2502 198.512Z" fill="#FFECB3"/>
<path d="M2.89279 131.626C4.44594 131.626 5.70501 130.367 5.70501 128.814C5.70501 127.261 4.44594 126.002 2.89279 126.002C1.33964 126.002 0.0805664 127.261 0.0805664 128.814C0.0805664 130.367 1.33964 131.626 2.89279 131.626Z" fill="#FFECB3"/>
<path d="M74.3186 187.692C75.8717 187.692 77.1308 186.433 77.1308 184.88C77.1308 183.326 75.8717 182.067 74.3186 182.067C72.7654 182.067 71.5063 183.326 71.5063 184.88C71.5063 186.433 72.7654 187.692 74.3186 187.692Z" fill="#FFECB3"/>
<path d="M104.824 150.597C106.377 150.597 107.636 149.338 107.636 147.785C107.636 146.231 106.377 144.972 104.824 144.972C103.271 144.972 102.012 146.231 102.012 147.785C102.012 149.338 103.271 150.597 104.824 150.597Z" fill="#FFECB3"/>
<path d="M126.941 50.9655C128.494 50.9655 129.753 49.7064 129.753 48.1533C129.753 46.6001 128.494 45.3411 126.941 45.3411C125.387 45.3411 124.128 46.6001 124.128 48.1533C124.128 49.7064 125.387 50.9655 126.941 50.9655Z" fill="#FFECB3"/>
<path d="M133.053 104.326C134.607 104.326 135.866 103.067 135.866 101.514C135.866 99.961 134.607 98.7019 133.053 98.7019C131.5 98.7019 130.241 99.961 130.241 101.514C130.241 103.067 131.5 104.326 133.053 104.326Z" fill="#FFECB3"/>
<path d="M139.143 190.528C140.696 190.528 141.955 189.269 141.955 187.716C141.955 186.163 140.696 184.904 139.143 184.904C137.59 184.904 136.331 186.163 136.331 187.716C136.331 189.269 137.59 190.528 139.143 190.528Z" fill="#FFECB3"/>
<path d="M134.829 219.556C136.382 219.556 137.641 218.297 137.641 216.744C137.641 215.19 136.382 213.931 134.829 213.931C133.276 213.931 132.017 215.19 132.017 216.744C132.017 218.297 133.276 219.556 134.829 219.556Z" fill="#FFECB3"/>
<path d="M112.939 196.534C114.492 196.534 115.751 195.275 115.751 193.722C115.751 192.169 114.492 190.909 112.939 190.909C111.386 190.909 110.126 192.169 110.126 193.722C110.126 195.275 111.386 196.534 112.939 196.534Z" fill="#FFECB3"/>
<path d="M98.9612 169.246C100.514 169.246 101.773 167.987 101.773 166.434C101.773 164.88 100.514 163.621 98.9612 163.621C97.408 163.621 96.1489 164.88 96.1489 166.434C96.1489 167.987 97.408 169.246 98.9612 169.246Z" fill="#FFECB3"/>
<path d="M96.4826 178.838C98.0358 178.838 99.2949 177.579 99.2949 176.026C99.2949 174.473 98.0358 173.214 96.4826 173.214C94.9295 173.214 93.6704 174.473 93.6704 176.026C93.6704 177.579 94.9295 178.838 96.4826 178.838Z" fill="#FFECB3"/>
<path d="M89.8215 201.527C91.3747 201.527 92.6337 200.268 92.6337 198.715C92.6337 197.161 91.3747 195.902 89.8215 195.902C88.2684 195.902 87.0093 197.161 87.0093 198.715C87.0093 200.268 88.2684 201.527 89.8215 201.527Z" fill="#FFECB3"/>
<path d="M170.887 40.0146C172.441 40.0146 173.7 38.7555 173.7 37.2024C173.7 35.6492 172.441 34.3901 170.887 34.3901C169.334 34.3901 168.075 35.6492 168.075 37.2024C168.075 38.7555 169.334 40.0146 170.887 40.0146Z" fill="#FFECB3"/>
<path d="M56.6589 77.7053C58.2121 77.7053 59.4711 76.4462 59.4711 74.893C59.4711 73.3399 58.2121 72.0808 56.6589 72.0808C55.1058 72.0808 53.8467 73.3399 53.8467 74.893C53.8467 76.4462 55.1058 77.7053 56.6589 77.7053Z" fill="#FFECB3"/>
<path d="M78.5485 110.976C80.1017 110.976 81.3608 109.716 81.3608 108.163C81.3608 106.61 80.1017 105.351 78.5485 105.351C76.9954 105.351 75.7363 106.61 75.7363 108.163C75.7363 109.716 76.9954 110.976 78.5485 110.976Z" fill="#FFECB3"/>
<path d="M94.4333 95.4845C95.9865 95.4845 97.2455 94.2255 97.2455 92.6723C97.2455 91.1192 95.9865 89.8601 94.4333 89.8601C92.8802 89.8601 91.6211 91.1192 91.6211 92.6723C91.6211 94.2255 92.8802 95.4845 94.4333 95.4845Z" fill="#FFECB3"/>
<path d="M118.158 88.7995C119.712 88.7995 120.971 87.5404 120.971 85.9873C120.971 84.4341 119.712 83.175 118.158 83.175C116.605 83.175 115.346 84.4341 115.346 85.9873C115.346 87.5404 116.605 88.7995 118.158 88.7995Z" fill="#FFECB3"/>
<path d="M115.978 100.632C117.531 100.632 118.79 99.3734 118.79 97.8203C118.79 96.2671 117.531 95.0081 115.978 95.0081C114.425 95.0081 113.166 96.2671 113.166 97.8203C113.166 99.3734 114.425 100.632 115.978 100.632Z" fill="#FFECB3"/>
<path d="M14.511 173.095C16.0641 173.095 17.3232 171.836 17.3232 170.282C17.3232 168.729 16.0641 167.47 14.511 167.47C12.9578 167.47 11.6987 168.729 11.6987 170.282C11.6987 171.836 12.9578 173.095 14.511 173.095Z" fill="#FFECB3"/>
<path d="M35.5788 168.102C37.132 168.102 38.3911 166.843 38.3911 165.29C38.3911 163.736 37.132 162.477 35.5788 162.477C34.0257 162.477 32.7666 163.736 32.7666 165.29C32.7666 166.843 34.0257 168.102 35.5788 168.102Z" fill="#FFECB3"/>
<path d="M76.821 157.58C78.3742 157.58 79.6332 156.321 79.6332 154.768C79.6332 153.214 78.3742 151.955 76.821 151.955C75.2679 151.955 74.0088 153.214 74.0088 154.768C74.0088 156.321 75.2679 157.58 76.821 157.58Z" fill="#FFECB3"/>
<path d="M47.8528 140.17C49.4059 140.17 50.665 138.911 50.665 137.358C50.665 135.805 49.4059 134.546 47.8528 134.546C46.2996 134.546 45.0405 135.805 45.0405 137.358C45.0405 138.911 46.2996 140.17 47.8528 140.17Z" fill="#FFECB3"/>
<path d="M88.904 60.9514C90.4572 60.9514 91.7162 59.6923 91.7162 58.1391C91.7162 56.586 90.4572 55.3269 88.904 55.3269C87.3509 55.3269 86.0918 56.586 86.0918 58.1391C86.0918 59.6923 87.3509 60.9514 88.904 60.9514Z" fill="#FFECB3"/>
<path d="M77.7148 154.899L34.9595 165.814L47.686 136.845L77.7148 154.899ZM36.1988 164.777L75.9155 154.636L48.0196 137.87L36.1988 164.777Z" fill="#FFECB3"/>
<path d="M134.186 102.134L94.3498 93.006L94.5047 92.3267L131.922 100.894L88.6538 58.3894L89.1543 57.8889L134.186 102.134Z" fill="#FFECB3"/>
<path d="M104.991 148.667L56.3608 75.0841L56.9567 74.7028L104.669 146.903L126.845 48.1416L127.536 48.2965L104.991 148.667Z" fill="#FFECB3"/>
<path d="M139.44 187.894C139.393 187.978 139.309 188.037 139.214 188.061L90.7626 199.417C90.572 199.465 90.3813 199.346 90.3456 199.155C90.2979 198.965 90.4171 198.774 90.6077 198.738L138.153 187.597L77.3927 155.482L90.1549 198.631C90.2026 198.786 90.143 198.941 90 199.024C89.8689 199.108 89.6902 199.096 89.5829 198.988L74.1515 185.213L14.4275 170.64C14.2368 170.592 14.1176 170.402 14.1653 170.211C14.213 170.02 14.4036 169.901 14.5943 169.949L74.4017 184.546C74.4613 184.558 74.5089 184.582 74.5566 184.629L89.1301 197.642L76.4751 154.875C76.4394 154.744 76.4751 154.589 76.5943 154.505C76.7015 154.41 76.8564 154.398 76.9875 154.47L139.309 187.418C139.44 187.489 139.512 187.632 139.488 187.775C139.488 187.799 139.464 187.847 139.44 187.894Z" fill="#FFECB3"/>
<path d="M135.139 216.922C135.127 216.946 135.103 216.97 135.079 216.994C134.936 217.125 134.71 217.125 134.579 216.982L76.5588 155.006C76.4277 154.863 76.4277 154.636 76.5707 154.505C76.7137 154.374 76.9401 154.374 77.0712 154.517L135.091 216.493C135.198 216.613 135.21 216.791 135.139 216.922Z" fill="#FFECB3"/>
<path d="M294.983 108.866C295.007 108.854 295.043 108.843 295.067 108.831C295.162 108.771 295.222 108.676 295.233 108.569C295.269 108.545 295.293 108.509 295.317 108.473L339.466 24.5235C339.562 24.3567 339.49 24.1422 339.323 24.0469L301.192 2.55006C301.084 2.49048 300.953 2.49048 300.846 2.55006C300.739 2.60964 300.667 2.71688 300.655 2.84796L294.554 107.997L210.39 69.9838C210.223 69.9004 210.009 69.9719 209.925 70.1388L169.482 147.034C169.41 147.165 169.434 147.32 169.518 147.427C169.613 147.534 169.756 147.582 169.899 147.534L294.614 108.795L294.733 108.854C294.816 108.89 294.9 108.89 294.983 108.866ZM293.625 108.354L170.507 146.593L210.39 70.7584L293.625 108.354ZM338.68 24.4878L295.341 106.888L301.346 3.44377L338.68 24.4878Z" fill="#FFE082"/>
<path d="M243.743 85.7252C243.779 85.7133 243.803 85.7014 243.839 85.6776L298.534 49.357C298.665 49.2736 298.725 49.1187 298.689 48.9757C298.653 48.8327 298.522 48.7254 298.379 48.7016L234.83 42.5528C234.711 42.5409 234.604 42.5886 234.532 42.672C234.461 42.7554 234.425 42.8746 234.449 42.9818L243.291 85.4512C243.314 85.5703 243.398 85.6657 243.505 85.7133C243.577 85.7372 243.66 85.7491 243.743 85.7252ZM297.295 49.3212L243.874 84.7958L235.247 43.3274L297.295 49.3212Z" fill="#FFE082"/>
<path d="M339.561 87.155C339.621 87.1312 339.68 87.1073 339.716 87.0597C339.8 86.9762 339.823 86.8571 339.8 86.7379L329.742 42.8267C329.707 42.6837 329.587 42.5765 329.444 42.5526C329.301 42.5288 329.147 42.6122 329.087 42.7433L308.353 82.1621C308.293 82.2693 308.293 82.3885 308.353 82.4958C308.412 82.603 308.508 82.6745 308.615 82.6864L339.406 87.1788C339.454 87.1788 339.514 87.1669 339.561 87.155ZM329.266 43.923L338.989 86.3924L309.223 82.0429L329.266 43.923Z" fill="#FFE082"/>
<path d="M356.041 154.696C356.101 154.672 356.149 154.649 356.196 154.601C356.268 154.517 356.303 154.41 356.292 154.303L349.38 105.506C349.356 105.327 349.19 105.196 349.011 105.196L295.102 107.711C294.971 107.723 294.852 107.794 294.792 107.913C294.732 108.032 294.744 108.163 294.816 108.271L325.81 152.587C325.87 152.67 325.977 152.73 326.084 152.742L355.91 154.708C355.958 154.72 356.006 154.708 356.041 154.696ZM348.713 105.935L355.517 153.969L326.299 152.039L295.769 108.402L348.713 105.935Z" fill="#FFE082"/>
<path d="M301.013 5.71978C302.592 5.71978 303.873 4.43936 303.873 2.85989C303.873 1.28042 302.592 0 301.013 0C299.433 0 298.153 1.28042 298.153 2.85989C298.153 4.43936 299.433 5.71978 301.013 5.71978Z" fill="#FFE082"/>
<path d="M339.108 89.7767C340.688 89.7767 341.968 88.4962 341.968 86.9168C341.968 85.3373 340.688 84.0569 339.108 84.0569C337.529 84.0569 336.249 85.3373 336.249 86.9168C336.249 88.4962 337.529 89.7767 339.108 89.7767Z" fill="#FFE082"/>
<path d="M295.114 110.94C296.693 110.94 297.974 109.66 297.974 108.08C297.974 106.501 296.693 105.22 295.114 105.22C293.534 105.22 292.254 106.501 292.254 108.08C292.254 109.66 293.534 110.94 295.114 110.94Z" fill="#FFE082"/>
<path d="M191.407 108.688C192.987 108.688 194.267 107.407 194.267 105.828C194.267 104.248 192.987 102.968 191.407 102.968C189.828 102.968 188.547 104.248 188.547 105.828C188.547 107.407 189.828 108.688 191.407 108.688Z" fill="#FFE082"/>
<path d="M242.611 127.622C244.191 127.622 245.471 126.342 245.471 124.762C245.471 123.183 244.191 121.903 242.611 121.903C241.032 121.903 239.751 123.183 239.751 124.762C239.751 126.342 241.032 127.622 242.611 127.622Z" fill="#FFE082"/>
<path d="M326.239 154.458C327.819 154.458 329.099 153.177 329.099 151.598C329.099 150.018 327.819 148.738 326.239 148.738C324.66 148.738 323.379 150.018 323.379 151.598C323.379 153.177 324.66 154.458 326.239 154.458Z" fill="#FFE082"/>
<path d="M355.934 157.222C357.514 157.222 358.794 155.942 358.794 154.362C358.794 152.783 357.514 151.502 355.934 151.502C354.355 151.502 353.074 152.783 353.074 154.362C353.074 155.942 354.355 157.222 355.934 157.222Z" fill="#FFE082"/>
<path d="M338.513 130.042C340.092 130.042 341.373 128.761 341.373 127.182C341.373 125.602 340.092 124.322 338.513 124.322C336.933 124.322 335.653 125.602 335.653 127.182C335.653 128.761 336.933 130.042 338.513 130.042Z" fill="#FFE082"/>
<path d="M314.942 109.653C316.522 109.653 317.802 108.372 317.802 106.793C317.802 105.214 316.522 103.933 314.942 103.933C313.363 103.933 312.083 105.214 312.083 106.793C312.083 108.372 313.363 109.653 314.942 109.653Z" fill="#FFE082"/>
<path d="M325.012 109.51C326.591 109.51 327.872 108.23 327.872 106.65C327.872 105.071 326.591 103.79 325.012 103.79C323.432 103.79 322.152 105.071 322.152 106.65C322.152 108.23 323.432 109.51 325.012 109.51Z" fill="#FFE082"/>
<path d="M349.023 108.426C350.602 108.426 351.883 107.145 351.883 105.566C351.883 103.986 350.602 102.706 349.023 102.706C347.443 102.706 346.163 103.986 346.163 105.566C346.163 107.145 347.443 108.426 349.023 108.426Z" fill="#FFE082"/>
<path d="M169.982 149.441C171.561 149.441 172.842 148.161 172.842 146.581C172.842 145.002 171.561 143.721 169.982 143.721C168.402 143.721 167.122 145.002 167.122 146.581C167.122 148.161 168.402 149.441 169.982 149.441Z" fill="#FFE082"/>
<path d="M234.794 45.7703C236.374 45.7703 237.654 44.4899 237.654 42.9104C237.654 41.331 236.374 40.0505 234.794 40.0505C233.215 40.0505 231.935 41.331 231.935 42.9104C231.935 44.4899 233.215 45.7703 234.794 45.7703Z" fill="#FFE082"/>
<path d="M262.356 75.4175C263.936 75.4175 265.216 74.1371 265.216 72.5576C265.216 70.9782 263.936 69.6978 262.356 69.6978C260.777 69.6978 259.497 70.9782 259.497 72.5576C259.497 74.1371 260.777 75.4175 262.356 75.4175Z" fill="#FFE082"/>
<path d="M243.219 87.3577C244.798 87.3577 246.079 86.0773 246.079 84.4978C246.079 82.9184 244.798 81.6379 243.219 81.6379C241.639 81.6379 240.359 82.9184 240.359 84.4978C240.359 86.0773 241.639 87.3577 243.219 87.3577Z" fill="#FFE082"/>
<path d="M230.886 109.164C232.465 109.164 233.746 107.884 233.746 106.304C233.746 104.725 232.465 103.445 230.886 103.445C229.306 103.445 228.026 104.725 228.026 106.304C228.026 107.884 229.306 109.164 230.886 109.164Z" fill="#FFE082"/>
<path d="M243.088 109.867C244.667 109.867 245.948 108.587 245.948 107.007C245.948 105.428 244.667 104.147 243.088 104.147C241.508 104.147 240.228 105.428 240.228 107.007C240.228 108.587 241.508 109.867 243.088 109.867Z" fill="#FFE082"/>
<path d="M339.156 27.2168C340.736 27.2168 342.016 25.9364 342.016 24.357C342.016 22.7775 340.736 21.4971 339.156 21.4971C337.577 21.4971 336.296 22.7775 336.296 24.357C336.296 25.9364 337.577 27.2168 339.156 27.2168Z" fill="#FFE082"/>
<path d="M329.135 46.8067C330.714 46.8067 331.995 45.5263 331.995 43.9468C331.995 42.3673 330.714 41.0869 329.135 41.0869C327.555 41.0869 326.275 42.3673 326.275 43.9468C326.275 45.5263 327.555 46.8067 329.135 46.8067Z" fill="#FFE082"/>
<path d="M308.77 84.9744C310.35 84.9744 311.63 83.694 311.63 82.1145C311.63 80.5351 310.35 79.2546 308.77 79.2546C307.191 79.2546 305.91 80.5351 305.91 82.1145C305.91 83.694 307.191 84.9744 308.77 84.9744Z" fill="#FFE082"/>
<path d="M298.582 52.1692C300.161 52.1692 301.441 50.8888 301.441 49.3094C301.441 47.7299 300.161 46.4495 298.582 46.4495C297.002 46.4495 295.722 47.7299 295.722 49.3094C295.722 50.8888 297.002 52.1692 298.582 52.1692Z" fill="#FFE082"/>
<path d="M210.461 73.5586C212.041 73.5586 213.321 72.2782 213.321 70.6988C213.321 69.1193 212.041 67.8389 210.461 67.8389C208.882 67.8389 207.602 69.1193 207.602 70.6988C207.602 72.2782 208.882 73.5586 210.461 73.5586Z" fill="#FFE082"/>
<path d="M308.687 83.032L329.79 43.4702L298.117 49.0351L308.687 83.032ZM328.468 44.4235L308.854 81.185L299.047 49.5951L328.468 44.4235Z" fill="#FFE082"/>
<path d="M242.957 126.026L243.577 84.4977L242.862 84.4858L242.278 123.487L210.772 70.5081L210.152 70.8775L242.957 126.026Z" fill="#FFE082"/>
<path d="M295.948 108.449L235.056 42.6719L234.532 43.1485L294.28 107.699L191.419 105.744L191.407 106.459L295.948 108.449Z" fill="#FFE082"/>
<path d="M326.346 151.943C326.441 151.92 326.513 151.848 326.561 151.765L349.476 106.674C349.571 106.495 349.499 106.28 349.321 106.197C349.142 106.102 348.927 106.173 348.844 106.352L326.358 150.597L309.33 82.8532L348.844 105.887C348.987 105.971 349.154 105.947 349.273 105.84C349.392 105.732 349.416 105.554 349.344 105.411L339.478 86.8451L339.525 24.3685C339.525 24.1659 339.371 24.011 339.168 24.011C338.965 24.011 338.811 24.1659 338.811 24.3685L338.763 86.9405C338.763 87 338.775 87.0596 338.811 87.1073L348.129 104.648L308.949 81.8046C308.829 81.7331 308.663 81.745 308.555 81.8284C308.436 81.9118 308.388 82.0667 308.424 82.1978L325.893 151.693C325.929 151.836 326.048 151.943 326.203 151.967C326.251 151.955 326.298 151.955 326.346 151.943Z" fill="#FFE082"/>
<path d="M356.041 154.696C356.077 154.684 356.101 154.672 356.137 154.649C356.304 154.541 356.351 154.315 356.244 154.148L309.068 81.9121C308.961 81.7452 308.734 81.6976 308.567 81.8048C308.401 81.9121 308.353 82.1385 308.46 82.3053L355.624 154.553C355.732 154.696 355.898 154.744 356.041 154.696Z" fill="#FFE082"/>
<path d="M109.829 272.333C109.805 272.333 109.769 272.333 109.745 272.345C109.638 272.369 109.555 272.44 109.507 272.535C109.471 272.547 109.435 272.571 109.4 272.607L41.7037 336.847C41.5607 336.978 41.5607 337.193 41.6799 337.336L70.4098 369.426C70.4932 369.521 70.6124 369.557 70.7316 369.533C70.8507 369.509 70.946 369.426 70.9937 369.319L109.948 273.298L176.321 335.346C176.452 335.477 176.667 335.477 176.798 335.346L238.81 276.503C238.917 276.408 238.953 276.253 238.893 276.122C238.845 275.991 238.714 275.896 238.571 275.896L110.162 272.523L110.067 272.428C110.007 272.369 109.924 272.333 109.829 272.333ZM110.937 273.25L237.737 276.587L176.583 334.619L110.937 273.25ZM42.4306 337.109L108.887 274.061L70.5647 368.532L42.4306 337.109Z" fill="#FFE082"/>
<path d="M150.248 310.119C150.213 310.119 150.177 310.119 150.153 310.131L87.7003 326.659C87.5573 326.694 87.4501 326.825 87.4381 326.968C87.4262 327.111 87.5096 327.254 87.6407 327.314L144.886 353.148C144.993 353.196 145.101 353.184 145.208 353.136C145.303 353.077 145.375 352.981 145.387 352.874L150.594 310.512C150.606 310.393 150.558 310.286 150.475 310.202C150.415 310.155 150.332 310.119 150.248 310.119ZM88.8443 327.088L149.831 310.953L144.755 352.326L88.8443 327.088Z" fill="#FFE082"/>
<path d="M61.4367 278.458C61.3772 278.458 61.3176 278.469 61.258 278.505C61.1507 278.565 61.0912 278.66 61.0792 278.779L56.5511 322.869C56.5392 323.012 56.6107 323.155 56.7417 323.227C56.8728 323.286 57.0277 323.262 57.135 323.167L88.9274 293.007C89.0108 292.924 89.0466 292.817 89.0347 292.697C89.0227 292.59 88.9512 292.483 88.844 292.435L61.5797 278.505C61.544 278.469 61.4963 278.458 61.4367 278.458ZM57.3495 321.999L61.7346 279.363L88.0933 292.828L57.3495 321.999Z" fill="#FFE082"/>
<path d="M67.4548 210.309C67.3952 210.309 67.3357 210.321 67.2761 210.356C67.1807 210.404 67.1212 210.499 67.0973 210.595L58.1006 258.236C58.0649 258.415 58.1721 258.593 58.3508 258.641L109.364 273.357C109.483 273.393 109.626 273.357 109.71 273.262C109.793 273.167 109.829 273.036 109.793 272.917L94.9455 221.832C94.9217 221.725 94.8383 221.641 94.7429 221.605L67.574 210.333C67.5382 210.321 67.5025 210.309 67.4548 210.309ZM58.8513 258.057L67.7051 211.155L94.3139 222.201L108.947 272.511L58.8513 258.057Z" fill="#FFE082"/>
<path d="M70.6721 372C72.2252 372 73.4843 370.741 73.4843 369.188C73.4843 367.635 72.2252 366.375 70.6721 366.375C69.1189 366.375 67.8599 367.635 67.8599 369.188C67.8599 370.741 69.1189 372 70.6721 372Z" fill="#FFE082"/>
<path d="M61.7824 281.627C63.3356 281.627 64.5947 280.368 64.5947 278.815C64.5947 277.262 63.3356 276.003 61.7824 276.003C60.2293 276.003 58.9702 277.262 58.9702 278.815C58.9702 280.368 60.2293 281.627 61.7824 281.627Z" fill="#FFE082"/>
<path d="M109.459 275.836C111.012 275.836 112.271 274.577 112.271 273.024C112.271 271.471 111.012 270.212 109.459 270.212C107.906 270.212 106.647 271.471 106.647 273.024C106.647 274.577 107.906 275.836 109.459 275.836Z" fill="#FFE082"/>
<path d="M205.373 310.751C206.926 310.751 208.185 309.492 208.185 307.938C208.185 306.385 206.926 305.126 205.373 305.126C203.82 305.126 202.561 306.385 202.561 307.938C202.561 309.492 203.82 310.751 205.373 310.751Z" fill="#FFE082"/>
<path d="M163.654 276.909C165.207 276.909 166.466 275.65 166.466 274.096C166.466 272.543 165.207 271.284 163.654 271.284C162.101 271.284 160.842 272.543 160.842 274.096C160.842 275.65 162.101 276.909 163.654 276.909Z" fill="#FFE082"/>
<path d="M94.2424 225.443C95.7955 225.443 97.0546 224.183 97.0546 222.63C97.0546 221.077 95.7955 219.818 94.2424 219.818C92.6892 219.818 91.4302 221.077 91.4302 222.63C91.4302 224.183 92.6892 225.443 94.2424 225.443Z" fill="#FFE082"/>
<path d="M67.4426 213.478C68.9957 213.478 70.2548 212.219 70.2548 210.666C70.2548 209.113 68.9957 207.854 67.4426 207.854C65.8894 207.854 64.6304 209.113 64.6304 210.666C64.6304 212.219 65.8894 213.478 67.4426 213.478Z" fill="#FFE082"/>
<path d="M75.0813 244.306C76.6344 244.306 77.8935 243.047 77.8935 241.494C77.8935 239.94 76.6344 238.681 75.0813 238.681C73.5281 238.681 72.269 239.94 72.269 241.494C72.269 243.047 73.5281 244.306 75.0813 244.306Z" fill="#FFE082"/>
<path d="M90.5842 270.772C92.1373 270.772 93.3964 269.513 93.3964 267.959C93.3964 266.406 92.1373 265.147 90.5842 265.147C89.031 265.147 87.772 266.406 87.772 267.959C87.772 269.513 89.031 270.772 90.5842 270.772Z" fill="#FFE082"/>
<path d="M81.1584 267.709C82.7116 267.709 83.9706 266.45 83.9706 264.897C83.9706 263.344 82.7116 262.085 81.1584 262.085C79.6053 262.085 78.3462 263.344 78.3462 264.897C78.3462 266.45 79.6053 267.709 81.1584 267.709Z" fill="#FFE082"/>
<path d="M58.446 261.119C59.9992 261.119 61.2582 259.86 61.2582 258.307C61.2582 256.754 59.9992 255.495 58.446 255.495C56.8929 255.495 55.6338 256.754 55.6338 258.307C55.6338 259.86 56.8929 261.119 58.446 261.119Z" fill="#FFE082"/>
<path d="M238.226 279.578C239.779 279.578 241.038 278.319 241.038 276.766C241.038 275.212 239.779 273.953 238.226 273.953C236.673 273.953 235.414 275.212 235.414 276.766C235.414 278.319 236.673 279.578 238.226 279.578Z" fill="#FFE082"/>
<path d="M145.041 355.639C146.594 355.639 147.853 354.38 147.853 352.827C147.853 351.273 146.594 350.014 145.041 350.014C143.488 350.014 142.229 351.273 142.229 352.827C142.229 354.38 143.488 355.639 145.041 355.639Z" fill="#FFE082"/>
<path d="M128.74 319.306C130.293 319.306 131.552 318.047 131.552 316.494C131.552 314.941 130.293 313.682 128.74 313.682C127.187 313.682 125.928 314.941 125.928 316.494C125.928 318.047 127.187 319.306 128.74 319.306Z" fill="#FFE082"/>
<path d="M150.356 314.242C151.909 314.242 153.168 312.983 153.168 311.43C153.168 309.877 151.909 308.618 150.356 308.618C148.803 308.618 147.543 309.877 147.543 311.43C147.543 312.983 148.803 314.242 150.356 314.242Z" fill="#FFE082"/>
<path d="M168.742 297.821C170.296 297.821 171.555 296.562 171.555 295.009C171.555 293.456 170.296 292.197 168.742 292.197C167.189 292.197 165.93 293.456 165.93 295.009C165.93 296.562 167.189 297.821 168.742 297.821Z" fill="#FFE082"/>
<path d="M157.589 293.305C159.142 293.305 160.401 292.046 160.401 290.493C160.401 288.94 159.142 287.681 157.589 287.681C156.035 287.681 154.776 288.94 154.776 290.493C154.776 292.046 156.035 293.305 157.589 293.305Z" fill="#FFE082"/>
<path d="M41.9421 339.91C43.4953 339.91 44.7543 338.651 44.7543 337.097C44.7543 335.544 43.4953 334.285 41.9421 334.285C40.389 334.285 39.1299 335.544 39.1299 337.097C39.1299 338.651 40.389 339.91 41.9421 339.91Z" fill="#FFE082"/>
<path d="M57.4807 324.823C59.0338 324.823 60.2929 323.564 60.2929 322.011C60.2929 320.458 59.0338 319.199 57.4807 319.199C55.9275 319.199 54.6685 320.458 54.6685 322.011C54.6685 323.564 55.9275 324.823 57.4807 324.823Z" fill="#FFE082"/>
<path d="M88.5227 295.712C90.0758 295.712 91.3349 294.453 91.3349 292.9C91.3349 291.347 90.0758 290.088 88.5227 290.088C86.9695 290.088 85.7104 291.347 85.7104 292.9C85.7104 294.453 86.9695 295.712 88.5227 295.712Z" fill="#FFE082"/>
<path d="M87.6286 329.483C89.1818 329.483 90.4409 328.224 90.4409 326.671C90.4409 325.117 89.1818 323.858 87.6286 323.858C86.0755 323.858 84.8164 325.117 84.8164 326.671C84.8164 328.224 86.0755 329.483 87.6286 329.483Z" fill="#FFE082"/>
<path d="M176.5 337.455C178.053 337.455 179.312 336.196 179.312 334.643C179.312 333.089 178.053 331.83 176.5 331.83C174.947 331.83 173.688 333.089 173.688 334.643C173.688 336.196 174.947 337.455 176.5 337.455Z" fill="#FFE082"/>
<path d="M88.8917 292.066L56.7061 322.249L87.9742 327.087L88.8917 292.066ZM58.2432 321.773L88.141 293.734L87.283 326.265L58.2432 321.773Z" fill="#FFE082"/>
<path d="M163.738 272.809L150.022 311.311L150.689 311.537L163.571 275.395L176.154 334.714L176.845 334.571L163.738 272.809Z" fill="#FFE082"/>
<path d="M108.804 272.416L144.719 352.97L145.363 352.684L110.126 273.643L205.325 308.022L205.563 307.366L108.804 272.416Z" fill="#FFE082"/>
<path d="M94.2541 222.285C94.1588 222.285 94.0635 222.321 94.0039 222.38L58.3864 257.14C58.2434 257.271 58.2434 257.497 58.3744 257.64C58.5055 257.783 58.7319 257.783 58.8749 257.652L93.8251 223.548L88.2484 292.042L58.72 258.081C58.6128 257.962 58.4459 257.926 58.303 257.998C58.16 258.069 58.0765 258.212 58.1004 258.367L61.425 278.792L41.6203 336.978C41.5607 337.157 41.656 337.36 41.8348 337.419C42.0135 337.479 42.2161 337.384 42.2757 337.205L62.1161 278.935C62.14 278.875 62.14 278.827 62.1281 278.768L58.9941 259.475L88.2603 293.127C88.3556 293.234 88.4986 293.27 88.6416 293.234C88.7727 293.186 88.868 293.067 88.8799 292.924L94.5997 222.654C94.6116 222.511 94.5282 222.368 94.3971 222.309C94.3495 222.297 94.3018 222.285 94.2541 222.285Z" fill="#FFE082"/>
<path d="M67.4545 210.309C67.4188 210.309 67.3949 210.309 67.3592 210.321C67.1685 210.368 67.0613 210.559 67.1089 210.75L88.1887 292.983C88.2364 293.174 88.427 293.281 88.6177 293.234C88.8083 293.186 88.9156 292.995 88.8679 292.805L67.7882 210.571C67.7405 210.416 67.6094 210.321 67.4545 210.309Z" fill="#FFE082"/>
<path d="M225.226 294.33H56.0154C41.5373 294.33 29.7998 282.593 29.7998 268.115C29.7998 253.636 41.5373 241.899 56.0154 241.899H225.226C239.704 241.899 251.441 253.636 251.441 268.115C251.441 282.593 239.704 294.33 225.226 294.33Z" fill="#FFE082" stroke="black" stroke-width="2.23572" stroke-miterlimit="10"/>
<path d="M224.32 284.797H56.9329C48.1983 284.797 41.1201 277.719 41.1201 268.984V267.233C41.1201 258.498 48.1983 251.42 56.9329 251.42H224.32C233.054 251.42 240.133 258.498 240.133 267.233V268.984C240.121 277.719 233.042 284.797 224.32 284.797Z" fill="#FFCA28" stroke="black" stroke-width="2.38324" stroke-miterlimit="10"/>
<path d="M56.6112 288.968C68.1282 288.968 77.4645 279.631 77.4645 268.114C77.4645 256.597 68.1282 247.261 56.6112 247.261C45.0942 247.261 35.7578 256.597 35.7578 268.114C35.7578 279.631 45.0942 288.968 56.6112 288.968Z" fill="#FFECB3" stroke="black" stroke-width="2.38324" stroke-miterlimit="10"/>
<path d="M56.6112 283.606C65.1667 283.606 72.1022 276.67 72.1022 268.115C72.1022 259.559 65.1667 252.624 56.6112 252.624C48.0557 252.624 41.1201 259.559 41.1201 268.115C41.1201 276.67 48.0557 283.606 56.6112 283.606Z" fill="#FFD54F" stroke="black" stroke-width="2.38324" stroke-miterlimit="10"/>
<path d="M224.63 288.968C236.147 288.968 245.483 279.631 245.483 268.114C245.483 256.597 236.147 247.261 224.63 247.261C213.113 247.261 203.776 256.597 203.776 268.114C203.776 279.631 213.113 288.968 224.63 288.968Z" fill="#FFECB3" stroke="black" stroke-width="2.38324" stroke-miterlimit="10"/>
<path d="M224.63 283.606C233.185 283.606 240.121 276.67 240.121 268.115C240.121 259.559 233.185 252.624 224.63 252.624C216.074 252.624 209.139 259.559 209.139 268.115C209.139 276.67 216.074 283.606 224.63 283.606Z" fill="#FFD54F" stroke="black" stroke-width="2.38324" stroke-miterlimit="10"/>
<path d="M201.393 185.893H128.704V235.941H201.393V185.893Z" fill="#6D4C41" stroke="black" stroke-width="1.78743" stroke-miterlimit="10" stroke-linecap="round" stroke-linejoin="round"/>
<path d="M141.812 210.917H83.4229V235.941H141.812V210.917Z" fill="#A1887F" stroke="black" stroke-width="1.78743" stroke-miterlimit="10" stroke-linecap="round" stroke-linejoin="round"/>
<path d="M215.693 201.384H195.435V235.941H215.693V201.384Z" fill="#8D6E63" stroke="black" stroke-width="1.78743" stroke-miterlimit="10" stroke-linecap="round" stroke-linejoin="round"/>
<path opacity="0.1" d="M128.704 202.575H148.962V235.941H141.812V210.917H128.704V202.575Z" fill="black"/>
<path opacity="0.1" d="M201.393 201.384V195.426H190.668V235.941H195.435V201.384H201.393Z" fill="black"/>
<path d="M365.836 300.288H221.65V212.585C221.65 211.012 222.925 209.725 224.51 209.725H362.988C364.561 209.725 365.848 211 365.848 212.585V300.288H365.836Z" fill="#B0BEC5" stroke="black" stroke-width="2.38324" stroke-miterlimit="10"/>
<path d="M357.496 300.288H229.992V220.628C229.992 219.21 231.136 218.066 232.554 218.066H354.934C356.352 218.066 357.496 219.21 357.496 220.628V300.288Z" fill="#ECEFF1" stroke="black" stroke-width="2.13538" stroke-miterlimit="10"/>
<path d="M378.42 311.013H209.079C207.149 311.013 205.576 309.44 205.576 307.509V303.791C205.576 301.861 207.149 300.288 209.079 300.288H378.42C380.363 300.288 381.924 301.861 381.924 303.791V307.509C381.924 309.44 380.363 311.013 378.42 311.013Z" fill="#607D8B" stroke="black" stroke-width="2.38324" stroke-miterlimit="10"/>
<path d="M325.93 256.198H277.466V289.564H325.93V256.198Z" fill="#90A4AE" stroke="black" stroke-width="1.78743" stroke-miterlimit="10" stroke-linecap="round" stroke-linejoin="round"/>
<path d="M286.201 272.881H247.271V289.564H286.201V272.881Z" fill="#90A4AE" stroke="black" stroke-width="1.78743" stroke-miterlimit="10" stroke-linecap="round" stroke-linejoin="round"/>
<path d="M335.45 266.53H321.949V289.564H335.45V266.53Z" fill="#90A4AE" stroke="black" stroke-width="1.78743" stroke-miterlimit="10" stroke-linecap="round" stroke-linejoin="round"/>
<path d="M266.194 55.1962L80.3963 121.45C76.6665 122.785 72.5673 120.831 71.2446 117.113C69.91 113.383 71.8643 109.284 75.5821 107.961L261.38 41.707C265.109 40.3724 269.209 42.3267 270.531 46.0445C271.866 49.7743 269.923 53.8735 266.194 55.1962Z" fill="#FFC107"/>
<path d="M77.9891 122.963C76.7855 122.963 75.582 122.701 74.4619 122.165C72.4719 121.224 70.9704 119.555 70.2197 117.482C69.4809 115.409 69.5881 113.168 70.5414 111.178C71.4828 109.188 73.1511 107.687 75.2245 106.936L261.022 40.6821C265.312 39.1568 270.042 41.3971 271.568 45.6869C272.307 47.7603 272.199 50.0006 271.246 51.9906C270.293 53.9806 268.636 55.482 266.563 56.2327L80.7655 122.487C79.8599 122.797 78.9185 122.963 77.9891 122.963ZM263.786 42.3742C263.107 42.3742 262.428 42.4934 261.749 42.7317L75.9514 108.986C74.4261 109.534 73.1988 110.642 72.5076 112.108C71.8165 113.574 71.7331 115.218 72.2693 116.755C72.8174 118.28 73.9256 119.508 75.3913 120.199C76.857 120.89 78.5015 120.973 80.0387 120.437L265.836 54.1831C267.361 53.635 268.589 52.5268 269.28 51.0611C269.971 49.5954 270.054 47.951 269.518 46.4138C268.624 43.9233 266.289 42.3742 263.786 42.3742Z" fill="black"/>
<path d="M270.841 67.4457C282.582 67.4457 292.1 57.928 292.1 46.1872C292.1 34.4465 282.582 24.9287 270.841 24.9287C259.1 24.9287 249.583 34.4465 249.583 46.1872C249.583 57.928 259.1 67.4457 270.841 67.4457Z" fill="#FFA000"/>
<path d="M270.865 68.5301C261.677 68.5301 253.05 62.8222 249.797 53.6944C245.662 42.088 251.727 29.2781 263.334 25.1432C268.958 23.1412 275.024 23.4392 280.41 26.0011C285.808 28.5631 289.871 33.0674 291.885 38.68C296.02 50.2864 289.955 63.0963 278.348 67.2312C275.882 68.113 273.355 68.5301 270.865 68.5301ZM270.865 26.0131C268.577 26.0131 266.289 26.4063 264.073 27.1928C253.598 30.9225 248.117 42.4812 251.847 52.9556C255.576 63.4299 267.147 68.9114 277.609 65.1816C282.686 63.3704 286.749 59.7002 289.061 54.8264C291.373 49.9646 291.647 44.4832 289.835 39.4069C288.024 34.3306 284.354 30.2671 279.48 27.9554C276.739 26.6684 273.808 26.0131 270.865 26.0131Z" fill="black"/>
<path d="M270.841 59.0804C277.962 59.0804 283.734 53.3078 283.734 46.187C283.734 39.0662 277.962 33.2937 270.841 33.2937C263.72 33.2937 257.948 39.0662 257.948 46.187C257.948 53.3078 263.72 59.0804 270.841 59.0804Z" fill="#FFC107"/>
<path d="M270.841 60.1768C268.791 60.1768 266.766 59.724 264.859 58.8184C261.487 57.2216 258.937 54.3975 257.674 50.8822C255.088 43.6133 258.889 35.6056 266.146 33.0079C273.415 30.4221 281.423 34.2233 284.02 41.4803C285.272 44.9956 285.081 48.7968 283.484 52.1691C281.887 55.5414 279.063 58.0915 275.548 59.3427C274.011 59.9027 272.414 60.1768 270.841 60.1768ZM270.829 34.3782C269.518 34.3782 268.184 34.6046 266.873 35.0694C260.736 37.262 257.531 44.0184 259.711 50.1553C260.772 53.1224 262.929 55.5057 265.777 56.8522C268.625 58.1987 271.83 58.3655 274.797 57.305C277.764 56.2445 280.148 54.0876 281.506 51.2397C282.853 48.3917 283.019 45.1862 281.959 42.2191C280.243 37.393 275.691 34.3782 270.829 34.3782Z" fill="black"/>
<path d="M78.7874 114.062H68.1343V176.812H78.7874V114.062Z" fill="#FFC107"/>
<path d="M79.8836 177.682H67.0498V113.204H79.8836V177.682ZM69.2305 175.955H77.7029V114.932H69.2305V175.955Z" fill="black"/>
<path d="M73.5323 130.625C81.4428 130.625 87.8555 124.213 87.8555 116.302C87.8555 108.392 81.4428 101.979 73.5323 101.979C65.6217 101.979 59.209 108.392 59.209 116.302C59.209 124.213 65.6217 130.625 73.5323 130.625Z" fill="#FFB300"/>
<path d="M73.5324 131.722C65.0361 131.722 58.1128 124.81 58.1128 116.302C58.1128 107.794 65.0242 100.883 73.5324 100.883C82.0405 100.883 88.9519 107.794 88.9519 116.302C88.9519 124.81 82.0286 131.722 73.5324 131.722ZM73.5324 103.063C66.2277 103.063 60.2935 108.997 60.2935 116.302C60.2935 123.607 66.2277 129.541 73.5324 129.541C80.837 129.541 86.7713 123.607 86.7713 116.302C86.7713 108.997 80.837 103.063 73.5324 103.063Z" fill="black"/>
<path d="M73.5323 125.001C78.3366 125.001 82.2312 121.106 82.2312 116.302C82.2312 111.498 78.3366 107.603 73.5323 107.603C68.7281 107.603 64.8335 111.498 64.8335 116.302C64.8335 121.106 68.7281 125.001 73.5323 125.001Z" fill="#FFC107"/>
<path d="M73.5322 126.085C68.1342 126.085 63.749 121.7 63.749 116.302C63.749 110.904 68.1342 106.519 73.5322 106.519C78.9303 106.519 83.3154 110.904 83.3154 116.302C83.3154 121.7 78.9303 126.085 73.5322 126.085ZM73.5322 108.699C69.3377 108.699 65.9297 112.107 65.9297 116.302C65.9297 120.497 69.3377 123.905 73.5322 123.905C77.7267 123.905 81.1348 120.497 81.1348 116.302C81.1348 112.107 77.7267 108.699 73.5322 108.699Z" fill="black"/>
<path d="M73.5323 183.545C78.3366 183.545 82.2312 179.651 82.2312 174.847C82.2312 170.042 78.3366 166.148 73.5323 166.148C68.7281 166.148 64.8335 170.042 64.8335 174.847C64.8335 179.651 68.7281 183.545 73.5323 183.545Z" fill="#FFA000"/>
<path d="M73.5322 184.63C68.1342 184.63 63.749 180.245 63.749 174.847C63.749 169.449 68.1342 165.063 73.5322 165.063C78.9303 165.063 83.3154 169.449 83.3154 174.847C83.3154 180.245 78.9303 184.63 73.5322 184.63ZM73.5322 167.244C69.3377 167.244 65.9297 170.652 65.9297 174.847C65.9297 179.041 69.3377 182.449 73.5322 182.449C77.7267 182.449 81.1348 179.041 81.1348 174.847C81.1348 170.652 77.7267 167.244 73.5322 167.244Z" fill="black"/>
<path d="M75.4748 205.983L74.9266 230.936C74.9028 232.235 73.7946 233.236 72.5077 233.152C62.7006 232.497 53.8469 226.73 49.3306 217.888C42.312 204.148 47.8411 187.06 61.5805 180.042C75.3199 173.023 92.4077 178.552 99.4264 192.292C101.178 195.724 102.203 199.477 102.453 203.314C102.548 204.816 101.13 205.983 99.6647 205.626L81.5759 201.288C78.5015 200.562 75.5463 202.838 75.4748 205.983Z" fill="#FFA000"/>
<path d="M74.176 233.879C73.6397 234.153 73.0439 234.273 72.4243 234.237C62.224 233.558 53.0009 227.48 48.3416 218.376C41.0132 204.029 46.721 186.393 61.0681 179.065C75.4152 171.736 93.0512 177.444 100.38 191.791C102.215 195.378 103.263 199.227 103.526 203.243C103.597 204.303 103.168 205.292 102.346 205.983C101.536 206.663 100.427 206.925 99.3906 206.687L81.3018 202.349C80.1698 202.075 78.9782 202.325 78.0606 203.04C77.1312 203.755 76.583 204.84 76.5592 206.007L76.011 230.96C75.9872 231.889 75.6059 232.735 74.9267 233.355C74.7003 233.569 74.45 233.748 74.176 233.879ZM62.0691 181.007C48.7944 187.787 43.5156 204.113 50.2959 217.387C54.5976 225.812 63.1415 231.436 72.5792 232.068C72.9009 232.092 73.2227 231.985 73.461 231.758C73.6993 231.544 73.8304 231.246 73.8423 230.912L74.3904 205.96C74.4262 204.125 75.2842 202.432 76.7379 201.324C78.1798 200.204 80.0387 199.811 81.8262 200.24L99.9149 204.577C100.284 204.661 100.666 204.577 100.964 204.327C101.25 204.089 101.393 203.743 101.369 203.386C101.13 199.668 100.153 196.105 98.4612 192.792C91.657 179.506 75.3437 174.227 62.0691 181.007Z" fill="black"/>
<path d="M284.83 111.309L280.826 124.012C254.289 116.326 226.465 128.683 213.988 152.444L201.143 148.392C215.99 117.673 251.25 101.466 284.83 111.309Z" fill="#FFC107" stroke="black" stroke-width="2.95462" stroke-miterlimit="10"/>
<path d="M282.077 137.001L279.205 146.093C260.556 140.695 240.954 149.632 232.077 166.636L223.056 163.788C233.626 141.791 258.495 130.089 282.077 137.001Z" fill="#FFC107" stroke="black" stroke-width="2.57247" stroke-miterlimit="10"/>
<path d="M262.201 175.168C266.025 175.168 269.124 172.068 269.124 168.245C269.124 164.421 266.025 161.322 262.201 161.322C258.378 161.322 255.278 164.421 255.278 168.245C255.278 172.068 258.378 175.168 262.201 175.168Z" fill="#FFC107" stroke="black" stroke-width="2.59606" stroke-miterlimit="10"/>
<path opacity="0.1" d="M237.344 49.7381L228.026 68.5299L251.441 60.1767L248.808 45.3291L237.344 49.7381Z" fill="black"/>
<path opacity="0.1" d="M66.9422 144.973L77.5953 137.87L77.5596 129.613L66.6562 130.625L66.9422 144.973Z" fill="black"/>
<path opacity="0.1" d="M297.14 311.013L312.571 300.288L380.327 300.86V310.751L297.14 311.013Z" fill="black"/>
</g>
<defs>
<clipPath id="clip0">
<rect x="0.0805664" width="383.034" height="372" fill="white"/>
</clipPath>
</defs>
</svg>
