<svg width="65" height="66" viewBox="0 0 65 66" fill="none" xmlns="http://www.w3.org/2000/svg">
<g filter="url(#filter0_ddd)">
<circle cx="32.5" cy="31.5" r="27.5" fill="#00013E"/>
<path d="M50.6718 24.3974C50.4412 24.3974 50.2212 24.4417 50.0181 24.5196L47.8859 21.7299C48.005 21.5267 48.0753 21.2899 48.0753 21.0362C48.0753 20.2769 47.4597 19.6612 46.7006 19.6612C46.3402 19.6612 46.0148 19.8003 45.7689 20.0264L38.1321 16.8608C38.1412 16.7768 38.1473 16.6913 38.1473 16.6042C38.1473 15.3392 37.1209 14.3125 35.8563 14.3125C34.5962 14.3125 33.5729 15.3315 33.5652 16.5904L21.3004 20.0111C20.9934 19.6124 20.5123 19.3542 19.9701 19.3542C19.0414 19.3542 18.29 20.1058 18.29 21.0347C18.29 21.409 18.4137 21.7543 18.6214 22.0339L14.4104 28.0671C14.3799 28.064 14.3493 28.0625 14.3188 28.0625C13.7277 28.0625 13.2496 28.5407 13.2496 29.1319C13.2496 29.4299 13.3718 29.6988 13.5673 29.8928L12.6494 35.6357C12.1973 35.8144 11.875 36.256 11.875 36.7724C11.875 37.4476 12.4218 37.9946 13.0969 37.9946C13.2725 37.9946 13.4406 37.9564 13.5918 37.8892L16.1715 40.0999C16.1593 40.1594 16.1532 40.2221 16.1532 40.2847C16.1532 40.7904 16.564 41.2014 17.0696 41.2014C17.1567 41.2014 17.2391 41.1892 17.3186 41.1663L20.8911 44.9949C20.8911 45.004 20.888 45.0117 20.888 45.0208C20.888 45.4425 21.2302 45.7847 21.6517 45.7847C22.0397 45.7847 22.3574 45.4929 22.4062 45.1186L26.0887 43.2211C26.1452 43.2532 26.2048 43.2792 26.2674 43.299L27.0021 46.8679C26.8112 47.0604 26.6936 47.3262 26.6936 47.6181C26.6936 48.2093 27.1716 48.6875 27.7627 48.6875C28.3538 48.6875 28.8319 48.2093 28.8319 47.6181C28.8319 47.4057 28.7693 47.2086 28.6624 47.0421L32.4823 41.3114C32.5847 41.3389 32.6916 41.3557 32.8031 41.3557C33.2918 41.3557 33.7134 41.0685 33.9074 40.6529L37.9549 40.3703C38.1657 40.8592 38.6514 41.2029 39.218 41.2029C39.9771 41.2029 40.5927 40.5872 40.5927 39.8279C40.5927 39.724 40.5804 39.6232 40.5575 39.5254L43.9987 37.4599C44.0018 37.4583 44.0033 37.4553 44.0063 37.4538C44.0109 37.4507 44.0155 37.4492 44.0201 37.4461L46.6456 35.6953C46.9206 35.8908 47.2551 36.0085 47.6186 36.0085C48.5472 36.0085 49.2987 35.2568 49.2987 34.3279C49.2987 33.7657 49.0222 33.2707 48.5992 32.9651L50.4534 28.0503C50.5252 28.0594 50.5985 28.064 50.6733 28.064C51.686 28.064 52.5062 27.2436 52.5062 26.2307C52.5062 25.2178 51.6845 24.3974 50.6718 24.3974ZM43.4366 36.5508L40.2933 38.4376L41.8696 35.5456C41.9016 35.5486 41.9337 35.5501 41.9658 35.5501C42.4713 35.5501 42.8822 35.1392 42.8822 34.6335C42.8822 34.4853 42.8471 34.3463 42.7844 34.224L46.8824 30.264L47.0535 32.7467C46.4028 32.9789 45.9369 33.5976 45.9369 34.3279C45.9369 34.5036 45.9644 34.6717 46.0133 34.8306L43.4366 36.5508ZM21.7281 44.2661C21.7082 44.2646 21.6884 44.26 21.667 44.26L18.0563 40.3901L21.3417 38.6286C21.5311 38.7126 21.7388 38.7585 21.9587 38.7585C22.2734 38.7585 22.5651 38.6638 22.8079 38.5003L25.8749 41.7957C25.7573 41.9194 25.6748 42.0753 25.6412 42.2494L21.7281 44.2661ZM13.7201 35.7213L14.609 30.1632C14.719 30.1326 14.8228 30.0853 14.916 30.0226L17.6286 32.9376C17.5645 33.0568 17.5278 33.1912 17.5278 33.3364C17.5278 33.59 17.6408 33.8176 17.8195 33.9719L17.0543 39.3726C17.0253 39.3726 16.9978 39.3742 16.9688 39.3772L14.2821 37.0733C14.3066 36.9771 14.3203 36.8778 14.3203 36.7739C14.3203 36.3247 14.079 35.9351 13.7201 35.7213ZM34.4816 22.8543C34.5611 22.9353 34.6512 23.0025 34.752 23.0544L33.6844 30.5742C33.3453 30.7086 33.107 31.0386 33.107 31.4251C33.107 31.4328 33.1085 31.4419 33.1085 31.4496L29.5253 33.3715C29.3298 33.1179 29.0243 32.9529 28.6776 32.9529C28.6211 32.9529 28.5661 32.959 28.5127 32.9667L24.288 26.5531C24.3567 26.414 24.3979 26.2582 24.3995 26.0917L34.4816 22.8543ZM49.0589 27.1015L47.5331 28.5758L47.113 22.4785L49.175 25.1765C48.9642 25.4744 48.839 25.8381 48.839 26.2322C48.839 26.5469 48.9184 26.8418 49.0589 27.1015ZM46.0133 22.2264C46.1141 22.2844 46.2226 22.3303 46.3371 22.3624L46.8137 29.2694L42.1811 33.7443C42.1124 33.7275 42.0391 33.7168 41.9642 33.7168C41.9352 33.7168 41.9047 33.7183 41.8772 33.7214L39.7938 29.795C40.0947 29.5154 40.2857 29.1182 40.2857 28.6751C40.2857 28.4062 40.2154 28.1526 40.0932 27.9326L46.0133 22.2264ZM37.2309 28.6751C37.2309 28.8554 37.2645 29.0281 37.321 29.19L34.5504 30.6765C34.5183 30.6536 34.4847 30.6337 34.4511 30.6154L35.4882 23.3096L37.735 27.5446C37.4264 27.8242 37.2309 28.226 37.2309 28.6751ZM32.4961 38.9525C32.4838 38.9556 32.4716 38.9586 32.4594 38.9617L29.5818 34.5922C29.6689 34.4547 29.7254 34.2943 29.7407 34.1232L33.443 32.1371C33.4491 32.1417 33.4537 32.1447 33.4598 32.1493L32.4961 38.9525ZM23.3761 36.67C23.1516 36.1047 22.6017 35.7044 21.9572 35.7044C21.7449 35.7044 21.5433 35.7472 21.36 35.8267L19.1926 33.4968C19.2033 33.4449 19.2079 33.3914 19.2079 33.3364C19.2079 33.0232 19.0369 32.7512 18.7833 32.6061L19.3683 28.4765C19.8021 28.3436 20.1182 27.9433 20.1228 27.4667L22.4704 26.7119C22.6644 26.9763 22.9775 27.1474 23.3303 27.1474C23.4662 27.1474 23.5961 27.1214 23.7167 27.074L27.8483 33.3471C27.6986 33.5319 27.6085 33.7657 27.6085 34.0224C27.6085 34.1431 27.6299 34.2592 27.6665 34.3676L23.3761 36.67ZM17.7829 39.6706L18.5649 34.1522C18.6153 34.14 18.6657 34.1232 18.7115 34.1018L20.7521 36.2942C20.5505 36.5524 20.4298 36.8778 20.4298 37.2307C20.4298 37.5546 20.5322 37.8556 20.7047 38.1031L17.7829 39.6706ZM15.3788 28.9914L18.1937 28.0869C18.2991 28.2306 18.4412 28.3467 18.6046 28.4231L18.0578 32.2792L15.3589 29.3794C15.3773 29.3 15.388 29.219 15.388 29.1335C15.3895 29.0861 15.3849 29.0372 15.3788 28.9914ZM22.2672 25.9756L19.8571 26.7501C19.7929 26.6768 19.7196 26.6126 19.6386 26.5607L20.1854 22.7031C20.3779 22.6786 20.5612 22.6206 20.7277 22.5365L22.5681 25.3293C22.4017 25.5004 22.2917 25.725 22.2672 25.9756ZM18.8918 26.3972C18.4122 26.4706 18.038 26.8617 17.9906 27.349L15.7057 28.0839L19.4034 22.7856L18.8918 26.3972ZM27.2862 42.9553C27.3931 42.8056 27.4557 42.6237 27.4557 42.4251C27.4557 41.9592 27.1075 41.5757 26.6584 41.5176L23.3166 37.9274C23.3853 37.7929 23.4342 37.6462 23.4617 37.4919L28.1721 34.965C28.3233 35.046 28.4959 35.0918 28.6792 35.0918C28.7815 35.0918 28.8792 35.0765 28.9724 35.0506L31.8332 39.394C31.6759 39.6003 31.5827 39.8554 31.5827 40.1335C31.5827 40.2985 31.6163 40.4543 31.6743 40.5979L27.9537 46.1819L27.2862 42.9553ZM33.2613 39.0014L34.2082 32.3235C34.6252 32.2379 34.9399 31.8682 34.9399 31.4251C34.9399 31.3946 34.9383 31.3656 34.9353 31.3365L37.7533 29.824C38.0221 30.0593 38.3719 30.2029 38.7568 30.2029C38.882 30.2029 39.0042 30.1861 39.1203 30.1571L41.2158 34.1049C41.1104 34.2546 41.0478 34.4364 41.0478 34.6335C41.0478 34.8275 41.1089 35.0063 41.2113 35.1544L39.4044 38.4682C39.3418 38.459 39.2791 38.4544 39.215 38.4544C38.6437 38.4544 38.1535 38.8043 37.9457 39.3008L33.889 39.5835C33.7577 39.3207 33.5347 39.1129 33.2613 39.0014ZM47.6003 29.5719L49.3858 27.8471L47.7759 32.1142L47.6003 29.5719ZM45.3275 21.0026C45.3275 21.0149 45.326 21.0256 45.326 21.0378C45.326 21.2685 45.384 21.4854 45.4848 21.6779L39.5663 27.3826C39.3311 27.236 39.0561 27.1504 38.7583 27.1504C38.6392 27.1504 38.5231 27.1657 38.4116 27.1917L36.0732 22.7856C36.2244 22.6007 36.3145 22.3654 36.3145 22.1087C36.3145 21.7161 36.1037 21.3754 35.7891 21.189L36.1159 18.8851C36.8063 18.8072 37.402 18.4237 37.767 17.8722L45.3275 21.0026ZM33.8111 17.6339C34.1151 18.2374 34.6756 18.6865 35.3507 18.8393L35.0361 21.0576C34.5458 21.1554 34.1762 21.5878 34.1762 22.1057C34.1762 22.1194 34.1777 22.1347 34.1777 22.1485L24.1352 25.3751C23.9397 25.1506 23.6526 25.0085 23.3318 25.0085C23.312 25.0085 23.2936 25.01 23.2738 25.0115L21.3172 22.04C21.5265 21.7604 21.6517 21.4136 21.6517 21.0362C21.6517 21.0332 21.6517 21.0286 21.6517 21.0256L33.8111 17.6339Z" fill="white"/>
</g>
<defs>
<filter id="filter0_ddd" x="0" y="0" width="65" height="66" filterUnits="userSpaceOnUse" color-interpolation-filters="sRGB">
<feFlood flood-opacity="0" result="BackgroundImageFix"/>
<feColorMatrix in="SourceAlpha" type="matrix" values="0 0 0 0 0 0 0 0 0 0 0 0 0 0 0 0 0 0 127 0"/>
<feOffset dy="1"/>
<feGaussianBlur stdDeviation="2.5"/>
<feColorMatrix type="matrix" values="0 0 0 0 0 0 0 0 0 0 0 0 0 0 0 0 0 0 0.2 0"/>
<feBlend mode="normal" in2="BackgroundImageFix" result="effect1_dropShadow"/>
<feColorMatrix in="SourceAlpha" type="matrix" values="0 0 0 0 0 0 0 0 0 0 0 0 0 0 0 0 0 0 127 0"/>
<feOffset dy="3"/>
<feGaussianBlur stdDeviation="2"/>
<feColorMatrix type="matrix" values="0 0 0 0 0 0 0 0 0 0 0 0 0 0 0 0 0 0 0.12 0"/>
<feBlend mode="normal" in2="effect1_dropShadow" result="effect2_dropShadow"/>
<feColorMatrix in="SourceAlpha" type="matrix" values="0 0 0 0 0 0 0 0 0 0 0 0 0 0 0 0 0 0 127 0"/>
<feOffset dy="2"/>
<feGaussianBlur stdDeviation="2"/>
<feColorMatrix type="matrix" values="0 0 0 0 0 0 0 0 0 0 0 0 0 0 0 0 0 0 0.14 0"/>
<feBlend mode="normal" in2="effect2_dropShadow" result="effect3_dropShadow"/>
<feBlend mode="normal" in="SourceGraphic" in2="effect3_dropShadow" result="shape"/>
</filter>
</defs>
</svg>
