<svg id="svg2" xmlns="http://www.w3.org/2000/svg" viewBox="0 0 1000 571"><path id="path2987" d="M256.81,549.17c-1.22-1.28.49-5,2.55-5.58a3.45,3.45,0,0,1,4,4.46C262.75,549.75,258.11,550.54,256.81,549.17Zm-7.12-10.51a6.48,6.48,0,0,0-3.3-4.13c-2.31-.92-2.54-1.73-2.44-8.43a89.73,89.73,0,0,0-.75-12.83c-.66-4.08-.44-6.32.9-9,2.3-4.67,2.32-12.38,0-14.37s-1.78-7.55.87-12.28a15.26,15.26,0,0,0,2-5.28,16.3,16.3,0,0,1,1.68-5.12c1.67-3.37,4.47-13,6-20.76,1-4.85.66-19.68-.65-30.41-.88-7.21-1.15-7.71-5.95-11.25-6.11-4.51-14.53-16.7-14.53-21,0-.7-1.89-3-4.19-5-3.77-3.33-4.18-4.24-4.08-9.11.06-3.17.84-6.26,1.9-7.49s2.12-4.26,2.53-6.92c.51-3.37,1.67-5.56,3.82-7.24,3.39-2.63,3.49-5.61.46-12.75-1.6-3.75-1.61-3.75-5.51-2s-4,1.62-7.13-1.75c-1.77-1.91-3.53-3.15-3.89-2.76s-.67-.13-.67-1.15-2.24-3.34-5-5.16-5.57-4.48-6.31-5.93c-1.74-3.42-9.87-7.39-14.74-7.2-4.08.16-23.15-8.75-23.15-10.82a1.32,1.32,0,0,0-1.4-1.17c-1.6,0-6.86-7.51-8-11.4-.42-1.44-2.47-4.75-4.54-7.36a48.13,48.13,0,0,1-5.63-9.13c-2.1-5-6.57-9-8.93-8.06-1.37.55-1.37,1.28,0,5.3,1.49,4.44,4.76,10.62,6.29,11.88,1.26,1,2.32,5.87,1.29,5.87-2.36,0-10.32-12.29-12.05-18.58-1-3.67-3.13-8.13-4.73-9.9s-2.49-3.23-2-3.23c.85,0-2.16-3.21-7.88-8.4-2.93-2.66-6.51-7.45-7-9.38-.94-3.59-2.1-20.61-1.59-23.44a20.37,20.37,0,0,0-.53-7.15,11.39,11.39,0,0,1,.51-8.1c2.25-5.62,1.3-8-5.71-14.37-6.1-5.54-7.57-8-11.29-18.71-1.06-3.06-2.62-6.17-3.46-6.9a4.31,4.31,0,0,1-1.53-2.39c0-.58-1.32-3.16-2.94-5.73-2.24-3.55-3.68-4.67-6-4.67a11,11,0,0,1-5.89-2.35,10.09,10.09,0,0,0-5-2.35c-3,0-8.73-2-15.57-5.49-3.2-1.62-6.26-2.66-6.82-2.3s-1,2.34-1.11,4.4C46,138.7,44.44,141,42.2,141c-1.33,0-1-2.86.92-7.63,2.17-5.46.67-7.83-2.7-4.28-3.59,3.76-5.61,8.74-5,12.23.43,2.39.06,3.4-1.5,4-1.15.46-4.75,3.1-8,5.88s-6.6,5.06-7.45,5.06a2.26,2.26,0,0,0-2,1.46c-.26.81-.84-.58-1.29-3.1s-1.54-5.33-2.42-6.25a7.35,7.35,0,0,1-1.59-4.38c0-6.42-1.46-10.18-4.62-11.89-1.84-1-3.21-2.71-3.21-4a4,4,0,0,0-1.07-3C1,124.39,5,119.91,7,119.88a29.19,29.19,0,0,0,5.86-1.64c3.92-1.43,4.52-2.13,4.81-5.64s-.14-4.28-3.37-6.11c-2-1.15-5-1.91-6.48-1.68-3.76.57-8.13-3.64-7.63-7.35.32-2.33.94-2.75,3.59-2.45a15.61,15.61,0,0,1,6,2.28c2.6,1.79,2.89,1.78,4.18-.06a4.43,4.43,0,0,1,2.66-2c.7,0,1.27-1.32,1.27-2.93,0-2.35-.56-2.94-2.79-2.94-1.54,0-2.79-.5-2.79-1.12,0-1.82-5.65-7.21-6.78-6.47-.58.38-1,0-1.06-.86a22.27,22.27,0,0,0-.66-4c-.53-2.09.26-3,4.69-5.29,2.93-1.53,6.08-4.15,7-5.83S19.37,61.48,22,60c4.22-2.35,5.21-2.51,7.54-1.19a6.37,6.37,0,0,0,4.6.74c1-.43,3.06,0,4.47,1A21.31,21.31,0,0,0,46,63a52.91,52.91,0,0,1,8.74,2.18,22.18,22.18,0,0,0,8.26,1,10.78,10.78,0,0,1,7.26,1.63,15.59,15.59,0,0,0,4.6,2.31c.92.16,2.78,1.63,4.14,3.28,3.24,4,6.09,3.79,9.52-.56,3.1-3.93,8.74-6.16,12.84-5.08,2.38.62,2.59.37,2.11-2.44-.37-2.14,0-3.36,1.18-3.84,2-.8,3.51,1.19,4.47,5.84.82,4,2,4.86,4.47,3.41,1.84-1.08,7,.42,12.12,3.57a21.79,21.79,0,0,0,6.15,2c3,.52,4,1.32,4.28,3.37a4.94,4.94,0,0,0,3.35,3.81,46.88,46.88,0,0,1,5.95,2.87c4.49,2.66,6.1,2.18,10-3,3.32-4.33,3.93-4.65,7.6-4a15.34,15.34,0,0,1,5.34,1.87,4,4,0,0,0,3.45.41c1.29-.43,3.69.43,6.21,2.23,4,2.83,4.14,2.85,5.43.68,1-1.62,2.16-2.07,4.3-1.62,3.83.8,7.76-4.1,7.76-9.68,0-3.07-.83-4.56-3.91-7-4-3.25-5.24-8-2.68-10.73,2.17-2.28,7.36,1.83,7.48,5.91.05,1.92.55,3.81,1.12,4.19s1.63,2.66,2.36,5c.91,2.92,2.11,4.45,3.7,4.7s2.8,1.74,3.61,4.29c2,6.22,4.69,7,8.56,2.59,1.78-2.05,3.23-4.66,3.23-5.81,0-2.84.84-3.5,3.53-2.76,1.82.5,2.15,1.28,1.65,3.94-.35,1.82-.16,3.62.43,4,1.15.74.91,4.69-.36,6a6.65,6.65,0,0,0-.78,3.55c0,2.22-.59,2.74-3.11,2.74a20.25,20.25,0,0,0-7.55,2.39c-2.43,1.31-5.44,2.13-6.67,1.81-2.86-.74-6,1.15-4.45,2.69a7.28,7.28,0,0,0,3.25,1.51,3.53,3.53,0,0,1,2.57,1.76c.47,1.5-5.64,5.11-8.65,5.11-5.47,0-10.51,8.71-11.72,20.24-.39,3.71-1.17,7-1.74,7.42-1.33.85-1.32,4.14,0,6.35.87,1.45,1.45,1.47,3.82.14,4.21-2.37,6.29-.92,6.29,4.38s.86,6.62,3,4.75c2.36-2.07,6.72.6,8.57,5.25,1.38,3.47,2.22,4.07,6.59,4.7q11.6,1.66,10.33,6c-.39,1.33-.92,3.21-1.19,4.18s1.24,3.12,3.7,5.07l4.19,3.31,2.52-3.08c1.79-2.2,2.52-4.58,2.52-8.3,0-2.87,0-5.35.09-5.51a31.06,31.06,0,0,0,.33-15.85c-1.21-4.21-1.29-7.07-.37-13.12,2-13.13,2-13.19,4.16-12.07a52.65,52.65,0,0,0,8.36,2.46c3.95.89,6.42,2.06,6.42,3a2.2,2.2,0,0,0,1.19,2c.66.22,1.48,2.64,1.83,5.36.55,4.32,1.25,5.32,5.53,8,5.38,3.32,7.1,3,7.1-1.21,0-3.83,1.85-4.74,2.66-1.31.37,1.53,2.69,6.28,5.15,10.54a73.77,73.77,0,0,1,4.48,8.45c0,1.09,2.59,3.3,6.19,5.29,2.94,1.62,3.31,2.43,3.26,7.09-.08,7.36-4.65,12.81-10.76,12.81-2.37,0-5.23-.6-6.35-1.34-4.25-2.79-13.57,2.68-13.57,8,0,1.75.47,2.61,1.18,2.15a5.68,5.68,0,0,1,3.68-.11c1.81.48,2.49,1.51,2.45,3.73,0,2.53.72,3.35,4.29,4.65,6.37,2.33,6.93,3.37,4.11,7.54-1.59,2.34-3.41,3.61-5.17,3.61-3.15,0-3.36-.86-1.06-4.31,1.48-2.22,1.47-2.57-.08-3.2-3-1.21-11.38,4.84-20.18,14.55-2.85,3.14-5.69,5.52-7.47,6.23-1.1.45-1.9,2.1-1.94,4-.2,9.28-.78,10.79-6.05,15.83-7.23,6.92-8.75,10.35-7.91,17.9a21.17,21.17,0,0,1-.83,9.91c-1.51,3.76-1.54,3.77-4,1.65-2.26-1.93-2.37-2.47-1.09-5.42.87-2,1-3.6.37-4.09a11.45,11.45,0,0,1-2.28-3.14c-1.77-3.37-8.88-3.84-12-.79-2,1.94-3.69,2.25-10.43,1.95-9.4-.41-14.24,1.67-17.31,7.44-3.52,6.62-1.16,22.06,3.57,23.36,1.22.34,2.22,1.06,2.22,1.6,0,1.19,6.43,3.16,9.51,2.9,1.22-.1,4.34-1.65,6.91-3.46s5.22-2.93,5.87-2.5c1.73,1.12,1.45,4.81-.49,6.5-4,3.49-1.08,8.22,5.09,8.22,5.9,0,10.35,4.55,9.66,9.89a20,20,0,0,1-1.18,5.1c-1.18,2,3.35,5.27,6.06,4.37,1.37-.46,4.34-.18,6.61.6,3.48,1.21,4.69,1.14,7.6-.44a16.51,16.51,0,0,0,5.45-5.42c1.09-1.94,2.37-3.53,2.85-3.53,1.25,0,.47,4.16-1.18,6.24-.95,1.21-1,2-.22,2.54,1.61,1.05,5.91-.5,7.41-2.65,1-1.38,2.39-1.56,6.71-.84a55.64,55.64,0,0,0,10,.68c5.12-.27,9.57,2.68,12.26,8.14,1.26,2.58,3.11,3.78,8.08,5.28,7.48,2.27,12,6.24,15,13.1,1.41,3.28,3.14,5.26,5.27,6A27.63,27.63,0,0,1,320,363c3.84,3.54,4.23,3.65,8.45,2.32,6.25-2,11.59-.61,15.11,3.86,1.62,2.05,2.94,4.25,2.94,4.89s1.09,2.39,2.43,3.89c2.33,2.61,2.36,2.94.75,8.3-1.41,4.68-2.09,5.53-4.21,5.28-1.74-.21-2.72.44-3.12,2-.32,1.3-1.11,2.36-1.76,2.36s-.85.33-.47.73-.13,2.39-1.14,4.41a40.52,40.52,0,0,0-2.66,10.69c-.9,7.8-4.38,12.36-9.42,12.36a5.79,5.79,0,0,0-4.59,3c-1.21,1.95-2.59,2.83-3.88,2.47-4.15-1.14-5.2,1.14-8.19,17.63-.66,3.64-2.74,7.42-4.08,7.42-.62,0-2.18,2.64-3.46,5.87s-3,5.87-3.8,5.87-2.78-1.45-4.35-3.23c-2.43-2.73-3-2.95-4-1.46-.61,1-.86,3.61-.56,5.87a15.44,15.44,0,0,1-1.39,8.22c-1.57,3.33-2.58,4.11-5.29,4.11-3.54,0-5.27,1.15-6.38,4.24-.37,1-2.29,2.23-4.25,2.64-3.55.75-3.57.8-2.82,6.11.89,6.2-.14,8.06-5.8,10.55-3.49,1.53-3.73,2-3.07,5.51.4,2.11,1,5.29,1.31,7.06.4,2.16-.41,5.23-2.47,9.37a75.25,75.25,0,0,0-4.36,10.88c-1.56,5.67-4.68,7-5.78,2.37Zm-51.3-320.09c.21,0,1.21-2.64,2.23-5.87s2.22-5.87,2.66-5.87c1.65,0,3.49,2.9,3.49,5.52,0,1.48.53,2.7,1.19,2.7,2.23,0,5.51-2.43,5.51-4.07a3.09,3.09,0,0,1,2.24-2.39c4-1.33,2.38-3.91-4.42-7.12-4.83-2.28-6.93-4-7.64-6.23-.79-2.49-1.72-3.11-4.8-3.21a32.9,32.9,0,0,1-6.68-1c-3.86-1.12-9.1,3-6.86,5.4.8.85,3.32,1.55,5.59,1.55,3.4,0,4.19.45,4.48,2.56a13.17,13.17,0,0,1-1.4,6.11,17.22,17.22,0,0,0-1.74,6c0,3.83,2.17,7.3,4.09,6.53A11.3,11.3,0,0,1,198.39,218.57Zm-24.52-41c-.4-3-.84-6.86-1-8.61-.35-4.86-2.19-6.18-6-4.28s-4.72,5.15-1.58,6c2.21.6,2.92,3,2.45,8.38-.11,1.24.92,3.5,2.28,5,2.2,2.47,2.58,2.56,3.5.84.57-1.06.69-4.37.28-7.37Zm-34.7-37.87c8.27-7.16,8.88-8.59,4.17-9.8a10.08,10.08,0,0,1-4.87-3.23c-2.85-3.87-4.72-1.6-3.93,4.8.72,5.82.15,7.51-2.93,8.7-2.55,1-2.54,4.36,0,4.36,1.09,0,4.48-2.17,7.54-4.83Zm-18.1-29.41a11,11,0,0,0,3.27-2.64c.58-.89,1.18-.75,1.91.46,1.23,2,2.81.83,5-3.71a5.88,5.88,0,0,1,3.78-3.12,2.6,2.6,0,0,0,2.49-2.5c0-2.74-1.86-4.29-6.67-5.6-3.18-.86-4.79-.55-8.94,1.76-9.09,5-12.44,10.09-6.36,9.59,4.11-.34,4.4,0,2.6,2.86-2.48,4-1.22,5.21,3,2.9ZM940.78,535.47c-2.85-3.69-1.09-6.92,8.34-15.31,3.58-3.18,6.15-2.66,5.89,1.18-.32,4.81-.5,5.45-1.26,4.66-.38-.4-1.42,0-2.31,1a6.17,6.17,0,0,1-3.85,1.71c-1.22,0-1.92.51-1.56,1.12,1,1.63-.5,6.84-2.08,7.48-.74.3-2.17-.52-3.17-1.81Zm9.74-10.3c.4-.67,0-.86-1-.46-1.93.78-2.29,1.62-.68,1.62A2.34,2.34,0,0,0,950.52,525.17ZM873.82,520a3.64,3.64,0,0,1-2.25-4.28,19,19,0,0,1,.56-3.07c.36-.38,3.64-.68,6.1-.54,2.28.12,2.55.65,2.24,4.44C880.08,521.31,878.18,522.3,873.82,520Zm87.56-12c-.79-.89-1.1-1.62-.7-1.62s.15-.74-.57-1.65c-.93-1.19-1-1.89-.08-2.46.67-.43,1-2.32.71-4.19-.5-3.38-.49-3.38,2.15-1.36,1.46,1.11,2.68,2.9,2.69,4,0,1.36.71,1.76,2.27,1.33,3-.81,2.85,1.37-.25,4.63s-4.34,3.46-6.22,1.35Zm-89.64-9.34c-2.88-1.05-4.31-1.08-5.44-.12-1.56,1.34-3.12-.12-8.42-7.88a10.33,10.33,0,0,0-4.8-3.82c-1.57-.42-2.6-1.5-2.49-2.62.69-7.57-1.83-9.37-6.79-4.85-3.31,3-4.3,2.95-5.5-.35-1.65-4.58-4.42-6.08-11.13-6-4.46,0-8.3,1-13.25,3.36-5.77,2.76-8,3.22-12.85,2.7a34.68,34.68,0,0,0-10.6.67c-2.59.72-5.05.94-5.46.51s-.9-2.95-1.08-5.59-.9-5.54-1.61-6.44a14.55,14.55,0,0,1-1.85-5.5,14.62,14.62,0,0,0-2.55-6.23c-1.52-1.79-1.77-3.17-1.06-5.8.58-2.17.48-4-.28-5a3.91,3.91,0,0,1-.34-3.59,7.5,7.5,0,0,0,.69-2.93c-.27-1.35,6-4.36,10.65-5.11,10.46-1.7,11.93-2.32,13.77-5.82,1-1.92,2.73-3.67,3.81-3.89s3.38-2.05,5.09-4.07c2.6-3.05,3.41-3.42,4.81-2.2,3.59,3.13,6.18,2.51,11.65-2.79,2.94-2.86,6.24-5.2,7.31-5.21s2-.49,2-1.08c0-1.15,1.32-1.07,5.35.36,2.26.79,2.52,1.56,2.24,6.39-.33,5.45-.3,5.49,4.7,8,8.44,4.17,11.08,4.46,12.18,1.37.52-1.47.53-3,0-3.31-1.24-.83.43-7.31,2-7.87.68-.24,1.56.64,2,1.95s2.32,3.56,4.28,5c4.63,3.39,5.21,4.36,5.23,8.67,0,2.74,1.2,4.75,5,8.41,2.72,2.65,5.18,4.57,5.46,4.27.72-.75,7.48,8,7.48,9.74a2.09,2.09,0,0,0,1.29,1.85c1.88.66,2.88,10.14,1.64,15.6a33.21,33.21,0,0,1-3.67,8.79c-1.44,2.25-2.62,5.3-2.62,6.78,0,2.66-7.67,12.51-11.1,14.25-1,.49-3.51.24-5.66-.54ZM505.06,470.4c-2.1-2.67-5.5-12.61-7.36-21.6a8.77,8.77,0,0,0-2-4.11c-2.31-2-4.73-7.95-5.38-13.3-.34-2.8-1.38-6-2.32-7.06-3-3.46-3.39-12.81-.95-22,1.91-7.19,2-8.84.75-12.33-.8-2.22-2.77-7.7-4.39-12.17s-3.75-8.76-4.74-9.52c-1.47-1.13-1.67-2.72-1.08-8.64l.72-7.25-3.26-.69a13,13,0,0,1-5.53-2.9c-1.25-1.22-2.74-2.22-3.31-2.22s-1.34-.79-1.69-1.76c-.84-2.31-6.24-2.27-9.41.07-2.65,1.95-7.73,1.63-14.44-.91-2.72-1-4.27-1-6.48,0-5.63,2.69-9.21,1.75-14.52-3.83-2.73-2.87-5.25-6.44-5.61-7.93s-2.37-3.9-4.48-5.34c-5.56-3.83-7.19-7.85-6.06-15a108.22,108.22,0,0,0,1-12.69c.07-7.89,2-12.45,7.89-19,2.32-2.58,4.57-5.89,5-7.34s1.21-2.64,1.77-2.64c2.18,0,8-8,10.4-14.1,2.66-7,2.34-6.81,11.71-5.2,3.86.67,5.68.33,9.06-1.66s6.43-2.55,16.26-2.81c11.4-.3,12.1-.18,12.93,2.18a7.74,7.74,0,0,1-.7,5.72c-2.42,4.89-2.07,5.3,4.57,5.3,3.39,0,7,.45,8.1,1a75.37,75.37,0,0,0,7.22,2.78c4.93,1.66,5.39,1.63,7.15-.42,2.09-2.43,3.95-2.73,6.87-1.11a41,41,0,0,0,14.87,5.27,73.36,73.36,0,0,1,8,1.35,11.05,11.05,0,0,0,6.16-.54c5.19-2.26,9.94-14.33,7.23-18.37-1.41-2.09-9.5-4.08-15.35-3.77-5.46.29-5.6.21-6-3.23a12.24,12.24,0,0,0-1.42-4.84c-2-2.55.25-4.65,8.53-8,7.79-3.13,8.76-3.26,14.22-2,10.59,2.53,12,2.71,14.8,2,4.34-1.14,3.46-4.75-2.78-11.38-3.08-3.26-5.59-6.9-5.59-8.07,0-2.12-2.07-3.56-5.12-3.56-1,0-1.59,1.27-1.59,3.6,0,3.07-.37,3.55-2.51,3.23a3.26,3.26,0,0,1-2.88-3.09c-.2-1.49-1.09-3-2-3.36-2.41-1-6.79,2.59-7.67,6.25a9.56,9.56,0,0,1-2.93,4.83,6.42,6.42,0,0,0-2.15,5c0,4.24-3.83,8.2-7.92,8.2-3.17,0-4.38,1.79-4.38,6.49,0,4.14-1.65,4.45-5.49,1.06-2.27-2-4-5.19-5.18-9.33-1.56-5.63-2.26-6.56-6.77-8.85-2.76-1.4-5.81-3.82-6.77-5.36-2.21-3.54-6-3.76-6-.34,0,3.93,4,8.81,9.48,11.5s6,3.72,3.41,6c-.91.78-1.6,1.77-1.55,2.2.57,4.48-2.93,5.13-4,.74a18.83,18.83,0,0,0-3.2-6.05c-2.92-3.63-13.29-14.48-13.85-14.48a40.76,40.76,0,0,0-4.55,2.35,19.29,19.29,0,0,1-7.75,2.35c-3.61,0-7.07,3.33-7.07,6.8,0,1.57-2.72,5.07-3.87,5-.33,0-1.09,0-1.69,0s-2.18,2.25-3.51,5c-2.52,5.22-4.19,7-5.68,6-.49-.32-2.31.3-4.05,1.38-2.93,1.82-3.43,1.83-6.68.06-4.28-2.32-5.7-4.91-5.61-10.19a48,48,0,0,0-.45-7A13.76,13.76,0,0,1,426,221c.87-2.46,1.42-2.64,5.69-1.9,12.38,2.15,11.79,2.32,12.65-3.69.89-6.25-1.24-11.27-5-11.89-1.27-.2-2.32-1-2.32-1.87,0-2.32,3.95-6.56,6.11-6.56,4.12,0,9.61-4.05,20.54-15.15C474.41,169,475,168.16,475,163.57c0-6.85,2.87-5.31,3.8,2.05l.71,5.63,7.34.72c5.69.56,7.94.3,10.05-1.15a7.76,7.76,0,0,1,6-1.18c3.76.79,4.53,0,6.25-6.86,1.15-4.59,1.29-4.7,6.14-4.7s5-.09,5.34-4.11c.47-5.27,1.69-6.73,7-8.41,6.32-2,7.69-4.19,4.29-6.89-3.79-3-7.64-3.54-12.55-1.76-5.13,1.85-5.58,1.28-6-7.74-.3-5.63.19-7.82,3-13.43,4-8,4.79-13.76,1.93-14.38s-8.51,6.55-7,9.13c.66,1.12-7.87,10.59-9.53,10.59-1.12,0-3.34,7-3,9.4a15.59,15.59,0,0,0,2.2,4.67c2.09,3.13,2.59,8.86.87,10-.58.38-2.71,3.84-4.72,7.7s-4.23,7-4.92,7c-1.85,0-4.94-4-4.94-6.37,0-2.87-3.54-8.9-5.22-8.9A3.09,3.09,0,0,0,479.8,146a15,15,0,0,1-2.8,3c-1.65,1.36-2.35,1.09-5.31-2.09-1.87-2-3.4-4.86-3.4-6.33a6.78,6.78,0,0,0-1.3-4c-.71-.75-1.2-4.11-1.09-7.47.22-6.57.91-7.55,8.25-11.66,4.17-2.33,8.65-8.42,10.34-14a9.94,9.94,0,0,1,3-4.47,5.43,5.43,0,0,0,2.07-3.76c0-1.22,2.41-5.29,5.36-9A71.38,71.38,0,0,0,502.19,75c2.13-4.79,5.51-7.35,8.24-6.25,1,.38,4.32-.8,7.46-2.64A21.94,21.94,0,0,1,530,62.64c7.28-.13,8.33,1.54,4,6.38l-2.43,2.72h4c3,0,4.6.78,6.22,2.94a6.63,6.63,0,0,0,5.86,2.93,9.63,9.63,0,0,1,5.78,2A44.14,44.14,0,0,0,559.57,84,11.82,11.82,0,0,1,565,90.85c1.3,4.05,1.23,4.58-.81,6.08-1.23.91-3,1.35-3.9,1a2.13,2.13,0,0,0-2.55.83c-1.23,2.09-7.25-.77-9.05-4.3-1.16-2.27-4.46-3.86-8.28-4-.61,0-1.4,1.18-1.74,2.67-.48,2.08.17,3.34,2.79,5.4,3.76,3,4.9,5.17,5,9.73.09,3.28,4.07,7.75,6.78,7.63.93,0,1.85-1.3,2-2.79a5.17,5.17,0,0,1,3.3-3.88,18.57,18.57,0,0,0,5.79-4.5c2.55-3,5.93-4.15,13.73-4.71,1.63-.11.81-3.24-1.4-5.34-2.68-2.56-2.86-5.63-.47-8.14,2.59-2.73,3.83-2.26,3.83,1.44,0,6.67,6,8.42,9.12,2.66,2.53-4.67,16.58-11.77,16.58-8.38,0,2.58,4.71,2.61,7.3,0,1.88-1.85,3.43-2.39,5.37-1.88,2.12.56,3.52-.13,6.22-3,3.35-3.61,3.68-3.7,8.13-2.45,2.56.71,5.27,1,6,.74,1.76-.71,2.68-4.35,2.7-10.75,0-2.79.52-6.06,1.14-7.27.76-1.51.74-2.45-.1-3s.18-1.68,2.23-3,3.45-2.74,3.45-3.39c0-1.89,6.28-1.39,7.86.62,1.09,1.37,1.12,2.14.14,3.17-1.87,2-1.58,11.45.48,15.57,2.63,5.28,2.84,14.88.45,21.44-1.85,5.07-2.33,5.55-5.3,5.23-5.05-.53-6.7,2.35-4.34,7.56,1.45,3.19,2.35,4,3.82,3.33a35.88,35.88,0,0,1,5.27-1.62c4.09-.94,10.62-10.45,10.62-15.46,0-4.15,2.16-9.32,3.89-9.32.84,0,1.37,2.81,1.5,7.88.12,4.33.68,8.37,1.26,9,1.43,1.51,9-2.37,9-4.61a11.14,11.14,0,0,0-1.68-4.45,20.88,20.88,0,0,1-2.13-7.51c-.56-6.19-1.3-7.34-4.54-7.06-3.47.3-8.21-2.42-9-5.19-1.88-6.21-2.3-17.49-.77-20.37,1-1.87,1.27-1.74,2.65,1.22.84,1.81,2.29,3.65,3.21,4.08,9.86,4.62,10.62,5.43,10.65,11.37,0,7.51.92,8.92,4.48,7.21,2.18-1,2.76-2.2,2.77-5.53a35,35,0,0,1,.62-6.59c.43-1.66-.72-3.93-3.84-7.58C681.73,46.5,681,45,681.87,43.3c.59-1.15,1.43-2.14,1.87-2.19,5.32-.58,8.46-2.72,8.6-5.87a28.2,28.2,0,0,1,2.82-5c1.78-2.75,3.39-4.08,4.44-3.67.9.36,1.33.33,1-.07s1.4-3.17,3.94-6.17c9.57-11.29,8.78-10.79,15.94-10.17,5.71.5,6.87,1,9.6,4.53,2.24,2.86,3.74,3.79,5.38,3.34a6.63,6.63,0,0,0,4.44-8.38c-.51-1.71-1.23-4.57-1.6-6.34C737.59.1,737.61.09,743.73.09c5.69,0,6.2.23,6.88,3,.62,2.62,1.14,2.93,3.65,2.22,5.5-1.56,10.39-1.08,11.56,1.13a24.87,24.87,0,0,0,3.31,4.39c2,2.13,2,2.51.43,5.12a11.86,11.86,0,0,0-1.76,5.12c0,2.7-1.55,4.37-7.74,8.29-2.5,1.58-4.55,3.52-4.55,4.32a5.79,5.79,0,0,1-1.62,3.14c-1.33,1.4-1.36,2.07-.19,3.75,1.33,1.93,1.69,1.87,5.82-.87a32.77,32.77,0,0,0,5.9-4.81c1.34-1.7,1.88-1.71,5.53-.11a17.84,17.84,0,0,1,4.64,2.63,45.66,45.66,0,0,0,4.23,4c2.81,2.43,4.46,3,7.26,2.54,2-.32,6.74.18,10.54,1.13,6.74,1.68,7,1.65,10.83-1.1q6.3-4.5,6.29-1.63c0,.64.7,1.17,1.55,1.17,2.54,0,5,5.19,5.37,11.3l.35,5.73,6.25-.38a41.31,41.31,0,0,1,12.41,1.5c5.7,1.75,10.48,1.52,9.33-.44-.27-.47.2-2.25,1-4a23,23,0,0,0,1.9-5.67,6.21,6.21,0,0,1,2.28-3.82c1.53-1,2.57-.59,5.21,2.07,3.32,3.34,10.69,5.07,12,2.82.9-1.52,7.11.14,9.58,2.56a10.15,10.15,0,0,1,2.54,4.56c.68,3.72,1.36,4.52,5,5.85,2.62,1,4.12.75,7.5-1.06,6.6-3.54,9.69-2.66,10.63,3,.48,2.94,4.66,5.35,10.31,6a23.08,23.08,0,0,1,8.17,2.84c2.1,1.3,4.45,2.37,5.22,2.37s3.1,1.32,5.18,2.94c4.78,3.7,10.06,4,10.06.53,0-1.32,1.23-3.79,2.73-5.49l2.72-3.09,5.76,3.14C961,78.55,964.47,80,965.55,80s2.92,1.12,4.08,2.47c2.09,2.42,8.28,6.36,8.28,5.26,0-.31,1.45,0,3.22.62,2.5.92,3.36,2.1,3.86,5.33a15.66,15.66,0,0,0,1.85,5.69c1.28,1.62,5.6,1.07,5.6-.71s4.19-1.16,6.07.81c2.58,2.71,2.16,5.39-1.52,9.63l-3.28,3.77-8.42-4.69c-4.63-2.57-9.17-4.68-10.1-4.68s-2.44,1.52-3.35,3.38-2.5,3.72-3.51,4.13c-1.53.61-1.77,2.07-1.39,8.33l.46,7.59-5.36,2c-2.95,1.12-5.36,2.4-5.36,2.84s-1.23,1.14-2.74,1.54a7.77,7.77,0,0,0-4.21,4c-1.29,2.83-2.1,3.22-6.69,3.22s-5.67.53-8.6,4-3.84,3.9-7.44,3.28c-5.31-.9-8.33,1.06-7.7,5,2.21,13.87.69,20.63-5.43,24.11a14.83,14.83,0,0,0-5.25,5.73c-1.89,4.18-4.6,4.88-5.25,1.35-1-5.49-.53-13.61.91-15.48,1-1.34,1.09-1.71.15-1.12-.77.48-1.4.32-1.4-.36,0-1.38,2.31-4.41,7-9.2,1.69-1.73,3.07-3.93,3.07-4.89s1.72-3.61,3.82-5.9,4-5.22,4.2-6.51c.3-2-.19-2.3-3-2.06a12,12,0,0,1-5.78-1c-2-1.07-3-.88-5.58,1a28.48,28.48,0,0,0-8.69,10c-1.38,2.92-5.81,3.77-7.09,1.36-1.57-2.95-6.16-3.89-9.39-1.91-2.61,1.6-3.61,1.63-7.56.26-3.38-1.17-5.19-1.25-7-.3a27.46,27.46,0,0,1-5.33,1.91c-3.93.88-14.55,15.77-15.61,21.87-.86,4.92-.06,6.45,3.78,7.21,1.38.28,2.68,2.34,3.8,6,1.47,4.86,1.5,6.73.21,13.93-.82,4.57-2.09,8.94-2.82,9.71a26,26,0,0,0-3.06,4.86c-2.19,4.4-10.73,13.46-12.68,13.46a25.41,25.41,0,0,0-6,1.89c-3.84,1.61-5,3-8,9.6-3.16,7-3.38,8.11-2.17,11.6s1.06,4.18-.91,6.4L816,258.82l-.72-3c-.4-1.67-.4-3.59,0-4.28.81-1.37-1.89-4.76-3.8-4.76-1.2,0-1.52-1.08-1.49-5.1,0-1.72-.59-2-2.92-1.55-7.06,1.48-7.4,1.43-7.76-1.27-.21-1.58-1.14-2.65-2.3-2.65-2.15,0-9.08,7-9.08,9.12,0,1.84,3.68,3.8,7.13,3.8,4.28,0,4.54,2,.77,6-3.24,3.4-3.39,4-2.87,10.71.39,5.05,1.18,7.68,2.71,9.08,2.09,1.91,2.1,2.1.17,6.6-3.06,7.12-11.71,16.57-16,17.46a41.69,41.69,0,0,0-8.09,3c-2.45,1.22-5,1.9-5.55,1.5-1.23-.79-8-.53-11,.44-3.24,1-2.26,12.73,1.31,15.74,1.94,1.63,4.54,7.29,4.76,10.34.32,4.4-2.77,9.38-6.41,10.34-2.33.62-3.78-.24-8.36-5-3-3.15-5.55-6.42-5.55-7.27s-1.09-1.41-3.05-1.17c-3.3.4-6.47,5.25-4.83,7.37a28.37,28.37,0,0,1,2.37,6.26,24,24,0,0,0,3.86,7.8c3.69,4.19,7.59,11.26,6.72,12.18-.43.45-2.24-1-4-3.29s-4.18-5.17-5.33-6.46c-4.06-4.56-4.91-7.76-6.44-24.13-.87-9.21-3.07-13.37-6.18-11.62-2.28,1.28-4.33.6-4.33-1.44,0-.68-1.21-2.74-2.69-4.59a23.47,23.47,0,0,1-3.13-4.76c-.25-.78-3.69-1.82-7.65-2.33-7-.9-7.28-.84-10.39,2.59a47.31,47.31,0,0,1-7.49,6.38c-4.33,2.87-6.8,6.31-7.44,10.35a14.74,14.74,0,0,1-2,4.67,9.73,9.73,0,0,0-1.67,4.08c0,2.48-7.59,10.38-8.7,9-.52-.64-1.62-4.07-2.44-7.62A40.74,40.74,0,0,0,662,320.79a16.85,16.85,0,0,1-2.63-7.34c0-1.79-.5-3.25-1.1-3.25s-1.41-1.33-1.8-2.95a4.91,4.91,0,0,0-3.37-3.65c-1.49-.4-2.67-1.58-2.67-2.68,0-2.18-8.48-10.12-12.52-11.72a48.11,48.11,0,0,0-8.65-1.79c-8.23-1.05-11.08-1.83-15.95-4.4a19.22,19.22,0,0,0-7.06-2.18c-4.6,0-7.22-2.12-9.49-7.68-2.14-5.25-3.34-6-10.6-6.69-3.9-.36-4,1.31-.44,9a23.37,23.37,0,0,1,2.12,6.75c0,1.59.86,2.13,3.35,2.13,2.81,0,3.36.47,3.36,2.86,0,5.76,6.57,8.84,8.94,4.19,1.36-2.68,5.58-3.2,5.58-.68,0,.91,1.76,2.81,3.92,4.21s3.89,3.15,3.88,3.91c-.06,2.44-7.79,10.22-12.61,12.68-2.57,1.31-5.44,2.79-6.36,3.29a51.74,51.74,0,0,1-7.82,2.34,52.16,52.16,0,0,0-8.48,2.62,11.31,11.31,0,0,1-5.55.8c-2.64-.32-3.35-1.1-4-4.32-.42-2.17-2.53-5.87-4.69-8.23a36.18,36.18,0,0,1-5.68-8.4c-1-2.26-4.43-9.39-7.71-15.85-5-9.94-6.37-11.75-8.67-11.75-3.83,0-4.08,3.41-.6,8.2a14.19,14.19,0,0,1,2.89,8.21,15.58,15.58,0,0,0,1.73,7,19.29,19.29,0,0,1,2.24,5.78c.29,1.65,2,4.72,3.86,6.84,2,2.28,3.34,5.13,3.34,7,0,2.58.73,3.42,3.91,4.52,2.16.75,4,2,4,2.74s.17,3.49.28,6.07c.18,4.56.29,4.69,3.82,4.33,2-.2,3.63.18,3.63.84,0,2.57,4.13,3.64,7.42,1.93a37.29,37.29,0,0,1,6.44-2.49c3.19-.83,3.23-.77,2.5,3.09-.41,2.16-1.17,4.22-1.69,4.58a14,14,0,0,0-2.49,3.8C584.91,348,576,358.93,566.85,368.8c-8.08,8.71-9.4,12.3-7.52,20.32.81,3.43,2.66,9.59,4.11,13.68l2.64,7.44-4.47,4c-2.46,2.2-5.35,4-6.43,4s-2,.54-2,1.19-.7,1.17-1.55,1.17c-2.25,0-3,2.85-2.19,8.79.66,5,.54,5.29-3.37,7.72-2.23,1.39-3.79,3-3.46,3.53s-1.41,5.19-3.86,10.31c-6.21,13-16.58,21.06-24.83,19.36-1.61-.33-3.28,0-3.69.68-1.1,1.87-3.48,1.59-5.21-.6Zm98.43-223.59c1.92-3.76.12-15.09-2.94-18.55-1.44-1.64-2.62-3.93-2.62-5.09a3.7,3.7,0,0,0-1.12-2.83c-2.8-1.82-.89-3.2,3.42-2.48l4.53.76-.34-5.51c-.3-4.79-.8-5.78-3.87-7.57-3.23-1.89-4.1-1.92-10.68-.34-5.81,1.39-7.51,2.35-9,5.08-2.48,4.42-2.39,7.33.34,10.64a9.72,9.72,0,0,1,2.24,4.84c0,1.17,1.47,3.89,3.28,6.05,2.81,3.36,3.18,4.6,2.66,8.69s-.22,5.05,2,6.69c3.74,2.75,10.67,2.54,12.15-.38Zm21.43-24.42c2.37-4.35,3.42-12.09,1.89-14-.67-.85-2.67-1.54-4.45-1.54-2.44,0-3.77.92-5.44,3.81-2.83,4.87-2.79,6.33.29,11.08S622.59,226.66,624.92,222.39ZM574.46,438.78a11.46,11.46,0,0,0-1.76-4.62c-1.38-2.23-1.49-3.34-.48-5.32a14.78,14.78,0,0,0,1.09-6.25c-.32-6.12-.17-6.34,5.06-7.73,4.11-1.08,5-1.82,5-4,0-4.37,3.15-8.06,6.53-7.65,2.63.32,2.93.82,2.67,4.29-.16,2.17-1.65,6.92-3.31,10.58a58.37,58.37,0,0,0-3.27,8.4c-1.15,7.8-3,11.67-6.27,12.85C575.23,441,574.46,440.91,574.46,438.78ZM875.74,399.4a7.83,7.83,0,0,0-3.92-2.39l-6.78-.43c-8.51-.53-13.7-2.76-20.66-8.87-6-5.24-8.17-6.45-10.9-6-.45.08-1.13-1.18-1.52-2.79s-1.14-2.93-1.69-2.93-1-.8-1-1.77c0-2.94,4.77-2,7.4,1.47,2.3,3,2.68,3.14,6.14,1.77s4.09-1.17,7.65,1.36a25.41,25.41,0,0,0,8.83,3.64c4.65.79,7.22,2.61,9.66,6.84a6,6,0,0,0,3.91,2.35c1.76.25,3.37,1.67,4.36,3.82.87,1.88,2,3.6,2.52,3.81a1.71,1.71,0,0,1,.94,1.47c0,1.8-2.66,1.08-4.94-1.34Zm-67.7,0c0-.62.75-1.14,1.67-1.14,2.15,0,2.15.74,0,1.6C808.79,400.27,808,400.06,808,399.43Zm-44.61-5.13c-5.71-1.83-7.68-2.9-6.33-3.44,3.46-1.4,10.82-.84,14.75,1.12,3,1.52,3.56,2.23,2.55,3.52C772.85,397.47,773.53,397.54,763.43,394.3Zm30.64-7.75a2.45,2.45,0,0,1-.07-2.23c.34-.58-.14-1.35-1.06-1.72-2.18-.88-2.17-5.45,0-5.45,1,0,1.68-1.1,1.68-2.85,0-2.78,2.56-6.55,4.46-6.55,2.06,0,4.43,1.48,3.88,2.42a1.87,1.87,0,0,1-2.22.35c-2.39-1-3.29,2.73-1.2,4.92,2.6,2.73,2.32,8.42-.45,9.35-1.23.41-2.24,1.23-2.24,1.84,0,1.45-1.92,1.4-2.79-.08Zm-47.46-5.24a5.08,5.08,0,0,0-3.25-1.85c-2.68,0-5.29-2.5-6.24-5.84-.46-1.61-3.42-5.39-6.59-8.39s-5.41-5.82-5-6.27c.78-.85,14.41,6.58,18.11,9.86,2.8,2.49,6.63,12,5.38,13.27-.56.59-1.59.26-2.41-.78Zm24.27-5c-5.48-1.69-5.78-2.24-4.63-8.32.53-2.79,1.65-4,5-5.4,2.35-1,4.77-2.75,5.36-3.9a14.31,14.31,0,0,1,4.46-4.17c3.29-2,3.45-2,5.57.38,3.22,3.64,2.36,13.9-1.62,19.4-2.33,3.21-3.28,3.79-4.49,2.73a2.11,2.11,0,0,0-2.93-.21c-.91.73-3.25.56-6.7-.51Zm45-7.37A1.12,1.12,0,1,1,817,370.1,1.15,1.15,0,0,1,815.86,368.93Zm-8.94-18.73c-3.39-.92-3.7-4-.46-4.53,2.64-.39,5.85,2.86,4.27,4.34-.56.52-2.27.6-3.81.19Zm-130.74-5.06a7.33,7.33,0,0,1,1-3.06c1.22-2,2.84.33,1.93,2.82-.76,2.09-2.94,2.27-2.91.24Zm120.58-20c-1-2.73-.82-7.92.22-8.59.85-.55,1-.38.55.48s-.35,1.36.2,1.36c.87,0,3.6,4.95,3.6,6.51C801.33,325.48,797,325.71,796.76,325.17ZM326,312.05a6.11,6.11,0,0,1,0-3.59c.55-1.51.85-1.49,2.36.09s1.54,2,0,3.58S326.58,313.7,326,312.05Zm436.79-1.85a2.91,2.91,0,0,1,2.31-1.18c.88,0,1.61.53,1.61,1.18s-1,1.17-2.3,1.17S762.39,310.84,762.77,310.2Zm-497.33-7.05c-.38-.65.1-1.18,1.05-1.18s1.75.53,1.75,1.18a1.13,1.13,0,0,1-1.06,1.17A2.41,2.41,0,0,1,265.44,303.15ZM248.12,301c0-1.75,5.38-4.06,7.47-3.21,1.93.79,1.93.9-.14,2.51C253.1,302.11,248.12,302.59,248.12,301Zm547.62-2c0-1,.51-1.77,1.12-1.77s1.12.8,1.12,1.77-.5,1.76-1.12,1.76S795.74,300,795.74,299Zm-561-3c0-1.41-1.2-2.24-3.93-2.7a12.32,12.32,0,0,1-5.78-2.62c-1.3-1.37-3-1.77-5.57-1.32-2.05.34-3.72.13-3.72-.47a1.14,1.14,0,0,1,.84-1.19,29.23,29.23,0,0,0,3.07-.71c6-1.64,10.34-1.68,11.83-.11.87.9,4.22,2.64,7.45,3.86s5.87,2.81,5.87,3.54-2.27,1.88-5,2.54C235.27,298,234.71,297.9,234.71,296.09ZM842,260.21a3,3,0,0,0-2.67-1.7c-2.52,0-3.45-1.38-2.28-3.36.79-1.35,3-2.18,6.37-2.42.68,0,3.8-2.73,6.92-6,3.26-3.38,6-5.35,6.39-4.65a3,3,0,0,1-.63,2.93c-.74.94-1,1.71-.52,1.71s0,1.31-1,2.9a12.82,12.82,0,0,0-1.83,5.58c0,4-1.2,5.18-5.9,6C843.68,261.72,842.4,261.46,842,260.21ZM489.12,241.48c-.36-1-.47-1.76-.26-1.76a6.39,6.39,0,0,1,1.78,1.76c.8,1,.91,1.76.26,1.76S489.47,242.45,489.12,241.48Zm-15.25-7c0-1,.2-1.76.44-1.76s.73.79,1.09,1.76.15,1.76-.44,1.76S473.87,235.4,473.87,234.43ZM858,228.33c-1.47-.41-1.8-1.22-1.25-3.1a26.49,26.49,0,0,1,.89-2.75,19,19,0,0,1,4,.62c3.89.83,6.18,3.7,3,3.7-1,0-1.77.52-1.77,1.17,0,1.21-1.31,1.31-4.8.36Zm4.65-15.24c-1.1-1.39-1.53-5.83-1.53-15.88,0-19.75,1.32-22.44,3.34-6.83a24.66,24.66,0,0,0,2.32,7.91c1.46,2.35,1.4,3.07-.56,6.93-1.59,3.1-1.9,4.9-1.13,6.41,1.42,2.8-.49,3.94-2.44,1.46ZM292.39,197.94c-.37-1-1.12-1.54-1.67-1.19s-1.54,0-2.19-.86c-.88-1.11-.62-2.53,1-5.28,1.2-2.06,2.68-3.75,3.3-3.75,1.84,0,7.85,7.23,7.85,9.44,0,3.54-7,4.94-8.26,1.64Zm146.38-12.26a63.4,63.4,0,0,0,.94-6.62,8.76,8.76,0,0,1,1.38-4.11c1.36-1.76.07-6.89-1.74-6.89-.58,0-1.39-1.58-1.8-3.51s-1.48-4-2.38-4.49c-1.68-1-1.69-5.37,0-8.15,1.2-2,5.95-1.85,6.71.23a15.26,15.26,0,0,1,0,5.64c-.48,3.1,0,4.71,2.23,7.49a21.33,21.33,0,0,1,3.57,6.64,10,10,0,0,0,2.31,4.47c1.94,1.7,2,6.27.17,7.83a17.4,17.4,0,0,1-5.87,2c-2.46.47-4.88,1.47-5.38,2.21s-.55-.49-.11-2.75Zm-14.59-8.42c.76-3.68,5.34-10.79,6.3-9.78.24.25.24,2.62,0,5.26-.35,3.91-1.05,5.13-3.77,6.61l-3.34,1.81.81-3.9ZM89.42,168.58c0-1,.5-1.5,1.12-1.1a2.54,2.54,0,0,1,1.11,1.83,1.11,1.11,0,0,1-1.11,1.1C89.92,170.41,89.42,169.59,89.42,168.58Zm-6.15-11.09c-.38-.64-.16-1.17.5-1.17A1.18,1.18,0,0,1,85,157.49c0,.65-.22,1.18-.49,1.18S83.65,158.14,83.27,157.49Zm238.9-24.62c-6.41-1.63-6-.78-13.44-27.06-1-3.56-2.24-7-2.73-7.58-2.14-2.7-.87-11.12,2.47-16.32,4.16-6.49,4.18-8,.13-11.63-3.64-3.22-5.31-7.34-3.46-8.54.68-.44,2.21.13,3.41,1.27s2.48,1.74,2.85,1.34c1.27-1.33-.75-9-2.37-9a3.65,3.65,0,0,1-2.63-2c-.89-1.67-1.36-1.75-2.8-.49-2.76,2.4-4.07.47-4.07-6,0-4.07-.63-6.73-2-8.27s-2-4.28-2-7.79c0-3-.46-6.17-.94-7a40.48,40.48,0,0,1-2.16-6.93c-1-4.11-2.15-6-4.74-7.58-3.64-2.22-12-2.93-18-1.53-3.17.74-3.73.45-5.31-2.76A23,23,0,0,1,262.65.73c0-.35,29.61-.64,65.8-.64h65.8l.87,3.82c1.35,5.89.79,9.46-1.78,11.5s-2.77,9-.21,8.46c2.07-.43,1.69,1.41-.76,3.75-1.19,1.13-1.89,2.8-1.56,3.71.68,1.88.84,1.84-11,2.63-4.16.27-5,3.48-1.36,4.95,2.48,1,2.81,1.67,2.24,4.64-.53,2.8-.18,3.74,1.82,4.82,4.61,2.5,7.51,6.11,7.51,9.35,0,3.75-2.72,5.33-4.74,2.74-3.19-4.1-5.36-6.34-6.15-6.33-.46,0-1.73,1.64-2.81,3.64-1.22,2.25-2.57,3.4-3.55,3-1.73-.7-4.41,1.91-3.23,3.15.41.43,2.15.77,3.87.77A4.61,4.61,0,0,1,377.76,67c.78,1.54,2.34,2.35,4.51,2.35,2.5,0,3.31.55,3.31,2.21,0,3-2,4.51-8.07,5.94a21.34,21.34,0,0,0-9.45,5.34c-2.35,2.27-5.27,4.13-6.5,4.13-1.91,0-6.31,5.23-11.5,13.62a12.92,12.92,0,0,1-4.12,2.94c-2.29,1.14-3.88,3.25-5.12,6.79-1,2.82-3,6-4.4,7.18-1.74,1.38-2.39,2.83-2,4.44.81,3.27-3.68,11.38-6.43,11.63a22.49,22.49,0,0,1-5.83-.74Zm-54.9-11c-1.13-1.43-2.6-1.76-5.59-1.26-3.94.66-4.21.47-8.55-6.17s-4.75-6.87-9.39-7.09c-10.4-.48-8.46-10.06,2.26-11.14,3.67-.37,3.8-.54,3.83-5.49,0-2.82-.56-6-1.3-7-1.2-1.72-1.63-1.58-4.27,1.41s-3.12,3.2-5.41,1.61c-5-3.5-2.64-6.76,5.26-7.19,3.63-.21,3.12-2.5-.9-4-2.1-.8-4.1-2.22-4.44-3.16a1.74,1.74,0,0,0-2.34-1c-1.12.45-1.72,0-1.72-1.23,0-2.09-4.16-4.24-6.44-3.33a3.4,3.4,0,0,1-3-.84,4.5,4.5,0,0,0-3.95-.62c-1.72.58-3.73-.4-7.6-3.68a69.9,69.9,0,0,1-6.16-5.68c-.49-.66-.64-4.91-.33-9.43.5-7.1,1-8.6,3.63-11,2.92-2.66,3.1-2.68,4.55-.61a7.42,7.42,0,0,1,.82,5.42c-.91,4.38,2,4.39,5.61,0l2.66-3.23L225.64,40c2.37,6,4.17,7.33,9,6.85,2.5-.25,4.54-.15,4.54.23s2.55.69,5.67.69c6.68,0,8.05,1.5,7.09,7.79-.61,4-.44,4.41,1.95,4.41,3.82,0,11,8.17,11,12.52,0,1.9-.52,4-1.17,4.68-.81.86.32,1.83,3.74,3.2,2.71,1.08,5.54,3.22,6.32,4.75s3.38,3.59,5.77,4.58c3.06,1.26,4.15,2.31,3.7,3.56a6.44,6.44,0,0,0,.63,4.28c2,4-.43,6.11-6.53,5.71-5.93-.38-6.66.79-4.58,7.4,1.15,3.65,1.16,4.89.06,6s-1.69,1-2.83-.63c-1.52-2.16-5.11-2.83-5.11-.94,0,.61,1.05,1.88,2.34,2.83a4.48,4.48,0,0,1,2,3.77c-.36,1.9-.5,1.91-1.91.12ZM216,114.94c-4.29-3.17-4.51-5.06-1.1-9.54l2.54-3.34,5.28,2.7c4,2,5.27,3.33,5.27,5.39s-.64,2.7-2.33,2.7a6.3,6.3,0,0,0-4.19,2.38l-1.86,2.38L216,114.94Zm182.43-1.19a22,22,0,0,0-6.71-2c-4.37-.62-4.48-.75-4.82-5.79-.44-6.44.6-7.58,5.29-5.86,2.73,1,3.88,1,4.46,0,.43-.73,3-1.64,5.75-2,4.32-.62,5.38-.31,8.1,2.34C414.18,104,413.85,105,407,111c-5.4,4.72-5.42,4.73-8.55,2.79ZM589.63,78.93c-.35-.59.12-1.37,1-1.74s1.67-.2,1.67.39C592.34,79.17,590.35,80.16,589.63,78.93Zm-447.4-5.38C135,70,134.71,67.76,141.39,66c3.3-.87,5-2,5-3.18,0-1.54-1.21-1.79-7-1.45l-7,.4.37-6.46c.52-8.9,2.23-11.26,9.33-12.86,5.31-1.2,6-1.11,7.58.92a9.91,9.91,0,0,0,4.79,3c1.69.42,3.09,1.41,3.12,2.2s1.65,2.52,3.63,3.82,3.74,3.45,3.92,4.77,1.81,3.32,3.62,4.45c3.82,2.37,5.1,6.3,3.58,11-.86,2.62-1.61,3.18-3.74,2.76-4-.78-13.38-.63-17.2.27C149,76.17,146.44,75.59,142.23,73.55Zm39.39,1.72c-1-1.69.38-3.53,2.58-3.49,2.37,0,6,2.87,5,3.9C188.1,76.88,182.39,76.57,181.62,75.27ZM607.37,63.61c-.58-.6-2.56-1.26-4.39-1.47a5.45,5.45,0,0,1-3.58-9,8.35,8.35,0,0,0,1.92-4.44,9.18,9.18,0,0,1,1.57-4.39c1.3-1.8,1.89-1.9,3.8-.65,1.71,1.13,2,2,1.2,3.56-.67,1.32-.63,3.9.12,7.11,2.11,9.1,2.27,10.32,1.34,10.32A3.55,3.55,0,0,1,607.37,63.61ZM969.87,61c-1.42-1.31-2-2.07-1.27-1.69a1.11,1.11,0,0,0,1.67-.47c.54-1.64,5.41-.07,5.41,1.73C975.68,63.24,972.51,63.47,969.87,61ZM115.61,54.37c-2.58-1.83-4.61-6.32-4.11-9.08.29-1.6.92-2.91,1.39-2.91,1.27,0,2.46-4.77,2.26-9-.28-5.84,3.35-6.9,15.17-4.44,2.79.58,8.27,6.08,8.27,8.29,0,.86-2.23,3.3-5,5.42s-5.46,5.26-6.05,7-2,3.38-3.13,3.7C119.12,54.84,116.69,55.13,115.61,54.37Zm64-1a4.56,4.56,0,0,1-.75-2.64c0-1-1.64-2.85-3.63-4.05l-3.63-2.19,2.52-1.77a6.15,6.15,0,0,0,2.51-4.64c0-2.53.43-2.83,3.63-2.5s3.69.86,4,3.89a8.41,8.41,0,0,0,2.16,5c1.67,1.35,1.67,1.78-.05,5.58s-4.82,5.36-6.75,3.33Zm12-10.67A16.74,16.74,0,0,0,190,38.26c-1.14-1.6.7-6.35,2.79-7.2a5.42,5.42,0,0,1,3.66.21,22,22,0,0,0,4.19,1.31,25.06,25.06,0,0,1,3.55.93c2.07.79.41,5-2.83,7.23a15.14,15.14,0,0,0-3.85,3.58C195.89,47.15,192.34,46.16,191.55,42.67ZM234,39.77c-2.3-1.71-3.44-3.51-3.34-5.28.18-3.3.74-3.34,4.47-.25,1.62,1.34,2.94,2.07,2.94,1.62s.74-.17,1.65.62c1.23,1.07,1.36,2,.52,3.67-1.44,2.83-2,2.79-6.24-.38Zm622.63-2.14c-1-1.68,1.54-4.65,4-4.65,2.09,0,3.78,3,2.72,4.8C862.43,39.25,857.51,39.13,856.62,37.63ZM606.87,34.84a3.05,3.05,0,0,1,1-2.35c.53-.35,1.24-2.78,1.57-5.4.74-5.78,3.52-10.56,6.15-10.56,1.08,0,2.91-1.93,4.16-4.4,2.18-4.28,2.42-4.41,8.78-4.57,4.72-.11,7.42-.84,9.73-2.64,3.77-2.93,5.06-3.1,5.91-.76.68,1.86-3.47,5.88-7.44,7.2a16.52,16.52,0,0,0-5.33,4.1,15.25,15.25,0,0,1-6.17,4.12c-2.86.72-12.74,10.32-12.74,12.36,0,.42-1.26,1.63-2.8,2.69C607.3,36.26,606.87,36.29,606.87,34.84ZM210.68,25.39c-1.84-.86-4.71-2.12-6.37-2.8-2.66-1.11-3.1-2.07-3.78-8.43-.75-6.94-.91-7.23-5-8.95C190.19,3,188.81.07,193.11.13a9.93,9.93,0,0,1,5.21,1.76,8.18,8.18,0,0,0,4.19,1.72c1.11,0,2,.66,2.06,1.47.08,3.56,3.18,5.51,10.66,6.71,4.26.68,10.13,1.82,13.05,2.52,4.86,1.18,5.31,1.57,5.31,4.76q0,3.48-1.29,2.64c-.7-.46-1.92.08-2.7,1.2-1.13,1.62-1.88,1.77-3.69.75s-3-.79-6,1.08C215.7,27.46,215.19,27.5,210.68,25.39Zm-67-3.32.73-4.1-5.13.61c-4.75.56-5.13.41-5.13-2a34.34,34.34,0,0,1,1.3-7.2c1.47-5.15,3.9-5.89,7.11-2.17,1.51,1.76,2.27,2,2.9.93s1.42-.91,3.14.73c2.26,2.15,2.32,2.12,4-2.1.93-2.36,1.9-4.28,2.13-4.28s1.48,1.85,2.75,4.11c1.45,2.59,3.16,4.11,4.61,4.11,3.19,0,3.85,2.64,1.73,6.94-1.94,3.95-3.66,4.64-4.67,1.87-.65-1.76-3.88-2.55-3.63-.88.64,4.27-.22,5.28-3.92,4.65a8.06,8.06,0,0,0-6.22,1.14C143,26.13,142.94,26.09,143.65,22.07Zm704.79,1.66-3.74-2.09,3.74-4.12c3.08-3.39,4.57-4.13,8.38-4.17s4.84.44,5.88,2.83c1.65,3.81.74,5.05-3.74,5.05-2.41,0-4.25.81-5.24,2.29C852.23,25.74,852.07,25.75,848.44,23.73Zm-657.09-.82A11.27,11.27,0,0,1,188,17.36c-1.22-4.93-4.7-5.85-4.7-1.24V19.4l-2.4-2.52c-2.19-2.3-2.62-2.37-4.93-.78s-2.56,1.57-3.26-1.75a16.7,16.7,0,0,0-2.89-6.12c-2.89-3.51-2.76-5.09.35-4a14.13,14.13,0,0,0,9.43,0c2.07-.72,2.72-.19,4.14,3.38.92,2.33,2.42,4.23,3.33,4.23,3.12,0,8.59,5.93,8.21,8.89C194.79,24.6,194.13,25,191.35,22.91Zm683.18-.5c-.37-.65.32-1.18,1.55-1.18A3.73,3.73,0,0,1,879,22.41c.38.64-.32,1.17-1.55,1.17A3.76,3.76,0,0,1,874.53,22.41ZM229.25,5.31c-2.88-2.55-3.76-2.8-5.82-1.64a4.84,4.84,0,0,1-5.07.09C212.85,1.12,215.55,0,226.59.34c9,.28,10.95.67,11.23,2.25.35,1.92-2.45,5.72-4.22,5.72C233.07,8.31,231.12,7,229.25,5.31Zm-106.08.41a5.82,5.82,0,0,1-1.34-3.52c0-1.73.94-2.11,5.22-2.11,2.86,0,5,.13,4.74.29s-2,1.75-3.88,3.52C125.27,6.41,124.21,6.82,123.17,5.72Z" fill="#99c2ff"/></svg>